<svg width="18" height="15" viewBox="0 0 18 15" fill="none" xmlns="http://www.w3.org/2000/svg">
<path d="M6.38045 0L0 2.83576L2.48129 4.25363L0 5.67151L2.83576 7.08939V11.343L8.86174 14.1788L14.5333 11.343L14.8877 7.08939L16.6601 5.67151L14.8877 4.25363L17.369 2.83576L11.343 0L8.86174 1.41788L6.38045 0Z" fill="white"/>
<path fill-rule="evenodd" clip-rule="evenodd" d="M15.0244 4.58216L9.14048 7.34492L3.3077 4.58216L9.19158 1.8194L15.0244 4.58216Z" fill="#08B2FF"/>
<path fill-rule="evenodd" clip-rule="evenodd" d="M9.19124 1.8194L15.024 4.58216L9.14014 7.34492" fill="#08B2FF"/>
<path fill-rule="evenodd" clip-rule="evenodd" d="M15.0244 4.58216L9.14048 7.34492L3.3077 4.58216L9.19158 1.8194L15.0244 4.58216Z" stroke="#3F4A54" stroke-width="0.8" stroke-linecap="round" stroke-linejoin="round"/>
<path fill-rule="evenodd" clip-rule="evenodd" d="M9.14047 14.2314L3.3077 11.4686V4.57841L9.14047 7.34181V14.2314Z" stroke="#3F4A54" stroke-width="0.8" stroke-linecap="round" stroke-linejoin="round"/>
<path fill-rule="evenodd" clip-rule="evenodd" d="M0.580029 5.84907L4.92385 7.9071L5.26391 8.06799L6.4128 8.61183L9.14023 7.33171L3.28664 4.57841L0.580029 5.84907Z" fill="white"/>
<path d="M5.26404 8.07221L4.92398 7.91132L0.580153 5.85329L3.28676 4.58264L9.14035 7.33593L6.41293 8.61668" stroke="#3F4A54" stroke-width="0.8" stroke-linecap="round" stroke-linejoin="round"/>
<path d="M1.78685 2.76982L0.643642 3.31114L3.35088 4.58242L9.20384 1.82913L6.47705 0.548377L3.06192 2.1654" stroke="#3F4A54" stroke-width="0.8" stroke-linecap="round" stroke-linejoin="round"/>
<path fill-rule="evenodd" clip-rule="evenodd" d="M9.0342 14.2356L14.8663 11.4728V4.58264L9.0342 7.34603V14.2356Z" stroke="#3F4A54" stroke-width="0.8" stroke-linecap="round" stroke-linejoin="round"/>
<path fill-rule="evenodd" clip-rule="evenodd" d="M13.5911 7.74559L17.5936 5.8497L14.8877 4.57841L9.03407 7.33171L11.7615 8.61246L12.5432 8.24212" fill="white"/>
<path d="M13.5908 7.74981L17.5933 5.85392L14.8873 4.58264L9.0337 7.33593L11.7611 8.61668L12.5428 8.24634" stroke="#3F4A54" stroke-width="0.8" stroke-linecap="round" stroke-linejoin="round"/>
<path d="M13.6743 1.48465L17.5298 3.31114L14.8232 4.58179L8.97027 1.8285L11.6971 0.548377L12.4239 0.892224" stroke="#3F4A54" stroke-width="0.8" stroke-linecap="round" stroke-linejoin="round"/>
</svg>
