<svg width="36" height="36" viewBox="0 0 36 36" fill="none" xmlns="http://www.w3.org/2000/svg">
<rect width="36" height="36" fill="white" fill-opacity="0.01"/>
<path fill-rule="evenodd" clip-rule="evenodd" d="M9.44057 7.78589L4.18457 15.7221H32.1062L27.1382 7.78589H9.44057Z" fill="#FF9849"/>
<path fill-rule="evenodd" clip-rule="evenodd" d="M32.1059 15.7225H4.18518L9.44028 7.78625H27.1379L32.1059 15.7225Z" stroke="#3F4A54" stroke-width="1.3" stroke-linecap="round" stroke-linejoin="round"/>
<path d="M30.9571 19.4416V15.7228" stroke="#3F4A54" stroke-width="1.3" stroke-linecap="round" stroke-linejoin="round"/>
<path d="M30.9571 22.4438V21.1316" stroke="#3F4A54" stroke-width="1.3" stroke-linecap="round" stroke-linejoin="round"/>
<path d="M5.72197 15.7228V23.5879" stroke="#3F4A54" stroke-width="1.3" stroke-linecap="round" stroke-linejoin="round"/>
<path d="M16.8057 15.7224V20.0487" stroke="#3F4A54" stroke-width="1.3" stroke-linecap="round" stroke-linejoin="round"/>
<path d="M16.8057 21.873V23.5884" stroke="#3F4A54" stroke-width="1.3" stroke-linecap="round" stroke-linejoin="round"/>
<path fill-rule="evenodd" clip-rule="evenodd" d="M9.2616 20.4773V27.5918L13.5159 27.3425V20.4773H9.2616Z" fill="#FF9849"/>
<path d="M9.26099 27.5922V20.4777H13.5162V27.3429" stroke="#3F4A54" stroke-width="1.3" stroke-linecap="round" stroke-linejoin="round"/>
<path d="M16.8055 25.2692V27.593H5.72205V25.0199" stroke="#3F4A54" stroke-width="1.3" stroke-linecap="round" stroke-linejoin="round"/>
<path fill-rule="evenodd" clip-rule="evenodd" d="M21.5249 23.9458H25.3859V20.335H21.5249V23.9458Z" fill="#FF9849"/>
<path fill-rule="evenodd" clip-rule="evenodd" d="M21.5249 23.9458H25.3859V20.335H21.5249V23.9458Z" stroke="#3F4A54" stroke-width="1.3" stroke-linecap="round" stroke-linejoin="round"/>
<mask id="mask0_3244_13024" style="mask-type:luminance" maskUnits="userSpaceOnUse" x="25" y="23" width="8" height="5">
<path fill-rule="evenodd" clip-rule="evenodd" d="M25.009 23.1743H32.9418V27.6884H25.009V23.1743Z" fill="white"/>
</mask>
<g mask="url(#mask0_3244_13024)">
<path fill-rule="evenodd" clip-rule="evenodd" d="M25.923 27.4844C24.3498 26.7338 25.0095 24.7538 26.3793 25.076C26.7357 23.1815 29.0685 22.4255 30.8262 24.1058L30.9576 24.5612C30.9576 24.5612 31.7658 24.4073 32.4111 24.842C33.2922 25.4369 32.9817 26.9642 32.1708 27.4097C31.3608 27.8561 31.6569 27.6167 30.8262 27.6779C29.9955 27.7391 25.923 27.4844 25.923 27.4844Z" fill="#FF9849"/>
</g>
<path d="M27.9181 27.5923H19.4869" stroke="#3F4A54" stroke-width="1.3" stroke-linecap="round" stroke-linejoin="round"/>
<path d="M30.9573 27.5923H29.6757" stroke="#3F4A54" stroke-width="1.3" stroke-linecap="round" stroke-linejoin="round"/>
<path d="M25.9231 27.5924C24.3499 26.8418 25.0096 24.8618 26.3794 25.184C26.7358 23.2895 29.0686 22.5335 30.8263 24.2129" stroke="#3F4A54" stroke-width="1.3" stroke-linecap="round" stroke-linejoin="round"/>
<path d="M30.9575 24.3034H32.1059" stroke="#3F4A54" stroke-width="1.3" stroke-linecap="round" stroke-linejoin="round"/>
</svg>
