<svg width="24" height="24" viewBox="0 0 24 24" fill="none" xmlns="http://www.w3.org/2000/svg">
<path d="M15.3 8.3L11.112 12.5L8.86804 10.16C8.77798 10.0615 8.66913 9.98209 8.5479 9.92635C8.42666 9.8706 8.2955 9.83968 8.16213 9.83541C8.02877 9.83114 7.89589 9.8536 7.77134 9.90148C7.64679 9.94935 7.53308 10.0217 7.43691 10.1142C7.34074 10.2067 7.26405 10.3175 7.21137 10.4401C7.15869 10.5627 7.13107 10.6946 7.13015 10.828C7.12923 10.9614 7.15502 11.0937 7.20601 11.217C7.257 11.3403 7.33215 11.4522 7.42704 11.546L9.73304 13.946C9.90501 14.1318 10.1129 14.2807 10.3441 14.3838C10.5752 14.487 10.8249 14.5421 11.078 14.546H11.111C11.3591 14.5468 11.6048 14.4984 11.834 14.4034C12.0632 14.3085 12.2712 14.169 12.446 13.993L16.718 9.721C16.8113 9.62789 16.8854 9.51732 16.936 9.39559C16.9865 9.27387 17.0126 9.14337 17.0128 9.01156C17.0129 8.87975 16.9871 8.7492 16.9368 8.62736C16.8865 8.50553 16.8126 8.3948 16.7195 8.3015C16.6264 8.20819 16.5159 8.13414 16.3941 8.08357C16.2724 8.033 16.1419 8.0069 16.0101 8.00676C15.8783 8.00662 15.7477 8.03245 15.6259 8.08276C15.5041 8.13307 15.3933 8.20689 15.3 8.3Z" fill="white"/>
</svg>
