<svg width="26" height="26" viewBox="0 0 26 26" fill="none" xmlns="http://www.w3.org/2000/svg">
<path d="M5.39026 8.87799L6.34148 7.6097L8.15715 7.30708L9.19514 7.6097L10.1464 10.7804L11.0976 11.0975L11.7317 9.82921L12.6829 7.6097L14.2683 6.65848L14.5854 5.70726L13.9512 4.75604L14.5854 4.43896L17.122 5.07311L17.7561 6.02433L16.4878 6.97555L17.439 8.87799L16.8049 12.3658L14.2683 12.0487L13 12.3658L11.4146 11.7316L10.4634 12.6829H6.34148L5.70733 10.4634L5.39026 8.87799Z" fill="white"/>
<rect width="26" height="26" fill="white" fill-opacity="0.01"/>
<path fill-rule="evenodd" clip-rule="evenodd" d="M4.97217 11.9567C4.97217 11.9567 6.31637 13.3477 7.56892 12.0529C7.68137 11.9372 7.80747 11.8481 7.94137 11.7929C8.18447 11.6915 8.55107 11.6284 8.90792 11.9099C8.94042 11.9365 8.97097 11.9684 9.00022 12.0022C9.19587 12.2297 10.1176 13.1884 10.9496 12.0912C11.049 11.9599 11.1641 11.854 11.2921 11.7851C11.5281 11.6564 11.8856 11.5836 12.2255 11.9918C13.0757 13.2437 14.0455 12.2362 14.2464 12.0022C14.2756 11.9684 14.3055 11.9365 14.3387 11.9105C14.6955 11.6284 15.0615 11.6915 15.3046 11.7929C15.4391 11.8481 15.5652 11.9372 15.6777 12.0529C16.9296 13.3477 18.2744 11.9567 18.2744 11.9567L17.7219 19.7658C17.7219 19.7658 17.7219 21.5455 16.2913 21.5104L6.95532 21.5097C5.52467 21.5448 5.52467 19.7658 5.52467 19.7658L5.21787 14.7055" fill="#5FCA76"/>
<path fill-rule="evenodd" clip-rule="evenodd" d="M14.799 21.4469V18.6064V17.6119C14.799 15.1348 16.3551 12.4769 18.2746 12.4769V11.8269L17.1962 20.8223C17.1501 21.183 16.9083 21.4469 16.6255 21.4469H14.799Z" fill="#5FCA76"/>
<path d="M10.0806 10.8529L9.06397 7.6764C8.78447 7.0537 7.36227 7.31175 6.73957 7.59125C6.11687 7.87075 4.97937 8.7619 5.25887 9.3846L6.12792 10.9634" stroke="#3F4A54" stroke-width="0.8" stroke-linecap="round" stroke-linejoin="round"/>
<path d="M6.0329 10.0951L7.446 9.46068" stroke="#3F4A54" stroke-width="0.8" stroke-linecap="round" stroke-linejoin="round"/>
<path d="M8.57068 10.2984L9.68088 9.79985" stroke="#3F4A54" stroke-width="0.8" stroke-linecap="round" stroke-linejoin="round"/>
<path d="M6.05017 6.93764L6.73982 7.59284L6.72032 6.00684" stroke="#3F4A54" stroke-width="0.8" stroke-linecap="round" stroke-linejoin="round"/>
<path d="M16.775 11.343L17.1358 9.99942C17.4582 9.05107 17.1871 8.04552 16.5352 7.36627L16.868 6.38867L14.6326 5.62817L14.2998 6.60512C13.369 6.74552 12.5403 7.37602 12.2172 8.32437L11.2754 10.8074" stroke="#3F4A54" stroke-width="0.8" stroke-linecap="round" stroke-linejoin="round"/>
<path d="M11.9592 9.59951C12.318 9.75811 12.7022 9.91996 13.0896 9.86016C13.3866 9.81466 13.6479 9.64436 13.9235 9.52541C13.9235 9.52541 15.5258 8.34891 16.8147 10.425" stroke="#3F4A54" stroke-width="0.8" stroke-linecap="round" stroke-linejoin="round"/>
<path fill-rule="evenodd" clip-rule="evenodd" d="M16.9779 6.41797L14.528 5.58402C14.218 5.47807 14.0503 5.13747 14.1556 4.82742L14.1907 4.72537C14.2966 4.41532 14.6366 4.24762 14.9473 4.35357L17.3971 5.18752C17.7072 5.29347 17.8742 5.63342 17.7689 5.94412L17.7338 6.04552C17.6285 6.35622 17.2886 6.52392 16.9779 6.41797Z" stroke="#3F4A54" stroke-width="0.8" stroke-linecap="round" stroke-linejoin="round"/>
<path d="M4.97217 11.9567C4.97217 11.9567 6.31637 13.3477 7.56892 12.0529C7.68137 11.9372 7.80747 11.8481 7.94137 11.7929C8.18447 11.6915 8.55107 11.6284 8.90792 11.9099C8.94042 11.9365 8.97097 11.9684 9.00022 12.0022C9.19587 12.2297 10.1176 13.1884 10.9496 12.0912C11.049 11.9599 11.1641 11.854 11.2921 11.7851C11.5281 11.6564 11.8856 11.5836 12.2255 11.9918C13.0757 13.2437 14.0455 12.2362 14.2464 12.0022C14.2756 11.9684 14.3055 11.9365 14.3387 11.9105C14.6955 11.6284 15.0615 11.6915 15.3046 11.7929C15.4391 11.8481 15.5652 11.9372 15.6777 12.0529C16.9296 13.3477 18.2744 11.9567 18.2744 11.9567L17.7219 19.7658C17.7219 19.7658 17.7219 21.5455 16.2913 21.5104L6.95532 21.5097C5.52467 21.5448 5.52467 19.7658 5.52467 19.7658L5.21787 14.7055" stroke="#3F4A54" stroke-width="0.8" stroke-linecap="round" stroke-linejoin="round"/>
<path d="M18.9702 21.5105H8.97583" stroke="#3F4A54" stroke-width="0.8" stroke-linecap="round" stroke-linejoin="round"/>
<path d="M15.2794 15.3584L14.9206 21.3436" stroke="#3F4A54" stroke-width="0.8" stroke-linecap="round" stroke-linejoin="round"/>
</svg>
