<svg width="27" height="26" viewBox="0 0 27 26" fill="none" xmlns="http://www.w3.org/2000/svg">
<rect width="27.0001" height="25.4688" fill="white" fill-opacity="0.01"/>
<path d="M17.7645 10.9531H19.3784" stroke="#F1775D" stroke-linecap="round" stroke-linejoin="round"/>
<path d="M10.0282 10.9531H16.4354" stroke="#F1775D" stroke-linecap="round" stroke-linejoin="round"/>
<path d="M10.0282 12.8633H19.3784" stroke="#F1775D" stroke-linecap="round" stroke-linejoin="round"/>
<path d="M10.0282 14.7736H19.3784" stroke="#F1775D" stroke-linecap="round" stroke-linejoin="round"/>
<path d="M13.1243 16.6838H19.3789" stroke="#F1775D" stroke-linecap="round" stroke-linejoin="round"/>
<path d="M10.0282 16.6838H11.3094" stroke="#F1775D" stroke-linecap="round" stroke-linejoin="round"/>
<path d="M10.0282 18.5935H19.3784" stroke="#F1775D" stroke-linecap="round" stroke-linejoin="round"/>
<path d="M9.58157 4.78593C9.32074 4.88344 9.18835 5.17394 9.28586 5.43476C9.38338 5.69559 9.67387 5.82798 9.93469 5.73047L9.58157 4.78593ZM10.0896 5.1334L10.2661 5.60567L10.2665 5.60551L10.0896 5.1334ZM10.722 4.90291L10.8354 5.3942L10.8367 5.39389L10.722 4.90291ZM11.3802 4.84178L11.305 5.34035L11.3057 5.34045L11.3802 4.84178ZM16.6884 4.84178L16.6145 4.34303L16.6134 4.34319L16.6884 4.84178ZM17.3438 4.9131L17.5173 4.43969L17.516 4.4392L17.3438 4.9131ZM23.0813 7.04611L23.2578 6.5738L23.2575 6.57372L23.0813 7.04611ZM23.5302 7.80508L23.0379 7.69593L23.0378 7.69655L23.5302 7.80508ZM22.8154 10.9314L23.3068 11.0441L23.3069 11.0437L22.8154 10.9314ZM22.3037 11.2052L22.2069 11.7L22.2072 11.7L22.3037 11.2052ZM21.7379 10.5811C21.4647 10.5275 21.1997 10.7056 21.1461 10.9789C21.0925 11.2521 21.2706 11.5171 21.5438 11.5707L21.7379 10.5811ZM20.3635 11.3432C20.6369 11.3957 20.9012 11.2166 20.9537 10.9432C21.0062 10.6697 20.8271 10.4054 20.5536 10.3529L20.3635 11.3432ZM20.1211 10.7831L20.027 11.2785L20.0281 11.2787L20.1211 10.7831ZM19.7275 10.7201L19.8065 10.2221C19.6608 10.199 19.5123 10.2409 19.4001 10.3367C19.2879 10.4325 19.2233 10.5726 19.2233 10.7201H19.7275ZM19.1565 20.6421L19.1566 21.1463H19.1571L19.1565 20.6421ZM8.87148 20.6421L8.87157 20.1379H8.87148V20.6421ZM8.8431 20.1302C8.8431 19.8517 8.61736 19.626 8.3389 19.626C8.06044 19.626 7.83471 19.8517 7.83471 20.1302H8.8431ZM7.83392 18.9364C7.83392 19.2149 8.05965 19.4406 8.33811 19.4406C8.61657 19.4406 8.84231 19.2149 8.84231 18.9364H7.83392ZM8.33879 10.7093H8.84298C8.84298 10.559 8.77589 10.4165 8.66002 10.3207C8.54414 10.2249 8.39157 10.1859 8.24392 10.2142L8.33879 10.7093ZM6.76468 11.0118L6.66964 10.5166L6.66946 10.5167L6.76468 11.0118ZM5.72113 11.2117L5.8146 11.7072L5.81548 11.707L5.72113 11.2117ZM5.24526 10.9354L4.75395 11.0487L4.75403 11.049L5.24526 10.9354ZM4.45685 7.57541L3.96554 7.68864L3.96577 7.68965L4.45685 7.57541ZM4.78018 7.12461L4.60406 6.65218L4.60403 6.65219L4.78018 7.12461ZM8.15924 5.85881L7.98306 5.3864L7.98176 5.38688L8.15924 5.85881ZM8.8587 6.13455C9.1193 6.03641 9.25099 5.7456 9.15286 5.48501C9.05472 5.22442 8.76392 5.09272 8.50332 5.19085L8.8587 6.13455ZM9.93469 5.73047C9.99102 5.70941 10.047 5.68824 10.1021 5.66744C10.1574 5.64654 10.2117 5.626 10.2661 5.60567L9.91299 4.66113C9.85667 4.68219 9.80066 4.70336 9.74561 4.72416C9.69029 4.74506 9.63594 4.7656 9.58157 4.78593L9.93469 5.73047ZM10.2665 5.60551C10.5443 5.50139 10.6588 5.43493 10.8354 5.3942L10.6087 4.41162C10.3492 4.47149 10.056 4.60751 9.91256 4.66129L10.2665 5.60551ZM10.8367 5.39389C11.0483 5.34447 11.1984 5.32427 11.305 5.34035L11.4553 4.34322C11.1394 4.29562 10.8211 4.36201 10.6074 4.41193L10.8367 5.39389ZM11.3057 5.34045C13.1252 5.612 14.9427 5.61405 16.7633 5.34038L16.6134 4.34319C14.8929 4.60182 13.1761 4.60004 11.4546 4.34311L11.3057 5.34045ZM16.7623 5.34053C16.8825 5.32272 17.043 5.34026 17.1716 5.38699L17.516 4.4392C17.245 4.34076 16.9154 4.29845 16.6145 4.34303L16.7623 5.34053ZM17.1703 5.3865C19.0848 6.08814 20.992 6.80481 22.9051 7.5185L23.2575 6.57372C21.3474 5.86115 19.4354 5.14266 17.5173 4.43969L17.1703 5.3865ZM22.9048 7.51841C22.9748 7.54455 23.0305 7.56544 23.0778 7.58426C23.1254 7.60319 23.1562 7.61673 23.1767 7.62693C23.2253 7.65115 23.1718 7.63565 23.1265 7.56076C23.0764 7.47804 23.0887 7.41198 23.0859 7.44514C23.0846 7.46048 23.0811 7.48689 23.0727 7.53149C23.0643 7.57562 23.0529 7.6283 23.0379 7.69593L24.0224 7.91423C24.0506 7.78724 24.0808 7.64974 24.0908 7.52868C24.1015 7.40097 24.0975 7.21771 23.9892 7.03876C23.8857 6.86766 23.7319 6.7769 23.6259 6.72414C23.5197 6.67128 23.3866 6.62194 23.2578 6.5738L22.9048 7.51841ZM23.0378 7.69655C22.8081 8.73856 22.5634 9.77118 22.3238 10.819L23.3069 11.0437C23.5439 10.007 23.7919 8.96005 24.0226 7.91361L23.0378 7.69655ZM22.3239 10.8187C22.3197 10.8372 22.3193 10.8252 22.337 10.8008C22.357 10.7731 22.3871 10.7478 22.4215 10.732C22.4522 10.7178 22.4713 10.718 22.4661 10.7182C22.4601 10.7184 22.4396 10.718 22.4002 10.7103L22.2072 11.7C22.3734 11.7325 22.6126 11.7543 22.8439 11.6477C23.1086 11.5255 23.2502 11.2911 23.3068 11.0441L22.3239 10.8187ZM22.4005 10.7103C22.1766 10.6666 21.9595 10.6246 21.7379 10.5811L21.5438 11.5707C21.7637 11.6138 21.988 11.6572 22.2069 11.7L22.4005 10.7103ZM20.5536 10.3529C20.4449 10.332 20.3271 10.3088 20.214 10.2876L20.0281 11.2787C20.1391 11.2995 20.2467 11.3208 20.3635 11.3432L20.5536 10.3529ZM20.2151 10.2878C20.0914 10.2643 19.9549 10.2456 19.8065 10.2221L19.6486 11.2181C19.8295 11.2467 19.9226 11.2587 20.027 11.2785L20.2151 10.2878ZM19.2233 10.7201V11.0741H20.2317V10.7201H19.2233ZM19.2233 11.0741V20.0971H20.2317V11.0741H19.2233ZM19.2233 20.0971C19.2233 20.156 19.2226 20.2018 19.2208 20.2387C19.2189 20.2761 19.2164 20.2966 19.2147 20.3062C19.213 20.316 19.2139 20.3045 19.2239 20.2822C19.2351 20.2571 19.2557 20.2232 19.2895 20.1909C19.3229 20.1591 19.3557 20.1418 19.3763 20.1334C19.3945 20.126 19.4013 20.1263 19.3871 20.1286C19.3732 20.1307 19.3487 20.1334 19.3078 20.1352C19.2674 20.1371 19.2181 20.1378 19.1559 20.1379L19.1571 21.1463C19.286 21.1461 19.4228 21.1437 19.544 21.1247C19.6667 21.1053 19.8396 21.0597 19.9854 20.9207C20.1344 20.7786 20.1865 20.6048 20.2084 20.4776C20.2294 20.3558 20.2317 20.2201 20.2317 20.0971H19.2233ZM19.1564 20.1379C15.7281 20.1385 12.2998 20.1385 8.87157 20.1379L8.87138 21.1463C12.2998 21.1469 15.7282 21.1469 19.1566 21.1463L19.1564 20.1379ZM8.87148 20.1379C8.81397 20.1379 8.76894 20.1372 8.73242 20.1355C8.71449 20.1347 8.69994 20.1337 8.68815 20.1326C8.67631 20.1315 8.66837 20.1305 8.66352 20.1297C8.65864 20.1289 8.65818 20.1286 8.66108 20.1294C8.66403 20.1301 8.67151 20.1323 8.68216 20.1367C8.69298 20.1411 8.70724 20.148 8.72338 20.1583C8.73972 20.1686 8.75669 20.1816 8.77315 20.1975C8.78963 20.2134 8.80367 20.2303 8.81527 20.2473C8.82674 20.2641 8.83478 20.2795 8.84028 20.2919C8.84569 20.3041 8.84859 20.3132 8.84992 20.318C8.85124 20.3226 8.8513 20.3239 8.85075 20.3207C8.8502 20.3175 8.84927 20.3112 8.84825 20.3009C8.84725 20.2906 8.84628 20.2775 8.84547 20.261C8.84382 20.2272 8.8431 20.185 8.8431 20.1302H7.83471C7.83471 20.2453 7.83683 20.3747 7.85698 20.4918C7.87801 20.6139 7.92821 20.7836 8.07324 20.9234C8.21571 21.0608 8.38461 21.1062 8.50352 21.1253C8.62035 21.1441 8.75087 21.1463 8.87148 21.1463V20.1379ZM8.84231 18.9364C8.84231 17.7308 8.84248 16.3146 8.84264 14.9369C8.84281 13.5592 8.84298 12.22 8.84298 11.1684H7.83459C7.83459 12.2199 7.83442 13.5591 7.83426 14.9368C7.83409 16.3145 7.83392 17.7307 7.83392 18.9364H8.84231ZM8.84298 11.1684V10.7093H7.83459V11.1684H8.84298ZM8.24392 10.2142C7.6791 10.3224 7.17298 10.42 6.66964 10.5166L6.85972 11.5069C7.36484 11.41 7.86852 11.3128 8.43366 11.2045L8.24392 10.2142ZM6.66946 10.5167C6.32193 10.5835 5.97397 10.6503 5.62678 10.7164L5.81548 11.707C6.16354 11.6407 6.51219 11.5738 6.85991 11.5069L6.66946 10.5167ZM5.62766 10.7163C5.5936 10.7227 5.58059 10.7217 5.58302 10.7218C5.58704 10.7221 5.61314 10.7246 5.64806 10.7431C5.6855 10.7629 5.71292 10.7905 5.729 10.8146C5.74288 10.8353 5.74137 10.8429 5.73649 10.8218L4.75403 11.049C4.80518 11.2702 4.92656 11.502 5.17607 11.6342C5.40402 11.7549 5.64364 11.7394 5.8146 11.7072L5.62766 10.7163ZM5.73656 10.8221C5.47875 9.70394 5.20645 8.57239 4.94793 7.46117L3.96577 7.68965C4.22836 8.81841 4.49471 9.9243 4.75395 11.0487L5.73656 10.8221ZM4.94817 7.46218C4.94668 7.45571 4.9525 7.47641 4.9448 7.51375C4.93651 7.55393 4.9177 7.58853 4.89771 7.6124C4.88057 7.63286 4.86961 7.63714 4.88094 7.63047C4.89236 7.62374 4.91537 7.61231 4.95633 7.59703L4.60403 6.65219C4.47023 6.70208 4.27132 6.78983 4.12468 6.96489C3.94882 7.17484 3.90693 7.43433 3.96554 7.68864L4.94817 7.46218ZM4.9563 7.59704C6.08413 7.17659 7.21051 6.75427 8.33671 6.33074L7.98176 5.38688C6.85616 5.81019 5.73073 6.23216 4.60406 6.65218L4.9563 7.59704ZM8.33541 6.33122C8.51057 6.2659 8.68536 6.19982 8.8587 6.13455L8.50332 5.19085C8.32836 5.25674 8.15621 5.32183 7.98306 5.3864L8.33541 6.33122Z" fill="#3F4A54"/>
<path d="M10.9704 5.02933C10.9549 4.7513 10.717 4.53844 10.439 4.5539C10.1609 4.56935 9.94808 4.80727 9.96354 5.0853L10.9704 5.02933ZM14.2746 8.00597L14.248 7.50248L14.2476 7.5025L14.2746 8.00597ZM15.6462 8.18829C15.9026 8.07986 16.0226 7.78404 15.9142 7.52756C15.8058 7.27108 15.51 7.15107 15.2535 7.25951L15.6462 8.18829ZM16.3304 6.55853C16.1278 6.74949 16.1183 7.06859 16.3092 7.27126C16.5002 7.47393 16.8193 7.48343 17.0219 7.29247L16.3304 6.55853ZM18.0664 5.02905C18.0441 4.75149 17.801 4.54457 17.5234 4.56689C17.2458 4.58921 17.0389 4.83231 17.0612 5.10988L18.0664 5.02905ZM9.96354 5.0853C10.078 7.14436 12.1642 8.62411 14.3016 8.50944L14.2476 7.5025C12.516 7.5954 11.0463 6.39456 10.9704 5.02933L9.96354 5.0853ZM14.3013 8.50946C14.7646 8.48493 15.2222 8.36753 15.6462 8.18829L15.2535 7.25951C14.9214 7.39991 14.5784 7.48498 14.248 7.50248L14.3013 8.50946ZM17.0219 7.29247C17.6548 6.69617 18.1349 5.88101 18.0664 5.02905L17.0612 5.10988C17.0953 5.53391 16.8491 6.06986 16.3304 6.55853L17.0219 7.29247Z" fill="#3F4A54"/>
</svg>
