<svg width="25" height="12" viewBox="0 0 25 12" fill="none" xmlns="http://www.w3.org/2000/svg">
<path fill-rule="evenodd" clip-rule="evenodd" d="M3.66269 0H18.7863C20.0599 0 20.5217 0.132608 20.9873 0.381618C21.4529 0.630628 21.8184 0.99604 22.0674 1.46165C22.3164 1.92726 22.449 2.38909 22.449 3.66269V8.072C22.449 9.3456 22.3164 9.80744 22.0674 10.273C21.8184 10.7387 21.4529 11.1041 20.9873 11.3531C20.5217 11.6021 20.0599 11.7347 18.7863 11.7347H3.66269C2.38909 11.7347 1.92726 11.6021 1.46165 11.3531C0.99604 11.1041 0.630628 10.7387 0.381618 10.273C0.132608 9.80744 0 9.3456 0 8.072V3.66269C0 2.38909 0.132608 1.92726 0.381618 1.46165C0.630628 0.99604 0.99604 0.630628 1.46165 0.381618C1.92726 0.132608 2.38909 0 3.66269 0ZM3.66269 1.02041C2.65557 1.02041 2.30398 1.0883 1.94287 1.28143C1.65509 1.43534 1.43534 1.65509 1.28143 1.94287C1.0883 2.30398 1.02041 2.65557 1.02041 3.66269V8.072C1.02041 9.07912 1.0883 9.43071 1.28143 9.79182C1.43534 10.0796 1.65509 10.2994 1.94287 10.4533C2.30398 10.6464 2.65557 10.7143 3.66269 10.7143H18.7863C19.7934 10.7143 20.145 10.6464 20.5061 10.4533C20.7939 10.2994 21.0136 10.0796 21.1676 9.79182C21.3607 9.43071 21.4286 9.07912 21.4286 8.072V3.66269C21.4286 2.65557 21.3607 2.30398 21.1676 1.94287C21.0136 1.65509 20.7939 1.43534 20.5061 1.28143C20.145 1.0883 19.7934 1.02041 18.7863 1.02041H3.66269ZM25 5.80612C25 7.06793 23.4694 7.84694 23.4694 7.84694V3.76531C23.4694 3.76531 25 4.54432 25 5.80612Z" fill="white" fill-opacity="0.36"/>
<rect x="2.04082" y="1.95574" width="18.3673" height="7.82313" rx="1.6" fill="white"/>
</svg>
