<svg width="20" height="20" viewBox="0 0 20 20" fill="none" xmlns="http://www.w3.org/2000/svg">
<circle cx="9.5" cy="9.5" r="9.5" fill="#1EB290"/>
<path d="M12.75 6.91667L9.26003 10.4167L7.39003 8.46667C7.31498 8.38462 7.22428 8.31841 7.12325 8.27196C7.02222 8.2255 6.91292 8.19974 6.80178 8.19618C6.69064 8.19262 6.57991 8.21134 6.47612 8.25123C6.37232 8.29113 6.27757 8.35139 6.19742 8.42848C6.11728 8.50556 6.05338 8.5979 6.00947 8.70007C5.96557 8.80223 5.94256 8.91215 5.94179 9.02334C5.94103 9.13453 5.96252 9.24476 6.00501 9.34751C6.0475 9.45027 6.11013 9.54349 6.1892 9.62167L8.11086 11.6217C8.25418 11.7765 8.4274 11.9006 8.62005 11.9865C8.81269 12.0725 9.02077 12.1184 9.2317 12.1217H9.2592C9.46591 12.1224 9.6707 12.082 9.86168 12.0029C10.0527 11.9237 10.226 11.8075 10.3717 11.6608L13.9317 8.10083C14.0095 8.02325 14.0712 7.9311 14.1133 7.82966C14.1554 7.72822 14.1772 7.61948 14.1773 7.50964C14.1774 7.39979 14.1559 7.291 14.114 7.18947C14.0721 7.08795 14.0105 6.99567 13.9329 6.91792C13.8554 6.84016 13.7632 6.77845 13.6618 6.73631C13.5603 6.69417 13.4516 6.67242 13.3417 6.6723C13.2319 6.67219 13.1231 6.69371 13.0216 6.73564C12.9201 6.77756 12.8278 6.83908 12.75 6.91667Z" fill="white"/>
</svg>
