<svg width="24" height="24" viewBox="0 0 24 24" fill="none" xmlns="http://www.w3.org/2000/svg">
<g clip-path="url(#clip0_1899_7468)">
<path d="M12 0C9.62663 0 7.30655 0.703788 5.33316 2.02236C3.35977 3.34094 1.8217 5.21509 0.913451 7.4078C0.00519943 9.60051 -0.232441 12.0133 0.230582 14.3411C0.693605 16.6689 1.83649 18.8071 3.51472 20.4853C5.19295 22.1635 7.33115 23.3064 9.65892 23.7694C11.9867 24.2324 14.3995 23.9948 16.5922 23.0866C18.7849 22.1783 20.6591 20.6402 21.9776 18.6668C23.2962 16.6935 24 14.3734 24 12C23.9966 8.81846 22.7312 5.76821 20.4815 3.51852C18.2318 1.26883 15.1815 0.00344108 12 0V0ZM12 22C10.0222 22 8.08879 21.4135 6.4443 20.3147C4.79981 19.2159 3.51809 17.6541 2.76121 15.8268C2.00433 13.9996 1.8063 11.9889 2.19215 10.0491C2.578 8.10929 3.53041 6.32746 4.92894 4.92893C6.32746 3.53041 8.10929 2.578 10.0491 2.19215C11.9889 1.8063 13.9996 2.00433 15.8268 2.7612C17.6541 3.51808 19.2159 4.79981 20.3147 6.4443C21.4135 8.08879 22 10.0222 22 12C21.9971 14.6513 20.9426 17.1931 19.0679 19.0679C17.1931 20.9426 14.6513 21.9971 12 22Z" fill="#33524B"/>
<path d="M11.2894 12.5734C11.1019 12.3859 10.9966 12.1316 10.9966 11.8664C10.9966 11.6012 11.1019 11.3469 11.2894 11.1594L13.753 8.69471C13.9352 8.50611 14.036 8.25351 14.0337 7.99131C14.0314 7.72911 13.9263 7.4783 13.7409 7.29289C13.5554 7.10749 13.3046 7.00232 13.0424 7.00004C12.7802 6.99776 12.5276 7.09855 12.339 7.28071L9.87836 9.74539C9.31595 10.308 9 11.0709 9 11.8664C9 12.6619 9.31595 13.4248 9.87836 13.9874L12.343 16.4521C12.5316 16.6342 12.7842 16.735 13.0464 16.7327C13.3086 16.7305 13.5595 16.6253 13.7449 16.4399C13.9303 16.2545 14.0354 16.0037 14.0377 15.7415C14.04 15.4793 13.9392 15.2267 13.757 15.0381L11.2894 12.5734Z" fill="#33524B"/>
</g>
<defs>
<clipPath id="clip0_1899_7468">
<rect width="24" height="24" fill="white"/>
</clipPath>
</defs>
</svg>
