<svg width="85" height="38" viewBox="0 0 85 38" fill="none" xmlns="http://www.w3.org/2000/svg">
<path fill-rule="evenodd" clip-rule="evenodd" d="M35.2752 12.7178C33.764 12.7178 32.5658 13.2924 31.6804 14.4408C30.7951 15.5897 30.2692 17.3002 30.1043 19.5737C30.0806 19.7867 30.0689 19.9881 30.0689 20.1774C30.0689 21.3379 30.3463 22.2618 30.9012 22.9484C31.4556 23.6354 32.1702 23.9785 33.0442 23.9785C34.5316 23.9785 35.6526 22.9251 36.4086 20.8171L37.2586 13.1442C36.5735 12.86 35.9128 12.7178 35.2752 12.7178ZM40.9769 27.2109C38.8044 27.2109 37.3644 26.4534 36.6562 24.9372C35.4281 26.4772 33.852 27.2464 31.928 27.2464C30.0033 27.2464 28.3863 26.5953 27.0758 25.2926C25.7654 23.9904 25.1102 22.2733 25.1102 20.142C25.1102 17.0399 26.0188 14.5647 27.8374 12.7177C29.655 10.8706 31.9573 9.9469 34.7436 9.9469H34.956C36.1364 9.9469 37.2227 10.1483 38.2144 10.5509C38.8519 10.1483 39.6251 9.9469 40.5342 9.9469C41.443 9.9469 42.0982 10.0657 42.4998 10.3023C42.2876 12.0549 42.0628 13.7779 41.8269 15.4707C41.5907 17.1643 41.4253 18.3658 41.3311 19.0762C41.1186 20.6869 41.0123 21.847 41.0123 22.5573C41.0123 23.5048 41.3897 23.9783 42.1457 23.9783C42.7357 23.9783 43.3616 23.5821 44.0226 22.7884C44.6836 21.9952 45.2626 20.7457 45.7581 19.0407C46.4429 19.6568 46.915 20.3434 47.1752 21.1011C46.4899 23.3513 45.5687 24.9319 44.4124 25.8434C43.255 26.7551 42.1103 27.2109 40.9769 27.2109Z" fill="white"/>
<path fill-rule="evenodd" clip-rule="evenodd" d="M50.7516 11.2255C52.9239 8.83396 54.01 6.69072 54.01 4.79575C54.01 3.65928 53.5849 3.09078 52.7349 3.09078C52.1916 3.13841 51.8314 3.49359 51.6549 4.15658C51.4778 4.81982 51.3121 5.89701 51.1585 7.38892C51.0052 8.88083 50.9049 9.8045 50.8577 10.1597L50.7516 11.2255ZM49.3881 27.2815C47.9357 27.2815 46.7965 26.8731 45.9701 26.0558C45.1434 25.2388 44.7304 24.1198 44.7304 22.6991C44.7304 22.3206 45.3684 16.6957 46.643 5.82602C46.9736 3.03195 47.8592 1.26745 49.2992 0.533024C49.9602 0.177843 50.7515 0 51.6722 0C54.7889 0 56.3473 1.44504 56.3473 4.33411C56.3473 4.57098 56.335 4.81976 56.312 5.07994C56.0756 8.25376 54.0925 11.4861 50.3618 14.7775C50.2433 15.9383 50.1143 17.0631 49.9721 18.1522C49.6889 20.5916 49.5472 21.9414 49.5472 22.2018C49.5472 23.4333 50.0787 24.0489 51.1413 24.0489C52.2976 24.0489 53.3779 23.3801 54.3815 22.0417C55.385 20.7043 56.1579 18.993 56.7017 16.9091C56.9141 16.98 57.2087 17.1753 57.587 17.495C57.9647 17.8147 58.2246 18.0932 58.366 18.3298C57.9881 20.2957 57.1382 22.1782 55.8162 23.978C55.1551 24.9014 54.3163 25.6599 53.3017 26.2514C52.1443 26.9385 50.8399 27.2815 49.3881 27.2815Z" fill="white"/>
<path fill-rule="evenodd" clip-rule="evenodd" d="M61.5893 11.2255C63.7615 8.83396 64.8477 6.69072 64.8477 4.79575C64.8477 3.65928 64.4225 3.09078 63.5726 3.09078C63.0293 3.13841 62.6691 3.49359 62.4925 4.15658C62.3155 4.81982 62.1498 5.89701 61.9962 7.38892C61.8429 8.88083 61.7426 9.8045 61.6954 10.1597L61.5893 11.2255ZM60.2261 27.2815C58.7737 27.2815 57.6345 26.8731 56.8081 26.0558C55.9813 25.2388 55.5684 24.1198 55.5684 22.6991C55.5684 22.3206 56.2064 16.6957 57.4809 5.82602C57.8116 3.03195 58.6972 1.26745 60.1371 0.533024C60.7982 0.177843 61.5895 0 62.5102 0C65.6269 0 67.1853 1.44504 67.1853 4.33411C67.1853 4.57098 67.1729 4.81976 67.15 5.07994C66.9135 8.25376 64.9305 11.4861 61.1998 14.7775C61.0813 15.9383 60.9522 17.0631 60.81 18.1522C60.5269 20.5916 60.3852 21.9414 60.3852 22.2018C60.3852 23.4333 60.9166 24.0489 61.9793 24.0489C63.1356 24.0489 64.2159 23.3801 65.2194 22.0417C66.223 20.7043 66.9959 18.993 67.5397 16.9091C67.7521 16.98 68.0466 17.1753 68.425 17.495C68.8026 17.8147 69.0625 18.0932 69.204 18.3298C68.8261 20.2957 67.9762 22.1782 66.6541 23.978C65.9931 24.9014 65.1543 25.6599 64.1396 26.2514C62.9823 26.9385 61.6779 27.2815 60.2261 27.2815Z" fill="white"/>
<path fill-rule="evenodd" clip-rule="evenodd" d="M70.7971 33.8538C71.1744 34.2323 71.6766 34.422 72.3027 34.422C72.9279 34.422 73.4058 34.1613 73.7369 33.6405C74.0673 33.1196 74.327 32.0776 74.5164 30.5145L74.9766 26.6073C71.8829 28.2173 70.3012 30.0527 70.2308 32.1131C70.2308 32.8946 70.4192 33.4748 70.7971 33.8538ZM68.9206 36.3577C67.9517 35.5406 67.4682 34.3507 67.4682 32.7876C67.4682 30.8696 68.4361 28.9984 70.3725 27.1752C69.003 27.0563 67.905 26.6069 67.0785 25.8254C66.2523 25.0438 65.8393 23.9426 65.8393 22.5218C65.8393 21.8589 65.9216 20.8645 66.0871 19.5378C66.2523 18.2118 66.4288 16.7794 66.6183 15.2394C66.8072 13.7004 67.008 12.0666 67.2207 10.3375C67.9517 10.0771 68.6251 9.9469 69.2394 9.9469C69.8532 9.9469 70.3134 9.97071 70.6203 10.0178C70.9272 10.0657 71.2227 10.2433 71.5058 10.5509C71.7895 10.8587 71.9309 11.2967 71.9309 11.8649L70.7622 20.9233C70.7145 21.3023 70.6912 21.5625 70.6912 21.7046C70.6912 23.1022 71.3288 23.8004 72.6038 23.8004C73.7602 23.8004 74.7051 23.256 75.4371 22.1664C75.5081 21.622 75.6854 20.0528 75.9685 17.4596C76.2517 14.8667 76.4873 12.8479 76.6768 11.4033C76.8895 10.9534 77.332 10.5985 78.0049 10.3375C78.6778 10.0771 79.2269 9.9469 79.6517 9.9469C80.407 9.9469 81.0917 10.0416 81.706 10.2309L80.0415 23.3386C82.804 23.8359 84.4562 25.7425 85 29.0577C84.9053 29.5074 84.4562 30.2178 83.654 31.1891C83.1814 28.2285 81.8831 26.4291 79.7583 25.7899L79.1913 30.2299C78.9314 32.3613 78.2585 34.1199 77.1726 35.5052C76.0862 36.8904 74.4924 37.5833 72.3914 37.5833C71.0454 37.5833 69.888 37.1747 68.9206 36.3577Z" fill="white"/>
<path fill-rule="evenodd" clip-rule="evenodd" d="M19.6915 12.3261C19.0065 12.3261 18.6645 12.1252 18.6645 11.7221C18.6645 11.4857 18.8292 11.3669 19.1603 11.3669C19.4907 11.3669 19.7385 11.6866 19.9039 12.3261H19.6915ZM29.345 10.5481C28.0611 10.7878 26.8219 11.1635 25.559 11.486C24.6774 11.711 23.7921 11.8789 22.9 12.0104L22.8793 11.9C22.265 10.1005 21.0847 9.20013 19.3375 9.20013C18.5345 9.20013 17.8617 9.44916 17.3186 9.94621C16.87 10.3964 16.6457 10.9887 16.6457 11.7224C16.6457 12.4568 16.9291 13.0843 17.4959 13.6052C18.0387 14.0551 18.8063 14.2801 19.798 14.2801H20.1167C20.1167 16.0562 19.8333 18.0335 19.2665 20.2122C19.0066 21.2778 18.6169 22.166 18.0978 22.8766C17.5783 23.5867 16.9877 23.9421 16.3269 23.9421H16.2209C14.7803 23.9421 14.0605 23.0894 14.0605 21.3844C14.0605 21.0059 14.2961 19.1589 14.7687 15.8429C15.0991 13.4985 15.2646 12.113 15.2646 11.6869C15.2646 10.5266 14.4969 9.94621 12.9625 9.94621C12.1125 9.94621 11.3093 10.0883 10.5541 10.3726L9.31463 20.9938C9.10195 21.7753 8.75945 22.4386 8.28736 22.9827C7.81477 23.5279 7.27803 23.8 6.67586 23.8C6.07369 23.8 5.61348 23.5991 5.29472 23.1961C4.97595 22.7935 4.81657 22.3851 4.81657 21.9704C4.81657 21.5567 5.04062 19.6792 5.48946 16.3402C5.84359 13.6883 6.02065 12.1371 6.02065 11.6869C6.02065 10.5266 5.18232 9.94621 3.50615 9.94621C2.86862 9.94621 2.12476 10.0883 1.2748 10.3726C0.943916 13.5461 0.531189 17.1927 0.0353621 21.3135C0.0113664 21.6454 0 21.9294 0 22.166C0 23.5398 0.45415 24.7298 1.36321 25.736C2.27202 26.7428 3.43543 27.2457 4.85193 27.2457C7.23635 27.2457 9.00749 26.3577 10.1646 24.5816C11.1795 26.3344 12.72 27.2102 14.7864 27.2102C16.8523 27.2102 18.5345 26.5591 19.8333 25.2565C22.0291 23.0542 23.174 19.5016 23.2688 14.5998C23.2688 14.2568 23.2572 13.9935 23.2354 13.8048C23.3259 13.7904 23.3887 13.7802 23.4125 13.7764C25.0452 13.5102 26.6176 13.0352 28.1965 12.5328C28.8805 12.3149 29.61 12.2204 30.2669 11.9202C30.5642 11.7844 30.8307 11.5179 31.0929 11.3213C31.8047 10.7883 32.6172 10.3771 33.4291 10.0189C32.0605 10.1322 30.6951 10.2963 29.345 10.5481Z" fill="white"/>
</svg>
