<svg width="27" height="25" viewBox="0 0 27 25" fill="none" xmlns="http://www.w3.org/2000/svg">
<rect width="26.7975" height="25" fill="white" fill-opacity="0.01"/>
<path fill-rule="evenodd" clip-rule="evenodd" d="M6.973 13.7752C7.52613 14.082 8.06471 14.4464 8.36447 15.0177C9.04289 16.3095 8.43231 17.8527 7.00208 18.4652C6.99169 18.4695 6.982 18.4708 6.97162 18.4752L7.69089 19.8439L9.54825 19.0489L19.6388 14.7308L15.3875 7.4739L3.79964 12.4333L4.51822 13.802C4.5286 13.7983 4.53552 13.7914 4.54591 13.7877C4.81866 13.6708 5.1018 13.5958 5.38563 13.5608C5.38563 13.5608 6.39842 13.4558 6.973 13.7752Z" fill="#C367D6"/>
<path fill-rule="evenodd" clip-rule="evenodd" d="M15.7806 12.943C15.7806 14.6255 14.2687 15.9898 12.4051 15.9898C10.5415 15.9898 9.03027 14.6255 9.03027 12.943C9.03027 11.2598 10.5415 9.89609 12.4051 9.89609C14.2687 9.89609 15.7806 11.2598 15.7806 12.943Z" fill="white"/>
<path fill-rule="evenodd" clip-rule="evenodd" d="M23.6701 11.4277L23.5718 11.2414C23.4763 11.2827 23.3759 11.3052 23.2776 11.3364C23.4043 11.3777 23.5379 11.4027 23.6701 11.4277Z" fill="white"/>
<path d="M19.2784 14.7684L18.9905 14.2197" stroke="#3F4A54" stroke-linecap="round" stroke-linejoin="round"/>
<path d="M18.3333 12.9678L16.0336 8.58718" stroke="#3F4A54" stroke-linecap="round" stroke-linejoin="round" stroke-dasharray="2.22 2.22"/>
<path d="M15.7047 7.96154L15.416 7.41279" stroke="#3F4A54" stroke-linecap="round" stroke-linejoin="round"/>
<path d="M6.97307 13.6588C7.56358 13.9038 8.06478 14.3301 8.36453 14.9013C9.04296 16.1932 8.43238 17.7363 7.00215 18.3488C6.99176 18.3532 6.98207 18.3545 6.97169 18.3588L7.69095 19.7276" stroke="#3F4A54" stroke-linecap="round" stroke-linejoin="round"/>
<path d="M15.3877 7.35766L3.79982 12.317L4.5184 13.6858C4.52809 13.682 4.53571 13.6752 4.54609 13.6714C4.81815 13.5545 5.10198 13.4802 5.38581 13.4452" stroke="#3F4A54" stroke-linecap="round" stroke-linejoin="round"/>
<path d="M21.402 11.6617C20.5166 11.5217 19.717 11.0092 19.303 10.2198C18.6239 8.92794 19.2345 7.38482 20.6654 6.77232L19.9475 5.40607L19.1106 5.76357L18.4965 6.02732L17.7967 6.32607L16.6939 6.79857" stroke="#3F4A54" stroke-linecap="round" stroke-linejoin="round"/>
<path d="M9.54815 18.9326L23.8394 12.8164L23.1208 11.4501" stroke="#3F4A54" stroke-linecap="round" stroke-linejoin="round"/>
<path d="M13.632 12.5814L14.2294 13.5071L13.0761 13.7564L12.2862 14.5558L11.6659 13.6421L10.5804 13.2102L11.3509 12.3964L11.4707 11.3302L11.7912 11.4502L12.5666 11.7408L13.7261 11.5139" stroke="#3F4A54" stroke-linecap="round" stroke-linejoin="round"/>
</svg>
