<svg width="26" height="21" viewBox="0 0 26 21" fill="none" xmlns="http://www.w3.org/2000/svg">
<path fill-rule="evenodd" clip-rule="evenodd" d="M21.4261 6.4613L12.9678 10.4329L4.58297 6.4613L13.0413 2.48972L21.4261 6.4613Z" fill="#08B2FF"/>
<path fill-rule="evenodd" clip-rule="evenodd" d="M13.041 2.48972L21.4258 6.4613L12.9675 10.4329" fill="#08B2FF"/>
<path fill-rule="evenodd" clip-rule="evenodd" d="M21.4261 6.4613L12.9678 10.4329L4.58297 6.4613L13.0413 2.48972L21.4261 6.4613Z" stroke="#3F4A54" stroke-width="1.3" stroke-linecap="round" stroke-linejoin="round"/>
<path fill-rule="evenodd" clip-rule="evenodd" d="M12.9678 20.3376L4.58297 16.366V6.46112L12.9678 10.4336V20.3376Z" stroke="#3F4A54" stroke-width="1.3" stroke-linecap="round" stroke-linejoin="round"/>
<path fill-rule="evenodd" clip-rule="evenodd" d="M0.662459 8.28774L6.90688 11.2462L7.39573 11.4775L9.04731 12.2593L12.9681 10.4191L4.55332 6.46112L0.662459 8.28774Z" fill="white"/>
<path d="M7.39573 11.4775L6.90688 11.2462L0.662459 8.28774L4.55332 6.46112L12.9681 10.4191L9.04731 12.2602" stroke="#3F4A54" stroke-width="1.3" stroke-linecap="round" stroke-linejoin="round"/>
<path d="M2.39756 3.85587L0.754145 4.63404L4.64591 6.46156L13.0598 2.50359L9.1399 0.662459L4.23052 2.987" stroke="#3F4A54" stroke-width="1.3" stroke-linecap="round" stroke-linejoin="round"/>
<path fill-rule="evenodd" clip-rule="evenodd" d="M12.817 20.3376L21.2009 16.366V6.46112L12.817 10.4336V20.3376Z" stroke="#3F4A54" stroke-width="1.3" stroke-linecap="round" stroke-linejoin="round"/>
<path fill-rule="evenodd" clip-rule="evenodd" d="M19.368 11.0141L25.1217 8.28864L21.2318 6.46112L12.817 10.4191L16.7378 12.2602L17.8615 11.7278" fill="white"/>
<path d="M19.3675 11.0132L25.1212 8.28777L21.2313 6.46025L12.8165 10.4182L16.7373 12.2594L17.861 11.727" stroke="#3F4A54" stroke-width="1.3" stroke-linecap="round" stroke-linejoin="round"/>
<path d="M19.4871 2.00839L25.0295 4.63404L21.1387 6.46066L12.7248 2.50268L16.6447 0.662459L17.6895 1.15675" stroke="#3F4A54" stroke-width="1.3" stroke-linecap="round" stroke-linejoin="round"/>
</svg>
