<svg width="20" height="20" viewBox="0 0 20 20" fill="none" xmlns="http://www.w3.org/2000/svg">
<g clip-path="url(#clip0_2_2334)">
<path d="M19.3925 7.84916C18.1 5.74416 15.16 2.21249 10 2.21249C4.84 2.21249 1.9 5.74416 0.607497 7.84916C0.207937 8.49542 -0.00370789 9.2402 -0.00370789 9.99999C-0.00370789 10.7598 0.207937 11.5046 0.607497 12.1508C1.9 14.2558 4.84 17.7875 10 17.7875C15.16 17.7875 18.1 14.2558 19.3925 12.1508C19.7921 11.5046 20.0037 10.7598 20.0037 9.99999C20.0037 9.2402 19.7921 8.49542 19.3925 7.84916ZM17.9717 11.2783C16.8617 13.0833 14.3492 16.1208 10 16.1208C5.65083 16.1208 3.13833 13.0833 2.02833 11.2783C1.79094 10.8942 1.66521 10.4516 1.66521 9.99999C1.66521 9.54843 1.79094 9.10579 2.02833 8.72166C3.13833 6.91666 5.65083 3.87916 10 3.87916C14.3492 3.87916 16.8617 6.91333 17.9717 8.72166C18.2091 9.10579 18.3348 9.54843 18.3348 9.99999C18.3348 10.4516 18.2091 10.8942 17.9717 11.2783Z" fill="#33524B"/>
<path d="M10 5.83334C9.17591 5.83334 8.37033 6.07771 7.68512 6.53555C6.99992 6.99339 6.46586 7.64414 6.1505 8.4055C5.83513 9.16686 5.75262 10.0046 5.91339 10.8129C6.07416 11.6211 6.471 12.3636 7.05372 12.9463C7.63644 13.529 8.37887 13.9258 9.18712 14.0866C9.99537 14.2474 10.8332 14.1649 11.5945 13.8495C12.3559 13.5341 13.0066 13.0001 13.4645 12.3149C13.9223 11.6297 14.1667 10.8241 14.1667 10C14.1653 8.89535 13.7259 7.83631 12.9448 7.05519C12.1637 6.27408 11.1047 5.83467 10 5.83334ZM10 12.5C9.50554 12.5 9.02219 12.3534 8.61107 12.0787C8.19995 11.804 7.87952 11.4135 7.6903 10.9567C7.50108 10.4999 7.45157 9.99724 7.54803 9.51228C7.6445 9.02733 7.8826 8.58187 8.23223 8.23224C8.58186 7.88261 9.02732 7.64451 9.51227 7.54805C9.99722 7.45158 10.4999 7.50109 10.9567 7.69031C11.4135 7.87953 11.804 8.19996 12.0787 8.61108C12.3534 9.02221 12.5 9.50556 12.5 10C12.5 10.6631 12.2366 11.2989 11.7678 11.7678C11.2989 12.2366 10.663 12.5 10 12.5Z" fill="#33524B"/>
</g>
<defs>
<clipPath id="clip0_2_2334">
<rect width="20" height="20" fill="white"/>
</clipPath>
</defs>
</svg>
