<svg width="93" height="41" viewBox="0 0 93 41" fill="none" xmlns="http://www.w3.org/2000/svg">
<path fill-rule="evenodd" clip-rule="evenodd" d="M38.4771 13.874C36.8285 13.874 35.5213 14.5008 34.5555 15.7536C33.5897 17.0069 33.016 18.873 32.8361 21.3531C32.8102 21.5855 32.7975 21.8053 32.7975 22.0117C32.7975 23.2778 33.1001 24.2857 33.7054 25.0346C34.3103 25.7842 35.0898 26.1584 36.0432 26.1584C37.6659 26.1584 38.8888 25.0092 39.7135 22.7095L40.6408 14.3391C39.8935 14.029 39.1726 13.874 38.4771 13.874ZM44.7036 29.6846C42.3335 29.6846 40.7626 28.8582 39.99 27.2041C38.6503 28.8842 36.9308 29.7233 34.832 29.7233C32.7323 29.7233 30.9682 29.013 29.5387 27.5919C28.1091 26.1714 27.3943 24.2981 27.3943 21.973C27.3943 18.5889 28.3855 15.8887 30.3694 13.8737C32.3523 11.8587 34.8639 10.8511 37.9035 10.8511H38.1353C39.4229 10.8511 40.6081 11.0708 41.6899 11.5099C42.3854 11.0708 43.2288 10.8511 44.2205 10.8511C45.2119 10.8511 45.9267 10.9807 46.3648 11.2388C46.1334 13.1507 45.8881 15.0303 45.6308 16.877C45.3731 18.7246 45.1927 20.0354 45.0899 20.8103C44.8581 22.5675 44.7421 23.833 44.7421 24.6079C44.7421 25.6416 45.1538 26.1581 45.9785 26.1581C46.6222 26.1581 47.305 25.7258 48.0261 24.86C48.7472 23.9947 49.3788 22.6316 49.9194 20.7716C50.6665 21.4438 51.1815 22.1927 51.4653 23.0194C50.7177 25.4741 49.7128 27.1983 48.4513 28.1927C47.1887 29.1874 45.9399 29.6846 44.7036 29.6846Z" fill="#1EB290"/>
<path fill-rule="evenodd" clip-rule="evenodd" d="M55.3558 12.2475C57.7255 9.6386 58.9104 7.30051 58.9104 5.23326C58.9104 3.99346 58.4467 3.37329 57.5194 3.37329C56.9267 3.42525 56.5338 3.81272 56.3412 4.53598C56.148 5.25952 55.9673 6.43464 55.7997 8.06219C55.6325 9.68973 55.5231 10.6974 55.4715 11.0848L55.3558 12.2475ZM53.8686 29.7617C52.2842 29.7617 51.0415 29.3162 50.1399 28.4247C49.238 27.5334 48.7875 26.3126 48.7875 24.7628C48.7875 24.3499 49.4835 18.2136 50.874 6.35568C51.2347 3.3076 52.2007 1.38268 53.7716 0.581483C54.4928 0.194012 55.3561 0 56.3604 0C59.7605 0 61.4606 1.57642 61.4606 4.72814C61.4606 4.98655 61.4471 5.25794 61.422 5.54177C61.1641 9.00414 59.0008 12.5303 54.9309 16.1209C54.8017 17.3873 54.6608 18.6144 54.5057 19.8025C54.1968 22.4636 54.0422 23.9361 54.0422 24.2203C54.0422 25.5637 54.622 26.2353 55.7812 26.2353C57.0427 26.2353 58.2212 25.5056 59.316 24.0456C60.4108 22.5866 61.2539 20.7197 61.8472 18.4463C62.0789 18.5237 62.4002 18.7368 62.813 19.0856C63.2249 19.4343 63.5085 19.7381 63.6628 19.9962C63.2506 22.1408 62.3233 24.1945 60.8811 26.1579C60.16 27.1652 59.2449 27.9927 58.138 28.638C56.8754 29.3875 55.4525 29.7617 53.8686 29.7617Z" fill="#1EB290"/>
<path fill-rule="evenodd" clip-rule="evenodd" d="M67.1893 12.2475C69.559 9.6386 70.7439 7.30051 70.7439 5.23326C70.7439 3.99346 70.2802 3.37329 69.3529 3.37329C68.7602 3.42525 68.3673 3.81272 68.1747 4.53598C67.9815 5.25952 67.8008 6.43464 67.6332 8.06219C67.466 9.68973 67.3566 10.6974 67.305 11.0848L67.1893 12.2475ZM65.7022 29.7617C64.1178 29.7617 62.875 29.3162 61.9734 28.4247C61.0716 27.5334 60.621 26.3126 60.621 24.7628C60.621 24.3499 61.3171 18.2136 62.7075 6.35568C63.0682 3.3076 64.0343 1.38268 65.6052 0.581483C66.3263 0.194012 67.1896 0 68.194 0C71.594 0 73.2941 1.57642 73.2941 4.72814C73.2941 4.98655 73.2806 5.25794 73.2556 5.54177C72.9977 9.00414 70.8343 12.5303 66.7644 16.1209C66.6352 17.3873 66.4944 18.6144 66.3393 19.8025C66.0304 22.4636 65.8758 23.9361 65.8758 24.2203C65.8758 25.5637 66.4555 26.2353 67.6148 26.2353C68.8763 26.2353 70.0548 25.5056 71.1495 24.0456C72.2443 22.5866 73.0875 20.7197 73.6807 18.4463C73.9125 18.5237 74.2338 18.7368 74.6465 19.0856C75.0585 19.4343 75.342 19.7381 75.4963 19.9962C75.0841 22.1408 74.1569 24.1945 72.7147 26.1579C71.9936 27.1652 71.0784 27.9927 69.9716 28.638C68.709 29.3875 67.2861 29.7617 65.7022 29.7617Z" fill="#1EB290"/>
<path fill-rule="evenodd" clip-rule="evenodd" d="M77.2297 36.9312C77.6414 37.3441 78.1892 37.5511 78.8723 37.5511C79.5543 37.5511 80.0756 37.2667 80.4369 36.6985C80.7973 36.1303 81.0805 34.9936 81.2872 33.2884L81.7893 29.0259C78.4143 30.7822 76.6888 32.7845 76.612 35.0323C76.612 35.8849 76.8175 36.5177 77.2297 36.9312ZM75.1857 39.6629C74.1287 38.7716 73.6013 37.4735 73.6013 35.7683C73.6013 33.6759 74.6572 31.6346 76.7696 29.6456C75.2756 29.516 74.0777 29.0257 73.1761 28.1731C72.2748 27.3205 71.8243 26.1191 71.8243 24.5692C71.8243 23.846 71.9141 22.7612 72.0946 21.3139C72.2748 19.8674 72.4674 18.3048 72.6741 16.6247C72.8802 14.9458 73.0993 13.1634 73.3313 11.2772C74.1287 10.9931 74.8633 10.8511 75.5335 10.8511C76.2031 10.8511 76.7051 10.877 77.0399 10.9284C77.3747 10.9807 77.6971 11.1744 78.006 11.5099C78.3154 11.8457 78.4697 12.3236 78.4697 12.9434L77.1948 22.8253C77.1427 23.2388 77.1173 23.5226 77.1173 23.6777C77.1173 25.2024 77.8128 25.9641 79.2038 25.9641C80.4653 25.9641 81.4961 25.3702 82.2946 24.1815C82.3721 23.5876 82.5655 21.8757 82.8744 19.0468C83.1833 16.2182 83.4404 14.0158 83.647 12.4399C83.879 11.9491 84.3618 11.5619 85.0959 11.2772C85.8299 10.9931 86.429 10.8511 86.8925 10.8511C87.7164 10.8511 88.4634 10.9544 89.1335 11.1609L87.3176 25.4603C90.3313 26.0028 92.1337 28.0827 92.727 31.6993C92.6236 32.1899 92.1337 32.9648 91.2586 34.0244C90.743 30.7948 89.3267 28.8317 87.0087 28.1344L86.3901 32.9781C86.1066 35.3032 85.3725 37.2217 84.1879 38.7329C83.0028 40.2441 81.2641 41 78.9721 41C77.5036 41 76.2411 40.5542 75.1857 39.6629Z" fill="#1EB290"/>
<path fill-rule="evenodd" clip-rule="evenodd" d="M21.485 13.4478C20.7377 13.4478 20.3646 13.2286 20.3646 12.7889C20.3646 12.531 20.5443 12.4014 20.9055 12.4014C21.2659 12.4014 21.5363 12.7502 21.7167 13.4478H21.485ZM32.0129 11.508C30.6122 11.7694 29.2604 12.1793 27.8826 12.5311C26.921 12.7765 25.9552 12.9597 24.9819 13.1032L24.9593 12.9827C24.2892 11.0196 23.0015 10.0374 21.0956 10.0374C20.2196 10.0374 19.4855 10.3091 18.8931 10.8513C18.4037 11.3424 18.159 11.9886 18.159 12.7889C18.159 13.5901 18.4682 14.2747 19.0865 14.8429C19.6787 15.3338 20.5161 15.5792 21.5979 15.5792H21.9456C21.9456 17.5168 21.6365 19.6739 21.0181 22.0507C20.7346 23.2131 20.3094 24.182 19.7432 24.9573C19.1764 25.7319 18.5321 26.1197 17.8113 26.1197H17.6956C16.1241 26.1197 15.3388 25.1894 15.3388 23.3294C15.3388 22.9165 15.5959 20.9015 16.1114 17.2841C16.4718 14.7266 16.6523 13.2151 16.6523 12.7503C16.6523 11.4845 15.8149 10.8513 14.141 10.8513C13.2137 10.8513 12.3375 11.0064 11.5136 11.3164L10.1615 22.9033C9.92945 23.7559 9.5558 24.4794 9.0408 25.073C8.52525 25.6678 7.9397 25.9646 7.28279 25.9646C6.62588 25.9646 6.12383 25.7455 5.77608 25.3058C5.42834 24.8666 5.25447 24.4211 5.25447 23.9687C5.25447 23.5174 5.49888 21.4692 5.98853 17.8266C6.37485 14.9336 6.56801 13.2414 6.56801 12.7503C6.56801 11.4845 5.65346 10.8513 3.82491 10.8513C3.12942 10.8513 2.31793 11.0064 1.3907 11.3164C1.02973 14.7785 0.579482 18.7566 0.038577 23.252C0.0123998 23.6141 0 23.9239 0 24.182C0 25.6808 0.495439 26.9789 1.48714 28.0766C2.47857 29.1749 3.74776 29.7235 5.29304 29.7235C7.89423 29.7235 9.82639 28.7548 11.0887 26.8172C12.1958 28.7294 13.8764 29.6848 16.1307 29.6848C18.3844 29.6848 20.2196 28.9746 21.6365 27.5535C24.0318 25.151 25.2809 21.2754 25.3842 15.928C25.3842 15.5538 25.3716 15.2666 25.3479 15.0607C25.4465 15.045 25.5151 15.0339 25.541 15.0298C27.3222 14.7393 29.0375 14.2211 30.7599 13.6731C31.5061 13.4354 32.3019 13.3323 33.0186 13.0048C33.3429 12.8567 33.6336 12.5659 33.9197 12.3515C34.6962 11.77 35.5826 11.3214 36.4682 10.9306C34.9753 11.0542 33.4857 11.2333 32.0129 11.508Z" fill="#1EB290"/>
</svg>
