<svg width="26" height="21" viewBox="0 0 26 21" fill="none" xmlns="http://www.w3.org/2000/svg">
<path fill-rule="evenodd" clip-rule="evenodd" d="M21.4259 6.46123L12.9677 10.4328L4.58292 6.46123L13.0411 2.4897L21.4259 6.46123Z" fill="#08B2FF"/>
<path fill-rule="evenodd" clip-rule="evenodd" d="M13.0408 2.4897L21.4256 6.46123L12.9674 10.4328" fill="#08B2FF"/>
<path fill-rule="evenodd" clip-rule="evenodd" d="M21.4259 6.46123L12.9677 10.4328L4.58292 6.46123L13.0411 2.4897L21.4259 6.46123Z" stroke="#3F4A54" stroke-width="1.3" stroke-linecap="round" stroke-linejoin="round"/>
<path fill-rule="evenodd" clip-rule="evenodd" d="M12.9677 20.3375L4.58292 16.366V6.46117L12.9677 10.4336V20.3375Z" stroke="#3F4A54" stroke-width="1.3" stroke-linecap="round" stroke-linejoin="round"/>
<path fill-rule="evenodd" clip-rule="evenodd" d="M0.662451 8.28776L6.9068 11.2462L7.39565 11.4775L9.0472 12.2593L12.9679 10.4191L4.55326 6.46117L0.662451 8.28776Z" fill="white"/>
<path d="M7.39564 11.4775L6.9068 11.2462L0.662451 8.28776L4.55326 6.46117L12.9679 10.4191L9.0472 12.2602" stroke="#3F4A54" stroke-width="1.3" stroke-linecap="round" stroke-linejoin="round"/>
<path d="M2.39753 3.85582L0.754136 4.63398L4.64586 6.46149L13.0596 2.50356L9.13979 0.662451L4.23047 2.98696" stroke="#3F4A54" stroke-width="1.3" stroke-linecap="round" stroke-linejoin="round"/>
<path fill-rule="evenodd" clip-rule="evenodd" d="M12.8168 20.3375L21.2007 16.366V6.46117L12.8168 10.4336V20.3375Z" stroke="#3F4A54" stroke-width="1.3" stroke-linecap="round" stroke-linejoin="round"/>
<path fill-rule="evenodd" clip-rule="evenodd" d="M19.3677 11.0141L25.1214 8.28867L21.2315 6.46117L12.8168 10.4191L16.7376 12.2602L17.8613 11.7278" fill="white"/>
<path d="M19.3672 11.0131L25.1209 8.28767L21.231 6.46017L12.8163 10.4181L16.7371 12.2592L17.8608 11.7268" stroke="#3F4A54" stroke-width="1.3" stroke-linecap="round" stroke-linejoin="round"/>
<path d="M19.4869 2.00836L25.0292 4.63398L21.1384 6.46058L12.7247 2.50265L16.6445 0.662451L17.6893 1.15674" stroke="#3F4A54" stroke-width="1.3" stroke-linecap="round" stroke-linejoin="round"/>
</svg>
