<svg width="19" height="23" viewBox="0 0 19 23" fill="none" xmlns="http://www.w3.org/2000/svg">
<path fill-rule="evenodd" clip-rule="evenodd" d="M17.2472 17.6969C17.2472 19.9026 15.4538 21.6982 13.247 21.6982H5.30074C3.09502 21.6982 1.30158 19.9026 1.30158 17.6969V16.2712C1.30158 11.875 4.87761 8.29788 9.27386 8.29788C13.6712 8.29788 17.2472 11.875 17.2472 16.2712V17.6969ZM6.49685 5.51963H12.0529C12.4609 5.51963 12.7929 5.85163 12.7929 6.25957C12.7929 6.66643 12.4609 6.99734 12.0529 6.99734H6.49685C6.08891 6.99734 5.75691 6.66643 5.75691 6.25957C5.75691 5.85163 6.08891 5.51963 6.49685 5.51963ZM8.30455 2.06976C8.94034 2.27699 9.60976 2.27699 10.2455 2.06976L12.5771 1.26472L11.6766 4.21798H6.86698L5.93717 1.30053L8.30455 2.06976ZM13.2484 7.90389C13.7584 7.53283 14.0936 6.9361 14.0936 6.25909C14.0936 5.4649 13.6325 4.78138 12.9685 4.44396L13.8224 1.64476C13.9612 1.18908 13.8365 0.698678 13.4958 0.365596C13.1573 0.031429 12.6647 -0.0835766 12.209 0.0618078L9.84274 0.832128C9.47169 0.952559 9.07785 0.952559 8.70679 0.832128L6.33833 0.0618078C5.8859 -0.0835766 5.39333 0.031429 5.05374 0.365596C4.71197 0.698678 4.58829 1.18908 4.72716 1.64476L5.58103 4.44396C4.91703 4.78138 4.45592 5.4649 4.45592 6.25909C4.45592 6.9361 4.79118 7.53283 5.30002 7.90389C2.171 9.39679 0 12.5811 0 16.2722V17.6978C0 20.6218 2.37823 23 5.30111 23H13.2473C16.1713 23 18.5495 20.6218 18.5495 17.6978V16.2722C18.5495 12.5811 16.3774 9.39679 13.2484 7.90389Z" fill="white"/>
</svg>
