<svg width="27" height="25" viewBox="0 0 27 25" fill="none" xmlns="http://www.w3.org/2000/svg">
<rect width="26.7975" height="25" fill="white" fill-opacity="0.01"/>
<path fill-rule="evenodd" clip-rule="evenodd" d="M15.0405 12.8532H7.33625L8.76991 20.8782C8.83155 21.2251 9.15312 21.4789 9.52962 21.4789H17.4697C17.8462 21.4789 18.1678 21.2251 18.2301 20.8782L19.6631 12.8532H15.0405Z" fill="#F181A8"/>
<path fill-rule="evenodd" clip-rule="evenodd" d="M15.0403 21.4789V18.7476V17.1664C15.0403 14.7845 17.1104 12.8532 19.6629 12.8532L18.2299 20.8782C18.1676 21.2251 17.846 21.4789 17.4695 21.4789H15.0403Z" fill="#E2719D"/>
<path fill-rule="evenodd" clip-rule="evenodd" d="M14.3456 14.755L13.338 17.1656H5.79451L7.33604 12.8531L15.2038 12.8225" fill="white"/>
<path d="M14.3456 14.7551L13.338 17.1657H5.79451L7.33604 12.8532L19.5209 12.802L18.2299 20.8782C18.2299 20.8782 18.1187 21.5032 17.3516 21.4789H9.53008C9.53008 21.4789 8.80454 21.5714 8.7697 20.8782L8.29539 18.4857" stroke="#3F4A54" stroke-linecap="round" stroke-linejoin="round"/>
<path d="M20.703 15.0218L21.4527 17.1381" stroke="#3F4A54" stroke-linecap="round" stroke-linejoin="round"/>
<path d="M19.6631 21.4831H10.0327" stroke="#3F4A54" stroke-linecap="round" stroke-linejoin="round"/>
<path d="M15.0404 18.4795V21.3176" stroke="#3F4A54" stroke-linecap="round" stroke-linejoin="round"/>
<path d="M16.6202 4.15626L15.2039 11.6106" stroke="#3F4A54" stroke-linecap="round" stroke-linejoin="round"/>
<path d="M11.9949 4.15626C12.3366 5.79126 12.6474 7.28063 12.9878 8.91501" stroke="#3F4A54" stroke-linecap="round" stroke-linejoin="round"/>
<path d="M16.7402 10.264C17.037 10.374 17.8986 10.6421 18.3447 11.6102" stroke="#3F4A54" stroke-linecap="round" stroke-linejoin="round"/>
<path d="M8.27568 11.6106C8.27568 11.6106 9.05884 10.4688 11.0023 10.6331C11.0023 10.6331 12.02 10.8619 12.8989 10.3388C13.2326 10.1394 13.7806 9.73565 14.34 9.82127" stroke="#3F4A54" stroke-linecap="round" stroke-linejoin="round"/>
</svg>
