<svg width="58" height="35" viewBox="0 0 58 35" fill="none" xmlns="http://www.w3.org/2000/svg">
<path d="M0 13.5497C0 12.8317 0.582021 12.2497 1.29998 12.2497C2.01794 12.2497 2.59996 12.8317 2.59996 13.5497V34.9994H0V13.5497Z" fill="#1EB290"/>
<path d="M7.79856 20.5498C7.79856 19.8318 8.38058 19.2498 9.09854 19.2498C9.8165 19.2498 10.3985 19.8318 10.3985 20.5498V34.9996H7.79856V20.5498Z" fill="#1EB290"/>
<path d="M15.6005 8.29971C15.6005 7.58175 16.1826 6.99973 16.9005 6.99973C17.6185 6.99973 18.2005 7.58175 18.2005 8.29971V34.9994H15.6005V8.29971Z" fill="#1EB290"/>
<path d="M23.3993 1.29998C23.3993 0.582019 23.9813 0 24.6992 0C25.4172 0 25.9992 0.582021 25.9992 1.29998V34.9996H23.3993V1.29998Z" fill="#1EB290"/>
<path d="M31.2003 15.3001C31.2003 14.5821 31.7824 14.0001 32.5003 14.0001C33.2183 14.0001 33.8003 14.5821 33.8003 15.3001V34.9998H31.2003V15.3001Z" fill="#1EB290"/>
<path d="M38.9999 11.8001C38.9999 11.0821 39.5819 10.5001 40.2998 10.5001C41.0178 10.5001 41.5998 11.0821 41.5998 11.8001V34.9998H38.9999V11.8001Z" fill="#1EB290"/>
<path d="M46.7984 6.55033C46.7984 5.83237 47.3804 5.25035 48.0984 5.25035C48.8164 5.25035 49.3984 5.83237 49.3984 6.55033V35H46.7984V6.55033Z" fill="#1EB290"/>
<path d="M54.5994 15.3001C54.5994 14.5821 55.1814 14.0001 55.8994 14.0001C56.6174 14.0001 57.1994 14.5821 57.1994 15.3001V34.9998H54.5994V15.3001Z" fill="#1EB290"/>
</svg>
