<svg width="18" height="15" viewBox="0 0 18 15" fill="none" xmlns="http://www.w3.org/2000/svg">
<path d="M6.38044 0L0 2.83575L2.48128 4.25363L0 5.6715L2.83575 7.08938V11.343L8.86172 14.1788L14.5332 11.343L14.8877 7.08938L16.66 5.6715L14.8877 4.25363L17.369 2.83575L11.343 0L8.86172 1.41788L6.38044 0Z" fill="white"/>
<path fill-rule="evenodd" clip-rule="evenodd" d="M15.0244 4.58215L9.14049 7.34491L3.30773 4.58215L9.19159 1.8194L15.0244 4.58215Z" fill="#08B2FF"/>
<path fill-rule="evenodd" clip-rule="evenodd" d="M9.19122 1.8194L15.024 4.58215L9.14012 7.34491" fill="#08B2FF"/>
<path fill-rule="evenodd" clip-rule="evenodd" d="M15.0244 4.58215L9.14049 7.34491L3.30773 4.58215L9.19159 1.8194L15.0244 4.58215Z" stroke="#3F4A54" stroke-width="0.8" stroke-linecap="round" stroke-linejoin="round"/>
<path fill-rule="evenodd" clip-rule="evenodd" d="M9.14049 14.2313L3.30773 11.4686V4.57841L9.14049 7.34179V14.2313Z" stroke="#3F4A54" stroke-width="0.8" stroke-linecap="round" stroke-linejoin="round"/>
<path fill-rule="evenodd" clip-rule="evenodd" d="M0.580028 5.84906L4.92384 7.90709L5.2639 8.06797L6.41279 8.61182L9.14021 7.3317L3.28663 4.57841L0.580028 5.84906Z" fill="white"/>
<path d="M5.26409 8.07219L4.92403 7.91131L0.580214 5.85328L3.28682 4.58263L9.1404 7.33592L6.41298 8.61667" stroke="#3F4A54" stroke-width="0.8" stroke-linecap="round" stroke-linejoin="round"/>
<path d="M1.78688 2.77006L0.643672 3.31138L3.35091 4.58266L9.20386 1.82937L6.47707 0.548624L3.06195 2.16565" stroke="#3F4A54" stroke-width="0.8" stroke-linecap="round" stroke-linejoin="round"/>
<path fill-rule="evenodd" clip-rule="evenodd" d="M9.03421 14.2356L14.8663 11.4728V4.58263L9.03421 7.34601V14.2356Z" stroke="#3F4A54" stroke-width="0.8" stroke-linecap="round" stroke-linejoin="round"/>
<path fill-rule="evenodd" clip-rule="evenodd" d="M13.5911 7.74558L17.5936 5.84969L14.8876 4.57841L9.03406 7.3317L11.7615 8.61245L12.5432 8.2421" fill="white"/>
<path d="M13.5908 7.74992L17.5933 5.85404L14.8873 4.58275L9.03371 7.33604L11.7611 8.61679L12.5428 8.24645" stroke="#3F4A54" stroke-width="0.8" stroke-linecap="round" stroke-linejoin="round"/>
<path d="M13.6743 1.4849L17.5298 3.31138L14.8232 4.58203L8.97026 1.82874L11.6971 0.548624L12.4239 0.89247" stroke="#3F4A54" stroke-width="0.8" stroke-linecap="round" stroke-linejoin="round"/>
</svg>
