<svg width="331" height="50" viewBox="0 0 331 50" fill="none" xmlns="http://www.w3.org/2000/svg">
<g filter="url(#filter0_d_3244_11356)">
<path d="M0 12C0 5.37258 5.37258 0 12 0H319C325.627 0 331 5.37258 331 12V37.256C331 43.8834 325.627 49.256 319 49.256H12C5.37257 49.256 0 43.8834 0 37.256V12Z" fill="white"/>
<path d="M1 12C1 5.92486 5.92487 1 12 1H319C325.075 1 330 5.92487 330 12V37.256C330 43.3311 325.075 48.256 319 48.256H12C5.92486 48.256 1 43.3311 1 37.256V12Z" stroke="#1EB290" stroke-width="2"/>
</g>
<defs>
<filter id="filter0_d_3244_11356" x="-3" y="0" width="334" height="52.2559" filterUnits="userSpaceOnUse" color-interpolation-filters="sRGB">
<feFlood flood-opacity="0" result="BackgroundImageFix"/>
<feColorMatrix in="SourceAlpha" type="matrix" values="0 0 0 0 0 0 0 0 0 0 0 0 0 0 0 0 0 0 127 0" result="hardAlpha"/>
<feOffset dx="-3" dy="3"/>
<feColorMatrix type="matrix" values="0 0 0 0 0.117647 0 0 0 0 0.698039 0 0 0 0 0.564706 0 0 0 1 0"/>
<feBlend mode="normal" in2="BackgroundImageFix" result="effect1_dropShadow_3244_11356"/>
<feBlend mode="normal" in="SourceGraphic" in2="effect1_dropShadow_3244_11356" result="shape"/>
</filter>
</defs>
</svg>
