<svg width="159" height="126" viewBox="0 0 159 126" fill="none" xmlns="http://www.w3.org/2000/svg">
<circle cx="80.3535" cy="62.2208" r="62.2208" fill="url(#paint0_radial_279_3211)"/>
<ellipse cx="84.5839" cy="114.24" rx="74.4161" ry="11.1997" fill="url(#paint1_linear_279_3211)"/>
<path d="M23.6066 99.3051C28.2524 95.9037 36.5983 85.7659 32.8153 72.4258" stroke="#EADECE" stroke-width="0.8"/>
<path d="M46.5048 74.1673C43.3199 76.5609 37.5985 83.6949 40.1919 93.0824" stroke="#EADECE" stroke-width="0.8"/>
<path d="M77.2093 33.0133C81.1444 34.5446 80.7294 36.2801 80.03 36.9564C81.6982 37.9195 80.5117 40.9377 79.71 42.3264C77.198 48.2825 71.8614 61.2178 70.6109 65.31C69.3604 69.4022 66.9625 69.2214 65.9199 68.6194C57.2405 65.46 38.4007 58.6563 32.4767 56.7174C25.0716 54.2937 25.2187 54.8415 24.8308 52.303C23.0875 50.1856 23.1863 48.7304 23.4535 48.2675C26.3217 40.3568 32.3893 23.8009 33.7148 20.863C35.0403 17.9251 37.1272 17.8955 38.0049 18.248C49.4334 22.5317 73.2741 31.482 77.2093 33.0133Z" fill="#ACCE5B"/>
<path d="M55.7649 48.4865L51.9548 47.198C50.6649 51.0097 51.348 51.4041 52.7142 52.1929C53.8071 52.8239 55.2034 49.9849 55.7649 48.4865Z" fill="#F07374"/>
<path d="M51.2206 49.6526C53.862 49.4972 54.4929 50.5616 54.4781 51.1132C54.061 51.5726 53.0218 52.3729 52.2017 51.8994C51.1765 51.3075 51.0387 49.9677 51.2206 49.6526Z" fill="#F181A8"/>
<path d="M84.7801 44.1361C83.0257 47.1748 79.0976 48.0685 77.3529 48.1355C76.6883 49.2866 75.2895 52.193 75.0105 54.6103C83.3351 50.6685 83.983 48.7404 85.3288 47.2153C86.6746 45.6902 85.8768 43.8484 84.7801 44.1361Z" fill="#ACCE5B"/>
<ellipse cx="36.0426" cy="39.8362" rx="2.07164" ry="2.36759" transform="rotate(30 36.0426 39.8362)" fill="#FBE885"/>
<path d="M66.4831 31.4933L51.6326 25.9615L48.0475 24.626L39.5471 21.4614C37.8731 20.9008 36.0565 21.8046 35.4957 23.4818L31.6716 33.8951" stroke="#3F4A54" stroke-width="0.8" stroke-miterlimit="10" stroke-linecap="round" stroke-linejoin="round"/>
<path d="M74.329 56.5235L80.6739 40.1307C81.2607 38.4618 80.3835 36.6364 78.7145 36.0512L70.2706 32.9043" stroke="#3F4A54" stroke-width="0.8" stroke-miterlimit="10" stroke-linecap="round" stroke-linejoin="round"/>
<path d="M28.7466 41.6026L25.2515 50.9924C24.6862 52.6686 25.5856 54.4844 27.2622 55.049L66.2978 68.9413C67.9813 69.4825 69.7835 68.5561 70.3234 66.8719L73.0297 59.8842" stroke="#3F4A54" stroke-width="0.8" stroke-miterlimit="10" stroke-linecap="round" stroke-linejoin="round"/>
<path d="M32.9451 23.2217L23.7658 47.8729C23.202 49.5466 23.4915 51.0344 25.1677 51.5997" stroke="#3F4A54" stroke-width="0.8" stroke-miterlimit="10" stroke-linecap="round" stroke-linejoin="round"/>
<path d="M80.2648 37.2026C80.8528 35.5345 79.8084 34.0117 78.1392 33.4255L69.2452 30.0786L66.376 28.9968L58.7568 26.1297L53.3821 24.1069L50.4181 22.992L49.5399 22.6621L38.0607 18.3407C36.3868 17.7801 34.5706 18.6859 34.0093 20.3611" stroke="#3F4A54" stroke-width="0.8" stroke-miterlimit="10" stroke-linecap="round" stroke-linejoin="round"/>
<path d="M53.4892 64.657C53.4892 64.657 52.5811 70.5102 51.7201 70.3012C50.8586 70.0936 48.9359 63.509 48.8188 62.7883" fill="#ACCE5B"/>
<path d="M53.4892 64.657C53.4892 64.657 52.5811 70.5102 51.7201 70.3012C50.8586 70.0936 48.9359 63.509 48.8188 62.7883" stroke="#3F4A54" stroke-width="0.8" stroke-miterlimit="10" stroke-linecap="round" stroke-linejoin="round"/>
<path d="M40.2672 60.0146C40.2672 60.0146 39.6877 61.0183 39.2832 61.7189C37.572 61.0429 36.0566 61.0236 35.6522 61.7241C35.3218 62.701 39.7415 65.0476 41.6611 64.2593C43.4405 63.5285 45.1825 61.8777 45.4938 61.7149" fill="#ACCE5B"/>
<path d="M40.2672 60.0146C40.2672 60.0146 39.6877 61.0183 39.2832 61.7189C37.572 61.0429 36.0566 61.0236 35.6522 61.7241C35.3218 62.701 39.7415 65.0476 41.6611 64.2593C43.4405 63.5285 45.1825 61.8777 45.4938 61.7149" stroke="#3F4A54" stroke-width="0.8" stroke-miterlimit="10" stroke-linecap="round" stroke-linejoin="round"/>
<path d="M75.1084 34.8148L79.2608 44.1548" stroke="#3F4A54" stroke-width="0.8" stroke-miterlimit="10" stroke-linecap="round" stroke-linejoin="round"/>
<path d="M42.5528 22.7892L34.3545 27.1033" stroke="#3F4A54" stroke-width="0.8" stroke-miterlimit="10" stroke-linecap="round" stroke-linejoin="round"/>
<path d="M75.0372 43.0221L68.3995 61.3641" stroke="#3F4A54" stroke-width="0.8" stroke-miterlimit="10" stroke-linecap="round" stroke-linejoin="round" stroke-dasharray="4 4"/>
<path d="M43.0429 48.1007C42.8886 48.6777 43.4903 49.3353 44.3765 49.5692C45.2679 49.8028 46.1115 49.5214 46.2601 48.9427C46.4125 48.3662 45.8166 47.7102 44.9291 47.4756C44.0364 47.2413 43.1956 47.5193 43.0429 48.1007Z" fill="#FF8080"/>
<path d="M59.1381 53.0329C58.9857 53.6094 59.5842 54.2668 60.4729 54.5021C61.3626 54.733 62.2059 54.4548 62.3565 53.8756C62.5089 53.2991 61.9105 52.6417 61.0203 52.4088C60.1315 52.1751 59.2893 52.4556 59.1381 53.0329Z" fill="#FF8080"/>
<path d="M63.394 51.6005C63.9561 49.6056 63.6133 47.8284 62.3351 47.4696C61.0561 47.1079 59.8078 48.2992 59.2445 50.2934" stroke="#3F4A54" stroke-width="0.8" stroke-miterlimit="10" stroke-linecap="round" stroke-linejoin="round"/>
<path d="M63.6512 49.5118C63.6532 49.216 63.6039 48.8116 63.4458 48.4833" stroke="white" stroke-width="0.8" stroke-miterlimit="10" stroke-linecap="round" stroke-linejoin="round"/>
<path d="M43.2377 45.7008C43.7998 43.7059 45.0211 42.3727 46.2984 42.7317C47.5749 43.0919 48.0205 44.7572 47.4589 46.7541" stroke="#3F4A54" stroke-width="0.8" stroke-miterlimit="10" stroke-linecap="round" stroke-linejoin="round"/>
<path d="M44.1052 43.7861C44.2568 43.5294 44.5137 43.2111 44.8151 43.0117" stroke="white" stroke-width="0.8" stroke-miterlimit="10" stroke-linecap="round" stroke-linejoin="round"/>
<path d="M71.3785 63.7297L63.3736 67.6856" stroke="#3F4A54" stroke-width="0.8" stroke-miterlimit="10" stroke-linecap="round" stroke-linejoin="round"/>
<path d="M29.114 33.3326L37.4836 35.8794C39.6084 36.5797 40.7619 38.8699 40.0598 40.9936C39.3595 43.1183 37.068 44.2712 34.9437 43.5703L26.5628 40.7217" stroke="#3F4A54" stroke-width="0.8" stroke-miterlimit="10" stroke-linecap="round" stroke-linejoin="round"/>
<path d="M34.2368 38.6513C33.6658 39.7022 34.0546 41.0153 35.1042 41.5855C36.1524 42.1582 37.468 41.7709 38.0382 40.7213C38.6085 39.6717 38.2217 38.3581 37.1715 37.7859C36.1213 37.2153 34.8076 37.6036 34.2368 38.6513Z" stroke="#3F4A54" stroke-width="0.8" stroke-miterlimit="10" stroke-linecap="round" stroke-linejoin="round"/>
<path d="M55.6896 48.6256C55.1151 48.585 52.9698 47.9261 52.1509 47.3019C52.1509 47.3019 50.037 51.6044 52.3217 52.343C53.2702 52.6519 54.0117 52.0937 54.5506 51.3345C55.3101 50.2669 55.9229 48.6422 55.6896 48.6256Z" stroke="#3F4A54" stroke-width="0.8" stroke-miterlimit="10" stroke-linecap="round" stroke-linejoin="round"/>
<path d="M51.4901 49.9151C52.3208 49.7626 52.9132 49.2306 54.5163 50.7724" stroke="#3F4A54" stroke-width="0.8" stroke-miterlimit="10" stroke-linecap="round" stroke-linejoin="round"/>
<path d="M26.2882 48.423L29.8352 56.0487" stroke="#3F4A54" stroke-width="0.8" stroke-miterlimit="10" stroke-linecap="round" stroke-linejoin="round"/>
<path d="M37.5955 49.3815C37.5955 49.3815 33.7775 51.0691 32.0573 51.005C30.3386 50.9398 29.6047 51.2411 31.1648 52.2833C35.0857 54.8996 40.3574 52.1788 40.3574 52.1788" stroke="#3F4A54" stroke-width="0.8" stroke-miterlimit="10" stroke-linecap="round" stroke-linejoin="round"/>
<path d="M77.8038 48.1714C77.8038 48.1714 81.0167 48.5369 84.359 44.8106C85.7709 43.2365 86.659 43.9554 85.841 46.1128C84.1258 50.6306 74.8812 54.5228 74.8812 54.5228" stroke="#3F4A54" stroke-width="0.8" stroke-miterlimit="10" stroke-linecap="round" stroke-linejoin="round"/>
<path d="M87.2929 64.1193C92.0401 64.1795 95.9372 60.38 95.9974 55.6329C96.0576 50.8858 92.2581 46.9887 87.511 46.9285C82.7638 46.8683 78.8667 50.6678 78.8065 55.4149C78.7463 60.162 82.5458 64.0591 87.2929 64.1193Z" fill="#FF9849"/>
<path d="M88.4058 63.8196C93.1529 63.8798 97.0501 60.0803 97.1103 55.3332C97.1705 50.5861 93.371 46.689 88.6238 46.6288C83.8767 46.5686 79.9796 50.3681 79.9194 55.1152C79.8592 59.8623 83.6587 63.7594 88.4058 63.8196Z" fill="#FFD733" stroke="#FFD733" stroke-width="0.8" stroke-miterlimit="10" stroke-linecap="round" stroke-linejoin="round"/>
<path d="M87.1069 69.3818L93.9117 60.2318H125.152L118.656 69.3818H87.1069Z" fill="url(#paint2_linear_279_3211)"/>
<rect x="73.6249" y="68.8987" width="13.4842" height="38.5263" fill="url(#paint3_linear_279_3211)"/>
<path d="M87.1069 68.8987H118.891V107.425H87.1069V68.8987Z" fill="#E6DBCC"/>
<path d="M87.5879 68.8987H73.909L65.9168 77.0856H79.9031L87.5879 68.8987Z" fill="#E7DBCC"/>
<path d="M40.3328 69.1901L37.0476 81.4506" stroke="#EADECD" stroke-width="0.8" stroke-linecap="round"/>
<path opacity="0.6" d="M89.2215 56.0292C89.2215 56.6732 89.4754 56.9952 89.9832 56.9952C89.9998 56.9952 90.0123 56.9952 90.0206 56.9952C90.2537 56.9952 90.4618 56.861 90.6449 56.5927C90.828 56.3243 90.9654 55.9889 91.0569 55.5864C91.2567 54.7636 91.3566 54.0167 91.3566 53.3459H91.2442C90.8946 53.3459 90.6241 53.2609 90.4326 53.091C90.2329 52.8942 90.133 52.6572 90.133 52.3799C90.133 52.1026 90.2121 51.879 90.3702 51.7091C90.5617 51.5213 90.7989 51.4273 91.0819 51.4273C91.6978 51.4273 92.114 51.7672 92.3304 52.447C92.9131 52.2949 93.529 52.0847 94.1783 51.8164V52.5812C93.5623 52.8316 92.988 53.0239 92.4553 53.1581C92.4636 53.2296 92.4678 53.3325 92.4678 53.4666C92.4345 55.3181 92.0308 56.6597 91.2567 57.4916C90.7989 57.9835 90.2037 58.2295 89.4713 58.2295C88.7471 58.2295 88.2061 57.8985 87.8481 57.2366C87.4403 57.9075 86.816 58.2429 85.9753 58.2429C85.4759 58.2429 85.0639 58.0551 84.7392 57.6794C84.4229 57.2948 84.2648 56.8431 84.2648 56.3243C84.2648 56.2349 84.269 56.1276 84.2773 56.0023C84.4521 54.446 84.5977 53.0686 84.7143 51.8701C85.0139 51.7628 85.2761 51.7091 85.5009 51.7091C86.0918 51.7091 86.3873 51.9282 86.3873 52.3665C86.3873 52.5364 86.3249 53.1223 86.2 54.124C86.0419 55.3852 85.9628 56.0963 85.9628 56.2573C85.9628 56.4093 86.0169 56.5614 86.1251 56.7134C86.2417 56.8655 86.404 56.9415 86.6121 56.9415C86.8285 56.9415 87.0199 56.8386 87.1864 56.6329C87.3529 56.4272 87.4736 56.1768 87.5485 55.8816L87.9855 51.8701C88.2518 51.7628 88.5348 51.7091 88.8345 51.7091C89.3755 51.7091 89.6461 51.9282 89.6461 52.3665C89.6461 52.5275 89.5878 53.0507 89.4713 53.9362C89.3048 55.1884 89.2215 55.8861 89.2215 56.0292ZM90.8447 52.3799C90.8447 52.532 90.9654 52.608 91.2067 52.608C91.2317 52.608 91.2567 52.608 91.2817 52.608C91.2234 52.3665 91.136 52.2457 91.0195 52.2457C90.9029 52.2457 90.8447 52.2905 90.8447 52.3799Z" fill="white"/>
<path fill-rule="evenodd" clip-rule="evenodd" d="M135.624 54.9794C136.565 54.6737 137.566 55.1373 137.849 56.0089L138.646 58.4627L145.005 56.3973L144.209 53.9436C143.925 53.0719 144.464 52.1084 145.404 51.8029L144.715 50.4776C144.715 50.4776 138.689 51.0826 135.092 53.9935L135.624 54.9794Z" fill="#845EFC"/>
<path fill-rule="evenodd" clip-rule="evenodd" d="M139.817 51.5708L141.731 57.463L145.006 56.3991L144.209 53.9451C143.926 53.0728 144.464 52.1097 145.405 51.8043L144.715 50.479C144.715 50.479 142.42 50.7101 139.817 51.5708Z" fill="#8F62ED"/>
<path fill-rule="evenodd" clip-rule="evenodd" d="M141.591 56.5082L140.506 56.8606C140.27 56.9372 140.024 56.8344 139.958 56.6304L139.428 54.9994C139.219 54.3551 139.659 53.628 140.407 53.3851C141.155 53.1421 141.939 53.4719 142.148 54.1161L142.678 55.7471" fill="white"/>
<path fill-rule="evenodd" clip-rule="evenodd" d="M141.285 56.6076L142.37 56.2552C142.606 56.1784 142.744 55.9511 142.678 55.7471L142.148 54.1161C141.939 53.4719 141.156 53.1419 140.407 53.385C139.66 53.6278 139.219 54.3551 139.428 54.9994L139.958 56.6304" fill="white"/>
<path d="M143.613 47.8309C143.853 48.0873 144.052 48.422 144.177 48.8082L145.244 51.3099" stroke="#3F4A54" stroke-width="0.8" stroke-linecap="round" stroke-linejoin="round"/>
<path d="M135.273 54.551L134.779 51.8483C134.432 50.7797 135.089 49.5999 136.238 49.2268L141.489 47.5213C141.82 47.4136 142.157 47.3842 142.478 47.4226" stroke="#3F4A54" stroke-width="0.8" stroke-linecap="round" stroke-linejoin="round"/>
<path d="M138.491 47.4917L139.219 47.2552C139.517 47.1584 139.792 47.1766 139.831 47.2957L139.998 47.5033" stroke="#3F4A54" stroke-width="0.8" stroke-linecap="round" stroke-linejoin="round"/>
<path d="M137.444 48.2348L137.424 47.9424" stroke="#3F4A54" stroke-width="0.8" stroke-linecap="round" stroke-linejoin="round"/>
<path d="M135.385 59.524L134.58 57.0456C134.294 56.1647 134.774 55.2127 135.647 54.9294C136.52 54.6459 137.467 55.1342 137.753 56.0151L138.558 58.4935" stroke="#3F4A54" stroke-width="0.8" stroke-linecap="round" stroke-linejoin="round"/>
<path d="M144.904 56.4332L144.099 53.9548C143.813 53.0739 144.293 52.1219 145.166 51.8385C146.039 51.555 146.986 52.0434 147.272 52.9243L148.077 55.4027" stroke="#3F4A54" stroke-width="0.8" stroke-linecap="round" stroke-linejoin="round"/>
<path d="M141.591 56.5082L140.506 56.8606C140.27 56.9372 140.024 56.8344 139.958 56.6304L139.428 54.9994C139.219 54.3551 139.659 53.628 140.407 53.3851C141.155 53.1421 141.939 53.4719 142.148 54.1161L142.678 55.7471" stroke="#3F4A54" stroke-width="0.8" stroke-linecap="round" stroke-linejoin="round"/>
<path d="M144.071 56.952L149.057 55.3326" stroke="#3F4A54" stroke-width="0.8" stroke-linecap="round" stroke-linejoin="round"/>
<path d="M135.004 59.8974L142.71 57.3947" stroke="#3F4A54" stroke-width="0.8" stroke-linecap="round" stroke-linejoin="round"/>
<path d="M137.577 52.3877C139.176 51.7266 141.617 50.9261 144.947 50.3972" stroke="#3F4A54" stroke-width="0.8" stroke-linecap="round" stroke-linejoin="round"/>
<path d="M135.393 53.3798C135.393 53.3798 135.666 53.1705 136.228 52.8665" stroke="#3F4A54" stroke-width="0.8" stroke-linecap="round" stroke-linejoin="round"/>
<path fill-rule="evenodd" clip-rule="evenodd" d="M136.841 56.2946C136.963 56.67 136.757 57.0733 136.382 57.1953C136.006 57.3172 135.603 57.1116 135.481 56.7362C135.359 56.3608 135.565 55.9574 135.94 55.8355C136.316 55.7135 136.719 55.9191 136.841 56.2946Z" fill="white"/>
<path d="M148.14 57.1383L137.262 60.6714" stroke="#3F4A54" stroke-width="0.8" stroke-linecap="round" stroke-linejoin="round"/>
<path d="M138.105 58.6384L138.457 59.7232C138.587 60.124 138.245 60.5973 137.695 60.7757L137.426 60.8631C136.877 61.0414 136.321 60.8601 136.191 60.4593L135.839 59.3745" stroke="#3F4A54" stroke-width="0.8" stroke-linecap="round" stroke-linejoin="round"/>
<path d="M147.624 55.5477L147.976 56.6326C148.107 57.0333 147.764 57.5067 147.215 57.685L146.946 57.7724C146.396 57.9508 145.84 57.7694 145.71 57.3686L145.358 56.2838" stroke="#3F4A54" stroke-width="0.8" stroke-linecap="round" stroke-linejoin="round"/>
<path d="M136.774 56.1487C136.801 56.1936 136.824 56.2425 136.841 56.2948C136.963 56.6706 136.757 57.0733 136.382 57.1953C136.006 57.3173 135.603 57.1122 135.481 56.7364C135.359 56.3611 135.565 55.9575 135.94 55.8355" stroke="#3F4A54" stroke-width="0.8" stroke-linecap="round" stroke-linejoin="round"/>
<path fill-rule="evenodd" clip-rule="evenodd" d="M146.813 53.0564C146.935 53.4318 146.628 53.8681 146.128 54.0307C145.627 54.1933 145.122 54.0207 145 53.6453C144.878 53.2698 145.185 52.8335 145.686 52.6709C146.187 52.5083 146.691 52.681 146.813 53.0564Z" fill="white"/>
<path d="M146.741 52.9124C146.772 52.9561 146.796 53.0043 146.813 53.0566C146.935 53.4324 146.629 53.8681 146.128 54.0307C145.627 54.1934 145.122 54.0213 145 53.6455C144.878 53.2702 145.185 52.8336 145.686 52.6709" stroke="#3F4A54" stroke-width="0.8" stroke-linecap="round" stroke-linejoin="round"/>
<path fill-rule="evenodd" clip-rule="evenodd" d="M12.6924 69.1755C12.9736 69.3433 13.2475 69.5426 13.4 69.8551C13.745 70.5617 13.4345 71.4057 12.7071 71.7407C12.7019 71.7431 12.6969 71.7438 12.6916 71.7462L13.0574 72.4949L14.0019 72.06L19.1333 69.6981L16.9714 65.7289L11.0786 68.4415L11.444 69.1902C11.4493 69.1881 11.4528 69.1843 11.4581 69.1823C11.5968 69.1184 11.7408 69.0773 11.8851 69.0582C11.8851 69.0582 12.4002 69.0008 12.6924 69.1755Z" fill="#C367D6"/>
<path fill-rule="evenodd" clip-rule="evenodd" d="M17.1992 68.6262C17.1992 69.5157 16.4054 70.2371 15.427 70.2371C14.4485 70.2371 13.6551 69.5157 13.6551 68.6262C13.6551 67.7363 14.4485 67.0152 15.427 67.0152C16.4054 67.0152 17.1992 67.7363 17.1992 68.6262Z" fill="white"/>
<path fill-rule="evenodd" clip-rule="evenodd" d="M20.9951 67.8674L20.9493 67.7713C20.9049 67.7926 20.8582 67.8042 20.8124 67.8203C20.8714 67.8416 20.9336 67.8545 20.9951 67.8674Z" fill="white"/>
<path d="M19.0396 69.5713L18.9056 69.2884" stroke="#3F4A54" stroke-width="0.8" stroke-linecap="round" stroke-linejoin="round"/>
<path d="M18.4917 68.6274L17.2029 66.3721" stroke="#3F4A54" stroke-width="0.8" stroke-linecap="round" stroke-linejoin="round" stroke-dasharray="2.22 2.22"/>
<path d="M17.1086 66.0314L16.9742 65.7485" stroke="#3F4A54" stroke-width="0.8" stroke-linecap="round" stroke-linejoin="round"/>
<path d="M12.6881 68.9461C13.0299 69.0762 13.32 69.3025 13.4935 69.6057C13.8862 70.2916 13.5327 71.1108 12.7049 71.436C12.6989 71.4383 12.6933 71.439 12.6873 71.4413L13.1036 72.168" stroke="#3F4A54" stroke-width="0.8" stroke-linecap="round" stroke-linejoin="round"/>
<path d="M16.878 65.7289L11.0786 68.2539L11.4382 68.9508C11.4431 68.9489 11.4469 68.9454 11.4521 68.9435C11.5882 68.8839 11.7303 68.8461 11.8723 68.8283" stroke="#3F4A54" stroke-width="0.8" stroke-linecap="round" stroke-linejoin="round"/>
<path d="M20.1027 67.9838C19.6179 67.9044 19.1802 67.6141 18.9536 67.1669C18.5818 66.435 18.9161 65.5607 19.6994 65.2137L19.3064 64.4397L18.8482 64.6422L18.5121 64.7916L18.1289 64.9609L17.5252 65.2286" stroke="#3F4A54" stroke-width="0.8" stroke-linecap="round" stroke-linejoin="round"/>
<path d="M13.9778 71.8461L21.0659 68.6858L20.7095 67.9798" stroke="#3F4A54" stroke-width="0.8" stroke-linecap="round" stroke-linejoin="round"/>
<path d="M15.97 68.4081L16.2338 68.9629L15.7246 69.1123L15.3759 69.5914L15.1021 69.0438L14.6228 68.7849L14.963 68.2973L15.0159 67.6583L15.1574 67.7302L15.4997 67.9043L16.0116 67.7684" stroke="#3F4A54" stroke-width="0.8" stroke-linecap="round" stroke-linejoin="round"/>
<rect y="87.3652" width="29.2384" height="29.2384" fill="white" fill-opacity="0.01"/>
<path fill-rule="evenodd" clip-rule="evenodd" d="M14.9598 92.2063C12.5111 92.2063 10.2887 93.1829 8.6133 94.7713L9.85878 96.2273C11.2015 94.9445 12.9897 94.1543 14.9598 94.1543C19.1234 94.1543 22.4989 97.6549 22.4989 101.973C22.4989 106.291 19.1234 109.792 14.9598 109.792V111.74C20.1609 111.74 24.3774 107.367 24.3774 101.973C24.3774 96.5789 20.1609 92.2063 14.9598 92.2063Z" fill="#2A85FD"/>
<path fill-rule="evenodd" clip-rule="evenodd" d="M21.7603 98.6154L23.4407 97.7477C21.9203 94.4723 18.6991 92.2063 14.9598 92.2063C12.5112 92.2063 10.2887 93.1829 8.6133 94.7713L9.85807 96.2273C11.2015 94.9445 12.9897 94.1543 14.9598 94.1543C17.9625 94.1543 20.5479 95.9803 21.7603 98.6154Z" fill="#2A85FD"/>
<path d="M23.621 98.1826C24.0912 99.3449 24.3498 100.619 24.352 101.951C24.3675 107.304 20.1827 111.662 14.995 111.692C11.5356 111.713 8.48779 109.77 6.84971 106.865" stroke="#3F4A54" stroke-width="0.8" stroke-linecap="round" stroke-linejoin="round"/>
<path d="M5.93579 104.659C5.70177 103.811 5.5756 102.915 5.5756 101.988C5.5749 96.6079 9.6835 92.2528 14.9502 92.2331C17.9515 92.2214 20.589 93.6562 22.3011 95.8828" stroke="#3F4A54" stroke-width="0.8" stroke-linecap="round" stroke-linejoin="round"/>
<path d="M22.4872 100.925C21.7732 95.1194 14.683 92.1926 10.2671 95.7904" stroke="#3F4A54" stroke-width="0.8" stroke-linecap="round" stroke-linejoin="round"/>
<path d="M8.73473 97.4642C8.02423 98.508 7.56185 99.7302 7.44061 101.004" stroke="#3F4A54" stroke-width="0.8" stroke-linecap="round" stroke-linejoin="round"/>
<path d="M15.8996 99.9965C15.6007 99.8672 15.2715 99.7992 14.9276 99.8109C13.6003 99.8533 12.5501 100.952 12.5945 102.25C12.6086 102.677 12.7362 103.078 12.9441 103.423C13.0167 103.543 13.0992 103.656 13.1901 103.762C13.3022 103.893 13.4283 104.01 13.5644 104.113C13.9732 104.423 14.4765 104.599 15.0079 104.578C16.362 104.526 17.3607 103.474 17.3255 102.138C17.3135 101.668 17.169 101.233 16.9301 100.869" stroke="#3F4A54" stroke-width="0.8" stroke-linecap="round" stroke-linejoin="round"/>
<path d="M8.96405 99.0497L8.09144 98.6155" stroke="#3F4A54" stroke-width="0.8" stroke-linecap="round" stroke-linejoin="round"/>
<path d="M12.8929 101.004L9.66188 99.3984" stroke="#3F4A54" stroke-width="0.8" stroke-linecap="round" stroke-linejoin="round"/>
<path d="M20.2201 99.3987L21.7934 98.6165" stroke="#3F4A54" stroke-width="0.8" stroke-linecap="round" stroke-linejoin="round"/>
<path d="M16.9892 101.002L19.0939 99.9557" stroke="#3F4A54" stroke-width="0.8" stroke-linecap="round" stroke-linejoin="round"/>
<path d="M15.0074 104.65L14.9595 109.758" stroke="#3F4A54" stroke-width="0.8" stroke-linecap="round" stroke-linejoin="round"/>
<path d="M22.4515 103.249C21.6966 112.026 8.23955 111.872 7.51073 103.136" stroke="#3F4A54" stroke-width="0.8" stroke-linecap="round" stroke-linejoin="round"/>
<path fill-rule="evenodd" clip-rule="evenodd" d="M16.0901 102.195C16.0901 102.844 15.5826 103.37 14.9574 103.37C14.3314 103.37 13.8239 102.844 13.8239 102.195C13.8239 101.546 14.3314 101.021 14.9574 101.021C15.5826 101.021 16.0901 101.546 16.0901 102.195Z" fill="#2A85FD"/>
<rect x="102.233" y="97.8976" width="21.0662" height="9.9135" fill="white"/>
<rect x="97.8972" y="85.5037" width="29.2384" height="29.2384" fill="white" fill-opacity="0.01"/>
<path fill-rule="evenodd" clip-rule="evenodd" d="M105.565 91.8273L101.296 98.273H123.973L119.938 91.8273H105.565Z" fill="#FF9849"/>
<path fill-rule="evenodd" clip-rule="evenodd" d="M123.973 98.2735H101.297L105.565 91.8279H119.939L123.973 98.2735Z" stroke="#3F4A54" stroke-width="0.8" stroke-linecap="round" stroke-linejoin="round"/>
<path d="M123.038 101.294V98.2732" stroke="#3F4A54" stroke-width="0.8" stroke-linecap="round" stroke-linejoin="round"/>
<path d="M123.038 103.731V102.665" stroke="#3F4A54" stroke-width="0.8" stroke-linecap="round" stroke-linejoin="round"/>
<path d="M102.542 98.2732V104.661" stroke="#3F4A54" stroke-width="0.8" stroke-linecap="round" stroke-linejoin="round"/>
<path d="M111.546 98.2727V101.786" stroke="#3F4A54" stroke-width="0.8" stroke-linecap="round" stroke-linejoin="round"/>
<path d="M111.546 103.27V104.663" stroke="#3F4A54" stroke-width="0.8" stroke-linecap="round" stroke-linejoin="round"/>
<path fill-rule="evenodd" clip-rule="evenodd" d="M105.417 102.136V107.914L108.873 107.712V102.136H105.417Z" fill="#FF9849"/>
<path d="M105.416 107.915V102.137H108.872V107.713" stroke="#3F4A54" stroke-width="0.8" stroke-linecap="round" stroke-linejoin="round"/>
<path d="M111.546 106.027V107.915H102.544V105.825" stroke="#3F4A54" stroke-width="0.8" stroke-linecap="round" stroke-linejoin="round"/>
<path fill-rule="evenodd" clip-rule="evenodd" d="M115.377 104.952H118.513V102.02H115.377V104.952Z" fill="#FF9849"/>
<path fill-rule="evenodd" clip-rule="evenodd" d="M115.377 104.952H118.513V102.02H115.377V104.952Z" stroke="#3F4A54" stroke-width="0.8" stroke-linecap="round" stroke-linejoin="round"/>
<mask id="mask0_279_3211" style="mask-type:luminance" maskUnits="userSpaceOnUse" x="118" y="104" width="7" height="4">
<path fill-rule="evenodd" clip-rule="evenodd" d="M118.209 104.327H124.652V107.993H118.209V104.327Z" fill="white"/>
</mask>
<g mask="url(#mask0_279_3211)">
<path fill-rule="evenodd" clip-rule="evenodd" d="M118.951 107.828C117.673 107.218 118.209 105.61 119.322 105.872C119.611 104.333 121.506 103.719 122.933 105.084L123.04 105.454C123.04 105.454 123.696 105.329 124.221 105.682C124.936 106.165 124.684 107.405 124.025 107.767C123.368 108.13 123.608 107.935 122.933 107.985C122.259 108.035 118.951 107.828 118.951 107.828Z" fill="#FF9849"/>
</g>
<path d="M120.57 107.913H113.722" stroke="#3F4A54" stroke-width="0.8" stroke-linecap="round" stroke-linejoin="round"/>
<path d="M123.039 107.913H121.999" stroke="#3F4A54" stroke-width="0.8" stroke-linecap="round" stroke-linejoin="round"/>
<path d="M118.951 107.913C117.673 107.304 118.209 105.695 119.322 105.957C119.611 104.418 121.506 103.804 122.933 105.168" stroke="#3F4A54" stroke-width="0.8" stroke-linecap="round" stroke-linejoin="round"/>
<path d="M123.04 105.244H123.973" stroke="#3F4A54" stroke-width="0.8" stroke-linecap="round" stroke-linejoin="round"/>
<rect x="131.974" y="92.9389" width="19.2074" height="19.2074" fill="white" fill-opacity="0.01"/>
<path fill-rule="evenodd" clip-rule="evenodd" d="M135.647 101.774C135.647 101.774 136.64 102.802 137.565 101.845C137.648 101.76 137.741 101.694 137.84 101.653C138.02 101.578 138.291 101.531 138.554 101.739C138.578 101.759 138.601 101.783 138.622 101.808C138.767 101.976 139.448 102.684 140.062 101.873C140.136 101.776 140.221 101.698 140.316 101.647C140.49 101.552 140.754 101.498 141.005 101.8C141.633 102.725 142.35 101.98 142.498 101.808C142.52 101.783 142.542 101.759 142.566 101.74C142.83 101.531 143.1 101.578 143.28 101.653C143.379 101.694 143.472 101.76 143.555 101.845C144.48 102.802 145.474 101.774 145.474 101.774L145.066 107.543C145.066 107.543 145.066 108.858 144.009 108.832L137.112 108.831C136.055 108.857 136.055 107.543 136.055 107.543L135.828 103.805" fill="#5FCA76"/>
<path fill-rule="evenodd" clip-rule="evenodd" d="M142.907 108.783V106.685V105.95C142.907 104.12 144.057 102.157 145.475 102.157V101.677L144.678 108.322C144.644 108.588 144.466 108.783 144.257 108.783H142.907Z" fill="#5FCA76"/>
<path d="M139.42 100.96L138.669 98.613C138.462 98.153 137.412 98.3436 136.952 98.5501C136.492 98.7566 135.651 99.4149 135.858 99.8749L136.5 101.041" stroke="#3F4A54" stroke-width="0.8" stroke-linecap="round" stroke-linejoin="round"/>
<path d="M136.431 100.396L137.475 99.9276" stroke="#3F4A54" stroke-width="0.8" stroke-linecap="round" stroke-linejoin="round"/>
<path d="M138.306 100.545L139.126 100.177" stroke="#3F4A54" stroke-width="0.8" stroke-linecap="round" stroke-linejoin="round"/>
<path d="M136.442 98.066L136.952 98.5501L136.937 97.3784" stroke="#3F4A54" stroke-width="0.8" stroke-linecap="round" stroke-linejoin="round"/>
<path d="M144.366 101.318L144.633 100.326C144.871 99.6252 144.671 98.8823 144.189 98.3805L144.435 97.6583L142.784 97.0965L142.538 97.8182C141.85 97.9219 141.238 98.3877 140.999 99.0883L140.303 100.923" stroke="#3F4A54" stroke-width="0.8" stroke-linecap="round" stroke-linejoin="round"/>
<path d="M140.809 100.031C141.074 100.148 141.358 100.268 141.644 100.223C141.864 100.19 142.057 100.064 142.26 99.9762C142.26 99.9762 143.444 99.107 144.396 100.641" stroke="#3F4A54" stroke-width="0.8" stroke-linecap="round" stroke-linejoin="round"/>
<path fill-rule="evenodd" clip-rule="evenodd" d="M144.516 97.6809L142.707 97.0648C142.478 96.9865 142.354 96.7349 142.432 96.5058L142.457 96.4304C142.536 96.2014 142.787 96.0775 143.016 96.1558L144.826 96.7719C145.055 96.8501 145.179 97.1013 145.101 97.3308L145.075 97.4057C144.997 97.6352 144.746 97.7591 144.516 97.6809Z" stroke="#3F4A54" stroke-width="0.8" stroke-linecap="round" stroke-linejoin="round"/>
<path d="M135.647 101.774C135.647 101.774 136.64 102.802 137.565 101.845C137.648 101.76 137.741 101.694 137.84 101.653C138.02 101.578 138.291 101.531 138.554 101.739C138.578 101.759 138.601 101.783 138.622 101.808C138.767 101.976 139.448 102.684 140.062 101.873C140.136 101.776 140.221 101.698 140.316 101.647C140.49 101.552 140.754 101.498 141.005 101.8C141.633 102.725 142.35 101.98 142.498 101.808C142.52 101.783 142.542 101.759 142.566 101.74C142.83 101.531 143.1 101.578 143.28 101.653C143.379 101.694 143.472 101.76 143.555 101.845C144.48 102.802 145.474 101.774 145.474 101.774L145.066 107.543C145.066 107.543 145.066 108.858 144.009 108.832L137.112 108.831C136.055 108.857 136.055 107.543 136.055 107.543L135.828 103.805" stroke="#3F4A54" stroke-width="0.8" stroke-linecap="round" stroke-linejoin="round"/>
<path d="M145.988 108.829H138.605" stroke="#3F4A54" stroke-width="0.8" stroke-linecap="round" stroke-linejoin="round"/>
<path d="M143.26 104.286L142.995 108.707" stroke="#3F4A54" stroke-width="0.8" stroke-linecap="round" stroke-linejoin="round"/>
<defs>
<radialGradient id="paint0_radial_279_3211" cx="0" cy="0" r="1" gradientUnits="userSpaceOnUse" gradientTransform="translate(80.3656 62.2208) rotate(90) scale(62.2208)">
<stop stop-color="white"/>
<stop offset="1" stop-color="white" stop-opacity="0"/>
</radialGradient>
<linearGradient id="paint1_linear_279_3211" x1="84.5907" y1="103.109" x2="84.3525" y2="114.309" gradientUnits="userSpaceOnUse">
<stop stop-color="#EBE4DA"/>
<stop offset="1" stop-color="#EBE4DA" stop-opacity="0"/>
</linearGradient>
<linearGradient id="paint2_linear_279_3211" x1="106.129" y1="60.2318" x2="106.129" y2="69.3818" gradientUnits="userSpaceOnUse">
<stop stop-color="#E6DBCC"/>
<stop offset="1" stop-color="#D6C6B1"/>
</linearGradient>
<linearGradient id="paint3_linear_279_3211" x1="80.367" y1="68.8987" x2="80.367" y2="107.425" gradientUnits="userSpaceOnUse">
<stop stop-color="#D1C1AB"/>
<stop offset="1" stop-color="#E6DBCC"/>
</linearGradient>
</defs>
</svg>
