<svg width="27" height="26" viewBox="0 0 27 26" fill="none" xmlns="http://www.w3.org/2000/svg">
<rect width="27.0001" height="25.4688" fill="white" fill-opacity="0.01"/>
<path fill-rule="evenodd" clip-rule="evenodd" d="M13.8124 4.21997C11.5512 4.21997 9.49895 5.07062 7.95177 6.45422L9.1019 7.72257C10.3419 6.60512 11.9932 5.91683 13.8124 5.91683C17.6573 5.91683 20.7744 8.96608 20.7744 12.7272C20.7744 16.4889 17.6573 19.5382 13.8124 19.5382V21.235C18.6154 21.235 22.509 17.4262 22.509 12.7272C22.509 8.02883 18.6154 4.21997 13.8124 4.21997Z" fill="#4096DD"/>
<path fill-rule="evenodd" clip-rule="evenodd" d="M20.0925 9.80273L21.6442 9.04694C20.2402 6.1938 17.2657 4.21997 13.8127 4.21997C11.5515 4.21997 9.49919 5.07062 7.95202 6.45422L9.1015 7.72257C10.3421 6.60512 11.9934 5.91683 13.8127 5.91683C16.5855 5.91683 18.973 7.50735 20.0925 9.80273Z" fill="#55A0E9"/>
<path d="M21.8115 9.42464C22.2456 10.437 22.4845 11.5468 22.4864 12.7069C22.5008 17.3703 18.6364 21.1658 13.8458 21.1925C10.6512 21.211 7.83677 19.5179 6.32409 16.9876" stroke="#3F4A54" stroke-linecap="round" stroke-linejoin="round"/>
<path d="M5.48041 15.0583C5.26431 14.3191 5.1478 13.5391 5.1478 12.7318C5.14715 8.04486 8.94122 4.25128 13.8047 4.23409C16.5762 4.2239 19.0119 5.47379 20.5929 7.41324" stroke="#3F4A54" stroke-linecap="round" stroke-linejoin="round"/>
<path d="M20.7658 11.8128C20.1064 6.75536 13.5591 4.20594 9.48122 7.33987" stroke="#3F4A54" stroke-linecap="round" stroke-linejoin="round"/>
<path d="M8.06666 8.7971C7.41056 9.70634 6.98357 10.7709 6.87162 11.8801" stroke="#3F4A54" stroke-linecap="round" stroke-linejoin="round"/>
<path d="M14.6798 11.0031C14.4038 10.8904 14.0999 10.8312 13.7822 10.8414C12.5566 10.8783 11.5868 11.8353 11.6278 12.9661C11.6408 13.338 11.7586 13.6875 11.9506 13.9874C12.0176 14.0925 12.0938 14.1912 12.1778 14.2829C12.2813 14.3968 12.3978 14.4994 12.5234 14.5891C12.9009 14.8585 13.3656 15.0119 13.8564 14.9941C15.1068 14.9482 16.0291 14.032 15.9966 12.8687C15.9855 12.4593 15.8521 12.0798 15.6314 11.7627" stroke="#3F4A54" stroke-linecap="round" stroke-linejoin="round"/>
<path d="M8.27517 10.1778L7.46936 9.79959" stroke="#3F4A54" stroke-linecap="round" stroke-linejoin="round"/>
<path d="M11.9056 11.8802L8.92188 10.4813" stroke="#3F4A54" stroke-linecap="round" stroke-linejoin="round"/>
<path d="M18.6724 10.4813L20.1252 9.80002" stroke="#3F4A54" stroke-linecap="round" stroke-linejoin="round"/>
<path d="M15.6896 11.8803L17.6332 10.9685" stroke="#3F4A54" stroke-linecap="round" stroke-linejoin="round"/>
<path d="M13.8569 15.0563L13.8127 19.5057" stroke="#3F4A54" stroke-linecap="round" stroke-linejoin="round"/>
<path d="M20.7331 13.8344C20.036 21.4802 7.60914 21.3452 6.93612 13.7358" stroke="#3F4A54" stroke-linecap="round" stroke-linejoin="round"/>
<path fill-rule="evenodd" clip-rule="evenodd" d="M14.8585 12.9179C14.8585 13.4833 14.3898 13.9411 13.8125 13.9411C13.2345 13.9411 12.7659 13.4833 12.7659 12.9179C12.7659 12.3525 13.2345 11.8947 13.8125 11.8947C14.3898 11.8947 14.8585 12.3525 14.8585 12.9179Z" fill="#55A0E9"/>
</svg>
