<svg width="27" height="26" viewBox="0 0 27 26" fill="none" xmlns="http://www.w3.org/2000/svg">
<rect width="27.0001" height="25.4688" fill="white" fill-opacity="0.01"/>
<path fill-rule="evenodd" clip-rule="evenodd" d="M15.1541 13.0939H7.39157L8.83607 21.2694C8.89817 21.6228 9.22217 21.8813 9.60152 21.8813H17.6016C17.981 21.8813 18.305 21.6228 18.3678 21.2694L19.8116 13.0939H15.1541Z" fill="#F181A8"/>
<path fill-rule="evenodd" clip-rule="evenodd" d="M15.1539 21.8813V19.0989V17.488C15.1539 15.0614 17.2397 13.0939 19.8114 13.0939L18.3676 21.2694C18.3048 21.6228 17.9808 21.8813 17.6015 21.8813H15.1539Z" fill="#E2719D"/>
<path fill-rule="evenodd" clip-rule="evenodd" d="M14.4538 15.0316L13.4386 17.4874H5.83812L7.3913 13.094L15.3185 13.0628" fill="white"/>
<path d="M14.4538 15.0317L13.4386 17.4875H5.83812L7.3913 13.0941L19.6682 13.0419L18.3675 21.2696C18.3675 21.2696 18.2554 21.9063 17.4826 21.8815H9.60193C9.60193 21.8815 8.8709 21.9757 8.8358 21.2696L8.3579 18.8323" stroke="#3F4A54" stroke-linecap="round" stroke-linejoin="round"/>
<path d="M20.8596 15.3034L21.6149 17.4593" stroke="#3F4A54" stroke-linecap="round" stroke-linejoin="round"/>
<path d="M19.8117 21.8857H10.1085" stroke="#3F4A54" stroke-linecap="round" stroke-linejoin="round"/>
<path d="M15.1541 18.8257V21.717" stroke="#3F4A54" stroke-linecap="round" stroke-linejoin="round"/>
<path d="M16.7457 4.23409L15.3187 11.8283" stroke="#3F4A54" stroke-linecap="round" stroke-linejoin="round"/>
<path d="M12.0854 4.23409C12.4297 5.89975 12.7429 7.41706 13.0858 9.08208" stroke="#3F4A54" stroke-linecap="round" stroke-linejoin="round"/>
<path d="M16.8664 10.4563C17.1654 10.5684 18.0335 10.8416 18.483 11.8278" stroke="#3F4A54" stroke-linecap="round" stroke-linejoin="round"/>
<path d="M8.33792 11.8283C8.33792 11.8283 9.12699 10.665 11.0852 10.8324C11.0852 10.8324 12.1105 11.0655 12.9961 10.5325C13.3323 10.3294 13.8844 9.91809 14.448 10.0053" stroke="#3F4A54" stroke-linecap="round" stroke-linejoin="round"/>
</svg>
