<svg width="48" height="48" viewBox="0 0 48 48" fill="none" xmlns="http://www.w3.org/2000/svg">
<path d="M23.9998 1.49999C11.5735 1.49999 1.49999 11.5735 1.49999 23.9998C1.49999 36.426 11.5735 46.4995 23.9998 46.4995C36.426 46.4995 46.4995 36.426 46.4995 23.9998" stroke="#F5ECDF" stroke-width="3" stroke-linecap="round"/>
<path d="M46.5 23.9998C46.5 11.5735 36.4265 1.49998 24.0002 1.49998" stroke="#1EB290" stroke-width="3" stroke-linecap="round"/>
<rect x="6.90008" y="5.10029" width="35.9996" height="35.9996" fill="white" fill-opacity="0.01"/>
<path fill-rule="evenodd" clip-rule="evenodd" d="M13.7846 21.6562C13.7846 21.6562 15.6458 23.5822 17.3801 21.7894C17.5358 21.6292 17.7104 21.5059 17.8958 21.4294C18.2324 21.289 18.74 21.2017 19.2341 21.5914C19.2791 21.6283 19.3214 21.6724 19.3619 21.7192C19.6328 22.0342 20.909 23.3617 22.061 21.8425C22.1987 21.6607 22.358 21.514 22.5353 21.4186C22.862 21.2404 23.357 21.1396 23.8276 21.7048C25.0048 23.4382 26.3476 22.0432 26.6257 21.7192C26.6662 21.6724 26.7076 21.6283 26.7535 21.5923C27.2476 21.2017 27.7543 21.289 28.0909 21.4294C28.2772 21.5059 28.4518 21.6292 28.6075 21.7894C30.3409 23.5822 32.203 21.6562 32.203 21.6562L31.438 32.4687C31.438 32.4687 31.438 34.9329 29.4571 34.8843L16.5305 34.8834C14.5496 34.932 14.5496 32.4687 14.5496 32.4687L14.1248 25.4623" fill="#5FCA76"/>
<path fill-rule="evenodd" clip-rule="evenodd" d="M27.3908 34.7951V30.8622V29.4852C27.3908 26.0553 29.5454 22.3752 32.2031 22.3752V21.4752L30.71 33.9302C30.6461 34.4297 30.3113 34.7951 29.9198 34.7951H27.3908Z" fill="#5FCA76"/>
<path d="M20.8571 20.128L19.4495 15.7298C19.0625 14.8676 17.0933 15.2249 16.2311 15.6119C15.3689 15.9989 13.7939 17.2328 14.1809 18.095L15.3842 20.281" stroke="#3F4A54" stroke-width="1.3" stroke-linecap="round" stroke-linejoin="round"/>
<path d="M15.2533 19.0792L17.2098 18.2008" stroke="#3F4A54" stroke-width="1.3" stroke-linecap="round" stroke-linejoin="round"/>
<path d="M18.7671 19.3595L20.3043 18.6692" stroke="#3F4A54" stroke-width="1.3" stroke-linecap="round" stroke-linejoin="round"/>
<path d="M15.2771 14.7045L16.232 15.6117L16.205 13.4158" stroke="#3F4A54" stroke-width="1.3" stroke-linecap="round" stroke-linejoin="round"/>
<path d="M30.1269 20.8047L30.6264 18.9444C31.0728 17.6313 30.6975 16.239 29.7948 15.2985L30.2556 13.9449L27.1606 12.892L26.6998 14.2446C25.411 14.439 24.2635 15.312 23.8162 16.6251L22.5121 20.0631" stroke="#3F4A54" stroke-width="1.3" stroke-linecap="round" stroke-linejoin="round"/>
<path d="M23.4586 18.392C23.9554 18.6116 24.4873 18.8357 25.0237 18.7529C25.435 18.6899 25.7968 18.4541 26.1784 18.2894C26.1784 18.2894 28.3969 16.6604 30.1816 19.535" stroke="#3F4A54" stroke-width="1.3" stroke-linecap="round" stroke-linejoin="round"/>
<path fill-rule="evenodd" clip-rule="evenodd" d="M30.4075 13.9874L27.0154 12.8327C26.5861 12.686 26.3539 12.2144 26.4997 11.7851L26.5483 11.6438C26.695 11.2145 27.1657 10.9823 27.5959 11.129L30.988 12.2837C31.4173 12.4304 31.6486 12.9011 31.5028 13.3313L31.4542 13.4717C31.3084 13.9019 30.8377 14.1341 30.4075 13.9874Z" stroke="#3F4A54" stroke-width="1.3" stroke-linecap="round" stroke-linejoin="round"/>
<path d="M13.7846 21.6562C13.7846 21.6562 15.6458 23.5822 17.3801 21.7894C17.5358 21.6292 17.7104 21.5059 17.8958 21.4294C18.2324 21.289 18.74 21.2017 19.2341 21.5914C19.2791 21.6283 19.3214 21.6724 19.3619 21.7192C19.6328 22.0342 20.909 23.3617 22.061 21.8425C22.1987 21.6607 22.358 21.514 22.5353 21.4186C22.862 21.2404 23.357 21.1396 23.8276 21.7048C25.0048 23.4382 26.3476 22.0432 26.6257 21.7192C26.6662 21.6724 26.7076 21.6283 26.7535 21.5923C27.2476 21.2017 27.7543 21.289 28.0909 21.4294C28.2772 21.5059 28.4518 21.6292 28.6075 21.7894C30.3409 23.5822 32.203 21.6562 32.203 21.6562L31.438 32.4687C31.438 32.4687 31.438 34.9329 29.4571 34.8843L16.5305 34.8834C14.5496 34.932 14.5496 32.4687 14.5496 32.4687L14.1248 25.4623" stroke="#3F4A54" stroke-width="1.3" stroke-linecap="round" stroke-linejoin="round"/>
<path d="M33.1661 34.8856H19.3278" stroke="#3F4A54" stroke-width="1.3" stroke-linecap="round" stroke-linejoin="round"/>
<path d="M28.0554 26.3655L27.5586 34.6526" stroke="#3F4A54" stroke-width="1.3" stroke-linecap="round" stroke-linejoin="round"/>
</svg>
