<svg width="26" height="21" viewBox="0 0 26 21" fill="none" xmlns="http://www.w3.org/2000/svg">
<path fill-rule="evenodd" clip-rule="evenodd" d="M4.53327 10.6989C6.08509 10.6989 7.35363 11.9683 7.35363 13.5192V17.8853H17.8389V13.5192C17.8389 11.9683 19.1084 10.6989 20.6593 10.6989L20.274 8.20577C20.274 8.20577 10.993 6.02936 4.21746 8.83389L4.53327 10.6989Z" fill="#845EFC"/>
<path fill-rule="evenodd" clip-rule="evenodd" d="M12.4394 7.4022V17.8849H17.8409V13.5188C17.8409 11.967 19.1103 10.6985 20.6612 10.6985L20.275 8.20538C20.275 8.20538 16.7395 7.37757 12.4394 7.4022Z" fill="#8F62ED"/>
<path fill-rule="evenodd" clip-rule="evenodd" d="M12.6721 15.9542H11.0217C10.6628 15.9542 10.3707 15.6806 10.3707 15.3428V12.6412C10.3707 11.5741 11.3015 10.6988 12.4389 10.6988C13.5773 10.6988 14.508 11.5741 14.508 12.6412V15.3428" fill="white"/>
<path fill-rule="evenodd" clip-rule="evenodd" d="M12.2067 15.9542H13.857C14.2168 15.9542 14.508 15.6806 14.508 15.3428V12.6412C14.508 11.5741 13.5782 10.6988 12.4398 10.6988C11.3024 10.6988 10.3707 11.5741 10.3707 12.6412V15.3428" fill="white"/>
<path d="M19.6773 3.93693C20.0265 4.47179 20.2298 5.11134 20.2298 5.79488L20.7998 10.3553" stroke="#3F4A54" stroke-width="1.3" stroke-linecap="round" stroke-linejoin="round"/>
<path d="M4.21697 10.3551L4.78614 5.79463C4.78614 3.91292 6.32652 2.37343 8.20823 2.37343H16.8083C17.3511 2.37343 17.8648 2.50098 18.3214 2.72795" stroke="#3F4A54" stroke-width="1.3" stroke-linecap="round" stroke-linejoin="round"/>
<path d="M12.4394 0.650898H13.4898C13.92 0.650898 14.271 0.866428 14.271 1.13034L14.4012 1.65553" stroke="#3F4A54" stroke-width="1.3" stroke-linecap="round" stroke-linejoin="round"/>
<path d="M10.6153 1.6549L10.7455 1.12971" stroke="#3F4A54" stroke-width="1.3" stroke-linecap="round" stroke-linejoin="round"/>
<path d="M1.71275 17.6214V13.2554C1.71275 11.7036 2.98218 10.435 4.53311 10.435C6.08492 10.435 7.35347 11.7036 7.35347 13.2554V17.6214" stroke="#3F4A54" stroke-width="1.3" stroke-linecap="round" stroke-linejoin="round"/>
<path d="M17.8388 17.6214V13.2554C17.8388 11.7036 19.1082 10.435 20.6591 10.435C22.2109 10.435 23.4795 11.7036 23.4795 13.2554V17.6214" stroke="#3F4A54" stroke-width="1.3" stroke-linecap="round" stroke-linejoin="round"/>
<path d="M12.6721 15.9542H11.0217C10.6628 15.9542 10.3707 15.6806 10.3707 15.3428V12.6412C10.3707 11.5741 11.3015 10.6988 12.4389 10.6988C13.5773 10.6988 14.508 11.5741 14.508 12.6412V15.3428" stroke="#3F4A54" stroke-width="1.26" stroke-linecap="round" stroke-linejoin="round"/>
<path d="M15.8861 17.8645H24.5416" stroke="#3F4A54" stroke-width="1.3" stroke-linecap="round" stroke-linejoin="round"/>
<path d="M0.650898 17.8645H13.8519" stroke="#3F4A54" stroke-width="1.3" stroke-linecap="round" stroke-linejoin="round"/>
<path d="M8.73243 7.92309C11.4138 7.67413 15.4077 7.66093 20.5848 8.63126" stroke="#3F4A54" stroke-width="1.3" stroke-linecap="round" stroke-linejoin="round"/>
<path d="M4.75993 8.63141C4.75993 8.63141 5.38365 8.41939 6.59413 8.2065" stroke="#3F4A54" stroke-width="1.3" stroke-linecap="round" stroke-linejoin="round"/>
<path fill-rule="evenodd" clip-rule="evenodd" d="M5.79761 13.5495C5.79761 14.3218 5.17125 14.9482 4.39887 14.9482C3.62648 14.9482 3.00012 14.3218 3.00012 13.5495C3.00012 12.7771 3.62648 12.1507 4.39887 12.1507C5.17125 12.1507 5.79761 12.7771 5.79761 13.5495Z" fill="white"/>
<path d="M22.429 20.349H3.62511" stroke="#3F4A54" stroke-width="1.3" stroke-linecap="round" stroke-linejoin="round"/>
<path d="M5.99197 17.8647V19.3364C5.99197 19.8801 5.35154 20.3244 4.5686 20.3244H4.18504C3.4021 20.3244 2.76079 19.8801 2.76079 19.3364V17.8647" stroke="#3F4A54" stroke-width="1.3" stroke-linecap="round" stroke-linejoin="round"/>
<path d="M22.1181 17.8647V19.3364C22.1181 19.8801 21.4777 20.3244 20.6947 20.3244H20.3112C19.5282 20.3244 18.8869 19.8801 18.8869 19.3364V17.8647" stroke="#3F4A54" stroke-width="1.3" stroke-linecap="round" stroke-linejoin="round"/>
<path d="M5.64828 13.2634C5.66939 13.3549 5.68083 13.4508 5.68083 13.5493C5.68083 14.2575 5.10726 14.8302 4.39909 14.8302C3.69092 14.8302 3.11735 14.2575 3.11735 13.5493C3.11735 12.842 3.69092 12.2676 4.39909 12.2676" stroke="#3F4A54" stroke-width="1.3" stroke-linecap="round" stroke-linejoin="round"/>
<path fill-rule="evenodd" clip-rule="evenodd" d="M22.1985 13.4979C22.1985 14.2703 21.5722 14.8966 20.7998 14.8966C20.0274 14.8966 19.4011 14.2703 19.4011 13.4979C19.4011 12.7255 20.0274 12.0991 20.7998 12.0991C21.5722 12.0991 22.1985 12.7255 22.1985 13.4979Z" fill="white"/>
<path d="M22.0493 13.2118C22.0704 13.3033 22.0819 13.3992 22.0819 13.4977C22.0819 14.2059 21.5083 14.7786 20.8001 14.7786C20.092 14.7786 19.5184 14.2059 19.5184 13.4977C19.5184 12.7904 20.092 12.216 20.8001 12.216" stroke="#3F4A54" stroke-width="1.3" stroke-linecap="round" stroke-linejoin="round"/>
</svg>
