<svg width="30" height="31" viewBox="0 0 30 31" fill="none" xmlns="http://www.w3.org/2000/svg">
<rect width="30" height="30.3333" fill="white" fill-opacity="0.01"/>
<path fill-rule="evenodd" clip-rule="evenodd" d="M12.1382 9.58351L12.3782 7.87044L17.6829 8.63105" fill="white"/>
<path d="M12.1382 9.58351L12.3782 7.87044L17.6829 8.63105" stroke="#3F4A54" stroke-linecap="round" stroke-linejoin="round"/>
<path fill-rule="evenodd" clip-rule="evenodd" d="M20.0603 9.58576L21.042 12.4234L16.9358 13.8756L15.4995 9.72453L19.6058 8.27232" fill="white"/>
<path d="M20.0603 9.58576L21.042 12.4234L16.9358 13.8756L15.4995 9.72453L19.6058 8.27232" stroke="#3F4A54" stroke-linecap="round" stroke-linejoin="round"/>
<path fill-rule="evenodd" clip-rule="evenodd" d="M12.7515 10.9319L13.6312 17.0486H20.4457L23.451 10.9334V10.9319H12.7515Z" fill="#83FBFC"/>
<path d="M22.3429 23.5451H13.0609" stroke="#3F4A54" stroke-linecap="round" stroke-linejoin="round"/>
<path d="M19.689 18.8374H20.4457" stroke="#3F4A54" stroke-linecap="round" stroke-linejoin="round"/>
<path d="M6.48779 7.31805H7.80554C8.30354 7.31805 8.73629 7.6631 8.85104 8.15298L11.1085 17.7239C11.2623 18.3768 11.8398 18.8371 12.5035 18.8371H18.1585" stroke="#3F4A54" stroke-linecap="round" stroke-linejoin="round"/>
<path d="M15.1017 21.7938C15.1242 21.897 15.1369 22.0039 15.1369 22.1139C15.1369 22.904 14.5032 23.5456 13.7209 23.5456C12.9394 23.5456 12.3057 22.904 12.3057 22.1139C12.3057 21.3229 12.9394 20.6821 13.7209 20.6821C13.9167 20.6821 14.1027 20.7223 14.2729 20.7951" stroke="#3F4A54" stroke-linecap="round" stroke-linejoin="round"/>
<path d="M20.3517 21.7938C20.3742 21.897 20.3869 22.0039 20.3869 22.1139C20.3869 22.904 19.7532 23.5456 18.9709 23.5456C18.1894 23.5456 17.5557 22.904 17.5557 22.1139C17.5557 21.3229 18.1894 20.6821 18.9709 20.6821C19.1667 20.6821 19.3527 20.7223 19.5229 20.7951" stroke="#3F4A54" stroke-linecap="round" stroke-linejoin="round"/>
<path d="M22.1994 12.2775L20.4452 17.0482H11.5142" stroke="#3F4A54" stroke-linecap="round" stroke-linejoin="round"/>
<path d="M9.50684 10.9319H22.7016" stroke="#3F4A54" stroke-linecap="round" stroke-linejoin="round"/>
<path d="M17.8101 14.1874H18.9276" stroke="#3F4A54" stroke-linecap="round" stroke-linejoin="round"/>
<path d="M10.811 14.1874H15.8195" stroke="#3F4A54" stroke-linecap="round" stroke-linejoin="round"/>
</svg>
