<svg width="156" height="132" viewBox="0 0 156 132" fill="none" xmlns="http://www.w3.org/2000/svg">
<circle cx="73.5657" cy="65.2174" r="65.2174" fill="url(#paint0_radial_279_4227)"/>
<ellipse opacity="0.8" cx="78" cy="119.74" rx="78" ry="11.7391" fill="url(#paint1_linear_279_4227)"/>
<g clip-path="url(#clip0_279_4227)">
<path d="M65.3412 62.3021C66.6916 66.4803 64.3899 84.2999 81.5465 79.7028C98.7031 75.1057 87.8001 60.8243 86.8804 56.5307L65.3412 62.3021Z" fill="#FF9849"/>
<path d="M80.2127 67.6444C80.0478 67.0289 79.5857 66.5708 79.0229 66.3833C79.4417 66.6162 79.7676 67.0092 79.9013 67.5079C80.056 68.0856 79.9144 68.6716 79.57 69.1089L81.5506 73.9674L78.441 74.8006L78.4707 75.0126L81.8621 74.1038L79.8815 69.2453C80.2259 68.808 80.3675 68.222 80.2127 67.6444Z" fill="white"/>
</g>
<path d="M66.2708 63.5474L66.1673 63.1611L64.7726 57.9561C63.416 52.8932 66.4337 47.6887 71.5129 46.3277L73.7137 45.738C78.7897 44.3779 84.0055 47.3764 85.3588 52.4404M66.2708 63.5474L84.9724 52.5436M66.2708 63.5474L66.6572 63.4439M66.2708 63.5474L66.6572 63.4439M85.3588 52.4404L84.9724 52.5436M85.3588 52.4404L85.3588 52.4401L84.9724 52.5436M85.3588 52.4404L86.7534 57.645L86.857 58.0314L86.4706 58.1349L82.4015 59.2252L82.0142 59.329L81.9114 58.9415L80.4823 53.5573L80.8686 53.4538M84.9724 52.5436L86.2635 57.3622L86.3671 57.7486L85.9807 57.8521L82.6844 58.7353L82.6846 58.7363L82.298 58.8389L82.1945 58.4525L82.1954 58.4523L80.8686 53.4538M80.8686 53.4538L80.482 53.5564L80.4821 53.5568L70.0967 51.9354C70.099 51.9314 70.1023 51.928 70.1056 51.9245C70.109 51.9211 70.1123 51.9177 70.1146 51.9137M80.8686 53.4538C80.1015 50.5909 77.1484 48.8923 74.2763 49.6618L72.9749 50.0106C72.1737 50.2252 71.4668 50.6143 70.8754 51.1178M70.8754 51.1178C70.5939 51.359 70.3389 51.6235 70.1146 51.9137M70.8754 51.1178L71.1347 51.4223C71.1349 51.4222 71.135 51.4221 71.1352 51.4219C71.1354 51.4218 71.1355 51.4217 71.1356 51.4216L70.8754 51.1178ZM70.1146 51.9137L70.4607 52.1142C70.4529 52.1277 70.445 52.1396 70.4376 52.1498C70.4354 52.1527 70.4332 52.1555 70.4311 52.1583L70.4301 52.1576M70.1146 51.9137L70.2805 52.0419L70.4295 52.1571M70.4295 52.1571C70.4248 52.1641 70.4203 52.1703 70.4162 52.1756C70.4114 52.1819 70.4072 52.1869 70.404 52.1906C70.3996 52.1957 70.3961 52.1994 70.3944 52.2013L70.3993 52.1962C70.4018 52.1935 70.4052 52.1899 70.4091 52.1854C70.4116 52.1822 70.414 52.179 70.4164 52.1757L70.4301 52.1576M70.4295 52.1571L70.4301 52.1576M70.4295 52.1571C70.4338 52.1508 70.4383 52.1437 70.4427 52.136L70.4308 52.1566L70.4301 52.1576M66.6572 63.4439L70.7136 62.357L71.1 62.2535M66.6572 63.4439L71.1 62.2535M71.1 62.2535L70.9964 61.8671M71.1 62.2535L70.9964 61.8671M70.9964 61.8671L69.5544 56.4854C69.5135 56.3327 69.4816 56.179 69.4561 56.0245L69.4529 56.0052M70.9964 61.8671L69.4529 56.0052M69.4529 56.0052L69.4503 55.9956M69.4529 56.0052L69.4503 55.9956M69.4503 55.9956C69.4503 55.9954 69.4503 55.9953 69.4503 55.9951L69.4492 55.9861L69.4475 55.9729C69.4464 55.9636 69.4447 55.9513 69.4425 55.9375C69.4231 55.8067 69.409 55.672 69.3976 55.5327L69.397 55.5251L69.3962 55.5181C69.3962 55.5183 69.3959 55.5153 69.3952 55.5033L69.395 55.5011C69.3945 55.4925 69.3935 55.4768 69.3918 55.4594C69.3838 55.3198 69.3839 55.1776 69.3871 55.0274C69.3893 55.0042 69.3923 54.9691 69.3926 54.9312C69.3987 54.8215 69.4101 54.708 69.4231 54.5901C69.4267 54.5648 69.43 54.5395 69.4331 54.5166C69.4364 54.4913 69.4394 54.4689 69.4425 54.4476C69.458 54.3461 69.4774 54.2453 69.5 54.142C69.5079 54.1082 69.5126 54.0856 69.5164 54.0677C69.5216 54.043 69.525 54.0269 69.5322 54.0019L69.5323 54.0019L69.5341 53.9949C69.5645 53.8815 69.5982 53.7664 69.633 53.653C69.6471 53.61 69.6616 53.5713 69.679 53.5246C69.687 53.5033 69.6956 53.4803 69.7051 53.4545L69.7393 53.3695L69.7733 53.2852C69.7937 53.2393 69.808 53.2053 69.8206 53.1752C69.8373 53.1352 69.8512 53.1021 69.8729 53.057L69.8729 53.057L69.8753 53.052C69.8764 53.0494 69.8781 53.046 69.8842 53.0342C69.8888 53.0253 69.8971 53.0094 69.9058 52.991L69.4503 55.9956ZM70.2024 52.4767L70.2032 52.4754L70.2087 52.4659L70.2126 52.4593C70.2129 52.4588 70.2119 52.4605 70.21 52.4634C70.2095 52.4641 70.209 52.4648 70.2084 52.4657C70.2056 52.4698 70.2012 52.4759 70.1951 52.4832C70.1913 52.4878 70.1868 52.4928 70.1817 52.4981L70.1957 52.4836L70.2024 52.4767Z" fill="#FFD733" stroke="#3F4A54" stroke-width="0.8"/>
<path d="M65.2383 61.9152L64.8318 62.0241L64.9612 62.4246C65.1162 62.9043 65.2247 63.6029 65.3247 64.4826C65.3742 64.9182 65.4208 65.3899 65.4705 65.8922C65.52 66.3935 65.5725 66.9243 65.6333 67.4736C65.8762 69.666 66.2555 72.186 67.145 74.4395C68.0365 76.6977 69.454 78.7217 71.7906 79.8693C74.1247 81.0158 77.3051 81.253 81.6507 80.0886C85.9962 78.9242 88.6319 77.1286 90.0801 74.9687C91.5298 72.8064 91.7454 70.3449 91.3883 67.9435C91.032 65.5472 90.1005 63.1752 89.2146 61.155C88.9926 60.6489 88.7727 60.163 88.5649 59.7041L88.5649 59.7041C88.3567 59.2442 88.1613 58.8124 87.9863 58.4104C87.6331 57.5986 87.3777 56.9393 87.2721 56.4463L87.184 56.0348L86.7775 56.1438L65.2383 61.9152Z" fill="#FF9849" stroke="#3F4A54" stroke-width="0.8"/>
<path fill-rule="evenodd" clip-rule="evenodd" d="M79.8865 69.2446C80.2294 68.8079 80.3695 68.2216 80.2148 67.6444C79.9543 66.6723 78.9504 66.0921 77.9719 66.3543C76.9934 66.6165 76.4132 67.6177 76.6746 68.593C76.8297 69.1721 77.2463 69.6107 77.764 69.8167L78.478 75.0106L81.8663 74.1028L79.8865 69.2446Z" fill="white"/>
<path fill-rule="evenodd" clip-rule="evenodd" d="M48.5433 90.2121L42.7179 94.6343L35.6073 93.1636L41.4327 88.7414L48.5433 90.2121Z" fill="#08B2FF"/>
<path fill-rule="evenodd" clip-rule="evenodd" d="M41.4607 88.7342L48.5433 90.2112L42.7461 94.627" fill="#08B2FF"/>
<path fill-rule="evenodd" clip-rule="evenodd" d="M48.5433 90.2121L42.7179 94.6343L35.6073 93.1636L41.4327 88.7414L48.5433 90.2121Z" stroke="#3F4A54" stroke-width="0.8" stroke-linecap="round" stroke-linejoin="round"/>
<path fill-rule="evenodd" clip-rule="evenodd" d="M44.4901 102.271L37.3309 100.718L35.6072 93.1631L42.7665 94.7173L44.4901 102.271Z" stroke="#3F4A54" stroke-width="0.8" stroke-linecap="round" stroke-linejoin="round"/>
<path fill-rule="evenodd" clip-rule="evenodd" d="M33.0054 95.3167L38.3271 96.6276L38.7436 96.73L40.151 97.0762L42.808 94.8993L35.642 93.1561L33.0054 95.3167Z" fill="white"/>
<path d="M38.7435 96.7293L38.327 96.627L33.0054 95.3165L35.642 93.1561L42.8078 94.8988L40.151 97.0762" stroke="#3F4A54" stroke-width="0.8" stroke-linecap="round" stroke-linejoin="round"/>
<path d="M33.5017 91.7002L32.3713 92.5392L35.6426 93.1574L41.4343 88.8805L38.1392 88.2575L34.7623 90.7638" stroke="#3F4A54" stroke-width="0.8" stroke-linecap="round" stroke-linejoin="round"/>
<path fill-rule="evenodd" clip-rule="evenodd" d="M44.4901 102.272L49.679 97.9008L47.9552 90.3461L42.7666 94.7176L44.4901 102.272Z" stroke="#3F4A54" stroke-width="0.8" stroke-linecap="round" stroke-linejoin="round"/>
<path fill-rule="evenodd" clip-rule="evenodd" d="M47.6136 94.3094L51.2335 91.1577L48.107 90.3114L42.8078 94.8982L45.959 95.7504L46.6659 95.1348" fill="white"/>
<path d="M47.6136 94.3094L51.2335 91.1577L48.107 90.3114L42.8078 94.8982L45.959 95.7504L46.6659 95.1348" stroke="#3F4A54" stroke-width="0.8" stroke-linecap="round" stroke-linejoin="round"/>
<path d="M45.9366 87.4811L50.5995 88.3781L47.9205 90.3535L40.8463 89.0117L43.5453 87.0215L44.4242 87.1901" stroke="#3F4A54" stroke-width="0.8" stroke-linecap="round" stroke-linejoin="round"/>
<path d="M95.1445 84.327C91.2707 85.8863 83.5427 91.557 83.6217 101.765" stroke="#EADECD" stroke-width="0.8"/>
<path d="M71.4313 101.805C70.9278 97.6598 67.4505 88.7275 57.57 86.1618" stroke="#EADECD" stroke-width="0.8"/>
<path fill-rule="evenodd" clip-rule="evenodd" d="M107.353 91.0368C104.023 91.0368 101.323 90.5117 101.323 89.8642V92.2954V94.7266V97.1578V99.589V100.15C101.323 100.798 104.023 101.323 107.353 101.323C110.685 101.323 113.385 100.798 113.385 100.15V99.589V97.1578V94.7266V92.2954V89.8642C113.385 90.5117 110.685 91.0368 107.353 91.0368Z" fill="#FFE772"/>
<path fill-rule="evenodd" clip-rule="evenodd" d="M104.941 101.32L101.323 100.514V90.4644L104.941 91.2708V101.32Z" fill="white"/>
<path d="M108.56 95.8773C108.24 95.8873 107.91 95.8923 107.574 95.8923C104.121 95.8923 101.323 95.3525 101.323 94.6861" stroke="#3F4A54" stroke-width="0.8" stroke-linecap="round" stroke-linejoin="round"/>
<path d="M113.385 94.6861C113.385 95.2165 111.908 95.6747 109.766 95.8923" stroke="#3F4A54" stroke-width="0.8" stroke-linecap="round" stroke-linejoin="round"/>
<path d="M112.268 89.1633C112.971 89.3608 113.385 89.6016 113.385 89.8625C113.385 90.5291 110.685 91.0691 107.354 91.0691C104.023 91.0691 101.323 90.5291 101.323 89.8625C101.323 89.5975 101.751 89.3516 102.479 89.1525C102.794 89.0658 103.166 88.9883 103.584 88.9208C103.713 88.9008 103.845 88.8808 103.982 88.8625C104.945 88.7325 106.106 88.6567 107.354 88.6567C108.542 88.6567 109.65 88.725 110.584 88.8442" stroke="#3F4A54" stroke-width="0.8" stroke-linecap="round" stroke-linejoin="round"/>
<path d="M110.369 93.3849C109.466 93.5091 108.441 93.5791 107.354 93.5791" stroke="#3F4A54" stroke-width="0.8" stroke-linecap="round" stroke-linejoin="round"/>
<path d="M113.385 92.2898C113.385 92.7457 112.928 93.1619 112.178 93.4719" stroke="#3F4A54" stroke-width="0.8" stroke-linecap="round" stroke-linejoin="round"/>
<path d="M106.148 98.307C103.382 98.1796 101.323 97.6877 101.323 97.1008" stroke="#3F4A54" stroke-width="0.8" stroke-linecap="round" stroke-linejoin="round"/>
<path d="M113.385 97.1008C113.385 97.7669 110.685 98.307 107.354 98.307" stroke="#3F4A54" stroke-width="0.8" stroke-linecap="round" stroke-linejoin="round"/>
<path d="M106.148 100.722C103.391 100.604 101.323 100.109 101.323 99.5155" stroke="#3F4A54" stroke-width="0.8" stroke-linecap="round" stroke-linejoin="round"/>
<path d="M113.385 99.5155C113.385 100.119 111.243 100.619 108.44 100.711C108.282 100.716 108.12 100.719 107.957 100.722" stroke="#3F4A54" stroke-width="0.8" stroke-linecap="round" stroke-linejoin="round"/>
<path d="M113.686 99.5131V99.5131V97.233V94.9529V92.8788" stroke="#3F4A54" stroke-width="0.8" stroke-linecap="round" stroke-linejoin="round"/>
<path d="M101.021 89.8642V92.2766V94.6891V97.1015V99.514" stroke="#3F4A54" stroke-width="0.8" stroke-linecap="round" stroke-linejoin="round"/>
<path fill-rule="evenodd" clip-rule="evenodd" d="M106.093 99.9506C105.686 102.752 103.084 104.692 100.283 104.285C97.482 103.877 95.541 101.276 95.9486 98.4747C96.357 95.6732 98.9579 93.733 101.759 94.1398C104.56 94.5482 106.501 97.1491 106.093 99.9506Z" fill="white"/>
<path d="M97.1803 102.529C96.3789 101.635 95.8945 100.467 95.8945 99.1899C95.8945 96.3713 98.2555 94.0859 101.169 94.0859C101.638 94.0859 102.094 94.1455 102.529 94.2574" stroke="#3F4A54" stroke-width="0.8" stroke-linecap="round" stroke-linejoin="round"/>
<path d="M103.879 95.2934C105.247 96.1797 106.148 97.6882 106.148 99.4001C106.148 102.128 103.859 104.34 101.036 104.34C100.032 104.34 99.0968 104.061 98.3073 103.578" stroke="#3F4A54" stroke-width="0.8" stroke-linecap="round" stroke-linejoin="round"/>
<path d="M101.323 96.4991C100.14 96.4973 99.106 97.5429 98.9311 98.9955C98.9102 99.1706 98.9072 99.344 98.9125 99.5147" stroke="#3F4A54" stroke-width="0.8" stroke-linecap="round" stroke-linejoin="round"/>
<path d="M103.317 100.718C103.423 100.37 103.498 99.986 103.531 99.5719C103.55 99.3478 103.554 99.1259 103.548 98.9082" stroke="#3F4A54" stroke-width="0.8" stroke-linecap="round" stroke-linejoin="round"/>
<path d="M98.9102 100.72C99.3527 101.331 99.9906 101.77 100.746 101.892C101.382 101.995 102.002 101.86 102.529 101.547" stroke="#3F4A54" stroke-width="0.8" stroke-linecap="round" stroke-linejoin="round"/>
<path d="M106.751 104.34H101.323" stroke="#3F4A54" stroke-width="0.8" stroke-linecap="round" stroke-linejoin="round"/>
<rect x="100.117" y="54.7999" width="17.3724" height="17.3724" transform="rotate(-17.9134 100.117 54.7999)" fill="white" fill-opacity="0.01"/>
<path fill-rule="evenodd" clip-rule="evenodd" d="M115.752 59.0067C116.356 60.8763 115.131 62.9465 113.468 63.4839C111.807 64.021 109.601 63.0598 108.997 61.1903L108.402 59.35C107.797 57.4805 109.023 55.41 110.685 54.8729C112.347 54.3354 114.552 55.2969 115.157 57.1665L115.752 59.0067Z" fill="#FE71A0"/>
<path d="M114.533 56.0525C113.591 54.9412 111.975 54.4559 110.685 54.8729C109.023 55.41 107.797 57.4805 108.402 59.35" stroke="#3F4A54" stroke-width="0.8" stroke-linecap="round" stroke-linejoin="round"/>
<path d="M115.29 57.5774L115.751 59.0044" stroke="#3F4A54" stroke-width="0.8" stroke-linecap="round" stroke-linejoin="round"/>
<path fill-rule="evenodd" clip-rule="evenodd" d="M114.532 58.4161C115.091 60.1455 114.449 61.9009 113.097 62.3377C111.747 62.7743 110.198 61.7271 109.639 59.9976C109.08 58.2685 109.723 56.5126 111.073 56.0761C112.425 55.6392 113.973 56.687 114.532 58.4161Z" fill="white"/>
<path fill-rule="evenodd" clip-rule="evenodd" d="M114.532 58.4161C115.091 60.1455 114.449 61.9009 113.097 62.3377C111.747 62.7743 110.198 61.7271 109.639 59.9976C109.08 58.2685 109.723 56.5126 111.073 56.0761C112.425 55.6392 113.973 56.687 114.532 58.4161Z" stroke="#3F4A54" stroke-width="0.8" stroke-linecap="round" stroke-linejoin="round"/>
<path d="M115.752 59.0061C116.356 60.8756 115.131 62.9458 113.468 63.4833C111.807 64.0204 109.601 63.0592 108.997 61.1897" stroke="#3F4A54" stroke-width="0.8" stroke-linecap="round" stroke-linejoin="round"/>
<path d="M113.535 63.6891L114.069 65.3437" stroke="#3F4A54" stroke-width="0.8" stroke-linecap="round" stroke-linejoin="round"/>
<path d="M110.899 66.362L109.131 66.9333" stroke="#3F4A54" stroke-width="0.8" stroke-linecap="round" stroke-linejoin="round"/>
<path d="M116.113 64.6789L111.98 66.0151" stroke="#3F4A54" stroke-width="0.8" stroke-linecap="round" stroke-linejoin="round"/>
<path fill-rule="evenodd" clip-rule="evenodd" d="M108.275 62.9704L107.196 63.3189L106.936 62.5147C106.918 62.4585 106.929 62.3972 106.964 62.35L107.537 61.6058C107.626 61.4909 107.806 61.5224 107.851 61.66L108.275 62.9704Z" fill="#FE71A0"/>
<path d="M107.876 66.5873C107.997 66.9638 108.362 67.1865 108.685 67.082L109.269 66.8932C109.593 66.7886 109.758 66.3949 109.636 66.0184L108.91 63.774L107.15 64.3429L107.36 64.993L107.63 65.8278" stroke="#3F4A54" stroke-width="0.8" stroke-linecap="round" stroke-linejoin="round"/>
<mask id="mask0_279_4227" style="mask-type:luminance" maskUnits="userSpaceOnUse" x="104" y="53" width="14" height="15">
<path fill-rule="evenodd" clip-rule="evenodd" d="M107.915 67.6267L117.802 64.4308L114.244 53.425L104.358 56.6209L107.915 67.6267Z" fill="white"/>
</mask>
<g mask="url(#mask0_279_4227)">
<path fill-rule="evenodd" clip-rule="evenodd" d="M107.295 64.2984L108.766 63.8228L108.477 62.929L107.006 63.4045L107.295 64.2984Z" stroke="#3F4A54" stroke-width="0.8" stroke-linecap="round" stroke-linejoin="round"/>
<path fill-rule="evenodd" clip-rule="evenodd" d="M108.275 62.9704L107.196 63.3189L106.936 62.5147C106.918 62.4585 106.929 62.3972 106.964 62.35L107.537 61.6058C107.626 61.4909 107.806 61.5224 107.851 61.66L108.275 62.9704Z" stroke="#3F4A54" stroke-width="0.8" stroke-linecap="round" stroke-linejoin="round"/>
<path fill-rule="evenodd" clip-rule="evenodd" d="M111.035 57.0234C111.035 57.0234 110.624 57.3045 110.566 57.7081L111.035 57.0234Z" fill="white"/>
<path d="M111.035 57.0234C111.035 57.0234 110.624 57.3045 110.566 57.7081" stroke="#3F4A54" stroke-width="0.8" stroke-linecap="round" stroke-linejoin="round"/>
</g>
<defs>
<radialGradient id="paint0_radial_279_4227" cx="0" cy="0" r="1" gradientUnits="userSpaceOnUse" gradientTransform="translate(73.5657 65.2174) rotate(90) scale(65.2174)">
<stop stop-color="white"/>
<stop offset="1" stop-color="white" stop-opacity="0"/>
</radialGradient>
<linearGradient id="paint1_linear_279_4227" x1="78" y1="108.001" x2="77.7503" y2="119.741" gradientUnits="userSpaceOnUse">
<stop stop-color="#EBE4DA"/>
<stop offset="1" stop-color="#EBE4DA" stop-opacity="0"/>
</linearGradient>
<clipPath id="clip0_279_4227">
<rect width="24.5217" height="35.4782" fill="white" transform="translate(60.5211 48.6068) rotate(-15)"/>
</clipPath>
</defs>
</svg>
