<svg width="114" height="113" viewBox="0 0 114 113" fill="none" xmlns="http://www.w3.org/2000/svg">
<path d="M65.3266 111.254L63.5884 106.335L55.9849 102.765L48.2941 104.248L48.7305 110.18C48.8916 112.371 50.0145 111.004 50.5558 110.046L53.871 105.214L58.5015 105.791C59.1771 106.659 60.9403 109.007 62.5886 111.455C64.2368 113.903 65.1007 112.341 65.3266 111.254Z" fill="#ACCE5B"/>
<path d="M32.891 85.1458L32.1931 91.194C27.4366 90.1764 26.0379 92.7592 22.3899 89.0295C19.4715 86.0457 20.0442 83.8763 20.6953 83.1645C21.2587 83.5492 23.005 85.4111 24.749 86.0763C26.5305 86.7557 31.5281 85.2063 32.891 85.1458Z" fill="#ACCE5B"/>
<path d="M87.1807 85.4551L86.8997 93.3491C91.1482 90.9806 91.9777 89.2861 94.3707 84.6502C96.2852 80.9414 95.1011 79.0355 94.2698 78.5462C93.8441 79.0792 92.8078 80.5736 92.0678 82.2872C91.3278 84.0007 88.5014 85.1131 87.1807 85.4551Z" fill="#ACCE5B"/>
<path d="M34.1341 67.6651L32.45 88.4355C32.2174 91.5113 31.7011 98.2173 31.4971 100.435C31.2931 102.652 35.5461 103.501 37.6981 103.649C50.1871 105.025 75.9935 107.806 79.306 107.93C83.4467 108.084 81.4199 105.48 83.2453 105.346C84.7056 105.239 85.8491 103.319 86.2383 102.373C87.1106 93.4386 88.8795 74.6501 88.976 70.9725C89.0726 67.2949 86.0544 66.5993 84.5333 66.7112C71.6102 65.6734 45.0205 63.4692 42.0462 62.9538C39.0719 62.4385 37.1562 63.0076 36.5701 63.3566L35.7917 65.2491L34.1341 67.6651Z" fill="#ACCE5B"/>
<path d="M54.4542 88.1975L58.1721 88.8417C58.2504 89.9065 58.2379 92.232 57.5615 93.0159C56.7159 93.9957 56.226 93.5729 54.8234 93.2173C53.7013 92.9327 54.1098 89.7522 54.4542 88.1975Z" fill="#FF8080"/>
<path d="M57.3236 91.6757C56.6603 90.2746 55.3998 90.911 54.8524 91.4044C54.3746 92.527 55.4604 93.3231 56.063 93.5807C56.7596 93.5295 57.987 93.0768 57.3236 91.6757Z" fill="#F07374"/>
<circle cx="2.2782" cy="2.2782" r="2.2782" transform="matrix(-1.00154 0.0736608 0.0736608 1.00154 80.0099 86.3157)" fill="#FBE885"/>
<path d="M48.1518 66.1356L73.297 68.3504L83.1099 69.2735C85.0127 69.5165 86.3628 71.2598 86.1184 73.1659L84.9361 85.1621" stroke="#3F4A54" stroke-miterlimit="10" stroke-linecap="round" stroke-linejoin="round"/>
<path d="M31.9607 94.2161L34.0441 68.0923C34.2591 66.1821 35.9804 64.8109 37.8899 65.0275L45.0292 65.6961" stroke="#3F4A54" stroke-miterlimit="10" stroke-linecap="round" stroke-linejoin="round"/>
<path d="M84.1527 94.0853L83.1324 104.925C82.8928 106.832 81.1544 108.183 79.247 107.943L34.4868 103.078C32.5838 102.811 31.2585 101.053 31.5266 99.1494L31.9975 93.5376" stroke="#3F4A54" stroke-miterlimit="10" stroke-linecap="round" stroke-linejoin="round"/>
<path d="M88.4553 74.873L86.0612 102.575C85.8215 104.479 84.8347 105.798 82.9274 105.558" stroke="#3F4A54" stroke-miterlimit="10" stroke-linecap="round" stroke-linejoin="round"/>
<path d="M35.8281 65.4209C36.0415 63.5108 37.7834 62.5148 39.6936 62.7305L49.9778 63.6614L71.7494 65.6299L72.7646 65.7224L86.0389 66.9222C87.9417 67.1652 89.2904 68.9102 89.0475 70.8146" stroke="#3F4A54" stroke-miterlimit="10" stroke-linecap="round" stroke-linejoin="round"/>
<path d="M48.5645 105.337C48.5645 105.337 48.1055 111.142 49.0671 111.189C50.0288 111.237 53.5081 106.048 53.8518 105.333" stroke="#3F4A54" stroke-miterlimit="10" stroke-linecap="round" stroke-linejoin="round"/>
<path d="M64.1762 106.65C64.1762 106.65 65.7231 112.264 64.788 112.492C63.853 112.721 58.7316 106.479 58.2587 105.842" stroke="#3F4A54" stroke-miterlimit="10" stroke-linecap="round" stroke-linejoin="round"/>
<path d="M42.0032 65.5281L33.525 72.7019" stroke="#3F4A54" stroke-miterlimit="10" stroke-linecap="round" stroke-linejoin="round"/>
<path d="M79.5415 69.1524L85.5235 77.2489" stroke="#3F4A54" stroke-miterlimit="10" stroke-linecap="round" stroke-linejoin="round"/>
<path d="M38.1916 73.5888L38.0307 75.1458" stroke="#3F4A54" stroke-linecap="round" stroke-linejoin="round"/>
<path d="M37.6593 78.7404L36.3597 91.3197" stroke="#3F4A54" stroke-linecap="round" stroke-linejoin="round" stroke-dasharray="4.62 4.62"/>
<path d="M36.1736 93.1162L36.0126 94.6732" stroke="#3F4A54" stroke-linecap="round" stroke-linejoin="round"/>
<path d="M67.0933 93.6775C66.9715 94.315 66.0719 94.6739 65.0942 94.4837C64.1116 94.2907 63.4193 93.6165 63.5475 92.9801C63.671 92.344 64.5643 91.984 65.5435 92.1741C66.5285 92.3677 67.2196 93.0373 67.0933 93.6775Z" fill="#F07374"/>
<path d="M49.0143 90.894C48.8907 91.5301 47.9944 91.8903 47.0136 91.7004C46.034 91.5056 45.3404 90.8346 45.4669 90.1967C45.5904 89.5607 46.4868 89.2005 47.4678 89.3935C48.4472 89.5852 49.1393 90.2578 49.0143 90.894Z" fill="#F07374"/>
<path d="M45.5307 87.4856C45.924 85.268 47.0997 83.6913 48.5199 83.9447C49.9423 84.1956 50.6003 85.9513 50.2086 88.1688" stroke="#3F4A54" stroke-miterlimit="10" stroke-linecap="round" stroke-linejoin="round"/>
<path d="M46.2643 85.3161C46.4023 85.0258 46.6417 84.6534 46.9516 84.407" stroke="white" stroke-miterlimit="10" stroke-linecap="round" stroke-linejoin="round"/>
<path d="M68.0396 91.2432C68.4329 89.0256 67.8684 87.1437 66.449 86.891C65.0298 86.6399 63.8064 88.0585 63.4116 90.2777" stroke="#3F4A54" stroke-miterlimit="10" stroke-linecap="round" stroke-linejoin="round"/>
<path d="M68.0929 88.9625C68.066 88.6396 67.9651 88.2068 67.7645 87.8692" stroke="white" stroke-miterlimit="10" stroke-linecap="round" stroke-linejoin="round"/>
<path d="M31.9817 95.5728L37.943 103.229" stroke="#3F4A54" stroke-miterlimit="10" stroke-linecap="round" stroke-linejoin="round"/>
<path d="M87.7029 85.8202L78.31 84.3546C75.9001 84.0351 73.6886 85.7303 73.3715 88.1401C73.052 90.55 74.7488 92.7614 77.1586 93.0801L86.7052 94.2558" stroke="#3F4A54" stroke-miterlimit="10" stroke-linecap="round" stroke-linejoin="round"/>
<path d="M77.7169 86.37C79.0135 86.3084 80.1159 87.3094 80.179 88.6043C80.2407 89.9025 79.2396 91.0033 77.943 91.0649C76.6466 91.1297 75.5426 90.1287 75.481 88.8321C75.4468 88.1315 75.7244 87.4888 76.1893 87.0356" stroke="#3F4A54" stroke-miterlimit="10" stroke-linecap="round" stroke-linejoin="round"/>
<path d="M54.4705 88.2209C55.0517 88.4528 57.4622 88.8225 58.5585 88.5991C58.5585 88.5991 58.5924 93.8081 56.0079 93.4504C54.9338 93.3042 54.4723 92.4074 54.304 91.4098C54.0649 90.0054 54.2336 88.1261 54.4705 88.2209Z" stroke="#3F4A54" stroke-miterlimit="10" stroke-linecap="round" stroke-linejoin="round"/>
<path d="M57.973 91.465C57.2324 90.9231 56.9043 90.1224 54.6068 90.8729" stroke="#3F4A54" stroke-miterlimit="10" stroke-linecap="round" stroke-linejoin="round"/>
<path d="M83.3326 101.919L76.2574 107.702" stroke="#3F4A54" stroke-miterlimit="10" stroke-linecap="round" stroke-linejoin="round"/>
<path d="M32.8913 84.6813C32.8913 84.6813 25.5698 88.2126 22.0012 84.1075C20.4937 82.3734 19.5974 83.1125 20.3691 85.4973C22.9349 93.4224 32.426 90.9622 32.426 90.9622" stroke="#3F4A54" stroke-miterlimit="10" stroke-linecap="round" stroke-linejoin="round"/>
<path d="M87.853 85.3256C87.853 85.3256 91.3175 84.7365 93.6803 79.8378C94.6793 77.7687 95.7377 78.2457 95.6205 80.7498C95.2288 89.071 86.6486 93.9381 86.6486 93.9381" stroke="#3F4A54" stroke-miterlimit="10" stroke-linecap="round" stroke-linejoin="round"/>
<path d="M110.39 58.9346C109.704 65.7287 106.895 72.045 102.491 77.4621" stroke="#3F4A54" stroke-miterlimit="10" stroke-linecap="round" stroke-linejoin="round"/>
<path d="M112.889 58.9346C112.683 60.9813 112.279 63.0079 111.692 64.978" stroke="#3F4A54" stroke-miterlimit="10" stroke-linecap="round" stroke-linejoin="round"/>
<path d="M103.239 34.8451C105.908 38.3381 107.926 42.1807 109.159 46.2666" stroke="#3F4A54" stroke-miterlimit="10" stroke-linecap="round" stroke-linejoin="round"/>
<path d="M105.739 34.8451C106.596 35.9656 107.393 37.1327 108.121 38.3419" stroke="#3F4A54" stroke-miterlimit="10" stroke-linecap="round" stroke-linejoin="round"/>
<path d="M73.0473 16.8664C79.4666 18.2158 85.3847 20.5481 90.5317 23.6499" stroke="#3F4A54" stroke-miterlimit="10" stroke-linecap="round" stroke-linejoin="round"/>
<path d="M74.6096 15.2948C76.5486 15.7016 78.4676 16.2046 80.3559 16.8039" stroke="#3F4A54" stroke-miterlimit="10" stroke-linecap="round" stroke-linejoin="round"/>
<path d="M31.7444 22.513C37.5482 19.3552 44.2236 17.1375 51.424 16.1364" stroke="#3F4A54" stroke-miterlimit="10" stroke-linecap="round" stroke-linejoin="round"/>
<path d="M43.2813 15.1031C45.9519 14.3486 48.6751 13.7814 51.4233 13.3997" stroke="#3F4A54" stroke-miterlimit="10" stroke-linecap="round" stroke-linejoin="round"/>
<path d="M11.6536 44.6892C12.7883 41.5069 14.4042 38.4861 16.4344 35.6792" stroke="#3F4A54" stroke-miterlimit="10" stroke-linecap="round" stroke-linejoin="round"/>
<path d="M12.4489 38.2646C13.1638 36.8486 13.9711 35.4797 14.8584 34.1661" stroke="#3F4A54" stroke-miterlimit="10" stroke-linecap="round" stroke-linejoin="round"/>
<path d="M15.5104 74.3422C13.737 71.6579 12.3342 68.7949 11.3557 65.7943" stroke="#3F4A54" stroke-miterlimit="10" stroke-linecap="round" stroke-linejoin="round"/>
<path d="M10.7477 70.4871C10.3303 69.5213 9.95666 68.5353 9.62986 67.5343" stroke="#3F4A54" stroke-miterlimit="10" stroke-linecap="round" stroke-linejoin="round"/>
<path d="M13.9321 33.4179L16.6034 23.9406L13.8096 23.6325L14.0615 19.7792L20.4076 19.0467L26.2088 20.8048L31.0972 24.8172L29.0682 28.1448L26.7419 26.9394L23.9962 36.3418L13.9321 33.4179Z" fill="white"/>
<path d="M24.9103 26.6384L26.3438 27.0622" stroke="#F1775D" stroke-linecap="round" stroke-linejoin="round"/>
<path d="M18.0397 24.6052L23.7304 26.2885" stroke="#F1775D" stroke-linecap="round" stroke-linejoin="round"/>
<path d="M17.5116 26.4133L25.8161 28.8694" stroke="#F1775D" stroke-linecap="round" stroke-linejoin="round"/>
<path d="M16.9825 28.2252L25.287 30.68" stroke="#F1775D" stroke-linecap="round" stroke-linejoin="round"/>
<path d="M19.2038 30.8484L24.7589 32.4902" stroke="#F1775D" stroke-linecap="round" stroke-linejoin="round"/>
<path d="M16.4544 30.0351L17.5916 30.3709" stroke="#F1775D" stroke-linecap="round" stroke-linejoin="round"/>
<path d="M15.9255 31.8432L24.23 34.298" stroke="#F1775D" stroke-linecap="round" stroke-linejoin="round"/>
<path d="M19.3748 19.1413C19.4848 19.1312 19.5935 19.1199 19.7035 19.1098C19.9128 19.0903 20.1215 19.0476 20.329 19.057C20.5314 19.0664 20.752 19.0866 20.9301 19.1721C22.4291 19.8883 23.9982 20.3536 25.6447 20.5661C25.8403 20.5919 26.0496 20.6843 26.2077 20.8063C27.7149 21.9746 29.2127 23.1562 30.713 24.3345C31.146 24.6747 31.1573 24.6885 30.9017 25.1708C30.4081 26.1008 29.9019 27.0207 29.402 27.9451C29.2702 28.1884 29.0871 28.1859 28.8721 28.0702C28.6878 27.9709 28.5028 27.8728 28.3191 27.7734M27.3318 27.2477C27.2375 27.1981 27.1438 27.1471 27.0494 27.0981C26.9544 27.0472 26.8569 27.0031 26.7176 26.934L26.6195 27.2704L24.1231 35.8189C23.9851 36.2899 23.9276 36.3219 23.4639 36.1855C20.4196 35.2857 17.3746 34.3859 14.3296 33.4848C13.8991 33.3572 13.8697 33.2993 13.9984 32.8598M14.329 31.7279C14.9964 29.4435 15.8968 26.3605 16.4792 24.3685L16.606 23.9327C16.0749 23.8874 15.5987 23.8478 15.1238 23.807C14.797 23.7787 14.469 23.7504 14.1415 23.7221C13.9072 23.7013 13.7772 23.5976 13.796 23.3354C13.8766 22.2048 13.9466 21.0742 14.0253 19.9436C14.0428 19.6934 14.2096 19.6223 14.4371 19.6028C15.5544 19.5003 16.6716 19.3953 17.7883 19.2903C17.9601 19.2752 18.1332 19.2576 18.3056 19.2413" stroke="#3F4A54" stroke-linecap="round" stroke-linejoin="round"/>
<path d="M20.0598 19.1351C19.6706 20.7832 20.879 22.5206 22.6255 22.9293C22.9842 23.0135 23.3673 23.023 23.7472 22.9702M25.0575 22.5363C25.7199 22.1735 26.2285 21.6289 26.3598 21.0108" stroke="#3F4A54" stroke-linecap="round" stroke-linejoin="round"/>
<path d="M104.932 56.353L102.403 49.4714L111.473 52.306L104.932 56.353Z" fill="white"/>
<path d="M105.196 56.7535L107.462 55.211L109.671 53.7044C109.604 53.5768 108.972 52.5028 106.96 52.5619C104.183 52.6424 103.175 51.3703 103.175 51.3703L103.129 51.3829L105.196 56.7535Z" fill="#D4EE74"/>
<path d="M109.758 50.4209L108.263 52.633" stroke="#3F4A54" stroke-linecap="round" stroke-linejoin="round"/>
<path d="M113.449 47.9318L111.795 47.4118L111.458 47.9067L111.263 48.1965L110.978 48.6197L110.499 49.3278" stroke="#3F4A54" stroke-linecap="round" stroke-linejoin="round"/>
<path d="M103.873 60.3558L103.57 61.3336" stroke="#3F4A54" stroke-linecap="round" stroke-linejoin="round"/>
<path d="M104.991 56.7605L104.3 58.9814L104.235 59.1908" stroke="#3F4A54" stroke-linecap="round" stroke-linejoin="round"/>
<path d="M107.131 63.0015L99.8799 60.719" stroke="#3F4A54" stroke-linecap="round" stroke-linejoin="round"/>
<path d="M109.059 51.4592L111.498 52.2263L107.038 55.2647" stroke="#3F4A54" stroke-linecap="round" stroke-linejoin="round"/>
<path d="M105.788 56.1142L105.032 56.6286L102.212 49.3012L107.859 51.0788" stroke="#3F4A54" stroke-linecap="round" stroke-linejoin="round"/>
<path d="M2.93792 56.0319L0.517816 53.4023L1.43512 51.5146L3.47343 50.8279L6.38468 54.6209L6.84333 49.3987L8.30115 47.594L7.53506 46.5477L7.89811 46.0126L10.8475 46.1044L10.3745 48.209L11.5086 49.6999L11.9279 53.1991L4.05018 57.2228L2.93792 56.0319Z" fill="white"/>
<path d="M1.16067 56.0713C1.16067 56.0713 2.81032 56.934 3.55704 55.3613C3.6239 55.2211 3.712 55.1004 3.81698 55.0086C4.00757 54.8407 4.3225 54.6703 4.73366 54.8187C4.77178 54.8332 4.80927 54.8533 4.84551 54.8753C5.09358 55.0237 6.22647 55.6204 6.65013 54.3584C6.70074 54.2069 6.77322 54.0748 6.86945 53.9723C7.04504 53.7818 7.34935 53.6057 7.78363 53.8755C8.94026 54.7627 9.51701 53.541 9.62886 53.2643C9.64511 53.2247 9.66261 53.1863 9.68573 53.1517C9.92443 52.7826 10.2775 52.7286 10.5299 52.7474C10.6693 52.7562 10.8117 52.799 10.9492 52.8707C12.4851 53.6737 13.2875 51.9853 13.2875 51.9853L15.1664 59.3184C15.1664 59.3184 15.7094 60.9514 14.3953 61.3576L5.88404 64.2249C4.59057 64.6958 4.04818 63.0641 4.04818 63.0641L2.2242 58.5166" fill="#9DDC9D"/>
<path d="M13.0137 61.7578L12.147 59.1521L11.8433 58.2397C11.0872 55.9672 11.6952 53.0515 13.4449 52.4623L13.2468 51.8662L15.0089 60.4486C15.0764 60.7932 14.9377 61.1101 14.6796 61.1963L13.0137 61.7578Z" fill="#89CE89"/>
<path d="M5.48015 53.4921L3.58368 50.8902C3.13878 50.4053 1.92092 51.0782 1.43852 51.5259C0.956122 51.9742 0.191286 53.1406 0.636191 53.626L1.91029 54.8075" stroke="#3F4A54" stroke-linecap="round" stroke-linejoin="round"/>
<path d="M1.55933 54.0373L2.65347 53.0218" stroke="#3F4A54" stroke-linecap="round" stroke-linejoin="round"/>
<path d="M3.93535 53.4421L4.79516 52.6435" stroke="#3F4A54" stroke-linecap="round" stroke-linejoin="round"/>
<path d="M0.610493 51.1346L1.43907 51.5239L0.937299 50.0751" stroke="#3F4A54" stroke-linecap="round" stroke-linejoin="round"/>
<path d="M11.7329 51.8845L11.6517 50.5408C11.6561 49.5718 11.1018 48.733 10.3007 48.3092L10.3057 47.31L8.03561 47.2987L8.03123 48.2979C7.22578 48.7122 6.66215 49.5448 6.65715 50.5137L6.55655 53.0811" stroke="#3F4A54" stroke-linecap="round" stroke-linejoin="round"/>
<path d="M6.81055 51.7651C7.1861 51.8003 7.58601 51.8311 7.92031 51.6569C8.17776 51.5242 8.36335 51.2872 8.5783 51.0935C8.5783 51.0935 9.67994 49.5215 11.4883 51.0306" stroke="#3F4A54" stroke-linecap="round" stroke-linejoin="round"/>
<path d="M10.4134 47.3036L7.92585 47.2904C7.61092 47.2892 7.35347 47.0276 7.35535 46.7107L7.3566 46.6069C7.35785 46.2894 7.61717 46.0315 7.93273 46.0334L10.4203 46.046C10.7353 46.0479 10.9915 46.3088 10.9908 46.6264L10.9896 46.7295C10.9883 47.0464 10.7296 47.3055 10.4134 47.3036Z" stroke="#3F4A54" stroke-linecap="round" stroke-linejoin="round"/>
<path d="M1.16067 56.0713C1.16067 56.0713 2.81032 56.934 3.55704 55.3613C3.6239 55.2211 3.712 55.1004 3.81698 55.0086C4.00757 54.8407 4.3225 54.6703 4.73366 54.8187C4.77178 54.8332 4.80927 54.8533 4.84551 54.8753C5.09358 55.0237 6.22647 55.6204 6.65013 54.3584C6.70074 54.2069 6.77322 54.0748 6.86945 53.9723C7.04504 53.7818 7.34935 53.6057 7.78363 53.8755C8.94026 54.7627 9.51701 53.541 9.62886 53.2643C9.64511 53.2247 9.66261 53.1863 9.68573 53.1517C9.92443 52.7826 10.2775 52.7286 10.5299 52.7474C10.6693 52.7562 10.8117 52.799 10.9492 52.8707C12.4851 53.6737 13.2875 51.9853 13.2875 51.9853L15.1664 59.3184C15.1664 59.3184 15.7094 60.9514 14.3953 61.3576L5.88404 64.2249C4.59057 64.6958 4.04818 63.0641 4.04818 63.0641L2.2242 58.5166" stroke="#3F4A54" stroke-linecap="round" stroke-linejoin="round"/>
<path d="M16.8367 60.5378L7.72556 63.6075" stroke="#3F4A54" stroke-linecap="round" stroke-linejoin="round"/>
<path d="M11.5942 56.027L13.0945 61.6271" stroke="#3F4A54" stroke-linecap="round" stroke-linejoin="round"/>
<path d="M95.9968 34.8306L93.4123 26.8852L110.061 21.392L112.542 29.3123L95.9968 34.8306Z" fill="white"/>
<path d="M94.1541 20.8032L92.3995 27.2151L110.824 21.1497L105.832 16.9588L94.1541 20.8032Z" fill="#FF986E"/>
<path d="M110.824 21.1505L92.3995 27.2159L94.1535 20.8047L105.831 16.9596L110.824 21.1505Z" stroke="#3F4A54" stroke-linecap="round" stroke-linejoin="round"/>
<path d="M110.867 23.8703L110.065 21.4003" stroke="#3F4A54" stroke-linecap="round" stroke-linejoin="round"/>
<path d="M111.516 25.8647L111.234 24.9938" stroke="#3F4A54" stroke-linecap="round" stroke-linejoin="round"/>
<path d="M93.4123 26.8813L95.1107 32.1041" stroke="#3F4A54" stroke-linecap="round" stroke-linejoin="round"/>
<path d="M100.727 24.4729L101.661 27.3453" stroke="#3F4A54" stroke-linecap="round" stroke-linejoin="round"/>
<path d="M102.056 28.5581L102.426 29.6975" stroke="#3F4A54" stroke-linecap="round" stroke-linejoin="round"/>
<path d="M96.7759 29.2706L98.3125 33.9941L101.065 32.9051L99.5828 28.3463L96.7759 29.2706Z" fill="#FF986E"/>
<path d="M98.3127 33.9933L96.7762 29.2692L99.5837 28.3449L101.066 32.9036" stroke="#3F4A54" stroke-linecap="round" stroke-linejoin="round"/>
<path d="M102.788 30.8111L103.291 32.3542L95.9759 34.7625L95.4211 33.0547" stroke="#3F4A54" stroke-linecap="round" stroke-linejoin="round"/>
<path d="M105.618 28.9122L108.165 28.0734L107.385 25.6758L104.837 26.5146L105.618 28.9122Z" fill="#FF986E"/>
<path d="M105.618 28.9122L108.165 28.0734L107.385 25.6758L104.837 26.5146L105.618 28.9122Z" stroke="#3F4A54" stroke-linecap="round" stroke-linejoin="round"/>
<mask id="mask0_188_2632" style="mask-type:alpha" maskUnits="userSpaceOnUse" x="107" y="25" width="7" height="6">
<path d="M107.748 27.641L112.983 25.9181L113.957 28.9162L108.722 30.6391L107.748 27.641Z" fill="white"/>
</mask>
<g mask="url(#mask0_188_2632)">
<path d="M109.282 30.3061C108.081 30.1495 108.09 28.6913 109.063 28.6077C108.89 27.2734 110.266 26.2636 111.789 26.9974L111.973 27.2715C111.973 27.2715 112.474 26.9936 112.992 27.142C113.703 27.3457 113.828 28.4266 113.389 28.8995C112.951 29.3717 113.094 29.1485 112.56 29.3692C112.024 29.5905 109.282 30.3061 109.282 30.3061Z" fill="#FF986E"/>
</g>
<path d="M110.622 29.9428L105.06 31.7744" stroke="#3F4A54" stroke-linecap="round" stroke-linejoin="round"/>
<path d="M112.628 29.2846L111.782 29.5631" stroke="#3F4A54" stroke-linecap="round" stroke-linejoin="round"/>
<path d="M109.306 30.3781C108.106 30.2216 108.114 28.7634 109.087 28.6797C108.913 27.3448 110.29 26.3356 111.813 27.0688" stroke="#3F4A54" stroke-linecap="round" stroke-linejoin="round"/>
<path d="M111.918 27.1001L112.676 26.8505" stroke="#3F4A54" stroke-linecap="round" stroke-linejoin="round"/>
<rect x="50.681" width="25.9766" height="25.9766" fill="white" fill-opacity="0.01"/>
<path fill-rule="evenodd" clip-rule="evenodd" d="M57.4399 14.3127C57.9761 14.6316 58.4982 15.0102 58.7888 15.6037C59.4464 16.9461 58.8545 18.5495 57.4681 19.1859C57.4581 19.1904 57.4487 19.1917 57.4386 19.1963L58.1358 20.6185L59.9363 19.7924L69.7177 15.3056L65.5967 7.76529L54.3638 12.9184L55.0604 14.3406C55.0704 14.3367 55.0771 14.3296 55.0872 14.3257C55.3516 14.2042 55.6261 14.1263 55.9012 14.0899C55.9012 14.0899 56.883 13.9808 57.4399 14.3127Z" fill="#C367D6"/>
<path fill-rule="evenodd" clip-rule="evenodd" d="M65.9774 13.4485C65.9774 15.1967 64.5118 16.6144 62.7053 16.6144C60.8988 16.6144 59.4338 15.1967 59.4338 13.4485C59.4338 11.6996 60.8988 10.2826 62.7053 10.2826C64.5118 10.2826 65.9774 11.6996 65.9774 13.4485Z" fill="white"/>
<path fill-rule="evenodd" clip-rule="evenodd" d="M73.6256 11.8729L73.5303 11.6794C73.4377 11.7222 73.3404 11.7456 73.2451 11.7781C73.3679 11.821 73.4974 11.8469 73.6256 11.8729Z" fill="white"/>
<path d="M69.3679 15.3445L69.0888 14.7743" stroke="#3F4A54" stroke-linecap="round" stroke-linejoin="round"/>
<path d="M68.4521 13.4764L66.2228 8.92466" stroke="#3F4A54" stroke-linecap="round" stroke-linejoin="round" stroke-dasharray="2.22 2.22"/>
<path d="M65.9039 8.27296L65.6241 7.70277" stroke="#3F4A54" stroke-linecap="round" stroke-linejoin="round"/>
<path d="M57.4399 14.19C58.0123 14.4446 58.4982 14.8875 58.7888 15.4811C59.4464 16.8234 58.8545 18.4268 57.4681 19.0632C57.458 19.0678 57.4486 19.0691 57.4386 19.0736L58.1358 20.4958" stroke="#3F4A54" stroke-linecap="round" stroke-linejoin="round"/>
<path d="M65.5972 7.64425L54.3643 12.7974L55.0609 14.2196C55.0702 14.2157 55.0776 14.2085 55.0877 14.2046C55.3514 14.0832 55.6266 14.0059 55.9017 13.9695" stroke="#3F4A54" stroke-linecap="round" stroke-linejoin="round"/>
<path d="M71.4264 12.1168C70.5681 11.9713 69.793 11.4388 69.3917 10.6186C68.7334 9.27623 69.3253 7.67283 70.7124 7.0364L70.0165 5.61678L69.2052 5.98825L68.6099 6.2623L67.9315 6.57272L66.8625 7.06368" stroke="#3F4A54" stroke-linecap="round" stroke-linejoin="round"/>
<path d="M59.936 19.6726L73.7894 13.3174L73.0928 11.8978" stroke="#3F4A54" stroke-linecap="round" stroke-linejoin="round"/>
<path d="M63.8951 13.0731L64.4742 14.0349L63.3562 14.294L62.5905 15.1246L61.9892 14.1751L60.937 13.7264L61.6839 12.8809L61.8 11.773L62.1107 11.8976L62.8623 12.1996L63.9863 11.9639" stroke="#3F4A54" stroke-linecap="round" stroke-linejoin="round"/>
</svg>
