<svg width="27" height="50" viewBox="0 0 27 50" fill="none" xmlns="http://www.w3.org/2000/svg">
<path d="M10.6483 48.6704C11.1078 49.6388 12.2625 50.0675 13.2045 49.556C17.9616 46.9728 21.8242 42.9797 24.2458 38.1036C26.9545 32.6494 27.6935 26.4263 26.3373 20.4895C24.9812 14.5526 21.6134 9.26758 16.8052 5.53051C12.4676 2.15924 7.19858 0.234935 1.73921 0.00148947C0.755253 -0.0405857 -0.0238836 0.783665 0.000563756 1.76822C0.0250077 2.75277 0.844092 3.52381 1.82755 3.57628C6.46308 3.82358 10.929 5.48042 14.6166 8.34647C18.775 11.5785 21.6875 16.1492 22.8604 21.2837C24.0333 26.4181 23.3942 31.8002 21.0516 36.5172C19.0068 40.6346 15.6077 43.7922 11.5845 45.9705C10.6167 46.4945 10.1765 47.676 10.6483 48.6704Z" fill="#1EB290"/>
</svg>
