<svg width="285" height="240" viewBox="0 0 285 240" fill="none" xmlns="http://www.w3.org/2000/svg">
<circle cx="134.286" cy="119.047" r="119.047" fill="url(#paint0_radial_279_4378)"/>
<ellipse opacity="0.8" cx="142.381" cy="218.571" rx="142.381" ry="21.4285" fill="url(#paint1_linear_279_4378)"/>
<path d="M78.2492 146.656L73.8999 149.555L71.0004 154.629L73.8999 203.921L77.0643 208.995H105.794L110.869 222.768L113.043 219.868L114.493 222.768L121.742 208.995L152.186 207.545L155.267 202.903L159.435 199.572L156.536 169.852L163.06 166.227L167.409 160.428L156.536 152.455V146.656L152.186 142.307L129.715 144.481V148.83H114.493L113.043 144.481L78.2492 146.656Z" fill="#ACCE5B"/>
<path d="M73.648 190.663L71.4375 156.367C71.3369 153.389 73.6716 150.898 76.6493 150.8L85.7252 150.331" stroke="#3F4A54" stroke-width="1.5" stroke-miterlimit="10" stroke-linecap="round" stroke-linejoin="round"/>
<path d="M154.137 184.992L155.007 201.845C155.067 204.825 152.704 207.289 149.726 207.35L79.9704 209.934C76.9912 209.951 74.5634 207.553 74.5462 204.572L73.9711 195.658" stroke="#3F4A54" stroke-width="1.5" stroke-miterlimit="10" stroke-linecap="round" stroke-linejoin="round"/>
<path d="M157.497 169.099L158.968 197.587C159.029 200.565 157.81 202.806 154.83 202.866" stroke="#3F4A54" stroke-width="1.5" stroke-miterlimit="10" stroke-linecap="round" stroke-linejoin="round"/>
<path d="M156.937 158.223L157.176 162.627" stroke="#3F4A54" stroke-width="1.5" stroke-miterlimit="10" stroke-linecap="round" stroke-linejoin="round"/>
<path d="M130.302 144.042L150.932 142.905C153.908 142.851 156.368 145.222 156.42 148.201L156.742 154.409" stroke="#3F4A54" stroke-width="1.5" stroke-miterlimit="10" stroke-linecap="round" stroke-linejoin="round"/>
<path d="M73.573 151.872C73.4735 148.893 75.9202 146.974 78.8972 146.877L113.736 144.954" stroke="#3F4A54" stroke-width="1.5" stroke-miterlimit="10" stroke-linecap="round" stroke-linejoin="round"/>
<path d="M105.823 209.235C105.823 209.235 110.172 222.659 111.634 222.377C113.095 222.096 112.675 210.14 112.927 208.939" stroke="#3F4A54" stroke-width="1.5" stroke-miterlimit="10" stroke-linecap="round" stroke-linejoin="round"/>
<path d="M120.396 208.641C120.396 208.641 115.847 222.561 114.386 222.279C112.925 221.998 113.344 210.042 113.092 208.841" stroke="#3F4A54" stroke-width="1.5" stroke-miterlimit="10" stroke-linecap="round" stroke-linejoin="round"/>
<path d="M83.0731 150.643L71.6775 163.555" stroke="#3F4A54" stroke-width="1.5" stroke-miterlimit="10" stroke-linecap="round" stroke-linejoin="round"/>
<path d="M141.467 147.78L152.459 158.855" stroke="#3F4A54" stroke-width="1.5" stroke-miterlimit="10" stroke-linecap="round" stroke-linejoin="round"/>
<path d="M79.0357 163.864L81.4517 196.047" stroke="#3F4A54" stroke-width="1.5" stroke-miterlimit="10" stroke-linecap="round" stroke-linejoin="round" stroke-dasharray="8 8"/>
<path d="M157.728 171.519L142.99 171.375C139.222 171.429 136.211 174.525 136.264 178.293C136.316 182.061 139.413 185.073 143.181 185.02L158.09 184.678" stroke="#3F4A54" stroke-width="1.5" stroke-miterlimit="10" stroke-linecap="round" stroke-linejoin="round"/>
<path d="M142.53 174.601C144.505 174.214 146.421 175.502 146.808 177.476C147.195 179.452 145.908 181.366 143.932 181.754C141.957 182.141 140.041 180.854 139.654 178.879C139.46 177.892 139.686 176.919 140.206 176.144" fill="#FBE885"/>
<path d="M142.53 174.601C144.505 174.214 146.421 175.502 146.808 177.476C147.195 179.452 145.908 181.366 143.932 181.754C141.957 182.141 140.041 180.854 139.654 178.879C139.46 177.892 139.686 176.919 140.206 176.144" stroke="#3F4A54" stroke-width="1.5" stroke-miterlimit="10" stroke-linecap="round" stroke-linejoin="round"/>
<path d="M154.641 197.193L145.086 207.655" stroke="#3F4A54" stroke-width="1.5" stroke-miterlimit="10" stroke-linecap="round" stroke-linejoin="round"/>
<path d="M74.4447 198.99L85.3061 209.394" stroke="#3F4A54" stroke-width="1.5" stroke-miterlimit="10" stroke-linecap="round" stroke-linejoin="round"/>
<path d="M91.1065 150.053L146.968 147.164C149.943 147.11 152.403 149.48 152.457 152.46L153.338 171.127" stroke="#3F4A54" stroke-width="1.5" stroke-miterlimit="10" stroke-linecap="round" stroke-linejoin="round"/>
<path d="M153.169 164.008C155.028 163.583 159.449 161.917 159.354 161.099C159.306 160.685 158.69 159.078 154.096 156.016C153 155.285 152.076 154.877 152.398 154.284C153.381 152.48 167.456 157.027 166.963 161.779C166.557 165.69 153.432 170.776 153.432 170.776" stroke="#3F4A54" stroke-width="1.5" stroke-miterlimit="10" stroke-linecap="round" stroke-linejoin="round"/>
<path d="M102.176 198.214C102.587 198.289 105.823 198.029 110.085 194.52C111.102 193.681 111.874 192.824 112.233 193.395C113.676 195.684 105.25 207.014 100.844 205.167C97.2183 203.646 93.6651 195.224 93.6651 195.224" stroke="#3F4A54" stroke-width="1.5" stroke-miterlimit="10" stroke-linecap="round" stroke-linejoin="round"/>
<path d="M118.561 184.09C118.561 184.09 113.327 182.863 109.516 187.003" stroke="#3F4A54" stroke-width="1.5" stroke-miterlimit="10" stroke-linecap="round" stroke-linejoin="round"/>
<path d="M124.897 176.832L131.881 176.542" stroke="#3F4A54" stroke-width="1.5" stroke-miterlimit="10" stroke-linecap="round" stroke-linejoin="round"/>
<path d="M97.313 178.861L104.297 178.571" stroke="#3F4A54" stroke-width="1.5" stroke-miterlimit="10" stroke-linecap="round" stroke-linejoin="round"/>
<path d="M132.995 184.286C133.04 185.359 131.735 186.286 130.084 186.355C128.429 186.424 127.053 185.608 127.008 184.534C126.964 183.459 128.268 182.533 129.922 182.463C131.574 182.396 132.951 183.211 132.995 184.286Z" fill="#F07374"/>
<path d="M102.849 186.753C102.893 187.828 101.589 188.754 99.9373 188.822C98.2831 188.891 96.907 188.076 96.8623 187.001C96.8182 185.928 98.1211 185 99.7759 184.931C101.427 184.863 102.805 185.678 102.849 186.753Z" fill="#F07374"/>
<path d="M157.604 138.772L160.134 136.082" stroke="#3F4A54" stroke-width="1.5" stroke-miterlimit="10" stroke-linecap="round" stroke-linejoin="round"/>
<path d="M154.107 138.303L153.781 134.284" stroke="#3F4A54" stroke-width="1.5" stroke-miterlimit="10" stroke-linecap="round" stroke-linejoin="round"/>
<path d="M159.216 142.091L163.166 141.68" stroke="#3F4A54" stroke-width="1.5" stroke-miterlimit="10" stroke-linecap="round" stroke-linejoin="round"/>
<rect x="49.9999" y="117.383" width="23.1897" height="23.1897" transform="rotate(-26.5991 49.9999 117.383)" fill="white" fill-opacity="0.01"/>
<path fill-rule="evenodd" clip-rule="evenodd" d="M58.7401 124.932C58.7401 124.932 60.3676 125.505 60.8495 123.972C60.8929 123.835 60.958 123.714 61.0427 123.616C61.1961 123.438 61.4632 123.241 61.8602 123.323C61.8968 123.332 61.9339 123.345 61.9707 123.36C62.2176 123.463 63.3355 123.86 63.5609 122.653C63.5878 122.508 63.6372 122.378 63.7118 122.272C63.8486 122.075 64.1046 121.874 64.5388 122.064C65.7168 122.723 66.0878 121.532 66.1546 121.265C66.1644 121.226 66.1755 121.189 66.1916 121.155C66.3635 120.788 66.6805 120.692 66.9149 120.676C67.0443 120.666 67.1804 120.687 67.3163 120.734C68.8318 121.267 69.3488 119.62 69.3488 119.62L72.0268 126.069C72.0268 126.069 72.7375 127.488 71.5825 128.031L64.1367 131.759C63.0098 132.358 62.2993 130.94 62.2993 130.94L60.0338 127.027" fill="#5FCA76"/>
<path fill-rule="evenodd" clip-rule="evenodd" d="M70.367 128.576L69.2327 126.311L68.8355 125.518C67.8463 123.542 68.0259 120.801 69.5567 120.035L69.2971 119.516L72.0294 127.121C72.1366 127.427 72.0492 127.734 71.8237 127.847L70.367 128.576Z" fill="#5FCA76"/>
<path d="M62.3726 122.013L60.2933 119.886C59.8217 119.501 58.7905 120.274 58.4056 120.746C58.0206 121.217 57.4693 122.382 57.9408 122.767L59.2644 123.679" stroke="#3F4A54" stroke-width="0.7" stroke-linecap="round" stroke-linejoin="round"/>
<path d="M58.8432 123.025L59.7168 121.954" stroke="#3F4A54" stroke-width="0.7" stroke-linecap="round" stroke-linejoin="round"/>
<path d="M60.9479 122.173L61.6342 121.332" stroke="#3F4A54" stroke-width="0.7" stroke-linecap="round" stroke-linejoin="round"/>
<path d="M57.5944 120.499L58.4061 120.746L57.7572 119.489" stroke="#3F4A54" stroke-width="0.7" stroke-linecap="round" stroke-linejoin="round"/>
<path d="M67.9074 119.729L67.6586 118.514C67.537 117.629 66.9192 116.935 66.1281 116.654L66.0031 115.741L63.9166 116.027L64.0414 116.939C63.3551 117.423 62.946 118.257 63.067 119.142L63.3075 121.498" stroke="#3F4A54" stroke-width="0.7" stroke-linecap="round" stroke-linejoin="round"/>
<path d="M63.3711 120.262C63.7206 120.245 64.0916 120.221 64.3767 120.019C64.5954 119.864 64.7358 119.624 64.9081 119.419C64.9081 119.419 65.7161 117.84 67.5731 118.981" stroke="#3F4A54" stroke-width="0.7" stroke-linecap="round" stroke-linejoin="round"/>
<path fill-rule="evenodd" clip-rule="evenodd" d="M66.1034 115.721L63.8166 116.034C63.527 116.074 63.2573 115.869 63.2174 115.58L63.2047 115.484C63.1653 115.195 63.3695 114.925 63.6596 114.885L65.9464 114.572C66.236 114.533 66.505 114.737 66.5451 115.027L66.5576 115.122C66.5977 115.412 66.3935 115.681 66.1034 115.721Z" stroke="#3F4A54" stroke-width="0.7" stroke-linecap="round" stroke-linejoin="round"/>
<path d="M58.7401 124.932C58.7401 124.932 60.3676 125.505 60.8495 123.972C60.8929 123.835 60.958 123.714 61.0427 123.616C61.1961 123.438 61.4632 123.241 61.8602 123.323C61.8968 123.332 61.9339 123.345 61.9707 123.36C62.2176 123.463 63.3355 123.86 63.5609 122.653C63.5878 122.508 63.6372 122.378 63.7118 122.272C63.8486 122.075 64.1046 121.874 64.5388 122.064C65.7168 122.723 66.0878 121.532 66.1546 121.265C66.1644 121.226 66.1755 121.189 66.1916 121.155C66.3635 120.788 66.6805 120.692 66.9149 120.676C67.0443 120.666 67.1804 120.687 67.3163 120.734C68.8318 121.267 69.3488 119.62 69.3488 119.62L72.0268 126.069C72.0268 126.069 72.7375 127.488 71.5825 128.031L64.1367 131.759C63.0098 132.358 62.2993 130.94 62.2993 130.94L60.0338 127.027" stroke="#3F4A54" stroke-width="0.7" stroke-linecap="round" stroke-linejoin="round"/>
<path d="M73.719 126.963L65.7484 130.954" stroke="#3F4A54" stroke-width="0.7" stroke-linecap="round" stroke-linejoin="round"/>
<path d="M68.3182 123.529L70.4222 128.446" stroke="#3F4A54" stroke-width="0.7" stroke-linecap="round" stroke-linejoin="round"/>
<path d="M174.038 128.98C168.142 127.997 166.668 131.846 166.668 133.894C166.668 138.807 171.581 140.854 175.266 141.264C184.11 142.246 183.046 138.397 181.408 136.35C187.55 135.122 183.865 127.752 178.951 125.295C175.021 123.33 174.038 126.933 174.038 128.98Z" fill="white" stroke="#EBD3C7" stroke-width="1.5"/>
<path d="M186.982 125.89C185.828 123.631 185.539 119.302 185.539 117.419C208.137 117.419 253.621 117.984 254.775 120.243C255.929 122.502 252.371 127.773 250.448 130.126C229.773 129.655 188.136 128.149 186.982 125.89Z" fill="white"/>
<path d="M185.567 118.389C185.406 115.01 185.935 111.374 187.227 107.828C191.364 96.4735 212.5 99.6528 216.177 106.01C224.907 95.1107 243.746 96.4725 252.018 110.552C254.465 114.718 255.223 118.447 254.947 121.655" fill="white"/>
<path d="M185.567 118.389C185.406 115.01 185.935 111.374 187.227 107.828C191.364 96.4735 212.5 99.6528 216.177 106.01C224.907 95.1107 243.746 96.4725 252.018 110.552C254.465 114.718 255.223 118.447 254.947 121.655" stroke="#EBD3C7" stroke-width="1.5" stroke-miterlimit="10" stroke-linecap="round" stroke-linejoin="round"/>
<path d="M251.613 129.229C249.269 132.385 246.044 134.284 243.903 134.676C251.176 142.895 244.812 148.833 239.811 151.573C234.811 154.313 217.081 153.857 213.445 143.352C213.445 143.352 211.794 151.686 203.444 149.29C193.897 146.55 196.17 133.305 196.17 133.305C191.926 132.453 188.871 129.311 187.235 125.043" fill="white"/>
<path d="M251.613 129.229C249.269 132.385 246.044 134.284 243.903 134.676C251.176 142.895 244.812 148.833 239.811 151.573C234.811 154.313 217.081 153.857 213.445 143.352C213.445 143.352 211.794 151.686 203.444 149.29C193.897 146.55 196.17 133.305 196.17 133.305C191.926 132.453 188.871 129.311 187.235 125.043" stroke="#EBD3C7" stroke-width="1.5" stroke-miterlimit="10" stroke-linecap="round" stroke-linejoin="round"/>
<path d="M222.943 128.893C223.037 128.392 222.863 127.902 222.522 127.572C222.743 127.885 222.842 128.281 222.766 128.687C222.678 129.157 222.373 129.531 221.973 129.727L221.72 133.915L219.19 133.44L219.138 133.603L221.898 134.121L222.151 129.933C222.55 129.737 222.855 129.363 222.943 128.893Z" fill="white"/>
<path d="M214.099 121.259L214.191 120.767L214.987 116.532C215.779 112.314 219.85 109.542 224.08 110.336L225.871 110.672C230.099 111.466 232.887 115.527 232.092 119.744M214.099 121.259L231.601 119.652M214.099 121.259L214.59 121.351M214.099 121.259L214.59 121.351M232.092 119.744L231.601 119.652M232.092 119.744L232.092 119.744L231.601 119.652M232.092 119.744L231.297 123.98L231.204 124.471L230.713 124.379L227.402 123.757L226.909 123.664L227.003 123.172L227.835 118.796L228.327 118.888M231.601 119.652L230.898 123.396L230.805 123.887L230.314 123.795L227.986 123.358L227.985 123.359L227.494 123.265L227.586 122.774L227.588 122.774L228.327 118.888M228.327 118.888L227.836 118.795L227.836 118.795L221.085 114.066C221.089 114.064 221.092 114.063 221.096 114.062C221.099 114.06 221.103 114.059 221.106 114.057M228.327 118.888C228.764 116.559 227.223 114.312 224.886 113.873L223.827 113.674C223.175 113.552 222.53 113.588 221.93 113.746M221.93 113.746C221.643 113.823 221.368 113.925 221.106 114.057M221.93 113.746L222.057 114.23C222.058 114.23 222.058 114.23 222.058 114.23C222.058 114.229 222.059 114.229 222.059 114.229L221.93 113.746ZM221.106 114.057L221.387 114.47C221.37 114.482 221.354 114.491 221.34 114.499C221.337 114.5 221.334 114.502 221.33 114.504L221.33 114.503M221.106 114.057L221.181 114.207L221.33 114.503M221.33 114.503C221.327 114.504 221.325 114.505 221.323 114.506C221.32 114.508 221.318 114.509 221.316 114.51C221.306 114.515 221.298 114.519 221.291 114.522C221.283 114.525 221.276 114.528 221.273 114.529L221.278 114.527C221.284 114.525 221.292 114.522 221.302 114.518C221.302 114.517 221.302 114.517 221.302 114.517C221.306 114.515 221.311 114.513 221.316 114.51L221.33 114.503M221.33 114.503L221.33 114.503M221.33 114.503C221.341 114.496 221.353 114.489 221.367 114.48L221.342 114.496L221.33 114.503M214.59 121.351L217.891 121.971L218.383 122.063M214.59 121.351L218.383 122.063M218.383 122.063L218.475 121.572M218.383 122.063L218.475 121.572M218.475 121.572L219.297 117.193C219.319 117.075 219.348 116.959 219.382 116.843L219.389 116.82M218.475 121.572L219.389 116.82M219.389 116.82L219.389 116.816M219.389 116.82L219.389 116.816M219.389 116.816L219.391 116.81C219.394 116.802 219.398 116.791 219.401 116.778M219.389 116.816L220.695 114.902M219.401 116.778C219.401 116.779 219.401 116.78 219.401 116.78L218.923 116.633L219.403 116.774C219.402 116.775 219.402 116.777 219.401 116.778ZM219.401 116.778C219.431 116.682 219.466 116.584 219.505 116.483L219.508 116.474L219.51 116.469M219.51 116.469L219.512 116.464L219.52 116.444C219.522 116.439 219.524 116.434 219.526 116.428M219.51 116.469L219.511 116.465C219.51 116.468 219.509 116.471 219.509 116.471L219.51 116.469ZM219.526 116.428C219.565 116.334 219.61 116.239 219.662 116.138M219.526 116.428C219.525 116.432 219.523 116.435 219.522 116.438L219.059 116.249L219.532 116.41C219.53 116.417 219.528 116.423 219.526 116.428ZM219.662 116.138C219.672 116.121 219.687 116.095 219.701 116.066M219.662 116.138C219.659 116.143 219.656 116.147 219.654 116.151C219.653 116.152 219.652 116.153 219.652 116.154L219.224 115.895L219.67 116.121C219.667 116.127 219.664 116.132 219.662 116.138ZM219.701 116.066C219.74 115.995 219.784 115.923 219.833 115.845M219.701 116.066C219.699 116.07 219.697 116.073 219.695 116.077L219.256 115.837L219.711 116.046C219.708 116.053 219.704 116.06 219.701 116.066ZM219.833 115.845C219.844 115.828 219.855 115.812 219.864 115.797L219.865 115.796C219.876 115.779 219.885 115.765 219.894 115.752M219.833 115.845C219.831 115.848 219.829 115.85 219.828 115.853L219.413 115.574L219.837 115.838C219.835 115.84 219.834 115.843 219.833 115.845ZM219.894 115.752C219.937 115.689 219.983 115.626 220.033 115.563M219.894 115.752C219.893 115.753 219.893 115.753 219.893 115.754L219.48 115.472L219.895 115.751C219.894 115.751 219.894 115.752 219.894 115.752ZM220.033 115.563C220.056 115.534 220.067 115.519 220.075 115.509C220.083 115.498 220.087 115.493 220.098 115.481L220.098 115.481L220.104 115.474C220.163 115.405 220.225 115.336 220.288 115.268M220.033 115.563C220.032 115.564 220.032 115.564 220.031 115.565L219.641 115.252L220.035 115.56C220.034 115.561 220.034 115.562 220.033 115.563ZM220.288 115.268C220.31 115.245 220.33 115.226 220.356 115.2C220.369 115.188 220.384 115.174 220.401 115.157M220.288 115.268C220.287 115.269 220.286 115.27 220.285 115.271L219.924 114.925L220.291 115.264C220.29 115.265 220.289 115.267 220.288 115.268ZM220.401 115.157L220.453 115.11L220.504 115.063M220.401 115.157L220.395 115.163L220.058 114.793L220.407 115.151C220.405 115.153 220.403 115.155 220.401 115.157ZM220.504 115.063C220.54 115.032 220.562 115.013 220.58 114.996C220.602 114.977 220.619 114.962 220.649 114.938L220.649 114.938L220.653 114.935M220.504 115.063C220.502 115.065 220.5 115.067 220.497 115.069L220.174 114.688L220.511 115.057L220.504 115.063ZM220.653 114.935C220.654 114.934 220.656 114.933 220.66 114.929L220.662 114.928C220.668 114.923 220.681 114.914 220.695 114.902M220.653 114.935L220.654 114.934C220.653 114.934 220.653 114.935 220.653 114.935C220.653 114.935 220.653 114.935 220.653 114.935ZM220.695 114.902C220.693 114.903 220.692 114.904 220.691 114.905L220.383 114.511L220.701 114.897C220.699 114.899 220.697 114.901 220.695 114.902ZM221.053 114.656C221.056 114.655 221.058 114.653 221.061 114.651L221.073 114.644L221.084 114.636C221.09 114.633 221.088 114.634 221.084 114.636C221.082 114.638 221.079 114.639 221.076 114.641C221.072 114.643 221.067 114.647 221.06 114.65C221.049 114.656 221.033 114.663 221.014 114.67L221.053 114.656Z" fill="#FFD733" stroke="#3F4A54"/>
<path d="M214.162 119.405L213.645 119.308L213.574 119.829C213.523 120.209 213.365 120.735 213.133 121.404C213.018 121.734 212.889 122.089 212.751 122.468L212.751 122.469C212.613 122.847 212.467 123.249 212.321 123.667C211.736 125.334 211.131 127.302 210.991 129.259C210.85 131.223 211.175 133.223 212.5 134.906C213.822 136.586 216.079 137.872 219.641 138.541C223.203 139.21 225.773 138.83 227.615 137.744C229.46 136.657 230.488 134.911 231.07 133.03C231.649 131.155 231.799 129.102 231.859 127.336C231.874 126.893 231.884 126.466 231.893 126.064L231.893 126.063C231.902 125.659 231.91 125.281 231.923 124.933C231.949 124.224 231.993 123.677 232.083 123.305L232.206 122.794L231.689 122.696L214.162 119.405Z" fill="#FF9849" stroke="#3F4A54"/>
<path d="M214.068 119.896C213.596 123.376 205.771 135.427 219.732 138.049C233.692 140.67 230.773 126.601 231.595 123.187L214.068 119.896Z" fill="#FF9849"/>
<path fill-rule="evenodd" clip-rule="evenodd" d="M222.154 129.933C222.552 129.737 222.856 129.363 222.945 128.893C223.093 128.102 222.57 127.336 221.774 127.186C220.978 127.037 220.213 127.558 220.064 128.352C219.975 128.823 220.124 129.283 220.426 129.611L219.143 133.603L221.9 134.121L222.154 129.933Z" fill="white"/>
<path fill-rule="evenodd" clip-rule="evenodd" d="M204.422 196.089C206.499 196.089 208.196 197.663 208.196 199.586V205H222.226V199.586C222.226 197.663 223.925 196.089 226 196.089L225.484 192.998C225.484 192.998 213.066 190.299 204 193.777L204.422 196.089Z" fill="#845EFC"/>
<path fill-rule="evenodd" clip-rule="evenodd" d="M215 192V205H222.226V199.586C222.226 197.661 223.925 196.088 226 196.088L225.483 192.996C225.483 192.996 220.753 191.97 215 192Z" fill="#8F62ED"/>
<path fill-rule="evenodd" clip-rule="evenodd" d="M215.337 203H212.944C212.423 203 212 202.635 212 202.185V198.587C212 197.166 213.35 196 214.999 196C216.65 196 218 197.166 218 198.587V202.185" fill="white"/>
<path fill-rule="evenodd" clip-rule="evenodd" d="M214.662 203H217.056C217.577 203 218 202.635 218 202.185V198.587C218 197.166 216.651 196 215 196C213.351 196 212 197.166 212 198.587V202.185" fill="white"/>
<path d="M225 187C225.311 187.666 225.492 188.464 225.492 189.316L226 195" stroke="#3F4A54" stroke-linecap="round" stroke-linejoin="round"/>
<path d="M204 195L204.766 189.286C204.766 186.929 206.842 185 209.376 185H220.961C221.693 185 222.385 185.16 223 185.444" stroke="#3F4A54" stroke-linecap="round" stroke-linejoin="round"/>
<path d="M215 183H216.606C217.264 183 217.801 183.214 217.801 183.477L218 184" stroke="#3F4A54" stroke-linecap="round" stroke-linejoin="round"/>
<path d="M212.426 183.798L212.574 183.201" stroke="#3F4A54" stroke-linecap="round" stroke-linejoin="round"/>
<path d="M201 205V199.532C201 197.588 202.575 196 204.5 196C206.426 196 208 197.588 208 199.532V205" stroke="#3F4A54" stroke-linecap="round" stroke-linejoin="round"/>
<path d="M222 205V199.532C222 197.588 223.575 196 225.5 196C227.426 196 229 197.588 229 199.532V205" stroke="#3F4A54" stroke-linecap="round" stroke-linejoin="round"/>
<path d="M215.337 203H212.944C212.423 203 212 202.635 212 202.185V198.587C212 197.166 213.35 196 214.999 196C216.65 196 218 197.166 218 198.587V202.185" stroke="#3F4A54" stroke-linecap="round" stroke-linejoin="round"/>
<path d="M220 205.5H231" stroke="#3F4A54" stroke-linecap="round" stroke-linejoin="round"/>
<path d="M200 205.5H217" stroke="#3F4A54" stroke-linecap="round" stroke-linejoin="round"/>
<path d="M210 192.178C213.619 191.895 219.011 191.88 226 192.983" stroke="#3F4A54" stroke-linecap="round" stroke-linejoin="round"/>
<path d="M205 192.741C205 192.741 205.68 192.5 207 192.258" stroke="#3F4A54" stroke-linecap="round" stroke-linejoin="round"/>
<path fill-rule="evenodd" clip-rule="evenodd" d="M206 199.5C206 200.328 205.328 201 204.5 201C203.671 201 203 200.328 203 199.5C203 198.671 203.671 198 204.5 198C205.328 198 206 198.671 206 199.5Z" fill="white"/>
<path d="M228 208.5H204" stroke="#3F4A54" stroke-linecap="round" stroke-linejoin="round"/>
<path d="M207 205V207.393C207 208.277 206.009 209 204.797 209H204.204C202.992 209 202 208.277 202 207.393V205" stroke="#3F4A54" stroke-linecap="round" stroke-linejoin="round"/>
<path d="M228 205V207.393C228 208.277 227.009 209 225.797 209H225.204C223.992 209 223 208.277 223 207.393V205" stroke="#3F4A54" stroke-linecap="round" stroke-linejoin="round"/>
<path d="M205.962 199.166C205.986 199.273 206 199.385 206 199.5C206 200.329 205.329 201 204.5 201C203.671 201 203 200.329 203 199.5C203 198.672 203.671 198 204.5 198" stroke="#3F4A54" stroke-linecap="round" stroke-linejoin="round"/>
<path fill-rule="evenodd" clip-rule="evenodd" d="M228 199.5C228 200.328 227.104 201 226 201C224.895 201 224 200.328 224 199.5C224 198.671 224.895 198 226 198C227.104 198 228 198.671 228 199.5Z" fill="white"/>
<path d="M227.949 199.166C227.982 199.273 228 199.385 228 199.5C228 200.329 227.105 201 226 201C224.895 201 224 200.329 224 199.5C224 198.672 224.895 198 226 198" stroke="#3F4A54" stroke-linecap="round" stroke-linejoin="round"/>
<rect x="6.17187" y="166.471" width="47.1897" height="47.1897" transform="rotate(-13.8538 6.17187 166.471)" fill="white" fill-opacity="0.01"/>
<path fill-rule="evenodd" clip-rule="evenodd" d="M47.7277 180.883C49.0056 186.065 45.2883 191.439 40.6802 192.575C36.0745 193.711 30.2825 190.682 29.0046 185.501L27.7467 180.4C26.4687 175.218 30.1884 169.844 34.7941 168.708C39.4022 167.571 45.1918 170.601 46.4698 175.782L47.7277 180.883Z" fill="#FE71A0"/>
<path d="M44.9947 172.644C42.6558 169.452 38.369 167.826 34.7941 168.708C30.1884 169.844 26.4687 175.218 27.7467 180.4" stroke="#3F4A54" stroke-linecap="round" stroke-linejoin="round"/>
<path d="M46.7525 176.927L47.7279 180.883" stroke="#3F4A54" stroke-linecap="round" stroke-linejoin="round"/>
<path fill-rule="evenodd" clip-rule="evenodd" d="M44.5364 179.045C45.7185 183.838 43.6411 188.471 39.8955 189.395C36.1523 190.318 32.1579 187.183 30.9757 182.389C29.7938 177.597 31.8721 172.963 35.6154 172.039C39.3609 171.116 43.3544 174.252 44.5364 179.045Z" fill="white"/>
<path fill-rule="evenodd" clip-rule="evenodd" d="M44.5364 179.045C45.7185 183.838 43.6411 188.471 39.8955 189.395C36.1523 190.318 32.1579 187.183 30.9757 182.389C29.7938 177.597 31.8721 172.963 35.6154 172.039C39.3609 171.116 43.3544 174.252 44.5364 179.045Z" stroke="#3F4A54" stroke-linecap="round" stroke-linejoin="round"/>
<path d="M47.7276 180.883C49.0056 186.065 45.2882 191.438 40.6802 192.575C36.0744 193.711 30.2825 190.682 29.0045 185.5" stroke="#3F4A54" stroke-linecap="round" stroke-linejoin="round"/>
<path d="M40.8196 193.137L41.9507 197.724" stroke="#3F4A54" stroke-linecap="round" stroke-linejoin="round"/>
<path d="M33.1625 199.881L28.2635 201.09" stroke="#3F4A54" stroke-linecap="round" stroke-linejoin="round"/>
<path d="M47.616 196.317L36.1594 199.142" stroke="#3F4A54" stroke-linecap="round" stroke-linejoin="round"/>
<path fill-rule="evenodd" clip-rule="evenodd" d="M26.7052 190.187L23.7168 190.924L23.1671 188.695C23.1287 188.539 23.1684 188.375 23.2747 188.254L24.9698 186.347C25.2314 186.053 25.7154 186.173 25.8095 186.555L26.7052 190.187Z" fill="#FE71A0"/>
<path d="M24.9305 199.908C25.1878 200.952 26.1328 201.625 27.0285 201.404L28.647 201.005C29.5439 200.784 30.0662 199.748 29.8089 198.705L28.2747 192.484L23.3963 193.687L23.8407 195.489L24.4113 197.803" stroke="#3F4A54" stroke-linecap="round" stroke-linejoin="round"/>
<mask id="mask0_279_4378" style="mask-type:luminance" maskUnits="userSpaceOnUse" x="17" y="165" width="36" height="38">
<path fill-rule="evenodd" clip-rule="evenodd" d="M24.8364 202.734L52.2395 195.976L44.7164 165.471L17.3133 172.229L24.8364 202.734Z" fill="white"/>
</mask>
<g mask="url(#mask0_279_4378)">
<path fill-rule="evenodd" clip-rule="evenodd" d="M23.7949 193.588L27.8726 192.582L27.2616 190.104L23.1839 191.11L23.7949 193.588Z" stroke="#3F4A54" stroke-linecap="round" stroke-linejoin="round"/>
<path fill-rule="evenodd" clip-rule="evenodd" d="M26.7052 190.187L23.7168 190.924L23.1671 188.695C23.1287 188.539 23.1684 188.375 23.2747 188.254L24.9698 186.347C25.2314 186.053 25.7154 186.173 25.8095 186.555L26.7052 190.187Z" stroke="#3F4A54" stroke-linecap="round" stroke-linejoin="round"/>
<path fill-rule="evenodd" clip-rule="evenodd" d="M35.3278 174.601C35.3278 174.601 34.1608 175.284 33.9259 176.366L35.3278 174.601Z" fill="white"/>
<path d="M35.3278 174.601C35.3278 174.601 34.1608 175.284 33.9259 176.366" stroke="#3F4A54" stroke-linecap="round" stroke-linejoin="round"/>
</g>
<defs>
<radialGradient id="paint0_radial_279_4378" cx="0" cy="0" r="1" gradientUnits="userSpaceOnUse" gradientTransform="translate(134.286 119.047) rotate(90) scale(119.047)">
<stop stop-color="white"/>
<stop offset="1" stop-color="white" stop-opacity="0"/>
</radialGradient>
<linearGradient id="paint1_linear_279_4378" x1="142.381" y1="197.143" x2="141.925" y2="218.572" gradientUnits="userSpaceOnUse">
<stop stop-color="#EBE4DA"/>
<stop offset="1" stop-color="#EBE4DA" stop-opacity="0"/>
</linearGradient>
</defs>
</svg>
