<svg width="15" height="15" viewBox="0 0 15 15" fill="none" xmlns="http://www.w3.org/2000/svg">
<rect width="15" height="15" rx="7.5" fill="#1EB290"/>
<g clip-path="url(#clip0_3244_17994)">
<path d="M4.125 8.34896C4.1494 8.21384 4.18109 8.07966 4.19694 7.94361C4.2619 7.38394 4.3218 6.82333 4.38391 6.26304C4.40546 6.06966 4.43208 5.87659 4.44729 5.68291C4.4568 5.57011 4.53349 5.54903 4.62317 5.52424C4.92708 5.44057 5.22813 5.40028 5.52887 5.53695C5.68923 5.60915 5.77479 5.73466 5.7656 5.90046C5.75229 6.15085 5.72028 6.40032 5.69081 6.64948C5.65627 6.93923 5.61317 7.22837 5.57831 7.51719C5.53521 7.87296 5.49623 8.22996 5.45599 8.58541C5.42651 8.84634 5.52951 9.04313 5.7469 9.14323C5.94148 9.23217 6.17694 9.1705 6.3544 8.98828C6.59239 8.74532 6.66338 8.44162 6.69792 8.12056C6.76669 7.4893 6.84085 6.85835 6.91373 6.22709C6.93433 6.04921 6.95968 5.87195 6.98092 5.69407C6.99169 5.60543 7.02528 5.55461 7.12637 5.52579C7.39416 5.44956 7.66194 5.41919 7.93352 5.48148C8.1788 5.53757 8.29986 5.68911 8.29289 5.93331C8.28559 6.11779 8.26877 6.30179 8.2425 6.48461C8.1563 7.1354 8.05553 7.78247 7.98454 8.43356C7.96445 8.61642 7.99283 8.80127 8.06694 8.9703C8.22539 9.3053 8.7562 9.30313 9.01923 8.98394C9.23789 8.71805 9.35007 8.40288 9.41092 8.07656C9.48951 7.6551 9.53482 7.22775 9.5925 6.80257C9.5958 6.75997 9.5958 6.71718 9.5925 6.67458C9.38113 6.61601 9.18053 6.5875 9.00528 6.506C8.73338 6.37956 8.62342 6.11491 8.66747 5.79323C8.69916 5.57289 8.89532 5.35938 9.16532 5.28221C9.61405 5.15267 10.1753 5.40803 10.3131 5.85614C10.3521 5.98165 10.4291 6.03247 10.5698 5.9801C10.656 5.94756 10.7533 5.94353 10.8725 5.92184C10.8725 6.07679 10.8791 6.21748 10.8677 6.3557C10.8649 6.38855 10.8043 6.43162 10.7641 6.44433C10.6701 6.46831 10.5749 6.48725 10.4789 6.50104C10.4748 6.53575 10.469 6.56984 10.4662 6.60392C10.4313 7.03251 10.4282 7.46637 10.355 7.88845C10.2409 8.54667 9.9956 9.15903 9.48285 9.63132C9.21952 9.87501 8.88384 10.0306 8.52423 10.0757C8.18482 10.1228 7.85873 10.1182 7.53739 9.98274C7.31673 9.88899 7.12743 9.73651 6.99106 9.54268C6.96127 9.50209 6.92958 9.46304 6.89218 9.41439C6.6919 9.70197 6.44599 9.91053 6.12465 10.0131C5.45599 10.2269 4.79049 10.1687 4.35285 9.53587C4.25778 9.39858 4.20011 9.23713 4.125 9.08682V8.34896ZM9.54148 6.0771C9.48729 5.94818 9.46352 5.81895 9.29651 5.85552C9.26799 5.86172 9.22616 5.94136 9.23757 5.96801C9.29049 6.09042 9.39539 6.11088 9.54148 6.0771Z" fill="white"/>
</g>
<defs>
<clipPath id="clip0_3244_17994">
<rect width="6.75" height="4.875" fill="white" transform="translate(4.125 5.25)"/>
</clipPath>
</defs>
</svg>
