<svg width="30" height="36" viewBox="0 0 30 36" fill="none" xmlns="http://www.w3.org/2000/svg">
<g clip-path="url(#clip0_3244_11361)">
<path fill-rule="evenodd" clip-rule="evenodd" d="M27 27.7C27 31.15 24.19 33.96 20.74 33.96H8.30004C4.85004 33.96 2.04004 31.15 2.04004 27.7V25.47C2.04004 18.59 7.64004 12.99 14.52 12.99C21.4 12.99 27 18.59 27 25.47V27.7ZM13 3.23998C14 3.55998 15.04 3.55998 16.04 3.23998L19.69 1.97998L18.28 6.59998H10.75L9.29004 2.02998L13 3.22998V3.23998Z" fill="white"/>
<path d="M18.03 6.95996H11.45C9.9533 6.95996 8.73999 8.17327 8.73999 9.66996C8.73999 11.1667 9.9533 12.38 11.45 12.38H18.03C19.5267 12.38 20.74 11.1667 20.74 9.66996C20.74 8.17327 19.5267 6.95996 18.03 6.95996Z" fill="#FFA96E"/>
<path fill-rule="evenodd" clip-rule="evenodd" d="M27 27.7001C27 31.1501 24.19 33.9601 20.74 33.9601H8.3C4.85 33.9601 2.04 31.1501 2.04 27.7001V25.4701C2.04 18.5901 7.64 12.9901 14.52 12.9901C21.4 12.9901 27 18.5901 27 25.4701V27.7001ZM10.17 8.64009H18.87C19.51 8.64009 20.03 9.16009 20.03 9.80009C20.03 10.4401 19.51 10.9501 18.87 10.9501H10.17C9.53 10.9501 9.01 10.4301 9.01 9.80009C9.01 9.17009 9.53 8.64009 10.17 8.64009ZM13 3.24009C14 3.56009 15.04 3.56009 16.04 3.24009L19.69 1.98009L18.28 6.60009H10.75L9.29 2.03009L13 3.23009V3.24009ZM20.74 12.3701C21.54 11.7901 22.06 10.8601 22.06 9.80009C22.06 8.56009 21.34 7.49009 20.3 6.96009L21.64 2.58009C21.86 1.87009 21.66 1.10009 21.13 0.580088C20.6 0.060088 19.83 -0.119912 19.12 0.100088L15.42 1.31009C14.84 1.50009 14.22 1.50009 13.64 1.31009L9.92 0.100088C9.21 -0.129912 8.44 0.050088 7.91 0.580088C7.38 1.10009 7.18 1.87009 7.4 2.58009L8.74 6.96009C7.7 7.49009 6.98 8.56009 6.98 9.80009C6.98 10.8601 7.5 11.7901 8.3 12.3701C3.4 14.7101 0 19.6901 0 25.4701V27.7001C0 32.2801 3.72 36.0001 8.3 36.0001H20.74C25.32 36.0001 29.04 32.2801 29.04 27.7001V25.4701C29.04 19.6901 25.64 14.7101 20.74 12.3701Z" fill="#333333"/>
</g>
<defs>
<clipPath id="clip0_3244_11361">
<rect width="29.03" height="36" fill="white"/>
</clipPath>
</defs>
</svg>
