<svg width="20" height="20" viewBox="0 0 20 20" fill="none" xmlns="http://www.w3.org/2000/svg">
<g clip-path="url(#clip0_452_1985)">
<path d="M19.3925 7.84917C18.6402 6.61727 17.6912 5.51688 16.5833 4.59167L18.9166 2.25833C19.0684 2.10116 19.1524 1.89066 19.1505 1.67217C19.1486 1.45367 19.061 1.24466 18.9065 1.09015C18.752 0.935644 18.543 0.848003 18.3245 0.846105C18.106 0.844206 17.8955 0.928201 17.7383 1.08L15.2008 3.62083C13.6278 2.68652 11.8295 2.19955 9.99998 2.2125C4.84082 2.2125 1.90082 5.74417 0.607482 7.84917C0.207922 8.49542 -0.00372314 9.2402 -0.00372314 10C-0.00372314 10.7598 0.207922 11.5046 0.607482 12.1508C1.35978 13.3827 2.30872 14.4831 3.41665 15.4083L1.08331 17.7417C1.00372 17.8185 0.940238 17.9105 0.896564 18.0122C0.85289 18.1138 0.829901 18.2232 0.82894 18.3338C0.827978 18.4445 0.849063 18.5542 0.890964 18.6566C0.932864 18.759 0.994742 18.8521 1.07299 18.9303C1.15123 19.0086 1.24427 19.0705 1.34669 19.1124C1.4491 19.1543 1.55883 19.1753 1.66948 19.1744C1.78013 19.1734 1.88948 19.1504 1.99115 19.1068C2.09282 19.0631 2.18478 18.9996 2.26165 18.92L4.80498 16.3767C6.37604 17.3108 8.17221 17.7986 9.99998 17.7875C15.1591 17.7875 18.0991 14.2558 19.3925 12.1508C19.792 11.5046 20.0037 10.7598 20.0037 10C20.0037 9.2402 19.792 8.49542 19.3925 7.84917ZM2.02748 11.2783C1.79009 10.8942 1.66436 10.4516 1.66436 10C1.66436 9.54844 1.79009 9.10579 2.02748 8.72167C3.13915 6.91667 5.65165 3.87917 9.99998 3.87917C11.3835 3.87142 12.7477 4.20486 13.9716 4.85L12.2941 6.5275C11.4941 5.99633 10.5349 5.75833 9.57934 5.85387C8.62378 5.94941 7.7307 6.37261 7.05165 7.05167C6.3726 7.73072 5.94939 8.6238 5.85385 9.57936C5.75831 10.5349 5.99632 11.4941 6.52748 12.2942L4.60248 14.2192C3.58173 13.3939 2.71068 12.3991 2.02748 11.2783ZM12.5 10C12.5 10.663 12.2366 11.2989 11.7677 11.7678C11.2989 12.2366 10.663 12.5 9.99998 12.5C9.62874 12.4986 9.26265 12.4131 8.92915 12.25L12.25 8.92917C12.4131 9.26266 12.4985 9.62876 12.5 10ZM7.49998 10C7.49998 9.33696 7.76337 8.70107 8.23221 8.23223C8.70106 7.76339 9.33694 7.5 9.99998 7.5C10.3712 7.50144 10.7373 7.58691 11.0708 7.75L7.74998 11.0708C7.58689 10.7373 7.50142 10.3712 7.49998 10ZM17.9725 11.2783C16.8608 13.0833 14.3483 16.1208 9.99998 16.1208C8.61642 16.1286 7.25228 15.7951 6.02832 15.15L7.70581 13.4725C8.50587 14.0037 9.46506 14.2417 10.4206 14.1461C11.3762 14.0506 12.2693 13.6274 12.9483 12.9483C13.6274 12.2693 14.0506 11.3762 14.1461 10.4206C14.2417 9.46508 14.0036 8.50589 13.4725 7.70583L15.3975 5.78083C16.4182 6.60607 17.2893 7.60087 17.9725 8.72167C18.2099 9.10579 18.3356 9.54844 18.3356 10C18.3356 10.4516 18.2099 10.8942 17.9725 11.2783Z" fill="#33524B"/>
</g>
<defs>
<clipPath id="clip0_452_1985">
<rect width="20" height="20" fill="white"/>
</clipPath>
</defs>
</svg>
