<svg width="27" height="26" viewBox="0 0 27 26" fill="none" xmlns="http://www.w3.org/2000/svg">
<rect width="27.0001" height="25.4688" fill="white" fill-opacity="0.01"/>
<path fill-rule="evenodd" clip-rule="evenodd" d="M7.02558 14.0334C7.58288 14.346 8.12554 14.7172 8.42756 15.2992C9.11111 16.6153 8.49591 18.1874 7.05488 18.8114C7.04441 18.8158 7.03465 18.8171 7.02419 18.8215L7.74889 20.216L9.62029 19.406L19.7871 15.0069L15.5037 7.61398L3.82823 12.6664L4.55224 14.0608C4.5627 14.057 4.56968 14.05 4.58014 14.0461C4.85496 13.9271 5.14023 13.8507 5.42621 13.815C5.42621 13.815 6.44665 13.708 7.02558 14.0334Z" fill="#C367D6"/>
<path fill-rule="evenodd" clip-rule="evenodd" d="M15.9 13.1856C15.9 14.8996 14.3766 16.2896 12.499 16.2896C10.6213 16.2896 9.09864 14.8996 9.09864 13.1856C9.09864 11.4709 10.6213 10.0816 12.499 10.0816C14.3766 10.0816 15.9 11.4709 15.9 13.1856Z" fill="white"/>
<path fill-rule="evenodd" clip-rule="evenodd" d="M23.8487 11.6418L23.7497 11.4521C23.6534 11.4941 23.5523 11.517 23.4533 11.5489C23.5809 11.5909 23.7155 11.6164 23.8487 11.6418Z" fill="white"/>
<path d="M19.4243 15.0453L19.1341 14.4863" stroke="#3F4A54" stroke-linecap="round" stroke-linejoin="round"/>
<path d="M18.472 13.2109L16.1549 8.74808" stroke="#3F4A54" stroke-linecap="round" stroke-linejoin="round" stroke-dasharray="2.22 2.22"/>
<path d="M15.8234 8.1108L15.5325 7.55176" stroke="#3F4A54" stroke-linecap="round" stroke-linejoin="round"/>
<path d="M7.02565 13.9148C7.62062 14.1643 8.12561 14.5986 8.42763 15.1806C9.11118 16.4967 8.49598 18.0687 7.05494 18.6927C7.04448 18.6972 7.03472 18.6984 7.02425 18.7029L7.74896 20.0973" stroke="#3F4A54" stroke-linecap="round" stroke-linejoin="round"/>
<path d="M15.5042 7.49549L3.82873 12.5479L4.55273 13.9423C4.5625 13.9385 4.57017 13.9315 4.58063 13.9276C4.85475 13.8086 5.14073 13.7328 5.4267 13.6971" stroke="#3F4A54" stroke-linecap="round" stroke-linejoin="round"/>
<path d="M21.5637 11.8803C20.6716 11.7377 19.866 11.2156 19.4489 10.4114C18.7646 9.09533 19.3798 7.52327 20.8215 6.89928L20.0982 5.50741L19.255 5.87161L18.6363 6.14031L17.9311 6.44466L16.82 6.92602" stroke="#3F4A54" stroke-linecap="round" stroke-linejoin="round"/>
<path d="M9.62007 19.2875L24.0193 13.0566L23.2953 11.6647" stroke="#3F4A54" stroke-linecap="round" stroke-linejoin="round"/>
<path d="M13.735 12.8172L14.337 13.7602L13.175 14.0142L12.3791 14.8286L11.7541 13.8977L10.6605 13.4577L11.4368 12.6287L11.5574 11.5425L11.8804 11.6647L12.6616 11.9608L13.8299 11.7297" stroke="#3F4A54" stroke-linecap="round" stroke-linejoin="round"/>
</svg>
