<svg width="27" height="28" viewBox="0 0 27 28" fill="none" xmlns="http://www.w3.org/2000/svg">
<rect width="27.0001" height="27.5526" fill="white" fill-opacity="0.01"/>
<path fill-rule="evenodd" clip-rule="evenodd" d="M13.3283 16.5211L15.1697 14.1619L16.9653 11.8605C16.8546 11.7489 15.8589 10.8335 13.8035 11.5575C10.9658 12.5562 9.51999 11.5575 9.51999 11.5575L9.47679 11.5857L13.3283 16.5211Z" fill="#D4EE74"/>
<path d="M16.0026 8.40073L15.1697 11.2056" stroke="#3F4A54" stroke-linecap="round" stroke-linejoin="round"/>
<path d="M19.0097 4.58071H17.1372L16.9496 5.2096L16.8409 5.57605L16.6823 6.11264L16.415 7.01085" stroke="#3F4A54" stroke-linecap="round" stroke-linejoin="round"/>
<path d="M13.1181 20.7242V21.8463" stroke="#3F4A54" stroke-linecap="round" stroke-linejoin="round"/>
<path d="M13.1181 16.5963V19.1456V19.3853" stroke="#3F4A54" stroke-linecap="round" stroke-linejoin="round"/>
<path d="M17.3247 22.4131H9.11735" stroke="#3F4A54" stroke-linecap="round" stroke-linejoin="round"/>
<path d="M15.615 9.71256H18.3737L14.7497 14.3559" stroke="#3F4A54" stroke-linecap="round" stroke-linejoin="round"/>
<path d="M13.7336 15.6579L13.1186 16.4452L7.86376 9.71206H14.2553" stroke="#3F4A54" stroke-linecap="round" stroke-linejoin="round"/>
</svg>
