<svg width="24" height="18" viewBox="0 0 24 18" fill="none" xmlns="http://www.w3.org/2000/svg">
<path d="M9 4.5C9.82843 4.5 10.5 3.82843 10.5 3C10.5 2.17157 9.82843 1.5 9 1.5C8.17157 1.5 7.5 2.17157 7.5 3C7.5 3.82843 8.17157 4.5 9 4.5Z" fill="#CABEA9"/>
<path d="M9 10.5C9.82843 10.5 10.5 9.82843 10.5 9C10.5 8.17157 9.82843 7.5 9 7.5C8.17157 7.5 7.5 8.17157 7.5 9C7.5 9.82843 8.17157 10.5 9 10.5Z" fill="#CABEA9"/>
<path d="M9 16.5C9.82843 16.5 10.5 15.8284 10.5 15C10.5 14.1716 9.82843 13.5 9 13.5C8.17157 13.5 7.5 14.1716 7.5 15C7.5 15.8284 8.17157 16.5 9 16.5Z" fill="#CABEA9"/>
<path d="M14.25 4.5C15.0784 4.5 15.75 3.82843 15.75 3C15.75 2.17157 15.0784 1.5 14.25 1.5C13.4216 1.5 12.75 2.17157 12.75 3C12.75 3.82843 13.4216 4.5 14.25 4.5Z" fill="#CABEA9"/>
<path d="M14.25 10.5C15.0784 10.5 15.75 9.82843 15.75 9C15.75 8.17157 15.0784 7.5 14.25 7.5C13.4216 7.5 12.75 8.17157 12.75 9C12.75 9.82843 13.4216 10.5 14.25 10.5Z" fill="#CABEA9"/>
<path d="M14.25 16.5C15.0784 16.5 15.75 15.8284 15.75 15C15.75 14.1716 15.0784 13.5 14.25 13.5C13.4216 13.5 12.75 14.1716 12.75 15C12.75 15.8284 13.4216 16.5 14.25 16.5Z" fill="#CABEA9"/>
</svg>
