<svg width="167" height="140" viewBox="0 0 167 140" fill="none" xmlns="http://www.w3.org/2000/svg">
<circle cx="78.3338" cy="69.4439" r="69.4439" fill="url(#paint0_radial_279_4900)"/>
<ellipse opacity="0.8" cx="83.0549" cy="127.5" rx="83.0549" ry="12.4999" fill="url(#paint1_linear_279_4900)"/>
<path d="M45.6456 85.5509L43.1085 87.2423L41.4172 90.2022L43.1085 118.955L44.9544 121.915H61.7135L64.6734 129.949L65.9419 128.258L66.7876 129.949L71.016 121.915L88.7753 121.07L90.5724 118.362L93.0037 116.418L91.3123 99.0819L95.1179 96.9676L97.6549 93.5849L91.3123 88.9337V85.5509L88.7753 83.0139L75.6672 84.2824V86.8195H66.7876L65.9419 84.2824L45.6456 85.5509Z" fill="#ACCE5B"/>
<path d="M42.9642 111.222L41.6747 91.216C41.616 89.4787 42.978 88.0255 44.7149 87.9684L50.0092 87.6947" stroke="#3F4A54" stroke-width="0.8" stroke-miterlimit="10" stroke-linecap="round" stroke-linejoin="round"/>
<path d="M89.913 107.914L90.4204 117.745C90.4552 119.483 89.0767 120.92 87.3394 120.956L46.6492 122.463C44.9113 122.474 43.4951 121.074 43.485 119.336L43.1496 114.136" stroke="#3F4A54" stroke-width="0.8" stroke-miterlimit="10" stroke-linecap="round" stroke-linejoin="round"/>
<path d="M91.8726 98.6405L92.7305 115.258C92.766 116.995 92.0549 118.302 90.3167 118.338" stroke="#3F4A54" stroke-width="0.8" stroke-miterlimit="10" stroke-linecap="round" stroke-linejoin="round"/>
<path d="M91.545 92.2936L91.6847 94.863" stroke="#3F4A54" stroke-width="0.8" stroke-miterlimit="10" stroke-linecap="round" stroke-linejoin="round"/>
<path d="M76.0069 84.0225L88.0412 83.3591C89.7769 83.3277 91.2119 84.711 91.2427 86.4489L91.43 90.0702" stroke="#3F4A54" stroke-width="0.8" stroke-miterlimit="10" stroke-linecap="round" stroke-linejoin="round"/>
<path d="M42.9196 88.5899C42.8616 86.8524 44.2887 85.733 46.0254 85.6765L66.3479 84.5547" stroke="#3F4A54" stroke-width="0.8" stroke-miterlimit="10" stroke-linecap="round" stroke-linejoin="round"/>
<path d="M61.7311 122.052C61.7311 122.052 64.2682 129.882 65.1209 129.718C65.9732 129.554 65.7284 122.58 65.8752 121.879" stroke="#3F4A54" stroke-width="0.8" stroke-miterlimit="10" stroke-linecap="round" stroke-linejoin="round"/>
<path d="M70.2329 121.705C70.2329 121.705 67.5797 129.824 66.7274 129.66C65.8751 129.496 66.1198 122.522 65.9727 121.821" stroke="#3F4A54" stroke-width="0.8" stroke-miterlimit="10" stroke-linecap="round" stroke-linejoin="round"/>
<path d="M48.4575 87.8745L41.8101 95.4063" stroke="#3F4A54" stroke-width="0.8" stroke-miterlimit="10" stroke-linecap="round" stroke-linejoin="round"/>
<path d="M82.5209 86.2062L88.9329 92.6669" stroke="#3F4A54" stroke-width="0.8" stroke-miterlimit="10" stroke-linecap="round" stroke-linejoin="round"/>
<path d="M46.1031 95.5888L47.5124 114.362" stroke="#3F4A54" stroke-width="0.8" stroke-miterlimit="10" stroke-linecap="round" stroke-linejoin="round" stroke-dasharray="8 8"/>
<path d="M92.0094 100.05L83.4123 99.9667C81.2144 99.9981 79.458 101.804 79.4884 104.002C79.5188 106.2 81.3254 107.957 83.5237 107.926L92.2203 107.727" stroke="#3F4A54" stroke-width="0.8" stroke-miterlimit="10" stroke-linecap="round" stroke-linejoin="round"/>
<path d="M83.1421 101.853C84.2947 101.627 85.4118 102.378 85.6378 103.53C85.8637 104.682 85.1128 105.799 83.9602 106.025C82.8082 106.251 81.6907 105.5 81.4648 104.348C81.3518 103.772 81.4833 103.204 81.7864 102.753" fill="#FBE885"/>
<path d="M83.1421 101.853C84.2947 101.627 85.4118 102.378 85.6378 103.53C85.8637 104.682 85.1128 105.799 83.9602 106.025C82.8082 106.251 81.6907 105.5 81.4648 104.348C81.3518 103.772 81.4833 103.204 81.7864 102.753" stroke="#3F4A54" stroke-width="0.8" stroke-miterlimit="10" stroke-linecap="round" stroke-linejoin="round"/>
<path d="M90.2096 115.028L84.6355 121.13" stroke="#3F4A54" stroke-width="0.8" stroke-miterlimit="10" stroke-linecap="round" stroke-linejoin="round"/>
<path d="M43.4269 116.078L49.7627 122.147" stroke="#3F4A54" stroke-width="0.8" stroke-miterlimit="10" stroke-linecap="round" stroke-linejoin="round"/>
<path d="M53.1442 87.5319L85.73 85.8465C87.4654 85.8154 88.9001 87.1977 88.9318 88.9359L89.4455 99.825" stroke="#3F4A54" stroke-width="0.8" stroke-miterlimit="10" stroke-linecap="round" stroke-linejoin="round"/>
<path d="M89.3461 95.6717C90.4303 95.4238 93.0092 94.4519 92.954 93.9753C92.926 93.7333 92.5664 92.7963 89.8871 91.0098C89.2476 90.5833 88.7084 90.3458 88.8964 90C89.4701 88.9474 97.6799 91.5997 97.3925 94.3716C97.1555 96.6533 89.4996 99.62 89.4996 99.62" stroke="#3F4A54" stroke-width="0.8" stroke-miterlimit="10" stroke-linecap="round" stroke-linejoin="round"/>
<path d="M59.6036 115.624C59.8437 115.667 61.7316 115.516 64.2172 113.469C64.811 112.979 65.261 112.48 65.4706 112.812C66.3122 114.148 61.397 120.757 58.827 119.679C56.7119 118.792 54.6392 113.88 54.6392 113.88" stroke="#3F4A54" stroke-width="0.8" stroke-miterlimit="10" stroke-linecap="round" stroke-linejoin="round"/>
<path d="M69.1622 107.384C69.1622 107.384 66.1088 106.668 63.8861 109.083" stroke="#3F4A54" stroke-width="0.8" stroke-miterlimit="10" stroke-linecap="round" stroke-linejoin="round"/>
<path d="M72.8581 103.151L76.932 102.982" stroke="#3F4A54" stroke-width="0.8" stroke-miterlimit="10" stroke-linecap="round" stroke-linejoin="round"/>
<path d="M56.7638 104.336L60.8377 104.167" stroke="#3F4A54" stroke-width="0.8" stroke-miterlimit="10" stroke-linecap="round" stroke-linejoin="round"/>
<path d="M77.5825 107.499C77.6088 108.126 76.8475 108.666 75.8842 108.706C74.9189 108.747 74.1165 108.271 74.0901 107.644C74.0644 107.017 74.8247 106.477 75.79 106.436C76.7534 106.397 77.5567 106.873 77.5825 107.499Z" fill="#F07374"/>
<path d="M59.9974 108.94C60.0232 109.567 59.2622 110.107 58.2988 110.147C57.3338 110.187 56.5311 109.712 56.5051 109.085C56.4793 108.459 57.2394 107.918 58.2046 107.877C59.168 107.838 59.9714 108.313 59.9974 108.94Z" fill="#F07374"/>
<path d="M91.9344 80.9499L93.4099 79.3808" stroke="#3F4A54" stroke-width="0.8" stroke-miterlimit="10" stroke-linecap="round" stroke-linejoin="round"/>
<path d="M89.8965 80.6754L89.7064 78.3312" stroke="#3F4A54" stroke-width="0.8" stroke-miterlimit="10" stroke-linecap="round" stroke-linejoin="round"/>
<path d="M92.8748 82.8868L95.1791 82.6471" stroke="#3F4A54" stroke-width="0.8" stroke-miterlimit="10" stroke-linecap="round" stroke-linejoin="round"/>
<rect x="29.1655" y="68.4709" width="13.5272" height="13.5272" transform="rotate(-26.5991 29.1655 68.4709)" fill="white" fill-opacity="0.01"/>
<path fill-rule="evenodd" clip-rule="evenodd" d="M34.2678 72.877C34.2678 72.877 35.2172 73.211 35.4983 72.3168C35.5237 72.2368 35.5616 72.166 35.611 72.1091C35.7005 72.0053 35.8563 71.8906 36.0879 71.9384C36.1092 71.9432 36.1309 71.9509 36.1523 71.9598C36.2964 72.0201 36.9485 72.2514 37.08 71.5472C37.0956 71.4629 37.1245 71.3868 37.168 71.3249C37.2478 71.2101 37.3971 71.0929 37.6504 71.2037C38.3375 71.588 38.554 70.8934 38.5929 70.7377C38.5987 70.7152 38.6052 70.6934 38.6145 70.6736C38.7148 70.4592 38.8997 70.4033 39.0365 70.3939C39.1119 70.3882 39.1913 70.4003 39.2706 70.4279C40.1546 70.7386 40.4562 69.7782 40.4562 69.7782L42.0184 73.5398C42.0184 73.5398 42.4329 74.3678 41.7592 74.6847L37.4158 76.8592C36.7585 77.2088 36.344 76.3812 36.344 76.3812L35.0225 74.0986" fill="#5FCA76"/>
<path fill-rule="evenodd" clip-rule="evenodd" d="M41.0473 75.002L40.3856 73.6806L40.154 73.218C39.5769 72.0656 39.6817 70.4666 40.5746 70.0195L40.4232 69.7171L42.017 74.153C42.0796 74.3316 42.0286 74.5107 41.897 74.5766L41.0473 75.002Z" fill="#5FCA76"/>
<path d="M36.3854 71.1751L35.1725 69.9342C34.8974 69.7096 34.2959 70.1609 34.0713 70.436C33.8467 70.7111 33.5251 71.3907 33.8002 71.6152L34.5723 72.1473" stroke="#3F4A54" stroke-width="0.8" stroke-linecap="round" stroke-linejoin="round"/>
<path d="M34.3253 71.7631L34.8349 71.1388" stroke="#3F4A54" stroke-width="0.8" stroke-linecap="round" stroke-linejoin="round"/>
<path d="M35.5524 71.2668L35.9528 70.7762" stroke="#3F4A54" stroke-width="0.8" stroke-linecap="round" stroke-linejoin="round"/>
<path d="M33.5991 70.289L34.0726 70.4331L33.694 69.6998" stroke="#3F4A54" stroke-width="0.8" stroke-linecap="round" stroke-linejoin="round"/>
<path d="M39.6157 69.8435L39.4705 69.1344C39.3996 68.6181 39.0392 68.2135 38.5777 68.0494L38.5048 67.517L37.2877 67.684L37.3605 68.216C36.9602 68.4981 36.7215 68.9845 36.7921 69.501L36.9324 70.8755" stroke="#3F4A54" stroke-width="0.8" stroke-linecap="round" stroke-linejoin="round"/>
<path d="M36.966 70.1523C37.1699 70.1425 37.3863 70.1283 37.5526 70.0103C37.6802 69.9199 37.7621 69.7798 37.8626 69.6603C37.8626 69.6603 38.3339 68.7397 39.4171 69.4053" stroke="#3F4A54" stroke-width="0.8" stroke-linecap="round" stroke-linejoin="round"/>
<path fill-rule="evenodd" clip-rule="evenodd" d="M38.5618 67.5027L37.2279 67.6854C37.0589 67.7083 36.9016 67.5889 36.8783 67.4202L36.8709 67.3645C36.848 67.1956 36.967 67.0384 37.1363 67.0153L38.4702 66.8326C38.6392 66.8096 38.7961 66.9289 38.8195 67.0979L38.8267 67.1533C38.8501 67.3224 38.7311 67.4796 38.5618 67.5027Z" stroke="#3F4A54" stroke-width="0.8" stroke-linecap="round" stroke-linejoin="round"/>
<path d="M34.2678 72.877C34.2678 72.877 35.2172 73.211 35.4983 72.3168C35.5237 72.2368 35.5616 72.166 35.611 72.1091C35.7005 72.0053 35.8563 71.8906 36.0879 71.9384C36.1092 71.9432 36.1309 71.9509 36.1523 71.9598C36.2964 72.0201 36.9485 72.2514 37.08 71.5472C37.0956 71.4629 37.1245 71.3868 37.168 71.3249C37.2478 71.2101 37.3971 71.0929 37.6504 71.2037C38.3375 71.588 38.554 70.8934 38.5929 70.7377C38.5987 70.7152 38.6052 70.6934 38.6145 70.6736C38.7148 70.4592 38.8997 70.4033 39.0365 70.3939C39.1119 70.3882 39.1913 70.4003 39.2706 70.4279C40.1546 70.7386 40.4562 69.7782 40.4562 69.7782L42.0184 73.5398C42.0184 73.5398 42.4329 74.3678 41.7592 74.6847L37.4158 76.8592C36.7585 77.2088 36.344 76.3812 36.344 76.3812L35.0225 74.0986" stroke="#3F4A54" stroke-width="0.8" stroke-linecap="round" stroke-linejoin="round"/>
<path d="M43.003 74.0622L38.3535 76.3904" stroke="#3F4A54" stroke-width="0.8" stroke-linecap="round" stroke-linejoin="round"/>
<path d="M39.8546 72.0612L41.0819 74.9292" stroke="#3F4A54" stroke-width="0.8" stroke-linecap="round" stroke-linejoin="round"/>
<path d="M101.521 75.2407C98.0816 74.6675 97.2218 76.9126 97.2218 78.1069C97.2217 80.973 100.088 82.1672 102.238 82.406C107.397 82.9793 106.776 80.7341 105.82 79.5399C109.403 78.8233 107.253 74.5242 104.387 73.0911C102.094 71.9447 101.521 74.0465 101.521 75.2407Z" fill="white" stroke="#EBD3C7" stroke-width="0.8"/>
<path d="M109.072 73.4345C108.399 72.1168 108.231 69.5913 108.231 68.4932C121.413 68.4932 147.945 68.8226 148.618 70.1403C149.292 71.458 147.216 74.5326 146.094 75.9052C134.034 75.6307 109.745 74.7522 109.072 73.4345Z" fill="white"/>
<path d="M108.247 69.0581C108.153 67.0871 108.462 64.9661 109.215 62.8972C111.628 56.274 123.958 58.1285 126.103 61.837C131.195 55.479 142.185 56.2734 147.01 64.4865C148.438 66.9167 148.88 69.0916 148.718 70.9628" fill="white"/>
<path d="M108.247 69.0581C108.153 67.0871 108.462 64.9661 109.215 62.8972C111.628 56.274 123.958 58.1285 126.103 61.837C131.195 55.479 142.185 56.2734 147.01 64.4865C148.438 66.9167 148.88 69.0916 148.718 70.9628" stroke="#EBD3C7" stroke-width="0.8" stroke-miterlimit="10" stroke-linecap="round" stroke-linejoin="round"/>
<path d="M146.773 75.3841C145.405 77.2254 143.524 78.3326 142.275 78.5613C146.518 83.356 142.805 86.8198 139.889 88.418C136.972 90.0162 126.629 89.7502 124.508 83.6227C124.508 83.6227 123.545 88.484 118.674 87.0864C113.105 85.4882 114.431 77.7618 114.431 77.7618C111.955 77.2646 110.173 75.4321 109.219 72.9422" fill="white"/>
<path d="M146.773 75.3841C145.405 77.2254 143.524 78.3326 142.275 78.5613C146.518 83.356 142.805 86.8198 139.889 88.418C136.972 90.0162 126.629 89.7502 124.508 83.6227C124.508 83.6227 123.545 88.484 118.674 87.0864C113.105 85.4882 114.431 77.7618 114.431 77.7618C111.955 77.2646 110.173 75.4321 109.219 72.9422" stroke="#EBD3C7" stroke-width="0.8" stroke-miterlimit="10" stroke-linecap="round" stroke-linejoin="round"/>
<path d="M130.049 75.1888C130.104 74.8966 130.002 74.6107 129.804 74.4182C129.933 74.6007 129.99 74.8318 129.946 75.0685C129.894 75.3427 129.717 75.5606 129.484 75.675L129.336 78.1182L127.86 77.841L127.83 77.9361L129.439 78.2384L129.587 75.7953C129.82 75.6808 129.998 75.4629 130.049 75.1888Z" fill="white"/>
<path d="M124.762 70.8199L124.836 70.4268L125.3 67.9562C125.773 65.4365 128.205 63.7811 130.731 64.2555L131.775 64.4516C134.3 64.9257 135.966 67.3506 135.491 69.8702M124.762 70.8199L135.098 69.7961M124.762 70.8199L125.155 70.8938M124.762 70.8199L125.155 70.8938M135.491 69.8702L135.098 69.7961M135.491 69.8702L135.491 69.8699L135.098 69.7961M135.491 69.8702L135.027 72.3405L134.953 72.7336L134.56 72.6598L132.628 72.2971L132.234 72.2231L132.309 71.8293L132.795 69.2768L133.188 69.3506M135.098 69.7961L134.707 71.8736L134.634 72.2667L134.241 72.1929L133.095 71.9778L133.095 71.9787L132.702 71.904L132.776 71.5109L132.777 71.511L133.188 69.3506M133.188 69.3506L132.795 69.2759L132.795 69.2765L128.964 66.5379C128.966 66.5366 128.968 66.5359 128.97 66.5351C128.972 66.5343 128.974 66.5336 128.976 66.5324M133.188 69.3506C133.443 67.9917 132.544 66.6812 131.181 66.4252L130.563 66.3092C130.183 66.2378 129.807 66.2587 129.456 66.3512M129.456 66.3512C129.289 66.3958 129.129 66.4556 128.976 66.5324M129.456 66.3512L129.558 66.7379C129.559 66.7379 129.559 66.7378 129.559 66.7378C129.559 66.7377 129.559 66.7377 129.56 66.7376L129.456 66.3512ZM128.976 66.5324L129.201 66.8629C129.187 66.8725 129.174 66.8802 129.162 66.8864C129.16 66.8875 129.157 66.8887 129.155 66.8898L129.155 66.8893M128.976 66.5324L129.02 66.6198L129.155 66.8892M129.155 66.8892C129.153 66.8905 129.15 66.8917 129.148 66.8928C129.14 66.8971 129.133 66.9003 129.127 66.9027C129.12 66.9056 129.115 66.9077 129.112 66.9089L129.115 66.9077C129.119 66.9062 129.126 66.9036 129.133 66.9003C129.135 66.8997 129.136 66.8992 129.137 66.8986C129.141 66.8966 129.144 66.8948 129.148 66.8929L129.155 66.8893M129.155 66.8892L129.155 66.8893M129.155 66.8892C129.165 66.8837 129.177 66.8768 129.189 66.8684L129.169 66.8819L129.155 66.8893M125.155 70.8938L127.08 71.2553L127.474 71.3291M125.155 70.8938L127.474 71.3291M127.474 71.3291L127.547 70.936M127.474 71.3291L127.547 70.936M127.547 70.936L128.027 68.3815C128.039 68.3169 128.055 68.2527 128.074 68.1881L128.079 68.1693M127.547 70.936L128.079 68.1693M128.079 68.1693L128.079 68.169M128.079 68.1693L128.079 68.169M128.079 68.169C128.081 68.1643 128.083 68.1582 128.085 68.1512M128.079 68.169L128.085 68.1512M128.085 68.1512C128.101 68.0984 128.121 68.0439 128.143 67.9861L128.146 67.979L128.146 67.9773M128.085 68.1512L128.803 67.1105M128.085 68.1512C128.085 68.1501 128.086 68.1489 128.086 68.1478L127.702 68.0351L128.062 68.1461L128.085 68.1512ZM128.146 67.9773C128.146 67.9771 128.146 67.9769 128.147 67.9768L128.152 67.9638C128.153 67.9614 128.154 67.9585 128.155 67.9553M128.146 67.9773L128.148 67.9718L128.145 67.98C128.145 67.98 128.145 67.9801 128.145 67.9799C128.145 67.9796 128.146 67.9789 128.146 67.9773ZM128.155 67.9553C128.176 67.9056 128.2 67.8546 128.228 67.7984M128.155 67.9553C128.154 67.9576 128.153 67.96 128.152 67.9623L127.782 67.8111L128.16 67.94C128.158 67.9457 128.157 67.9508 128.155 67.9553ZM128.228 67.7984C128.235 67.7878 128.243 67.7724 128.252 67.755M128.228 67.7984C128.225 67.8034 128.223 67.8074 128.221 67.81C128.221 67.8107 128.22 67.8113 128.22 67.8119L127.878 67.6043L128.235 67.7856C128.233 67.7899 128.23 67.7941 128.228 67.7984ZM128.252 67.755C128.273 67.7172 128.297 67.6778 128.324 67.6341M128.252 67.755C128.251 67.7575 128.249 67.76 128.248 67.7625L127.897 67.5706L128.26 67.7379C128.258 67.7437 128.255 67.7494 128.252 67.755ZM128.324 67.6341C128.33 67.6245 128.337 67.6151 128.342 67.6072L128.342 67.6064L128.359 67.5815M128.324 67.6341C128.323 67.6362 128.321 67.6382 128.32 67.6402L127.988 67.4171L128.327 67.6288C128.326 67.6306 128.325 67.6324 128.324 67.6341ZM128.359 67.5815C128.383 67.5465 128.408 67.5119 128.436 67.476L128.436 67.4759M128.359 67.5815C128.358 67.5821 128.358 67.5828 128.357 67.5834L128.027 67.3578L128.359 67.5809L128.359 67.5815ZM128.436 67.4759L128.449 67.4598L128.46 67.4457C128.466 67.4379 128.468 67.4355 128.469 67.435L128.469 67.435L128.473 67.4295C128.507 67.3909 128.542 67.3518 128.577 67.313M128.436 67.4759L128.433 67.4802L128.121 67.2296L128.436 67.4759ZM128.577 67.313C128.588 67.3016 128.598 67.2925 128.612 67.2791C128.619 67.272 128.628 67.2636 128.639 67.253M128.577 67.313C128.577 67.3138 128.576 67.3146 128.575 67.3154L128.286 67.0388L128.58 67.3102C128.579 67.3111 128.578 67.3121 128.577 67.313ZM128.639 67.253L128.668 67.2265L128.696 67.2004M128.639 67.253L128.634 67.2573L128.364 66.962L128.644 67.2483C128.642 67.2499 128.64 67.2515 128.639 67.253ZM128.696 67.2004C128.721 67.1796 128.733 67.1686 128.743 67.16C128.753 67.1505 128.76 67.1441 128.777 67.131L128.777 67.1311L128.779 67.1293M128.696 67.2004C128.695 67.202 128.693 67.2037 128.691 67.2054L128.432 66.9002L128.702 67.1956L128.696 67.2004ZM128.779 67.1293C128.779 67.1289 128.78 67.1283 128.781 67.1276L128.782 67.127C128.786 67.1242 128.794 67.1181 128.803 67.1105M128.779 67.1293L128.781 67.1275C128.779 67.1289 128.778 67.1301 128.778 67.1301C128.778 67.1301 128.778 67.1298 128.779 67.1293ZM128.803 67.1105C128.802 67.1112 128.801 67.112 128.8 67.1127L128.554 66.7975L128.808 67.1063C128.807 67.1077 128.805 67.1092 128.803 67.1105ZM128.999 66.9759C129.001 66.9745 129.003 66.9732 129.006 66.9718L129.015 66.9661L129.019 66.9633L129.024 66.96C129.025 66.959 129.026 66.9586 129.026 66.9587C129.026 66.9588 129.025 66.9592 129.024 66.9599C129.023 66.9607 129.021 66.9618 129.019 66.9631C129.017 66.9641 129.016 66.9652 129.014 66.9663C129.011 66.9677 129.009 66.9694 129.005 66.9712C128.994 66.9772 128.979 66.9848 128.96 66.9919L128.991 66.9804L128.999 66.9759ZM128.075 68.1821L128.075 68.182L128.075 68.1821Z" fill="#FFD733" stroke="#3F4A54" stroke-width="0.8"/>
<path d="M124.948 69.545L124.534 69.4673L124.478 69.8843C124.449 70.0937 124.361 70.3911 124.225 70.782C124.159 70.9734 124.084 71.1797 124.003 71.4013L124.003 71.4018C123.923 71.6224 123.837 71.8572 123.751 72.1017C123.41 73.0759 123.053 74.2347 122.97 75.3919C122.887 76.5541 123.078 77.7507 123.873 78.7605C124.666 79.768 126.011 80.5274 128.104 80.9205C130.197 81.3136 131.726 81.0937 132.83 80.4425C133.937 79.7899 134.55 78.7443 134.894 77.6311C135.237 76.5227 135.324 75.3132 135.359 74.2814C135.368 74.0224 135.374 73.7725 135.379 73.5378L135.379 73.5376C135.384 73.3018 135.389 73.0823 135.397 72.8798C135.412 72.4663 135.437 72.1571 135.487 71.9517L135.585 71.5426L135.172 71.4649L124.948 69.545Z" fill="#FF9849" stroke="#3F4A54" stroke-width="0.8"/>
<path d="M124.873 69.9374C124.597 71.9672 120.033 78.9973 128.176 80.5266C136.32 82.0559 134.617 73.8487 135.097 71.8573L124.873 69.9374Z" fill="#FF9849"/>
<path fill-rule="evenodd" clip-rule="evenodd" d="M129.587 75.7944C129.819 75.6799 129.997 75.4615 130.048 75.1874C130.135 74.726 129.83 74.2794 129.365 74.1921C128.901 74.1049 128.455 74.4089 128.368 74.8719C128.316 75.1467 128.403 75.4153 128.579 75.6064L127.83 77.9362L129.439 78.2382L129.587 75.7944Z" fill="white"/>
<path fill-rule="evenodd" clip-rule="evenodd" d="M119.246 114.384C120.458 114.384 121.448 115.302 121.448 116.424V119.581H129.632V116.424C129.632 115.302 130.622 114.384 131.833 114.384L131.532 112.58C131.532 112.58 124.288 111.006 119 113.035L119.246 114.384Z" fill="#845EFC"/>
<path fill-rule="evenodd" clip-rule="evenodd" d="M125.414 111.999V119.581H129.629V116.423C129.629 115.301 130.62 114.383 131.83 114.383L131.529 112.58C131.529 112.58 128.77 111.981 125.414 111.999Z" fill="#8F62ED"/>
<path fill-rule="evenodd" clip-rule="evenodd" d="M125.614 118.416H124.218C123.914 118.416 123.667 118.203 123.667 117.941V115.842C123.667 115.013 124.454 114.333 125.417 114.333C126.38 114.333 127.167 115.013 127.167 115.842V117.941" fill="white"/>
<path fill-rule="evenodd" clip-rule="evenodd" d="M125.22 118.416H126.616C126.921 118.416 127.167 118.203 127.167 117.941V115.842C127.167 115.013 126.38 114.333 125.417 114.333C124.455 114.333 123.667 115.013 123.667 115.842V117.941" fill="white"/>
<path d="M131.249 109.082C131.43 109.471 131.536 109.936 131.536 110.433L131.832 113.749" stroke="#3F4A54" stroke-width="0.8" stroke-linecap="round" stroke-linejoin="round"/>
<path d="M119 113.747L119.447 110.414C119.447 109.039 120.657 107.914 122.136 107.914H128.894C129.321 107.914 129.724 108.007 130.083 108.173" stroke="#3F4A54" stroke-width="0.8" stroke-linecap="round" stroke-linejoin="round"/>
<path d="M125.414 106.751H126.351C126.734 106.751 127.047 106.877 127.047 107.03L127.164 107.335" stroke="#3F4A54" stroke-width="0.8" stroke-linecap="round" stroke-linejoin="round"/>
<path d="M123.916 107.217L124.002 106.869" stroke="#3F4A54" stroke-width="0.8" stroke-linecap="round" stroke-linejoin="round"/>
<path d="M117.247 119.583V116.393C117.247 115.259 118.166 114.333 119.289 114.333C120.412 114.333 121.331 115.259 121.331 116.393V119.583" stroke="#3F4A54" stroke-width="0.8" stroke-linecap="round" stroke-linejoin="round"/>
<path d="M129.498 119.583V116.393C129.498 115.259 130.417 114.333 131.54 114.333C132.663 114.333 133.581 115.259 133.581 116.393V119.583" stroke="#3F4A54" stroke-width="0.8" stroke-linecap="round" stroke-linejoin="round"/>
<path d="M125.614 118.416H124.218C123.914 118.416 123.667 118.203 123.667 117.941V115.842C123.667 115.013 124.454 114.333 125.417 114.333C126.38 114.333 127.167 115.013 127.167 115.842V117.941" stroke="#3F4A54" stroke-width="0.8" stroke-linecap="round" stroke-linejoin="round"/>
<path d="M128.334 119.876H134.751" stroke="#3F4A54" stroke-width="0.8" stroke-linecap="round" stroke-linejoin="round"/>
<path d="M116.664 119.876H126.58" stroke="#3F4A54" stroke-width="0.8" stroke-linecap="round" stroke-linejoin="round"/>
<path d="M122.499 112.102C124.61 111.937 127.755 111.929 131.832 112.572" stroke="#3F4A54" stroke-width="0.8" stroke-linecap="round" stroke-linejoin="round"/>
<path d="M119.584 112.431C119.584 112.431 119.981 112.29 120.751 112.149" stroke="#3F4A54" stroke-width="0.8" stroke-linecap="round" stroke-linejoin="round"/>
<path fill-rule="evenodd" clip-rule="evenodd" d="M120.165 116.376C120.165 116.86 119.774 117.251 119.29 117.251C118.807 117.251 118.415 116.86 118.415 116.376C118.415 115.893 118.807 115.501 119.29 115.501C119.774 115.501 120.165 115.893 120.165 116.376Z" fill="white"/>
<path d="M133 121.622H119" stroke="#3F4A54" stroke-width="0.8" stroke-linecap="round" stroke-linejoin="round"/>
<path d="M120.748 119.584V120.98C120.748 121.496 120.17 121.918 119.463 121.918H119.117C118.41 121.918 117.831 121.496 117.831 120.98V119.584" stroke="#3F4A54" stroke-width="0.8" stroke-linecap="round" stroke-linejoin="round"/>
<path d="M132.997 119.584V120.98C132.997 121.496 132.419 121.918 131.712 121.918H131.366C130.659 121.918 130.08 121.496 130.08 120.98V119.584" stroke="#3F4A54" stroke-width="0.8" stroke-linecap="round" stroke-linejoin="round"/>
<path d="M120.143 116.181C120.158 116.244 120.165 116.309 120.165 116.377C120.165 116.86 119.774 117.251 119.29 117.251C118.807 117.251 118.415 116.86 118.415 116.377C118.415 115.894 118.807 115.501 119.29 115.501" stroke="#3F4A54" stroke-width="0.8" stroke-linecap="round" stroke-linejoin="round"/>
<path fill-rule="evenodd" clip-rule="evenodd" d="M132.998 116.376C132.998 116.86 132.475 117.251 131.831 117.251C131.187 117.251 130.664 116.86 130.664 116.376C130.664 115.893 131.187 115.501 131.831 115.501C132.475 115.501 132.998 115.893 132.998 116.376Z" fill="white"/>
<path d="M132.968 116.181C132.987 116.244 132.998 116.309 132.998 116.377C132.998 116.86 132.476 117.251 131.831 117.251C131.186 117.251 130.664 116.86 130.664 116.377C130.664 115.894 131.186 115.501 131.831 115.501" stroke="#3F4A54" stroke-width="0.8" stroke-linecap="round" stroke-linejoin="round"/>
<rect x="3.59741" y="97.1092" width="27.5271" height="27.5271" transform="rotate(-13.8538 3.59741 97.1092)" fill="white" fill-opacity="0.01"/>
<path fill-rule="evenodd" clip-rule="evenodd" d="M27.8419 105.517C28.5873 108.54 26.4189 111.675 23.7309 112.337C21.0442 113 17.6656 111.233 16.9202 108.211L16.1864 105.235C15.4409 102.213 17.6107 99.0776 20.2974 98.4151C22.9854 97.7521 26.3626 99.5191 27.1081 102.542L27.8419 105.517Z" fill="#FE71A0"/>
<path d="M26.2477 100.711C24.8833 98.8491 22.3827 97.9008 20.2974 98.4151C17.6107 99.0776 15.4409 102.213 16.1864 105.235" stroke="#3F4A54" stroke-width="0.8" stroke-linecap="round" stroke-linejoin="round"/>
<path d="M27.2741 103.207L27.8431 105.514" stroke="#3F4A54" stroke-width="0.8" stroke-linecap="round" stroke-linejoin="round"/>
<path fill-rule="evenodd" clip-rule="evenodd" d="M25.9811 104.445C26.6707 107.241 25.4588 109.944 23.274 110.482C21.0904 111.021 18.7603 109.192 18.0707 106.396C17.3813 103.6 18.5937 100.897 20.7772 100.358C22.9621 99.8196 25.2916 101.649 25.9811 104.445Z" fill="white"/>
<path fill-rule="evenodd" clip-rule="evenodd" d="M25.9811 104.445C26.6707 107.241 25.4588 109.944 23.274 110.482C21.0904 111.021 18.7603 109.192 18.0707 106.396C17.3813 103.6 18.5937 100.897 20.7772 100.358C22.9621 99.8196 25.2916 101.649 25.9811 104.445Z" stroke="#3F4A54" stroke-width="0.8" stroke-linecap="round" stroke-linejoin="round"/>
<path d="M27.8412 105.512C28.5867 108.535 26.4183 111.67 23.7303 112.333C21.0436 112.995 17.665 111.229 16.9195 108.206" stroke="#3F4A54" stroke-width="0.8" stroke-linecap="round" stroke-linejoin="round"/>
<path d="M23.8095 112.665L24.4693 115.34" stroke="#3F4A54" stroke-width="0.8" stroke-linecap="round" stroke-linejoin="round"/>
<path d="M19.3441 116.599L16.4864 117.304" stroke="#3F4A54" stroke-width="0.8" stroke-linecap="round" stroke-linejoin="round"/>
<path d="M27.7772 114.516L21.0943 116.165" stroke="#3F4A54" stroke-width="0.8" stroke-linecap="round" stroke-linejoin="round"/>
<path fill-rule="evenodd" clip-rule="evenodd" d="M15.5778 110.939L13.8346 111.369L13.5139 110.069C13.4915 109.978 13.5147 109.882 13.5767 109.812L14.5655 108.7C14.7181 108.528 15.0004 108.598 15.0553 108.821L15.5778 110.939Z" fill="#FE71A0"/>
<path d="M14.5411 116.614C14.6913 117.222 15.2425 117.615 15.765 117.486L16.7091 117.254C17.2323 117.125 17.5369 116.521 17.3868 115.912L16.4919 112.283L13.6462 112.985L13.9054 114.036L14.2383 115.386" stroke="#3F4A54" stroke-width="0.8" stroke-linecap="round" stroke-linejoin="round"/>
<mask id="mask0_279_4900" style="mask-type:luminance" maskUnits="userSpaceOnUse" x="10" y="96" width="21" height="23">
<path fill-rule="evenodd" clip-rule="evenodd" d="M14.4876 118.259L30.4726 114.317L26.0842 96.5224L10.0991 100.465L14.4876 118.259Z" fill="white"/>
</mask>
<g mask="url(#mask0_279_4900)">
<path fill-rule="evenodd" clip-rule="evenodd" d="M13.8828 112.927L16.2614 112.34L15.905 110.895L13.5263 111.482L13.8828 112.927Z" stroke="#3F4A54" stroke-width="0.8" stroke-linecap="round" stroke-linejoin="round"/>
<path fill-rule="evenodd" clip-rule="evenodd" d="M15.5778 110.939L13.8346 111.369L13.5139 110.069C13.4915 109.978 13.5147 109.882 13.5767 109.812L14.5655 108.7C14.7181 108.528 15.0004 108.598 15.0553 108.821L15.5778 110.939Z" stroke="#3F4A54" stroke-width="0.8" stroke-linecap="round" stroke-linejoin="round"/>
<path fill-rule="evenodd" clip-rule="evenodd" d="M20.6058 101.852C20.6058 101.852 19.9251 102.251 19.788 102.882L20.6058 101.852Z" fill="white"/>
<path d="M20.6058 101.852C20.6058 101.852 19.9251 102.251 19.788 102.882" stroke="#3F4A54" stroke-width="0.8" stroke-linecap="round" stroke-linejoin="round"/>
</g>
<defs>
<radialGradient id="paint0_radial_279_4900" cx="0" cy="0" r="1" gradientUnits="userSpaceOnUse" gradientTransform="translate(78.3337 69.4439) rotate(90) scale(69.4439)">
<stop stop-color="white"/>
<stop offset="1" stop-color="white" stop-opacity="0"/>
</radialGradient>
<linearGradient id="paint1_linear_279_4900" x1="83.0549" y1="115" x2="82.7891" y2="127.5" gradientUnits="userSpaceOnUse">
<stop stop-color="#EBE4DA"/>
<stop offset="1" stop-color="#EBE4DA" stop-opacity="0"/>
</linearGradient>
</defs>
</svg>
