<svg width="111" height="49" viewBox="0 0 111 49" fill="none" xmlns="http://www.w3.org/2000/svg">
<path fill-rule="evenodd" clip-rule="evenodd" d="M45.9909 16.581C44.0206 16.581 42.4583 17.3301 41.304 18.8273C40.1498 20.3252 39.4642 22.5554 39.2491 25.5195C39.2182 25.7973 39.203 26.0598 39.203 26.3066C39.203 27.8197 39.5646 29.0242 40.2881 29.9193C41.0109 30.8151 41.9426 31.2623 43.082 31.2623C45.0214 31.2623 46.4829 29.889 47.4685 27.1406L48.5766 17.1369C47.6835 16.7663 46.8221 16.581 45.9909 16.581ZM53.4247 35.4767C50.5923 35.4767 48.7149 34.4891 47.7915 32.5123C46.1903 34.5202 44.1354 35.5229 41.627 35.5229C39.1176 35.5229 37.0093 34.6741 35.3009 32.9757C33.5924 31.278 32.7381 29.0392 32.7381 26.2605C32.7381 22.216 33.9227 18.989 36.2937 16.5808C38.6635 14.1726 41.6652 12.9684 45.2979 12.9684H45.5748C47.1137 12.9684 48.5301 13.2309 49.823 13.7558C50.6542 13.2309 51.6622 12.9684 52.8475 12.9684C54.0323 12.9684 54.8866 13.1233 55.4102 13.4318C55.1336 15.7167 54.8405 17.9631 54.5329 20.1701C54.225 22.3782 54.0093 23.9447 53.8864 24.8709C53.6095 26.9709 53.4709 28.4833 53.4709 29.4095C53.4709 30.6448 53.9628 31.2621 54.9485 31.2621C55.7178 31.2621 56.5338 30.7455 57.3956 29.7107C58.2575 28.6766 59.0122 27.0475 59.6584 24.8247C60.5511 25.6279 61.1666 26.523 61.5058 27.511C60.6124 30.4446 59.4114 32.5054 57.9038 33.6938C56.3948 34.8825 54.9024 35.4767 53.4247 35.4767Z" fill="#1EB290"/>
<path fill-rule="evenodd" clip-rule="evenodd" d="M66.1686 14.6355C69.0007 11.5175 70.4168 8.72316 70.4168 6.25255C70.4168 4.77084 69.8625 4.02965 68.7544 4.02965C68.046 4.09175 67.5764 4.55482 67.3462 5.41921C67.1154 6.28392 66.8993 7.68834 66.6991 9.63345C66.4992 11.5786 66.3685 12.7828 66.3069 13.2459L66.1686 14.6355ZM64.391 35.5689C62.4974 35.5689 61.0122 35.0365 59.9347 33.9709C58.8568 32.9057 58.3184 31.4468 58.3184 29.5945C58.3184 29.1011 59.1502 21.7675 60.812 7.59582C61.243 3.95298 62.3976 1.65247 64.275 0.694943C65.1369 0.231868 66.1686 0 67.369 0C71.4324 0 73.4643 1.88401 73.4643 5.6507C73.4643 5.95953 73.4481 6.28388 73.4182 6.62309C73.1099 10.761 70.5245 14.9753 65.6605 19.2665C65.506 20.7799 65.3377 22.2464 65.1523 23.6664C64.7832 26.8468 64.5984 28.6066 64.5984 28.9461C64.5984 30.5517 65.2913 31.3543 66.6767 31.3543C68.1844 31.3543 69.5928 30.4823 70.9012 28.7374C72.2096 26.9938 73.2173 24.7626 73.9263 22.0456C74.2033 22.1381 74.5872 22.3927 75.0806 22.8096C75.5729 23.2264 75.9117 23.5894 76.0962 23.8979C75.6035 26.461 74.4954 28.9154 72.7717 31.2618C71.9099 32.4658 70.8162 33.4547 69.4934 34.2259C67.9845 35.1217 66.2839 35.5689 64.391 35.5689Z" fill="#1EB290"/>
<path fill-rule="evenodd" clip-rule="evenodd" d="M80.2987 14.6355C83.1308 11.5175 84.5468 8.72316 84.5468 6.25255C84.5468 4.77084 83.9926 4.02965 82.8845 4.02965C82.1761 4.09175 81.7065 4.55482 81.4763 5.41921C81.2455 6.28392 81.0294 7.68834 80.8292 9.63345C80.6293 11.5786 80.4986 12.7828 80.437 13.2459L80.2987 14.6355ZM78.5212 35.5689C76.6277 35.5689 75.1425 35.0365 74.0649 33.9709C72.9871 32.9057 72.4487 31.4468 72.4487 29.5945C72.4487 29.1011 73.2805 21.7675 74.9422 7.59582C75.3733 3.95298 76.5279 1.65247 78.4053 0.694943C79.2671 0.231868 80.2989 0 81.4993 0C85.5627 0 87.5946 1.88401 87.5946 5.6507C87.5946 5.95953 87.5784 6.28388 87.5485 6.62309C87.2402 10.761 84.6548 14.9753 79.7908 19.2665C79.6363 20.7799 79.468 22.2464 79.2826 23.6664C78.9135 26.8468 78.7287 28.6066 78.7287 28.9461C78.7287 30.5517 79.4216 31.3543 80.807 31.3543C82.3146 31.3543 83.7231 30.4823 85.0315 28.7374C86.3399 26.9938 87.3476 24.7626 88.0566 22.0456C88.3335 22.1381 88.7175 22.3927 89.2108 22.8096C89.7032 23.2264 90.042 23.5894 90.2264 23.8979C89.7338 26.461 88.6256 28.9154 86.902 31.2618C86.0402 32.4658 84.9465 33.4547 83.6237 34.2259C82.1147 35.1217 80.4142 35.5689 78.5212 35.5689Z" fill="#1EB290"/>
<path fill-rule="evenodd" clip-rule="evenodd" d="M92.3034 44.1377C92.7954 44.6311 93.4501 44.8785 94.2664 44.8785C95.0815 44.8785 95.7046 44.5387 96.1363 43.8596C96.567 43.1805 96.9056 41.822 97.1526 39.784L97.7526 34.6899C93.7191 36.7889 91.6569 39.1819 91.5651 41.8682C91.5651 42.8872 91.8107 43.6436 92.3034 44.1377ZM89.8569 47.402C88.5936 46.3368 87.9633 44.7854 87.9633 42.7475C87.9633 40.2468 89.2253 37.8073 91.7498 35.4301C89.9642 35.2752 88.5327 34.6893 87.4552 33.6703C86.378 32.6513 85.8396 31.2155 85.8396 29.3632C85.8396 28.4989 85.9469 27.2025 86.1626 25.4727C86.378 23.7439 86.6082 21.8764 86.8552 19.8686C87.1015 17.862 87.3633 15.7319 87.6406 13.4777C88.5936 13.1381 89.4716 12.9684 90.2725 12.9684C91.0727 12.9684 91.6727 12.9994 92.0729 13.0608C92.473 13.1233 92.8583 13.3548 93.2274 13.7558C93.5973 14.1571 93.7817 14.7282 93.7817 15.469L92.2579 27.2791C92.1957 27.7732 92.1654 28.1124 92.1654 28.2977C92.1654 30.12 92.9966 31.0303 94.659 31.0303C96.1666 31.0303 97.3986 30.3204 98.3529 28.8998C98.4454 28.19 98.6766 26.1442 99.0458 22.7633C99.415 19.3827 99.7222 16.7506 99.9692 14.8672C100.246 14.2806 100.823 13.8179 101.701 13.4777C102.578 13.1381 103.294 12.9684 103.848 12.9684C104.833 12.9684 105.725 13.0919 106.526 13.3386L104.356 30.4281C107.958 31.0765 110.112 33.5623 110.821 37.8846C110.697 38.4708 110.112 39.397 109.066 40.6633C108.45 36.8035 106.757 34.4574 103.987 33.6241L103.248 39.4128C102.909 42.1916 102.031 44.4845 100.616 46.2906C99.1993 48.0966 97.1213 49 94.382 49C92.6271 49 91.1182 48.4672 89.8569 47.402Z" fill="#1EB290"/>
<path fill-rule="evenodd" clip-rule="evenodd" d="M25.6733 16.0704C24.7802 16.0704 24.3343 15.8085 24.3343 15.283C24.3343 14.9748 24.549 14.8199 24.9807 14.8199C25.4115 14.8199 25.7345 15.2367 25.9502 16.0704H25.6733ZM38.2593 13.7524C36.5853 14.0649 34.9697 14.5547 33.3231 14.9751C32.1738 15.2685 31.0196 15.4874 29.8564 15.6589L29.8294 15.5149C29.0285 13.1688 27.4896 11.9949 25.2118 11.9949C24.1649 11.9949 23.2876 12.3196 22.5795 12.9676C21.9947 13.5545 21.7022 14.3268 21.7022 15.2833C21.7022 16.2408 22.0717 17.059 22.8107 17.7381C23.5184 18.3247 24.5192 18.618 25.8121 18.618H26.2277C26.2277 20.9337 25.8582 23.5116 25.1192 26.3522C24.7804 27.7414 24.2722 28.8994 23.5955 29.8259C22.9181 30.7517 22.1481 31.2151 21.2866 31.2151H21.1483C19.2702 31.2151 18.3317 30.1034 18.3317 27.8805C18.3317 27.387 18.6389 24.9788 19.2551 20.6556C19.6858 17.599 19.9015 15.7926 19.9015 15.2371C19.9015 13.7243 18.9008 12.9676 16.9002 12.9676C15.792 12.9676 14.7448 13.1529 13.7601 13.5235L12.1442 27.3712C11.8669 28.3901 11.4203 29.2548 10.8049 29.9643C10.1887 30.6751 9.4889 31.0298 8.70382 31.0298C7.91873 31.0298 7.31871 30.7679 6.90312 30.2424C6.48752 29.7176 6.27972 29.1851 6.27972 28.6444C6.27972 28.1051 6.57183 25.6572 7.15702 21.3039C7.61872 17.8464 7.84957 15.824 7.84957 15.2371C7.84957 13.7243 6.75657 12.9676 4.57123 12.9676C3.74004 12.9676 2.7702 13.1529 1.66206 13.5235C1.23065 17.6611 0.692551 22.4154 0.0461042 27.788C0.0148192 28.2207 0 28.5909 0 28.8994C0 30.6906 0.59211 32.242 1.77732 33.554C2.9622 34.8666 4.47902 35.5222 6.32583 35.5222C9.43457 35.5222 11.7437 34.3645 13.2523 32.0488C14.5755 34.3341 16.584 35.476 19.2781 35.476C21.9716 35.476 24.1649 34.6271 25.8582 32.9287C28.7209 30.0574 30.2137 25.4257 30.3372 19.0348C30.3372 18.5876 30.3221 18.2444 30.2938 17.9983C30.4117 17.9795 30.4937 17.9663 30.5246 17.9614C32.6533 17.6142 34.7033 16.9949 36.7619 16.3399C37.6536 16.0559 38.6047 15.9327 39.4613 15.5413C39.8489 15.3642 40.1963 15.0168 40.5381 14.7605C41.4661 14.0655 42.5255 13.5294 43.584 13.0624C41.7997 13.21 40.0194 13.4241 38.2593 13.7524Z" fill="#1EB290"/>
</svg>
