<svg width="27" height="25" viewBox="0 0 27 25" fill="none" xmlns="http://www.w3.org/2000/svg">
<rect width="26.7975" height="25" fill="white" fill-opacity="0.01"/>
<path fill-rule="evenodd" clip-rule="evenodd" d="M13.7086 4.14245C11.4644 4.14245 9.42751 4.97745 7.89194 6.33558L9.03344 7.58058C10.2641 6.4837 11.903 5.80808 13.7086 5.80808C17.5246 5.80808 20.6184 8.8012 20.6184 12.4931C20.6184 16.1856 17.5246 19.1787 13.7086 19.1787V20.8443C18.4756 20.8443 22.34 17.1056 22.34 12.4931C22.34 7.8812 18.4756 4.14245 13.7086 4.14245Z" fill="#4096DD"/>
<path fill-rule="evenodd" clip-rule="evenodd" d="M19.9416 9.62245L21.4817 8.88058C20.0882 6.07995 17.136 4.14245 13.7089 4.14245C11.4646 4.14245 9.42775 4.97745 7.89218 6.33558L9.03304 7.58058C10.2643 6.4837 11.9033 5.80808 13.7089 5.80808C16.4609 5.80808 18.8305 7.36933 19.9416 9.62245Z" fill="#55A0E9"/>
<path d="M21.6476 9.25138C22.0784 10.2451 22.3155 11.3345 22.3175 12.4733C22.3317 17.0508 18.4963 20.7764 13.7417 20.8026C10.571 20.8208 7.77768 19.1589 6.27635 16.6751" stroke="#3F4A54" stroke-linecap="round" stroke-linejoin="round"/>
<path d="M5.43918 14.7815C5.2247 14.0558 5.10907 13.2902 5.10907 12.4977C5.10842 7.89709 8.87403 4.17335 13.701 4.15647C16.4517 4.14647 18.8691 5.37335 20.4383 7.2771" stroke="#3F4A54" stroke-linecap="round" stroke-linejoin="round"/>
<path d="M20.61 11.5957C19.9556 6.63129 13.4574 4.12879 9.4101 7.20504" stroke="#3F4A54" stroke-linecap="round" stroke-linejoin="round"/>
<path d="M8.00621 8.63532C7.35503 9.52782 6.93125 10.5728 6.82013 11.6616" stroke="#3F4A54" stroke-linecap="round" stroke-linejoin="round"/>
<path d="M14.5697 10.8008C14.2958 10.6902 13.9942 10.6321 13.6789 10.6421C12.4625 10.6783 11.4999 11.6177 11.5406 12.7277C11.5535 13.0927 11.6704 13.4358 11.861 13.7302C11.9276 13.8333 12.0031 13.9302 12.0865 14.0202C12.1892 14.1321 12.3048 14.2327 12.4295 14.3208C12.8042 14.5852 13.2655 14.7358 13.7525 14.7183C14.9935 14.6733 15.9089 13.774 15.8766 12.6321C15.8656 12.2302 15.7332 11.8577 15.5142 11.5465" stroke="#3F4A54" stroke-linecap="round" stroke-linejoin="round"/>
<path d="M8.21316 9.9907L7.4134 9.61945" stroke="#3F4A54" stroke-linecap="round" stroke-linejoin="round"/>
<path d="M11.8162 11.6617L8.85489 10.2886" stroke="#3F4A54" stroke-linecap="round" stroke-linejoin="round"/>
<path d="M18.5324 10.2885L19.9743 9.61973" stroke="#3F4A54" stroke-linecap="round" stroke-linejoin="round"/>
<path d="M15.5717 11.6618L17.5007 10.7668" stroke="#3F4A54" stroke-linecap="round" stroke-linejoin="round"/>
<path d="M13.7529 14.7793L13.709 19.1468" stroke="#3F4A54" stroke-linecap="round" stroke-linejoin="round"/>
<path d="M20.5774 13.5799C19.8855 21.0849 7.55188 20.9524 6.88391 13.483" stroke="#3F4A54" stroke-linecap="round" stroke-linejoin="round"/>
<path fill-rule="evenodd" clip-rule="evenodd" d="M14.7471 12.6804C14.7471 13.2354 14.282 13.6847 13.709 13.6847C13.1353 13.6847 12.6702 13.2354 12.6702 12.6804C12.6702 12.1254 13.1353 11.676 13.709 11.676C14.282 11.676 14.7471 12.1254 14.7471 12.6804Z" fill="#55A0E9"/>
</svg>
