<svg width="24" height="21" viewBox="0 0 24 21" fill="none" xmlns="http://www.w3.org/2000/svg">
<path fill-rule="evenodd" clip-rule="evenodd" d="M14.9095 3.571C10.5866 3.571 7.08178 2.91818 7.08178 2.11324V5.13554V8.15783V11.1801V14.2024V14.8996C7.08178 15.7055 10.5866 16.3583 14.9095 16.3583C19.2334 16.3583 22.7383 15.7055 22.7383 14.8996V14.2024V11.1801V8.15783V5.13554V2.11324C22.7383 2.91818 19.2334 3.571 14.9095 3.571Z" fill="#FFE772"/>
<path fill-rule="evenodd" clip-rule="evenodd" d="M11.6944 16.1757L7.56496 15.1682V2.61364L11.6944 3.62107V16.1757Z" fill="white"/>
<path d="M16.1432 9.59784C15.7423 9.60993 15.3292 9.61598 14.9091 9.61598C10.5862 9.61598 7.08239 8.96316 7.08239 8.15722" stroke="#3F4A54" stroke-width="1.3" stroke-linecap="round" stroke-linejoin="round"/>
<path d="M22.7377 8.15746C22.7377 8.73472 20.9364 9.2334 18.3231 9.47015" stroke="#3F4A54" stroke-width="1.3" stroke-linecap="round" stroke-linejoin="round"/>
<path d="M21.2877 1.26737C22.2004 1.50613 22.7374 1.79728 22.7374 2.11261C22.7374 2.91855 19.2335 3.57137 14.9096 3.57137C10.5868 3.57137 7.0819 2.91855 7.0819 2.11261C7.0819 1.79225 7.63801 1.49505 8.58197 1.25428C8.99199 1.1495 9.47455 1.05581 10.0166 0.974211C10.1848 0.950032 10.3561 0.925854 10.5334 0.903691C11.7826 0.746531 13.2897 0.654855 14.9096 0.654855C16.452 0.654855 17.8896 0.737464 19.1016 0.881527" stroke="#3F4A54" stroke-width="1.3" stroke-linecap="round" stroke-linejoin="round"/>
<path d="M18.5034 6.43093C17.4275 6.53469 16.2055 6.59312 14.9099 6.59312" stroke="#3F4A54" stroke-width="1.3" stroke-linecap="round" stroke-linejoin="round"/>
<path d="M22.7377 5.13516C22.7377 5.51597 21.9539 5.86353 20.6685 6.12244" stroke="#3F4A54" stroke-width="1.3" stroke-linecap="round" stroke-linejoin="round"/>
<path d="M13.123 12.6C9.66041 12.4499 7.08239 11.8706 7.08239 11.1795" stroke="#3F4A54" stroke-width="1.3" stroke-linecap="round" stroke-linejoin="round"/>
<path d="M22.7378 11.1798C22.7378 11.9847 19.2329 12.6375 14.909 12.6375" stroke="#3F4A54" stroke-width="1.3" stroke-linecap="round" stroke-linejoin="round"/>
<path d="M13.2882 15.6291C9.74201 15.4901 7.08239 14.9037 7.08239 14.2016" stroke="#3F4A54" stroke-width="1.3" stroke-linecap="round" stroke-linejoin="round"/>
<path d="M22.7378 14.2021C22.7378 14.9294 19.8807 15.5319 16.1431 15.6427C15.9316 15.6487 15.716 15.6528 15.4984 15.6558" stroke="#3F4A54" stroke-width="1.3" stroke-linecap="round" stroke-linejoin="round"/>
<path d="M22.7378 14.202V14.202V11.1798V8.15746V5.40818" stroke="#3F4A54" stroke-width="1.3" stroke-linecap="round" stroke-linejoin="round"/>
<path d="M7.08227 2.11288V5.13517V8.15746V11.1798V14.2021" stroke="#3F4A54" stroke-width="1.3" stroke-linecap="round" stroke-linejoin="round"/>
<path fill-rule="evenodd" clip-rule="evenodd" d="M13.3581 14.8785C12.8503 18.3682 9.60943 20.785 6.11968 20.2773C2.63095 19.7696 0.213113 16.5297 0.720858 13.0399C1.22961 9.55017 4.46951 7.13335 7.95925 7.64008C11.448 8.14884 13.8658 11.3887 13.3581 14.8785Z" fill="white"/>
<path d="M2.21134 18.1369C1.24118 17.0176 0.654855 15.5568 0.654855 13.959C0.654855 10.433 3.51294 7.57394 7.03995 7.57394C7.60815 7.57394 8.16022 7.64849 8.6861 7.78852" stroke="#3F4A54" stroke-width="1.3" stroke-linecap="round" stroke-linejoin="round"/>
<path d="M10.5916 8.65233C12.3002 9.79777 13.4255 11.7472 13.4255 13.9595C13.4255 17.4855 10.5664 20.3436 7.04043 20.3436C5.78617 20.3436 4.61755 19.9829 3.63128 19.3593" stroke="#3F4A54" stroke-width="1.3" stroke-linecap="round" stroke-linejoin="round"/>
<path d="M7.03999 10.6888C5.44019 10.6868 4.04086 11.8595 3.80412 13.4885C3.77591 13.6849 3.77188 13.8794 3.77893 14.0708" stroke="#3F4A54" stroke-width="1.3" stroke-linecap="round" stroke-linejoin="round"/>
<path d="M9.91675 15.5165C10.0951 15.187 10.219 14.8223 10.2754 14.4294C10.3066 14.2169 10.3137 14.0063 10.3036 13.7998" stroke="#3F4A54" stroke-width="1.3" stroke-linecap="round" stroke-linejoin="round"/>
<path d="M4.49581 15.9995C4.9955 16.6231 5.71581 17.0704 6.5691 17.1953C7.2874 17.3001 7.98656 17.1621 8.58195 16.8427" stroke="#3F4A54" stroke-width="1.3" stroke-linecap="round" stroke-linejoin="round"/>
<path d="M14.4058 20.3451H7.07772" stroke="#3F4A54" stroke-width="1.3" stroke-linecap="round" stroke-linejoin="round"/>
</svg>
