<svg width="259" height="218" viewBox="0 0 259 218" fill="none" xmlns="http://www.w3.org/2000/svg">
<circle cx="121.976" cy="108.135" r="108.135" fill="url(#paint0_radial_279_3893)"/>
<ellipse opacity="0.8" cx="129.329" cy="198.536" rx="129.329" ry="19.4642" fill="url(#paint1_linear_279_3893)"/>
<g clip-path="url(#clip0_279_3893)">
<path d="M109.819 105.474L109.625 104.75L107.313 96.1196C105.051 87.6784 110.082 79.0016 118.55 76.7327L122.199 75.755C130.662 73.4874 139.357 78.4863 141.614 86.9293M109.819 105.474L140.889 87.1229M109.819 105.474L110.544 105.28L117.27 103.478L117.994 103.284L117.8 102.559L115.409 93.6362C115.342 93.3862 115.29 93.1342 115.248 92.8803L115.242 92.844L115.238 92.8298M109.819 105.474L115.149 92.0467M141.614 86.9293L140.889 87.1229M141.614 86.9293L141.614 86.9288L140.889 87.1229M141.614 86.9293L143.926 95.5589L144.12 96.2834L143.396 96.4775L136.649 98.2853L135.923 98.4798L135.73 97.7532L133.36 88.8261L134.085 88.632M140.889 87.1229L143.008 95.0286L143.202 95.753L142.477 95.9471L137.179 97.3667L137.18 97.3684L136.455 97.5608L136.261 96.8364L136.262 96.8359L134.085 88.632M134.085 88.632L133.36 88.8244L133.36 88.8252L134.085 88.632ZM114.588 89.6267C114.595 89.5968 114.601 89.567 114.608 89.5373C114.621 89.4778 114.633 89.4182 114.651 89.3574L114.404 92.1329C114.402 92.1138 114.401 92.0932 114.399 92.0725C114.398 92.0518 114.397 92.0311 114.394 92.0121M114.588 89.6267C114.548 89.8115 114.512 89.9948 114.484 90.182M114.588 89.6267L115.318 89.7973C115.319 89.7955 115.319 89.7937 115.32 89.792C115.32 89.7905 115.32 89.789 115.321 89.7875L114.588 89.6267ZM114.484 90.182C114.478 90.2228 114.472 90.265 114.467 90.3072C114.461 90.3493 114.455 90.3915 114.449 90.4324M114.484 90.182L115.225 90.2954C115.225 90.2944 115.225 90.2935 115.225 90.2925C115.226 90.2916 115.226 90.2907 115.226 90.2898L114.484 90.182ZM114.449 90.4324C114.426 90.6405 114.405 90.8538 114.394 91.0643M114.449 90.4324L115.192 90.5402C115.192 90.5358 115.193 90.5314 115.194 90.527C115.194 90.5229 115.194 90.5189 115.195 90.5148L114.449 90.4324ZM114.394 91.0643C114.394 91.109 114.39 91.1551 114.385 91.2012M114.394 91.0643L115.143 91.1039C115.143 91.0974 115.143 91.0909 115.144 91.0845C115.144 91.0739 115.144 91.0631 115.144 91.0523L114.394 91.0643ZM114.385 91.2012C114.379 91.4721 114.378 91.7416 114.394 92.0121M114.385 91.2012L115.132 91.2746C115.132 91.2722 115.132 91.2696 115.132 91.2668C115.133 91.2608 115.134 91.254 115.134 91.2463C115.135 91.237 115.135 91.2277 115.135 91.2183L114.385 91.2012ZM114.394 92.0121L115.143 91.9672C115.143 91.9616 115.142 91.956 115.142 91.9504C115.141 91.9417 115.14 91.9324 115.139 91.9227L114.394 92.0121ZM115.149 92.0467L115.149 92.0435C115.149 92.0478 115.149 92.0494 115.149 92.0467ZM115.149 92.0467L115.151 92.0577L115.152 92.0719C115.17 92.3015 115.194 92.5227 115.225 92.737M115.225 92.737C115.225 92.735 115.225 92.733 115.225 92.731L114.484 92.8518L115.226 92.741C115.226 92.7397 115.226 92.7384 115.225 92.737ZM115.225 92.737C115.229 92.761 115.232 92.7822 115.234 92.798L115.237 92.8203L115.238 92.8298M115.238 92.8298L115.232 92.8085C115.236 92.8234 115.238 92.8341 115.239 92.8383C115.24 92.842 115.24 92.8422 115.239 92.8347L115.238 92.8298ZM116.846 86.5358L116.847 86.5371C116.851 86.5321 116.855 86.527 116.859 86.522C116.873 86.5027 116.888 86.4801 116.903 86.4544L116.254 86.0784L116.529 86.291L116.845 86.5352M116.846 86.5358L116.851 86.5292L116.873 86.4904C116.864 86.507 116.854 86.5219 116.845 86.5352M116.846 86.5358L116.824 86.565C116.819 86.5713 116.814 86.5775 116.81 86.5837C116.801 86.5932 116.794 86.6009 116.789 86.6062L116.778 86.6185C116.776 86.6206 116.778 86.618 116.781 86.6148C116.785 86.6111 116.791 86.6038 116.8 86.5942C116.806 86.5869 116.814 86.577 116.823 86.5648C116.83 86.5561 116.837 86.5463 116.845 86.5352M116.846 86.5358L116.845 86.5352M118.002 85.3298C118.002 85.3295 118.002 85.3293 118.003 85.329C118.003 85.3288 118.003 85.3285 118.003 85.3283L117.515 84.7587L118.002 85.3298ZM116.462 87.0718L116.468 87.0664L116.475 87.0554L116.485 87.0375L116.49 87.0301L116.491 87.0283L116.489 87.0304L116.485 87.0373L116.484 87.0379C116.48 87.045 116.472 87.0564 116.46 87.0705C116.452 87.0816 116.441 87.0942 116.428 87.1077L116.462 87.0718ZM115.983 87.9095C115.984 87.9071 115.985 87.9048 115.986 87.9025C115.988 87.8991 115.989 87.8957 115.991 87.8922L115.31 87.5765L115.983 87.9095ZM115.762 88.3993C115.764 88.3949 115.766 88.3905 115.768 88.3863L115.773 88.3737L115.078 88.0932L115.762 88.3993ZM115.651 88.6755L115.656 88.6643C115.657 88.6604 115.659 88.6565 115.66 88.6526L114.956 88.3951L115.651 88.6755ZM115.536 88.9947C115.537 88.9926 115.537 88.9906 115.538 88.9886C115.539 88.9864 115.54 88.9842 115.54 88.9819L114.823 88.7616L115.536 88.9947Z" fill="#FFD733" stroke="#3F4A54" stroke-width="1.5"/>
<path d="M108.339 103.303C110.578 110.231 106.762 139.777 135.209 132.155C163.656 124.532 145.578 100.853 144.053 93.7338L108.339 103.303Z" fill="#FF9849"/>
<path d="M132.997 112.161C132.724 111.14 131.958 110.381 131.025 110.07C131.719 110.456 132.259 111.108 132.481 111.935C132.738 112.892 132.503 113.864 131.932 114.589L135.216 122.645L130.06 124.026L130.109 124.378L135.732 122.871L132.448 114.815C133.019 114.09 133.254 113.119 132.997 112.161Z" fill="white"/>
</g>
<path d="M108.147 102.578L107.385 102.782L107.627 103.533C107.881 104.319 108.06 105.47 108.226 106.928C108.308 107.65 108.386 108.431 108.468 109.264L108.468 109.265C108.55 110.096 108.637 110.976 108.738 111.888C109.141 115.524 109.771 119.712 111.25 123.46C112.733 127.216 115.095 130.593 118.995 132.509C122.89 134.422 128.187 134.812 135.404 132.878C142.622 130.944 147.014 127.958 149.431 124.354C151.85 120.745 152.208 116.639 151.614 112.644C151.021 108.659 149.472 104.717 148.003 101.367C147.635 100.527 147.27 99.721 146.925 98.9602L146.925 98.9598C146.58 98.1972 146.256 97.4819 145.967 96.816C145.381 95.4697 144.961 94.3838 144.788 93.576L144.622 92.8044L143.86 93.0086L108.147 102.578Z" fill="#FF9849" stroke="#3F4A54" stroke-width="1.5"/>
<path fill-rule="evenodd" clip-rule="evenodd" d="M132.457 114.814C133.025 114.089 133.258 113.117 133.001 112.16C132.569 110.548 130.905 109.586 129.282 110.021C127.66 110.456 126.698 112.116 127.131 113.733C127.389 114.693 128.079 115.42 128.937 115.762L130.121 124.374L135.739 122.869L132.457 114.814Z" fill="white"/>
<path fill-rule="evenodd" clip-rule="evenodd" d="M80.4878 149.579L70.8289 156.911L59.039 154.473L68.6979 147.14L80.4878 149.579Z" fill="#08B2FF"/>
<path fill-rule="evenodd" clip-rule="evenodd" d="M68.7443 147.13L80.4877 149.579L70.8756 156.9" fill="#08B2FF"/>
<path fill-rule="evenodd" clip-rule="evenodd" d="M80.4878 149.579L70.8289 156.911L59.039 154.473L68.6979 147.14L80.4878 149.579Z" stroke="#3F4A54" stroke-width="1.3" stroke-linecap="round" stroke-linejoin="round"/>
<path fill-rule="evenodd" clip-rule="evenodd" d="M73.7674 169.575L61.8971 166.999L59.039 154.473L70.9096 157.049L73.7674 169.575Z" stroke="#3F4A54" stroke-width="1.3" stroke-linecap="round" stroke-linejoin="round"/>
<path fill-rule="evenodd" clip-rule="evenodd" d="M54.725 158.042L63.5486 160.215L64.2393 160.385L66.5728 160.959L70.9782 157.35L59.0965 154.459L54.725 158.042Z" fill="white"/>
<path d="M64.2391 160.384L63.5484 160.214L54.7249 158.041L59.0965 154.459L70.978 157.349L66.5728 160.959" stroke="#3F4A54" stroke-width="1.3" stroke-linecap="round" stroke-linejoin="round"/>
<path d="M55.5479 152.043L53.6736 153.434L59.0977 154.459L68.7006 147.368L63.2373 146.335L57.6382 150.49" stroke="#3F4A54" stroke-width="1.3" stroke-linecap="round" stroke-linejoin="round"/>
<path fill-rule="evenodd" clip-rule="evenodd" d="M73.7674 169.575L82.3708 162.327L79.5128 149.801L70.9097 157.049L73.7674 169.575Z" stroke="#3F4A54" stroke-width="1.3" stroke-linecap="round" stroke-linejoin="round"/>
<path fill-rule="evenodd" clip-rule="evenodd" d="M78.9464 156.373L84.9483 151.147L79.7643 149.744L70.978 157.349L76.2028 158.762L77.375 157.741" fill="white"/>
<path d="M78.9464 156.373L84.9483 151.147L79.7643 149.744L70.978 157.349L76.2028 158.762L77.375 157.741" stroke="#3F4A54" stroke-width="1.3" stroke-linecap="round" stroke-linejoin="round"/>
<path d="M76.1655 145.052L83.897 146.539L79.455 149.814L67.7255 147.589L72.2007 144.29L73.658 144.569" stroke="#3F4A54" stroke-width="1.3" stroke-linecap="round" stroke-linejoin="round"/>
<path d="M157.756 139.817C151.332 142.402 138.519 151.805 138.65 168.73" stroke="#EADECD" stroke-width="2"/>
<path d="M118.437 168.796C117.602 161.923 111.837 147.112 95.4541 142.858" stroke="#EADECD" stroke-width="2"/>
<path fill-rule="evenodd" clip-rule="evenodd" d="M177.999 150.944C172.477 150.944 167.999 150.073 167.999 148.999V153.03V157.062V161.093V165.124V166.054C167.999 167.129 172.477 167.999 177.999 167.999C183.522 167.999 187.999 167.129 187.999 166.054V165.124V161.093V157.062V153.03V148.999C187.999 150.073 183.522 150.944 177.999 150.944Z" fill="#FFE772"/>
<path fill-rule="evenodd" clip-rule="evenodd" d="M173.999 167.999L167.999 166.662V149.999L173.999 151.336V167.999Z" fill="white"/>
<path d="M179.999 158.974C179.468 158.991 178.921 158.999 178.365 158.999C172.64 158.999 167.999 158.104 167.999 156.999" stroke="#3F4A54" stroke-linecap="round" stroke-linejoin="round"/>
<path d="M187.999 156.999C187.999 157.879 185.551 158.639 181.999 158.999" stroke="#3F4A54" stroke-linecap="round" stroke-linejoin="round"/>
<path d="M186.147 147.839C187.313 148.167 187.999 148.566 187.999 148.999C187.999 150.104 183.523 150.999 177.999 150.999C172.477 150.999 167.999 150.104 167.999 148.999C167.999 148.559 168.71 148.152 169.916 147.821C170.439 147.678 171.056 147.549 171.748 147.437C171.963 147.404 172.182 147.371 172.409 147.341C174.004 147.125 175.93 146.999 177.999 146.999C179.97 146.999 181.806 147.113 183.355 147.31" stroke="#3F4A54" stroke-linecap="round" stroke-linejoin="round"/>
<path d="M182.999 154.838C181.502 155.044 179.802 155.16 177.999 155.16" stroke="#3F4A54" stroke-linecap="round" stroke-linejoin="round"/>
<path d="M187.999 153.019C187.999 153.775 187.242 154.465 185.999 154.979" stroke="#3F4A54" stroke-linecap="round" stroke-linejoin="round"/>
<path d="M175.999 162.999C171.414 162.788 167.999 161.972 167.999 160.999" stroke="#3F4A54" stroke-linecap="round" stroke-linejoin="round"/>
<path d="M187.999 160.999C187.999 162.104 183.522 162.999 177.999 162.999" stroke="#3F4A54" stroke-linecap="round" stroke-linejoin="round"/>
<path d="M175.999 166.999C171.428 166.804 167.999 165.983 167.999 164.999" stroke="#3F4A54" stroke-linecap="round" stroke-linejoin="round"/>
<path d="M187.999 164.999C187.999 166 184.447 166.829 179.801 166.981C179.538 166.99 179.27 166.995 178.999 166.999" stroke="#3F4A54" stroke-linecap="round" stroke-linejoin="round"/>
<path d="M188.499 164.999V164.999V161.219V157.438V153.999" stroke="#3F4A54" stroke-linecap="round" stroke-linejoin="round"/>
<path d="M167.499 148.999V152.999V156.999V160.999V164.999" stroke="#3F4A54" stroke-linecap="round" stroke-linejoin="round"/>
<path fill-rule="evenodd" clip-rule="evenodd" d="M175.91 165.723C175.234 170.368 170.92 173.585 166.275 172.91C161.631 172.234 158.413 167.921 159.089 163.276C159.766 158.631 164.079 155.414 168.724 156.089C173.367 156.766 176.585 161.078 175.91 165.723Z" fill="white"/>
<path d="M161.131 169.999C159.802 168.516 158.999 166.58 158.999 164.462C158.999 159.789 162.914 155.999 167.745 155.999C168.523 155.999 169.279 156.098 169.999 156.284" stroke="#3F4A54" stroke-linecap="round" stroke-linejoin="round"/>
<path d="M172.238 157.999C174.506 159.469 175.999 161.97 175.999 164.808C175.999 169.332 172.204 172.999 167.524 172.999C165.86 172.999 164.308 172.537 162.999 171.736" stroke="#3F4A54" stroke-linecap="round" stroke-linejoin="round"/>
<path d="M167.999 159.999C166.039 159.996 164.324 161.73 164.034 164.138C163.999 164.429 163.994 164.716 164.003 164.999" stroke="#3F4A54" stroke-linecap="round" stroke-linejoin="round"/>
<path d="M171.305 166.999C171.482 166.424 171.605 165.786 171.661 165.1C171.692 164.728 171.699 164.36 171.689 163.999" stroke="#3F4A54" stroke-linecap="round" stroke-linejoin="round"/>
<path d="M163.999 166.999C164.733 168.013 165.791 168.74 167.044 168.943C168.098 169.113 169.125 168.889 169.999 168.37" stroke="#3F4A54" stroke-linecap="round" stroke-linejoin="round"/>
<path d="M176.999 172.999H167.999" stroke="#3F4A54" stroke-linecap="round" stroke-linejoin="round"/>
<rect x="165.999" y="90.8584" width="28.8046" height="28.8046" transform="rotate(-17.9134 165.999 90.8584)" fill="white" fill-opacity="0.01"/>
<path fill-rule="evenodd" clip-rule="evenodd" d="M191.924 97.8373C192.926 100.937 190.895 104.37 188.138 105.261C185.383 106.151 181.726 104.558 180.724 101.458L179.737 98.4066C178.735 95.3067 180.768 91.8737 183.523 90.9831C186.28 90.092 189.936 91.6862 190.938 94.786L191.924 97.8373Z" fill="#FE71A0"/>
<path d="M189.904 92.9391C188.342 91.0964 185.661 90.2918 183.523 90.9831C180.768 91.8737 178.735 95.3067 179.737 98.4066" stroke="#3F4A54" stroke-width="0.7" stroke-linecap="round" stroke-linejoin="round"/>
<path d="M191.159 95.4705L191.924 97.8366" stroke="#3F4A54" stroke-width="0.7" stroke-linecap="round" stroke-linejoin="round"/>
<path fill-rule="evenodd" clip-rule="evenodd" d="M189.901 96.856C190.828 99.7236 189.763 102.634 187.522 103.358C185.283 104.082 182.715 102.346 181.788 99.4783C180.862 96.6114 181.927 93.7 184.166 92.9761C186.407 92.2519 188.974 93.9891 189.901 96.856Z" fill="white"/>
<path fill-rule="evenodd" clip-rule="evenodd" d="M189.901 96.856C190.828 99.7236 189.763 102.634 187.522 103.358C185.283 104.082 182.715 102.346 181.788 99.4783C180.862 96.6114 181.927 93.7 184.166 92.9761C186.407 92.2519 188.974 93.9891 189.901 96.856Z" stroke="#3F4A54" stroke-width="0.7" stroke-linecap="round" stroke-linejoin="round"/>
<path d="M191.924 97.8371C192.926 100.937 190.894 104.369 188.138 105.261C185.383 106.151 181.725 104.557 180.723 101.458" stroke="#3F4A54" stroke-width="0.7" stroke-linecap="round" stroke-linejoin="round"/>
<path d="M188.248 105.597L189.134 108.341" stroke="#3F4A54" stroke-width="0.7" stroke-linecap="round" stroke-linejoin="round"/>
<path d="M183.877 110.034L180.946 110.981" stroke="#3F4A54" stroke-width="0.7" stroke-linecap="round" stroke-linejoin="round"/>
<path d="M192.523 107.239L185.669 109.455" stroke="#3F4A54" stroke-width="0.7" stroke-linecap="round" stroke-linejoin="round"/>
<path fill-rule="evenodd" clip-rule="evenodd" d="M179.526 104.41L177.738 104.988L177.307 103.655C177.277 103.561 177.294 103.46 177.354 103.382L178.303 102.147C178.45 101.957 178.75 102.009 178.824 102.237L179.526 104.41Z" fill="#FE71A0"/>
<path d="M178.865 110.406C179.066 111.03 179.671 111.399 180.207 111.226L181.175 110.913C181.711 110.74 181.985 110.087 181.783 109.463L180.58 105.741L177.662 106.685L178.01 107.763L178.457 109.147" stroke="#3F4A54" stroke-width="0.7" stroke-linecap="round" stroke-linejoin="round"/>
<mask id="mask0_279_3893" style="mask-type:luminance" maskUnits="userSpaceOnUse" x="173" y="88" width="23" height="25">
<path fill-rule="evenodd" clip-rule="evenodd" d="M178.93 112.131L195.323 106.832L189.424 88.5834L173.031 93.8824L178.93 112.131Z" fill="white"/>
</mask>
<g mask="url(#mask0_279_3893)">
<path fill-rule="evenodd" clip-rule="evenodd" d="M177.901 106.607L180.34 105.818L179.861 104.336L177.422 105.125L177.901 106.607Z" stroke="#3F4A54" stroke-width="0.7" stroke-linecap="round" stroke-linejoin="round"/>
<path fill-rule="evenodd" clip-rule="evenodd" d="M179.526 104.41L177.738 104.988L177.307 103.655C177.277 103.561 177.294 103.46 177.354 103.382L178.303 102.147C178.45 101.957 178.75 102.009 178.824 102.237L179.526 104.41Z" stroke="#3F4A54" stroke-width="0.7" stroke-linecap="round" stroke-linejoin="round"/>
<path fill-rule="evenodd" clip-rule="evenodd" d="M184.102 94.5482C184.102 94.5482 183.421 95.0143 183.325 95.6835L184.102 94.5482Z" fill="white"/>
<path d="M184.102 94.5482C184.102 94.5482 183.421 95.0143 183.325 95.6835" stroke="#3F4A54" stroke-width="0.7" stroke-linecap="round" stroke-linejoin="round"/>
</g>
<defs>
<radialGradient id="paint0_radial_279_3893" cx="0" cy="0" r="1" gradientUnits="userSpaceOnUse" gradientTransform="translate(121.976 108.135) rotate(90) scale(108.135)">
<stop stop-color="white"/>
<stop offset="1" stop-color="white" stop-opacity="0"/>
</radialGradient>
<linearGradient id="paint1_linear_279_3893" x1="129.329" y1="179.071" x2="128.915" y2="198.535" gradientUnits="userSpaceOnUse">
<stop stop-color="#EBE4DA"/>
<stop offset="1" stop-color="#EBE4DA" stop-opacity="0"/>
</linearGradient>
<clipPath id="clip0_279_3893">
<rect width="40.6587" height="58.8254" fill="white" transform="translate(100.347 80.5954) rotate(-15)"/>
</clipPath>
</defs>
</svg>
