<svg width="17" height="17" viewBox="0 0 17 17" fill="none" xmlns="http://www.w3.org/2000/svg">
<path fill-rule="evenodd" clip-rule="evenodd" d="M14.2233 16.1968C14.7682 16.7418 15.6518 16.7418 16.1968 16.1968C16.7417 15.6518 16.7417 14.7683 16.1968 14.2233L2.3822 0.408727C1.83723 -0.136242 0.95366 -0.136242 0.40869 0.408727C-0.136279 0.953697 -0.136279 1.83727 0.40869 2.38224L14.2233 16.1968Z" fill="white"/>
<path fill-rule="evenodd" clip-rule="evenodd" d="M0.40869 16.5913C0.95366 17.1362 1.83723 17.1362 2.3822 16.5913L16.1968 2.77671C16.7417 2.23174 16.7417 1.34817 16.1968 0.8032C15.6518 0.25823 14.7682 0.25823 14.2233 0.8032L0.40869 14.6178C-0.136279 15.1627 -0.136279 16.0463 0.40869 16.5913Z" fill="white"/>
</svg>
