<svg width="16" height="12" viewBox="0 0 16 12" fill="none" xmlns="http://www.w3.org/2000/svg">
<g clip-path="url(#clip0_3244_16966)">
<path d="M0 7.34568C0.0578404 7.02541 0.132958 6.70734 0.170516 6.38486C0.324507 5.05822 0.466479 3.72938 0.613709 2.40127C0.664789 1.9429 0.727887 1.48526 0.763944 1.02615C0.786479 0.75877 0.968263 0.708819 1.18085 0.650053C1.90122 0.451718 2.61484 0.356224 3.3277 0.68017C3.70779 0.851326 3.91061 1.14883 3.88883 1.54182C3.85728 2.13536 3.78141 2.72669 3.71155 3.31728C3.62967 4.00411 3.52751 4.68947 3.44488 5.37409C3.34272 6.21738 3.25033 7.0636 3.15493 7.90616C3.08507 8.52467 3.3292 8.99112 3.84451 9.22839C4.30573 9.43921 4.86385 9.29303 5.28451 8.8611C5.84864 8.2852 6.0169 7.56532 6.09878 6.8043C6.26178 5.30798 6.43756 3.81239 6.61033 2.31606C6.65916 1.89442 6.71925 1.47424 6.76958 1.0526C6.79512 0.842511 6.87474 0.722041 7.11437 0.653726C7.74911 0.473021 8.38385 0.401033 9.02761 0.548682C9.60901 0.681639 9.89596 1.04085 9.87944 1.61969C9.86214 2.05698 9.82228 2.49313 9.76 2.92649C9.55568 4.46909 9.31681 6.00288 9.14855 7.54622C9.10092 7.97967 9.16818 8.41782 9.34385 8.8185C9.71944 9.61257 10.9777 9.60743 11.6011 8.85082C12.1194 8.22055 12.3854 7.47349 12.5296 6.69999C12.7159 5.70097 12.8233 4.688 12.96 3.68016C12.9678 3.57918 12.9678 3.47777 12.96 3.37679C12.459 3.23795 11.9835 3.17037 11.5681 2.97718C10.9236 2.67747 10.6629 2.05015 10.7673 1.28766C10.8424 0.765381 11.3074 0.25926 11.9474 0.0763519C13.0111 -0.230699 14.3414 0.374588 14.6682 1.43678C14.7606 1.73428 14.9431 1.85475 15.2766 1.73061C15.4809 1.65348 15.7115 1.64393 15.994 1.59251C15.994 1.9598 16.0098 2.29329 15.9827 2.62091C15.976 2.69878 15.8325 2.80088 15.7371 2.831C15.5144 2.88786 15.2887 2.93273 15.061 2.96542C15.0513 3.0477 15.0377 3.1285 15.031 3.2093C14.9484 4.22522 14.9408 5.25362 14.7673 6.2541C14.4969 7.81434 13.9155 9.26585 12.7001 10.3853C12.0759 10.963 11.2802 11.3318 10.4278 11.4387C9.62329 11.5504 8.85033 11.5394 8.08864 11.2183C7.56558 10.9961 7.11687 10.6347 6.79362 10.1753C6.72301 10.079 6.64789 9.98647 6.55925 9.87114C6.08451 10.5528 5.5016 11.0472 4.73991 11.2903C3.15493 11.7972 1.57746 11.6591 0.540094 10.1591C0.314742 9.83368 0.178028 9.45096 0 9.0947V7.34568ZM12.8391 1.96053C12.7106 1.65495 12.6543 1.34863 12.2584 1.43531C12.1908 1.45 12.0916 1.63879 12.1187 1.70196C12.2441 1.99212 12.4928 2.0406 12.8391 1.96053Z" fill="white"/>
</g>
<defs>
<clipPath id="clip0_3244_16966">
<rect width="15.75" height="11.375" fill="white" transform="scale(1.01587)"/>
</clipPath>
</defs>
</svg>
