<svg width="11" height="11" viewBox="0 0 11 11" fill="none" xmlns="http://www.w3.org/2000/svg">
<path d="M10.5138 5.50006C10.4017 5.49863 10.2931 5.53909 10.2093 5.61353C10.1254 5.68796 10.0724 5.791 10.0605 5.90248C9.97048 6.94467 9.52696 7.92479 8.8035 8.68034C8.08004 9.4359 7.12008 9.92151 6.08278 10.0567C5.04548 10.1918 3.99313 9.96843 3.10021 9.42349C2.2073 8.87855 1.52743 8.04481 1.17334 7.06049C0.819245 6.07617 0.812187 5.0004 1.15334 4.01152C1.49448 3.02264 2.16335 2.18005 3.04904 1.62344C3.93473 1.06684 4.98405 0.829639 6.02304 0.951179C7.06203 1.07272 8.02827 1.54569 8.76159 2.29169H7.50024C7.37868 2.29169 7.2621 2.33998 7.17614 2.42594C7.09019 2.51189 7.0419 2.62847 7.0419 2.75003C7.0419 2.87159 7.09019 2.98817 7.17614 3.07412C7.2621 3.16008 7.37868 3.20837 7.50024 3.20837H9.33359C9.57671 3.20837 9.80987 3.11179 9.98178 2.93988C10.1537 2.76797 10.2503 2.53481 10.2503 2.29169V0.458338C10.2503 0.33678 10.202 0.220199 10.116 0.134244C10.0301 0.0482891 9.91349 0 9.79193 0C9.67037 0 9.55379 0.0482891 9.46784 0.134244C9.38188 0.220199 9.33359 0.33678 9.33359 0.458338V1.56523C8.44028 0.694859 7.27754 0.154132 6.03634 0.0318388C4.79513 -0.0904543 3.54923 0.212957 2.50323 0.892247C1.45723 1.57154 0.67331 2.58633 0.280202 3.76997C-0.112906 4.95362 -0.0918341 6.23576 0.339957 7.40585C0.771748 8.57594 1.58859 9.56442 2.65635 10.209C3.72411 10.8535 4.9793 11.1158 6.21582 10.9528C7.45234 10.7898 8.59667 10.2112 9.46091 9.3119C10.3251 8.41265 10.8579 7.24625 10.9717 6.00423C10.9776 5.94045 10.9702 5.87612 10.9499 5.81536C10.9296 5.7546 10.8969 5.69873 10.8538 5.6513C10.8107 5.60388 10.7583 5.56594 10.6997 5.5399C10.6412 5.51386 10.5779 5.5003 10.5138 5.50006Z" fill="#33524B"/>
</svg>
