<svg width="39" height="39" viewBox="0 0 39 39" fill="none" xmlns="http://www.w3.org/2000/svg">
<g clip-path="url(#clip0_1899_7521)">
<path d="M19.5001 0C11.4808 0 4.95679 6.52666 4.95679 14.5491C4.95679 26.502 18.0525 38.173 18.6102 38.6641C18.8644 38.888 19.1822 39.0001 19.5001 39.0001C19.818 39.0001 20.1358 38.8881 20.3902 38.6641C20.9476 38.1731 34.0434 26.5021 34.0434 14.5491C34.0434 6.52666 27.5194 0 19.5001 0ZM19.5001 35.8076C16.6048 33.002 7.65002 23.5917 7.65002 14.5491C7.65002 8.01181 12.966 2.69323 19.5001 2.69323C26.0343 2.69323 31.3502 8.01181 31.3502 14.5491C31.3502 23.5916 22.3954 33.0019 19.5001 35.8076Z" fill="#1EB290"/>
<path d="M19.5 7.7715C15.7874 7.7715 12.7671 10.8119 12.7671 14.5491C12.7671 18.2864 15.7874 21.3267 19.5 21.3267C23.2127 21.3267 26.233 18.2864 26.233 14.5491C26.233 10.8119 23.2127 7.7715 19.5 7.7715ZM19.5 18.6335C17.2724 18.6335 15.4602 16.8012 15.4602 14.5491C15.4602 12.2971 17.2724 10.4647 19.5 10.4647C21.7276 10.4647 23.5399 12.2969 23.5399 14.5491C23.5399 16.8012 21.7276 18.6335 19.5 18.6335Z" fill="#1EB290"/>
</g>
<defs>
<clipPath id="clip0_1899_7521">
<rect width="39" height="39" fill="white"/>
</clipPath>
</defs>
</svg>
