<svg width="48" height="48" viewBox="0 0 48 48" fill="none" xmlns="http://www.w3.org/2000/svg">
<path d="M24 1.5C11.5736 1.5 1.5 11.5736 1.5 24C1.5 36.4264 11.5736 46.5 24 46.5C36.4264 46.5 46.5 36.4264 46.5 24" stroke="#F07374" stroke-width="3" stroke-linecap="round"/>
<path fill-rule="evenodd" clip-rule="evenodd" d="M15.3772 22.5345C16.9269 22.5345 18.1937 23.8022 18.1937 25.3511V29.7112H28.665V25.3511C28.665 23.8022 29.9327 22.5345 31.4815 22.5345L31.0967 20.0447C31.0967 20.0447 21.8282 17.8712 15.0618 20.672L15.3772 22.5345Z" fill="#845EFC"/>
<path fill-rule="evenodd" clip-rule="evenodd" d="M23.2727 19.2422V29.7108H28.6669V25.3507C28.6669 23.8009 29.9346 22.5341 31.4835 22.5341L31.0978 20.0443C31.0978 20.0443 27.567 19.2176 23.2727 19.2422Z" fill="#8F62ED"/>
<path fill-rule="evenodd" clip-rule="evenodd" d="M23.505 27.7828H21.8569C21.4985 27.7828 21.2068 27.5096 21.2068 27.1722V24.4742C21.2068 23.4086 22.1363 22.5344 23.2722 22.5344C24.409 22.5344 25.3385 23.4086 25.3385 24.4742V27.1722" fill="white"/>
<path fill-rule="evenodd" clip-rule="evenodd" d="M23.0403 27.7828H24.6884C25.0477 27.7828 25.3385 27.5096 25.3385 27.1722V24.4742C25.3385 23.4086 24.4099 22.5344 23.2731 22.5344C22.1372 22.5344 21.2068 23.4086 21.2068 24.4742V27.1722" fill="white"/>
<path d="M30.5009 15.7816C30.8496 16.3158 31.0526 16.9545 31.0526 17.6371L31.6219 22.1914" stroke="#3F4A54" stroke-width="1.3" stroke-linecap="round" stroke-linejoin="round"/>
<path d="M15.0613 22.1911L15.6297 17.6368C15.6297 15.7576 17.168 14.2202 19.0472 14.2202H27.6357C28.1778 14.2202 28.6908 14.3476 29.1468 14.5743" stroke="#3F4A54" stroke-width="1.3" stroke-linecap="round" stroke-linejoin="round"/>
<path d="M23.2727 12.5H24.3217C24.7513 12.5 25.1018 12.7152 25.1018 12.9788L25.2318 13.5033" stroke="#3F4A54" stroke-width="1.3" stroke-linecap="round" stroke-linejoin="round"/>
<path d="M21.451 13.5027L21.5811 12.9782" stroke="#3F4A54" stroke-width="1.3" stroke-linecap="round" stroke-linejoin="round"/>
<path d="M12.5604 29.4478V25.0877C12.5604 23.538 13.8281 22.2711 15.377 22.2711C16.9267 22.2711 18.1936 23.538 18.1936 25.0877V29.4478" stroke="#3F4A54" stroke-width="1.3" stroke-linecap="round" stroke-linejoin="round"/>
<path d="M28.6648 29.4478V25.0877C28.6648 23.538 29.9325 22.2711 31.4814 22.2711C33.0311 22.2711 34.2979 23.538 34.2979 25.0877V29.4478" stroke="#3F4A54" stroke-width="1.3" stroke-linecap="round" stroke-linejoin="round"/>
<path d="M23.505 27.7828H21.8569C21.4985 27.7828 21.2068 27.5096 21.2068 27.1722V24.4742C21.2068 23.4086 22.1363 22.5344 23.2722 22.5344C24.409 22.5344 25.3385 23.4086 25.3385 24.4742V27.1722" stroke="#3F4A54" stroke-width="1.26" stroke-linecap="round" stroke-linejoin="round"/>
<path d="M26.7147 29.6906H35.3586" stroke="#3F4A54" stroke-width="1.3" stroke-linecap="round" stroke-linejoin="round"/>
<path d="M11.5 29.6906H24.6833" stroke="#3F4A54" stroke-width="1.3" stroke-linecap="round" stroke-linejoin="round"/>
<path d="M19.5707 19.7624C22.2484 19.5138 26.237 19.5006 31.4071 20.4696" stroke="#3F4A54" stroke-width="1.3" stroke-linecap="round" stroke-linejoin="round"/>
<path d="M15.6035 20.4697C15.6035 20.4697 16.2264 20.2579 17.4353 20.0453" stroke="#3F4A54" stroke-width="1.3" stroke-linecap="round" stroke-linejoin="round"/>
<path fill-rule="evenodd" clip-rule="evenodd" d="M16.6398 25.3812C16.6398 26.1526 16.0143 26.7781 15.2429 26.7781C14.4716 26.7781 13.8461 26.1526 13.8461 25.3812C13.8461 24.6099 14.4716 23.9844 15.2429 23.9844C16.0143 23.9844 16.6398 24.6099 16.6398 25.3812Z" fill="white"/>
<path d="M33.2488 32.1717H14.4702" stroke="#3F4A54" stroke-width="1.3" stroke-linecap="round" stroke-linejoin="round"/>
<path d="M16.8339 29.6906V31.1603C16.8339 31.7033 16.1943 32.1469 15.4124 32.1469H15.0294C14.2475 32.1469 13.6071 31.7033 13.6071 31.1603V29.6906" stroke="#3F4A54" stroke-width="1.3" stroke-linecap="round" stroke-linejoin="round"/>
<path d="M32.9384 29.6906V31.1603C32.9384 31.7033 32.2988 32.1469 31.5169 32.1469H31.1339C30.352 32.1469 29.7115 31.7033 29.7115 31.1603V29.6906" stroke="#3F4A54" stroke-width="1.3" stroke-linecap="round" stroke-linejoin="round"/>
<path d="M16.4907 25.0956C16.5118 25.1869 16.5232 25.2827 16.5232 25.3811C16.5232 26.0883 15.9504 26.6602 15.2432 26.6602C14.5359 26.6602 13.9631 26.0883 13.9631 25.3811C13.9631 24.6748 14.5359 24.1011 15.2432 24.1011" stroke="#3F4A54" stroke-width="1.3" stroke-linecap="round" stroke-linejoin="round"/>
<path fill-rule="evenodd" clip-rule="evenodd" d="M33.0187 25.3298C33.0187 26.1012 32.3932 26.7267 31.6218 26.7267C30.8505 26.7267 30.225 26.1012 30.225 25.3298C30.225 24.5585 30.8505 23.933 31.6218 23.933C32.3932 23.933 33.0187 24.5585 33.0187 25.3298Z" fill="white"/>
<path d="M32.8697 25.0441C32.8908 25.1354 32.9022 25.2312 32.9022 25.3296C32.9022 26.0368 32.3294 26.6087 31.6222 26.6087C30.915 26.6087 30.3422 26.0368 30.3422 25.3296C30.3422 24.6232 30.915 24.0496 31.6222 24.0496" stroke="#3F4A54" stroke-width="1.3" stroke-linecap="round" stroke-linejoin="round"/>
</svg>
