<svg width="46" height="34" viewBox="0 0 46 34" fill="none" xmlns="http://www.w3.org/2000/svg">
<path d="M25.102 9.85832C25.102 9.22816 25.6129 8.71731 26.243 8.71731C26.8732 8.71731 27.384 9.22816 27.384 9.85832V19.3971H25.102V9.85832Z" fill="#1EB290"/>
<path d="M31.1265 4.56409C31.1265 3.93394 31.6374 3.42309 32.2675 3.42309C32.8977 3.42309 33.4085 3.93394 33.4085 4.56409V19.3971H31.1265V4.56409Z" fill="#1EB290"/>
<path d="M37.151 1.141C37.151 0.510845 37.6619 0 38.292 0C38.9222 0 39.433 0.510844 39.433 1.141V19.397H37.151V1.141Z" fill="#1EB290"/>
<path d="M43.1755 10.8624C43.1755 10.2322 43.6863 9.72139 44.3165 9.72139C44.9467 9.72139 45.4575 10.2322 45.4575 10.8624V19.3971H43.1755V10.8624Z" fill="#1EB290"/>
<path d="M21.0857 22.4551C21.0857 23.0853 20.5749 23.5961 19.9447 23.5961C19.3146 23.5961 18.8037 23.0853 18.8037 22.4551L18.8037 19.3973L21.0857 19.3973L21.0857 22.4551Z" fill="#ED6364"/>
<path d="M15.0612 32.859C15.0612 33.4892 14.5504 34 13.9202 34C13.2901 34 12.7792 33.4892 12.7792 32.859L12.7792 19.3952L15.0612 19.3952L15.0612 32.859Z" fill="#ED6364"/>
<path d="M9.03675 29.8943C9.03675 30.5245 8.52591 31.0353 7.89575 31.0353C7.26559 31.0353 6.75475 30.5245 6.75475 29.8943L6.75475 19.3971L9.03675 19.3971L9.03675 29.8943Z" fill="#ED6364"/>
<path d="M2.282 24.4633C2.282 25.0935 1.77116 25.6043 1.141 25.6043C0.510844 25.6043 7.62834e-07 25.0935 8.17924e-07 24.4633L1.26081e-06 19.3973L2.282 19.3973L2.282 24.4633Z" fill="#ED6364"/>
</svg>
