<svg width="18" height="11" viewBox="0 0 18 11" fill="none" xmlns="http://www.w3.org/2000/svg">
<path fill-rule="evenodd" clip-rule="evenodd" d="M14.5191 0.992977C14.4954 1.11215 14.4954 1.25545 14.4954 1.54206V9.45799C14.4954 9.7446 14.4954 9.8879 14.5191 10.0071C14.6164 10.4964 14.999 10.879 15.4884 10.9763C15.6075 11.0001 15.7508 11.0001 16.0374 11.0001C16.3241 11.0001 16.4674 11.0001 16.5865 10.9763C17.0759 10.879 17.4585 10.4964 17.5558 10.0071C17.5795 9.8879 17.5795 9.7446 17.5795 9.45799V1.54206C17.5795 1.25545 17.5795 1.11215 17.5558 0.992977C17.4585 0.5036 17.0759 0.121047 16.5865 0.0237042C16.4674 0 16.3241 0 16.0374 0C15.7508 0 15.6075 0 15.4884 0.0237042C14.999 0.121047 14.6164 0.5036 14.5191 0.992977ZM9.66359 4.00936C9.66359 3.72275 9.66359 3.57944 9.68729 3.46027C9.78464 2.97089 10.1672 2.58834 10.6566 2.491C10.7757 2.46729 10.919 2.46729 11.2057 2.46729C11.4923 2.46729 11.6356 2.46729 11.7547 2.491C12.2441 2.58834 12.6267 2.97089 12.724 3.46027C12.7477 3.57944 12.7477 3.72275 12.7477 4.00936V9.45798C12.7477 9.7446 12.7477 9.8879 12.724 10.0071C12.6267 10.4964 12.2441 10.879 11.7547 10.9763C11.6356 11 11.4923 11 11.2057 11C10.919 11 10.7757 11 10.6566 10.9763C10.1672 10.879 9.78464 10.4964 9.68729 10.0071C9.66359 9.8879 9.66359 9.7446 9.66359 9.45798V4.00936ZM4.95829 5.82479C4.93459 5.94396 4.93459 6.08726 4.93459 6.37387V9.458C4.93459 9.74461 4.93459 9.88792 4.95829 10.0071C5.05564 10.4965 5.43819 10.879 5.92757 10.9764C6.04674 11.0001 6.19004 11.0001 6.47665 11.0001C6.76326 11.0001 6.90657 11.0001 7.02574 10.9764C7.51512 10.879 7.89767 10.4965 7.99501 10.0071C8.01872 9.88792 8.01872 9.74461 8.01872 9.458V6.37387C8.01872 6.08726 8.01872 5.94396 7.99501 5.82479C7.89767 5.33541 7.51512 4.95286 7.02574 4.85551C6.90657 4.83181 6.76326 4.83181 6.47665 4.83181C6.19004 4.83181 6.04674 4.83181 5.92757 4.85551C5.43819 4.95286 5.05564 5.33541 4.95829 5.82479ZM0.0237042 7.88087C0 8.00004 0 8.14335 0 8.42996V9.458C0 9.74461 0 9.88792 0.0237042 10.0071C0.121047 10.4965 0.5036 10.879 0.992977 10.9764C1.11215 11.0001 1.25545 11.0001 1.54206 11.0001C1.82867 11.0001 1.97198 11.0001 2.09115 10.9764C2.58053 10.879 2.96308 10.4965 3.06042 10.0071C3.08413 9.88792 3.08413 9.74461 3.08413 9.458V8.42996C3.08413 8.14335 3.08413 8.00004 3.06042 7.88087C2.96308 7.39149 2.58053 7.00894 2.09115 6.9116C1.97198 6.88789 1.82867 6.88789 1.54206 6.88789C1.25545 6.88789 1.11215 6.88789 0.992977 6.9116C0.5036 7.00894 0.121047 7.39149 0.0237042 7.88087Z" fill="white"/>
</svg>
