<svg width="36" height="36" viewBox="0 0 36 36" fill="none" xmlns="http://www.w3.org/2000/svg">
<rect width="36" height="36" fill="white" fill-opacity="0.01"/>
<path fill-rule="evenodd" clip-rule="evenodd" d="M18.4171 5.96631C15.4022 5.96631 12.6658 7.16871 10.6029 9.12441L12.1364 10.9172C13.7897 9.33771 15.9914 8.36481 18.4171 8.36481C23.5435 8.36481 27.6997 12.6749 27.6997 17.9912C27.6997 23.3084 23.5435 27.6185 18.4171 27.6185V30.017C24.821 30.017 30.0125 24.6332 30.0125 17.9912C30.0125 11.3501 24.821 5.96631 18.4171 5.96631Z" fill="#2A85FD"/>
<path fill-rule="evenodd" clip-rule="evenodd" d="M26.7902 13.8575L28.8591 12.7892C26.9872 8.75631 23.0211 5.96631 18.4171 5.96631C15.4022 5.96631 12.6658 7.16871 10.6029 9.12441L12.1355 10.9172C13.7897 9.33771 15.9914 8.36481 18.4171 8.36481C22.1142 8.36481 25.2975 10.613 26.7902 13.8575Z" fill="#2A85FD"/>
<path d="M29.0818 13.3228C29.6607 14.7538 29.9792 16.3225 29.9818 17.9623C30.0009 24.5539 24.8484 29.9188 18.461 29.9566C14.2015 29.9827 10.4489 27.5896 8.43201 24.013" stroke="#3F4A54" stroke-width="1.3" stroke-linecap="round" stroke-linejoin="round"/>
<path d="M7.30773 21.2862C7.0196 20.2413 6.86426 19.1388 6.86426 17.9976C6.86339 11.3727 11.9221 6.01047 18.4068 5.98617C22.1021 5.97177 25.3496 7.73847 27.4576 10.4799" stroke="#3F4A54" stroke-width="1.3" stroke-linecap="round" stroke-linejoin="round"/>
<path d="M27.688 16.6997C26.8089 9.55104 18.0791 5.94744 12.642 10.3772" stroke="#3F4A54" stroke-width="1.3" stroke-linecap="round" stroke-linejoin="round"/>
<path d="M10.756 12.4373C9.88118 13.7225 9.31187 15.2273 9.1626 16.7951" stroke="#3F4A54" stroke-width="1.3" stroke-linecap="round" stroke-linejoin="round"/>
<path d="M19.5739 15.5547C19.2059 15.3954 18.8006 15.3117 18.3771 15.3261C16.7429 15.3783 15.4498 16.731 15.5045 18.3294C15.5218 18.855 15.6789 19.3491 15.9349 19.773C16.0243 19.9215 16.1259 20.061 16.2378 20.1906C16.3758 20.3517 16.5312 20.4966 16.6987 20.6235C17.202 21.0042 17.8217 21.2211 18.476 21.1959C20.1432 21.1311 21.3729 19.836 21.3295 18.1917C21.3148 17.613 21.1369 17.0766 20.8427 16.6284" stroke="#3F4A54" stroke-width="1.281" stroke-linecap="round" stroke-linejoin="round"/>
<path d="M11.0346 14.3872L9.96021 13.8526" stroke="#3F4A54" stroke-width="1.3" stroke-linecap="round" stroke-linejoin="round"/>
<path d="M15.8743 16.7942L11.896 14.8169" stroke="#3F4A54" stroke-width="1.3" stroke-linecap="round" stroke-linejoin="round"/>
<path d="M24.8972 14.8175L26.8343 13.8545" stroke="#3F4A54" stroke-width="1.3" stroke-linecap="round" stroke-linejoin="round"/>
<path d="M20.9202 16.7956L23.5116 15.5068" stroke="#3F4A54" stroke-width="1.3" stroke-linecap="round" stroke-linejoin="round"/>
<path d="M18.4766 21.2834L18.4176 27.5726" stroke="#3F4A54" stroke-width="1.3" stroke-linecap="round" stroke-linejoin="round"/>
<path d="M27.6443 19.5575C26.7148 30.3647 10.1457 30.1739 9.24829 19.418" stroke="#3F4A54" stroke-width="1.3" stroke-linecap="round" stroke-linejoin="round"/>
<path fill-rule="evenodd" clip-rule="evenodd" d="M19.8124 18.2605C19.8124 19.0597 19.1875 19.7068 18.4177 19.7068C17.6471 19.7068 17.0222 19.0597 17.0222 18.2605C17.0222 17.4613 17.6471 16.8142 18.4177 16.8142C19.1875 16.8142 19.8124 17.4613 19.8124 18.2605Z" fill="#2A85FD"/>
</svg>
