<svg width="16" height="12" viewBox="0 0 16 12" fill="none" xmlns="http://www.w3.org/2000/svg">
<path fill-rule="evenodd" clip-rule="evenodd" d="M8.00043 2.38583C10.3219 2.38593 12.5546 3.27793 14.237 4.87747C14.3637 5.00096 14.5662 4.9994 14.691 4.87397L15.9021 3.65173C15.9653 3.58811 16.0005 3.50194 16 3.41228C15.9994 3.32263 15.9632 3.23687 15.8993 3.174C11.4834 -1.058 4.51677 -1.058 0.100853 3.174C0.0368845 3.23683 0.000594161 3.32255 7.48211e-06 3.41221C-0.000589674 3.50187 0.0345797 3.58806 0.0977105 3.65173L1.30914 4.87397C1.43383 4.99959 1.6365 5.00115 1.76312 4.87747C3.44578 3.27782 5.67874 2.38582 8.00043 2.38583ZM8.00043 6.36232C9.27592 6.36225 10.5059 6.83634 11.4514 7.69248C11.5792 7.81399 11.7807 7.81135 11.9053 7.68654L13.115 6.46429C13.1787 6.40018 13.2141 6.31321 13.2131 6.22284C13.2122 6.13246 13.1751 6.04623 13.1101 5.98343C10.231 3.30525 5.77229 3.30525 2.89317 5.98343C2.82814 6.04623 2.79103 6.13251 2.79018 6.22291C2.78932 6.31331 2.8248 6.40028 2.88863 6.46429L4.09796 7.68654C4.22261 7.81135 4.42406 7.81399 4.55194 7.69248C5.49677 6.8369 6.72577 6.36285 8.00043 6.36232ZM10.3251 9.27931C10.3898 9.21581 10.4255 9.12844 10.4236 9.03781C10.4218 8.94718 10.3826 8.86133 10.3154 8.80054C8.97902 7.67025 7.02183 7.67025 5.68549 8.80054C5.61821 8.86129 5.57897 8.94711 5.57705 9.03773C5.57514 9.12836 5.6107 9.21577 5.67535 9.27931L7.7682 11.391C7.82954 11.4531 7.91316 11.488 8.00043 11.488C8.08769 11.488 8.17131 11.4531 8.23265 11.391L10.3251 9.27931Z" fill="white"/>
</svg>
