<svg width="36" height="36" viewBox="0 0 36 36" fill="none" xmlns="http://www.w3.org/2000/svg">
<g clip-path="url(#clip0_3244_11372)">
<path fill-rule="evenodd" clip-rule="evenodd" d="M33.9614 15.0327H25.0744C22.6142 15.0327 20.6259 17.031 20.6259 19.4812V22.3431C20.6259 24.7933 22.6242 26.7916 25.0744 26.7916H33.9614V27.2937C33.9614 30.969 30.9188 33.9615 27.1933 33.9615H8.8067C5.07115 33.9615 2.03852 30.969 2.03852 27.2937V14.5406C2.03852 10.8653 5.08119 7.87285 8.8067 7.87285H27.1933C30.9288 7.87285 33.9614 10.8653 33.9614 14.5406V15.0427V15.0327ZM23.4979 2.12893C23.7991 2.00843 24.1205 2.01847 24.4217 2.13897C24.723 2.26952 24.9539 2.51052 25.0744 2.83186L26.2895 5.8444H14.4301L23.4979 2.12893Z" fill="white"/>
<path fill-rule="evenodd" clip-rule="evenodd" d="M33.9615 24.7631H25.0745C23.7389 24.7631 22.6644 23.6786 22.6644 22.3531V19.4912C22.6644 18.1556 23.749 17.0811 25.0745 17.0811H33.9615V24.7732V24.7631Z" fill="#0CBBFF"/>
<path fill-rule="evenodd" clip-rule="evenodd" d="M33.9614 15.0326H25.0744C22.6142 15.0326 20.6259 17.0309 20.6259 19.4811V22.343C20.6259 24.7932 22.6242 26.7915 25.0744 26.7915H33.9614V27.2936C33.9614 30.9689 30.9187 33.9614 27.1932 33.9614H8.80667C5.07112 33.9614 2.03849 30.9689 2.03849 27.2936V14.5405C2.03849 10.8652 5.08116 7.87276 8.80667 7.87276H27.1932C30.9288 7.87276 33.9614 10.8652 33.9614 14.5405V15.0426V15.0326ZM33.9614 24.7631H25.0744C23.7388 24.7631 22.6644 23.6786 22.6644 22.3531V19.4911C22.6644 18.1556 23.7489 17.0811 25.0744 17.0811H33.9614V24.7731V24.7631ZM23.4978 2.12884C23.7991 2.00834 24.1204 2.01838 24.4217 2.13888C24.7229 2.26943 24.9539 2.51043 25.0744 2.83177L26.2895 5.84431H14.4301L23.4978 2.12884ZM28.5388 5.97486L26.9623 2.07863C26.6409 1.2552 26.0284 0.612527 25.225 0.271105C24.4217 -0.0803581 23.538 -0.0904 22.7246 0.24098L9.05772 5.83427H8.80667C3.94643 5.83427 0 9.74054 0 14.5405V27.3037C0 32.1037 3.94643 35.9999 8.80667 35.9999H27.1932C32.0434 35.9999 35.9999 32.0936 35.9999 27.3037V14.5405C35.9999 10.2025 32.7564 6.61753 28.5388 5.97486Z" fill="#333333"/>
</g>
<defs>
<clipPath id="clip0_3244_11372">
<rect width="35.85" height="35.85" fill="white" transform="scale(1.00418)"/>
</clipPath>
</defs>
</svg>
