<svg width="27" height="26" viewBox="0 0 27 26" fill="none" xmlns="http://www.w3.org/2000/svg">
<rect width="27.0001" height="25.4688" fill="white" fill-opacity="0.01"/>
<path fill-rule="evenodd" clip-rule="evenodd" d="M5.16405 11.7131C5.16405 11.7131 6.55996 13.0757 7.86068 11.8073C7.97746 11.694 8.10841 11.6067 8.24746 11.5526C8.49991 11.4533 8.88061 11.3915 9.25119 11.6672C9.28494 11.6933 9.31666 11.7245 9.34704 11.7576C9.55021 11.9805 10.5074 12.9197 11.3714 11.8449C11.4746 11.7163 11.5941 11.6125 11.7271 11.545C11.9721 11.4189 12.3434 11.3476 12.6964 11.7475C13.5793 12.9738 14.5864 11.9869 14.795 11.7576C14.8253 11.7245 14.8564 11.6933 14.8908 11.6679C15.2614 11.3915 15.6414 11.4533 15.8939 11.5526C16.0336 11.6067 16.1646 11.694 16.2813 11.8073C17.5814 13.0757 18.978 11.7131 18.978 11.7131L18.4042 19.3626C18.4042 19.3626 18.4042 21.106 16.9185 21.0716L7.22348 21.071C5.7378 21.1053 5.7378 19.3626 5.7378 19.3626L5.4192 14.4058" fill="#9DDC9D"/>
<path fill-rule="evenodd" clip-rule="evenodd" d="M15.3691 21.0082V18.2257V17.2515C15.3691 14.825 16.985 12.2214 18.9783 12.2214V11.5847L17.8585 20.3963C17.8105 20.7497 17.5594 21.0082 17.2658 21.0082H15.3691Z" fill="#89CE89"/>
<path d="M10.4684 10.6319L9.4127 7.52024C9.12245 6.91026 7.64554 7.16304 6.99889 7.43683C6.35224 7.71062 5.17099 8.58356 5.46124 9.19354L6.36372 10.7401" stroke="#3F4A54" stroke-linecap="round" stroke-linejoin="round"/>
<path d="M6.2655 9.88934L7.73295 9.2679" stroke="#3F4A54" stroke-linecap="round" stroke-linejoin="round"/>
<path d="M8.9012 10.0879L10.0541 9.59954" stroke="#3F4A54" stroke-linecap="round" stroke-linejoin="round"/>
<path d="M6.28323 6.79514L6.9994 7.43695L6.97915 5.88335" stroke="#3F4A54" stroke-linecap="round" stroke-linejoin="round"/>
<path d="M17.4209 11.111L17.7955 9.79491C18.1303 8.86593 17.8489 7.88093 17.1718 7.21555L17.5174 6.25793L15.1961 5.51296L14.8505 6.46995C13.8839 6.60749 13.0233 7.22511 12.6878 8.15408L11.7097 10.5864" stroke="#3F4A54" stroke-linecap="round" stroke-linejoin="round"/>
<path d="M12.4197 9.40446C12.7923 9.55982 13.1913 9.71837 13.5936 9.65979C13.902 9.61522 14.1734 9.4484 14.4596 9.33188C14.4596 9.33188 16.1235 8.17941 17.462 10.2131" stroke="#3F4A54" stroke-linecap="round" stroke-linejoin="round"/>
<path fill-rule="evenodd" clip-rule="evenodd" d="M17.6311 6.28755L15.087 5.47064C14.765 5.36685 14.5909 5.03321 14.7002 4.72949L14.7367 4.62953C14.8467 4.32581 15.1997 4.16154 15.5224 4.26533L18.0665 5.08224C18.3884 5.18602 18.5619 5.51903 18.4526 5.82338L18.4161 5.92271C18.3068 6.22706 17.9537 6.39134 17.6311 6.28755Z" stroke="#3F4A54" stroke-linecap="round" stroke-linejoin="round"/>
<path d="M5.16405 11.7131C5.16405 11.7131 6.55996 13.0757 7.86068 11.8073C7.97746 11.694 8.10841 11.6067 8.24746 11.5526C8.49991 11.4533 8.88061 11.3915 9.25119 11.6672C9.28494 11.6933 9.31666 11.7245 9.34704 11.7576C9.55021 11.9805 10.5074 12.9197 11.3714 11.8449C11.4746 11.7163 11.5941 11.6125 11.7271 11.545C11.9721 11.4189 12.3434 11.3476 12.6964 11.7475C13.5793 12.9738 14.5864 11.9869 14.795 11.7576C14.8253 11.7245 14.8564 11.6933 14.8908 11.6679C15.2614 11.3915 15.6414 11.4533 15.8939 11.5526C16.0336 11.6067 16.1646 11.694 16.2813 11.8073C17.5814 13.0757 18.978 11.7131 18.978 11.7131L18.4042 19.3626C18.4042 19.3626 18.4042 21.106 16.9185 21.0716L7.22348 21.071C5.7378 21.1053 5.7378 19.3626 5.7378 19.3626L5.4192 14.4058" stroke="#3F4A54" stroke-linecap="round" stroke-linejoin="round"/>
<path d="M19.7005 21.0719H9.32169" stroke="#3F4A54" stroke-linecap="round" stroke-linejoin="round"/>
<path d="M15.8673 15.0448L15.4947 20.9077" stroke="#3F4A54" stroke-linecap="round" stroke-linejoin="round"/>
</svg>
