<svg width="14" height="15" viewBox="0 0 14 15" fill="none" xmlns="http://www.w3.org/2000/svg">
<path fill-rule="evenodd" clip-rule="evenodd" d="M11.2669 3.34206C12.1442 4.21941 12.4117 5.43914 12.0061 6.55981L11.5151 5.44533C11.4644 5.32893 11.3282 5.27568 11.2111 5.32769C11.0954 5.37908 11.0421 5.5153 11.0935 5.6317L11.7777 7.18454C11.7876 7.2254 11.8092 7.26193 11.8396 7.29289C11.8538 7.30899 11.8693 7.32137 11.8872 7.33314C11.9033 7.34304 11.9139 7.35295 11.9281 7.35852C11.9554 7.36905 11.9832 7.37462 12.0117 7.37462C12.0433 7.37462 12.0755 7.36781 12.1046 7.35481L13.71 6.64711C13.8264 6.59572 13.8791 6.46013 13.8277 6.34373C13.7769 6.22732 13.6401 6.17346 13.5237 6.22547L12.447 6.69974C12.9064 5.41623 12.5974 4.02066 11.5932 3.01639C10.444 1.86662 8.78466 1.62701 7.36494 2.4059C7.25349 2.4672 7.21263 2.60713 7.27393 2.71919C7.3346 2.83064 7.47515 2.87213 7.5866 2.81021C8.82243 2.13286 10.2669 2.34151 11.2669 3.34206Z" fill="#62C5DE" stroke="#62C5DE" stroke-width="0.3"/>
<path fill-rule="evenodd" clip-rule="evenodd" d="M6.41331 13.5293C5.17809 14.2066 3.7336 13.998 2.73305 12.9974C1.85571 12.1201 1.58885 10.8997 1.99378 9.77965L2.48477 10.8941C2.52254 10.9802 2.60736 11.0316 2.6959 11.0316C2.72686 11.0316 2.75844 11.0254 2.78877 11.0118C2.90518 10.961 2.9578 10.8248 2.90641 10.7078L2.22225 9.15492C2.21296 9.11344 2.19129 9.07753 2.16033 9.04657C2.14609 9.03047 2.13061 9.01809 2.11266 9.00632C2.11204 9.0057 2.11142 9.00509 2.1108 9.00509C2.11018 9.00447 2.10956 9.00447 2.10956 9.00447C2.09718 8.99642 2.08603 8.98589 2.07179 8.98032C2.01483 8.95865 1.95106 8.95989 1.89533 8.98465L0.290485 9.69173C0.174084 9.74312 0.120837 9.87933 0.172226 9.99573C0.223616 10.1121 0.35983 10.1654 0.476231 10.114L1.55294 9.6391C1.09353 10.9232 1.40249 12.3188 2.40738 13.3237C3.10764 14.024 3.99736 14.3862 4.9069 14.3862C5.48953 14.3862 6.08082 14.2376 6.63496 13.9336C6.74641 13.8723 6.78728 13.7317 6.72598 13.6203C6.6653 13.5088 6.52475 13.4673 6.41331 13.5293Z" fill="#62C5DE"/>
<path d="M6.41331 13.5293C5.17809 14.2066 3.7336 13.998 2.73305 12.9974C1.85571 12.1201 1.58885 10.8997 1.99378 9.77965L2.48477 10.8941C2.52254 10.9802 2.60736 11.0316 2.6959 11.0316C2.72686 11.0316 2.75844 11.0254 2.78877 11.0118C2.90518 10.961 2.9578 10.8248 2.90641 10.7078L2.22225 9.15492C2.21296 9.11344 2.19129 9.07753 2.16033 9.04657C2.14609 9.03047 2.13061 9.01809 2.11266 9.00632C2.11204 9.0057 2.11142 9.00509 2.1108 9.00509C2.11018 9.00447 2.10956 9.00447 2.10956 9.00447C2.09718 8.99642 2.08603 8.98589 2.07179 8.98032C2.01483 8.95865 1.95106 8.95989 1.89533 8.98465L0.290485 9.69173C0.174084 9.74312 0.120837 9.87933 0.172226 9.99573C0.223616 10.1121 0.35983 10.1654 0.476231 10.114L1.55294 9.6391C1.09353 10.9232 1.40249 12.3188 2.40738 13.3237C3.10764 14.024 3.99736 14.3862 4.9069 14.3862C5.48953 14.3862 6.08082 14.2376 6.63496 13.9336C6.74641 13.8723 6.78728 13.7317 6.72598 13.6203C6.6653 13.5088 6.52475 13.4673 6.41331 13.5293" stroke="#62C5DE" stroke-width="0.3"/>
<path fill-rule="evenodd" clip-rule="evenodd" d="M3.66643 7.83928C2.05291 7.83928 0.740304 6.52605 0.740304 4.91253C0.740304 3.29902 2.05291 1.98703 3.66643 1.98703C5.27995 1.98703 6.59255 3.29902 6.59255 4.91253C6.59255 6.52605 5.27995 7.83928 3.66643 7.83928Z" fill="white"/>
<path d="M3.66643 7.83928C2.05291 7.83928 0.740304 6.52605 0.740304 4.91253C0.740304 3.29902 2.05291 1.98703 3.66643 1.98703C5.27995 1.98703 6.59255 3.29902 6.59255 4.91253C6.59255 6.52605 5.27995 7.83928 3.66643 7.83928" stroke="white" stroke-width="0.2"/>
<path fill-rule="evenodd" clip-rule="evenodd" d="M10.5119 14.686C8.89834 14.686 7.58512 13.3733 7.58512 11.7598C7.58512 10.1463 8.89834 8.8337 10.5119 8.8337C12.1254 8.8337 13.438 10.1463 13.438 11.7598C13.438 13.3733 12.1254 14.686 10.5119 14.686Z" fill="white"/>
<path d="M10.5119 14.686C8.89834 14.686 7.58512 13.3733 7.58512 11.7598C7.58512 10.1463 8.89834 8.8337 10.5119 8.8337C12.1254 8.8337 13.438 10.1463 13.438 11.7598C13.438 13.3733 12.1254 14.686 10.5119 14.686" stroke="white" stroke-width="0.3"/>
<path fill-rule="evenodd" clip-rule="evenodd" d="M13.1682 13.1818C12.99 13.0827 12.7652 13.1491 12.6672 13.3273C12.3493 13.9086 11.8492 14.2562 11.3313 14.2562C10.6678 14.2562 10.0984 13.7155 9.82704 12.9401H11.6095C11.8135 12.9401 11.9779 12.7758 11.9779 12.5718C11.9779 12.3678 11.8135 12.2034 11.6095 12.2034H9.67652C9.66958 12.1162 9.6577 12.0311 9.6577 11.9429C9.6577 11.8231 9.66958 11.7082 9.68246 11.5934H11.6095C11.8135 11.5934 11.9779 11.428 11.9779 11.224C11.9779 11.021 11.8135 10.8556 11.6095 10.8556H9.86269C10.1449 10.1287 10.6935 9.62864 11.3313 9.62864C11.8304 9.62864 12.3017 9.9386 12.6236 10.4793C12.7276 10.6546 12.9543 10.712 13.1286 10.608C13.3039 10.504 13.3613 10.2773 13.2574 10.103C12.7979 9.33255 12.0958 8.89088 11.3313 8.89088C10.3044 8.89088 9.43291 9.70984 9.08433 10.8556H8.608C8.40401 10.8556 8.23863 11.021 8.23863 11.224C8.23863 11.428 8.40401 11.5934 8.608 11.5934H8.94767C8.93678 11.7092 8.91994 11.8221 8.91994 11.9429C8.91994 12.0311 8.9348 12.1152 8.94074 12.2034H8.608C8.40401 12.2034 8.23863 12.3678 8.23863 12.5718C8.23863 12.7758 8.40401 12.9401 8.608 12.9401H9.06254C9.3923 14.1314 10.2796 14.994 11.3313 14.994C12.1235 14.994 12.8642 14.5028 13.3138 13.6819C13.4119 13.5036 13.3465 13.2798 13.1682 13.1818Z" fill="#371505"/>
<path fill-rule="evenodd" clip-rule="evenodd" d="M4.32329 6.01589C4.16458 6.18232 3.93312 6.28703 3.6245 6.32671L3.7722 4.561C3.88682 4.59848 3.99043 4.63926 4.08632 4.68665C4.18221 4.73294 4.26488 4.78805 4.33652 4.85198C4.40706 4.91591 4.46217 4.98865 4.50185 5.07242C4.54042 5.15398 4.56026 5.25097 4.56026 5.36119C4.56026 5.63013 4.48201 5.84946 4.32329 6.01589ZM3.2068 3.34088C3.09658 3.3001 2.99517 3.25491 2.90149 3.20421C2.8089 3.15241 2.72955 3.09509 2.66121 3.03006C2.59288 2.96393 2.53997 2.89009 2.5025 2.80522C2.46392 2.72145 2.44518 2.62336 2.44518 2.51314C2.44518 2.41725 2.46172 2.32687 2.49588 2.242C2.52895 2.15603 2.58185 2.07887 2.6546 2.00833C2.72734 1.9389 2.81993 1.88048 2.93345 1.83198C3.04588 1.78459 3.18255 1.74932 3.34236 1.72948L3.2068 3.34088ZM5.02867 4.05936C4.86445 3.93702 4.68038 3.83782 4.47538 3.76067C4.27147 3.68462 4.06426 3.61408 3.85594 3.55015L4.00805 1.74697C4.12047 1.77342 4.22408 1.80649 4.31666 1.84727C4.40924 1.88805 4.49411 1.92773 4.57127 1.96741C4.64842 2.00598 4.71565 2.03905 4.77627 2.0666C4.83469 2.09416 4.88649 2.10849 4.93058 2.10849C4.989 2.10849 5.03749 2.09416 5.07827 2.0655C5.11905 2.03574 5.15983 1.99166 5.20062 1.93434L5.46183 1.53866C5.2954 1.38104 5.10142 1.24107 4.87767 1.11542C4.65503 0.990868 4.3894 0.903795 4.08189 0.855299L4.15574 0H3.76005C3.67629 0 3.60795 0.0264525 3.55505 0.0826642C3.50324 0.138876 3.47349 0.201701 3.46797 0.272241L3.42058 0.826642C3.10094 0.826642 2.81878 0.879547 2.57189 0.987562C2.325 1.09558 2.11779 1.23225 1.94916 1.39868C1.78052 1.56401 1.65267 1.75248 1.56449 1.9641C1.47632 2.17462 1.43113 2.39175 1.43113 2.61219C1.43113 2.90978 1.48073 3.15667 1.57882 3.35506C1.67802 3.55346 1.80808 3.71658 1.969 3.84664C2.12992 3.9756 2.31068 4.0803 2.51238 4.15856C2.71518 4.23792 2.91798 4.30515 3.12409 4.36357L2.95876 6.31334C2.79674 6.28468 2.65566 6.23949 2.53662 6.17777C2.41759 6.11715 2.31178 6.05653 2.21919 5.99481C2.12661 5.93419 2.04395 5.88238 1.9712 5.83719C1.89846 5.792 1.83012 5.76886 1.76619 5.76886C1.71439 5.76886 1.66369 5.78319 1.6163 5.81074C1.5678 5.8383 1.53033 5.87357 1.50057 5.91765L1.16991 6.40923C1.37933 6.61534 1.63173 6.78838 1.92932 6.92726C2.22691 7.06724 2.54544 7.15982 2.88492 7.20611L2.80666 8.13746H3.20235C3.28721 8.13746 3.35445 8.10881 3.40735 8.05259C3.45916 7.99528 3.48892 7.93466 3.49443 7.86743L3.54623 7.22816C3.87138 7.20501 4.16015 7.13668 4.41255 7.02315C4.66495 6.91073 4.87767 6.76303 5.05072 6.58117C5.22266 6.40041 5.35382 6.191 5.4442 5.95403C5.53458 5.71816 5.57867 5.46465 5.57867 5.19462C5.57867 4.92238 5.52797 4.69533 5.42656 4.51457C5.32516 4.33271 5.1929 4.1806 5.02867 4.05936Z" fill="#371505"/>
</svg>
