<svg width="36" height="36" viewBox="0 0 36 36" fill="none" xmlns="http://www.w3.org/2000/svg">
<rect width="36" height="36" fill="white" fill-opacity="0.01"/>
<path fill-rule="evenodd" clip-rule="evenodd" d="M6.88464 16.5561C6.88464 16.5561 8.74584 18.4821 10.4801 16.6893C10.6358 16.5291 10.8104 16.4058 10.9958 16.3293C11.3324 16.1889 11.84 16.1016 12.3341 16.4913C12.3791 16.5282 12.4214 16.5723 12.4619 16.6191C12.7328 16.9341 14.009 18.2616 15.161 16.7424C15.2987 16.5606 15.458 16.4139 15.6353 16.3185C15.962 16.1403 16.457 16.0395 16.9277 16.6047C18.1049 18.3381 19.4477 16.9431 19.7258 16.6191C19.7663 16.5723 19.8077 16.5282 19.8536 16.4922C20.3477 16.1016 20.8544 16.1889 21.191 16.3293C21.3773 16.4058 21.5519 16.5291 21.7076 16.6893C23.441 18.4821 25.3031 16.5561 25.3031 16.5561L24.5381 27.3687C24.5381 27.3687 24.5381 29.8329 22.5572 29.7843L9.63054 29.7834C7.64964 29.832 7.64964 27.3687 7.64964 27.3687L7.22484 20.3622" fill="#5FCA76"/>
<path fill-rule="evenodd" clip-rule="evenodd" d="M20.491 29.6951V25.7621V24.3851C20.491 20.9552 22.6456 17.2751 25.3033 17.2751V16.3751L23.8102 28.8302C23.7463 29.3297 23.4115 29.6951 23.02 29.6951H20.491Z" fill="#5FCA76"/>
<path d="M13.9571 15.0279L12.5495 10.6296C12.1625 9.7674 10.1933 10.1247 9.33114 10.5117C8.46894 10.8987 6.89394 12.1326 7.28094 12.9948L8.48424 15.1809" stroke="#3F4A54" stroke-width="1.3" stroke-linecap="round" stroke-linejoin="round"/>
<path d="M8.35327 13.979L10.3099 13.1006" stroke="#3F4A54" stroke-width="1.3" stroke-linecap="round" stroke-linejoin="round"/>
<path d="M11.8672 14.2594L13.4044 13.5691" stroke="#3F4A54" stroke-width="1.3" stroke-linecap="round" stroke-linejoin="round"/>
<path d="M8.37708 9.60435L9.33198 10.5116L9.30498 8.31555" stroke="#3F4A54" stroke-width="1.3" stroke-linecap="round" stroke-linejoin="round"/>
<path d="M23.2271 15.7045L23.7266 13.8442C24.173 12.5311 23.7977 11.1388 22.895 10.1983L23.3558 8.84475L20.2607 7.79175L19.7999 9.14445C18.5111 9.33885 17.3636 10.2118 16.9163 11.5249L15.6122 14.9629" stroke="#3F4A54" stroke-width="1.3" stroke-linecap="round" stroke-linejoin="round"/>
<path d="M16.5587 13.2919C17.0555 13.5115 17.5874 13.7356 18.1238 13.6528C18.5351 13.5898 18.8969 13.354 19.2785 13.1893C19.2785 13.1893 21.497 11.5603 23.2817 14.4349" stroke="#3F4A54" stroke-width="1.3" stroke-linecap="round" stroke-linejoin="round"/>
<path fill-rule="evenodd" clip-rule="evenodd" d="M23.5076 8.88716L20.1155 7.73246C19.6862 7.58576 19.454 7.11416 19.5998 6.68486L19.6484 6.54356C19.7951 6.11426 20.2658 5.88206 20.696 6.02876L24.0881 7.18346C24.5174 7.33016 24.7487 7.80086 24.6029 8.23106L24.5543 8.37146C24.4085 8.80166 23.9378 9.03386 23.5076 8.88716Z" stroke="#3F4A54" stroke-width="1.3" stroke-linecap="round" stroke-linejoin="round"/>
<path d="M6.88464 16.5561C6.88464 16.5561 8.74584 18.4821 10.4801 16.6893C10.6358 16.5291 10.8104 16.4058 10.9958 16.3293C11.3324 16.1889 11.84 16.1016 12.3341 16.4913C12.3791 16.5282 12.4214 16.5723 12.4619 16.6191C12.7328 16.9341 14.009 18.2616 15.161 16.7424C15.2987 16.5606 15.458 16.4139 15.6353 16.3185C15.962 16.1403 16.457 16.0395 16.9277 16.6047C18.1049 18.3381 19.4477 16.9431 19.7258 16.6191C19.7663 16.5723 19.8077 16.5282 19.8536 16.4922C20.3477 16.1016 20.8544 16.1889 21.191 16.3293C21.3773 16.4058 21.5519 16.5291 21.7076 16.6893C23.441 18.4821 25.3031 16.5561 25.3031 16.5561L24.5381 27.3687C24.5381 27.3687 24.5381 29.8329 22.5572 29.7843L9.63054 29.7834C7.64964 29.832 7.64964 27.3687 7.64964 27.3687L7.22484 20.3622" stroke="#3F4A54" stroke-width="1.3" stroke-linecap="round" stroke-linejoin="round"/>
<path d="M26.2663 29.7856H12.4279" stroke="#3F4A54" stroke-width="1.3" stroke-linecap="round" stroke-linejoin="round"/>
<path d="M21.1556 21.2654L20.6588 29.5526" stroke="#3F4A54" stroke-width="1.3" stroke-linecap="round" stroke-linejoin="round"/>
</svg>
