<svg width="32" height="24" viewBox="0 0 32 24" fill="none" xmlns="http://www.w3.org/2000/svg">
<path d="M3.81196 8.39932C3.81196 8.11826 4.0398 7.89042 4.32086 7.89042H8.3854C8.66645 7.89042 8.8943 8.11826 8.8943 8.39932V22.3561H3.81196V8.39932Z" fill="#1EB290"/>
<path d="M22.8709 9.7143C22.8709 9.43325 23.0988 9.2054 23.3798 9.2054H27.4444C27.7254 9.2054 27.9532 9.43325 27.9532 9.7143V22.356H22.8709V9.7143Z" fill="#1EB290"/>
<path d="M12.6932 1.4852C12.6932 1.20414 12.921 0.976301 13.2021 0.976301H18.0426C18.3237 0.976301 18.5515 1.20414 18.5515 1.4852V22.4569H12.6932V1.4852Z" fill="#1EB290"/>
<path fill-rule="evenodd" clip-rule="evenodd" d="M27.3831 22.314H23.5495V10.6855C23.5495 10.3748 23.7945 10.1217 24.0971 10.1217H26.8355C27.138 10.1217 27.3831 10.3748 27.3831 10.6855V22.314ZM17.7992 22.3141H13.9655V2.24961C13.9655 1.93888 14.2106 1.6858 14.5132 1.6858H17.2515C17.5541 1.6858 17.7992 1.93888 17.7992 2.24961V22.3141ZM8.21478 22.3141H4.38112V9.27957C4.38112 8.96884 4.6262 8.71576 4.92879 8.71576H7.66712C7.9697 8.71576 8.21478 8.96884 8.21478 9.27957V22.3141ZM29.0263 22.3141V10.6856C29.0263 9.4441 28.0432 8.436 26.8356 8.436H24.0973C22.8897 8.436 21.9066 9.4441 21.9066 10.6856V22.3141H19.4421V2.2496C19.4421 1.0081 18.4591 0 17.2515 0H14.5131C13.3055 0 12.3225 1.0081 12.3225 2.2496V22.3141H9.85798V9.2796C9.85798 8.0381 8.87492 7.03 7.66732 7.03H4.92899C3.72139 7.03 2.73833 8.0381 2.73833 9.2796V22.3141H0.821498C0.368305 22.3141 0 22.6909 0 23.1577C0 23.6245 0.368305 23.9999 0.821498 23.9999H30.9431C31.3977 23.9999 31.7646 23.6245 31.7646 23.1577C31.7646 22.6909 31.3977 22.3141 30.9431 22.3141H29.0263Z" fill="#1EB290"/>
</svg>
