<svg width="24" height="21" viewBox="0 0 24 21" fill="none" xmlns="http://www.w3.org/2000/svg">
<path fill-rule="evenodd" clip-rule="evenodd" d="M14.9097 3.57104C10.5868 3.57104 7.08186 2.91822 7.08186 2.11327V5.1356V8.15793V11.1803V14.2026V14.8997C7.08186 15.7057 10.5868 16.3585 14.9097 16.3585C19.2336 16.3585 22.7385 15.7057 22.7385 14.8997V14.2026V11.1803V8.15793V5.1356V2.11327C22.7385 2.91822 19.2336 3.57104 14.9097 3.57104Z" fill="#FFE772"/>
<path fill-rule="evenodd" clip-rule="evenodd" d="M11.6946 16.1759L7.56505 15.1684V2.61367L11.6946 3.62111V16.1759Z" fill="white"/>
<path d="M16.1434 9.59796C15.7425 9.61005 15.3294 9.61609 14.9093 9.61609C10.5864 9.61609 7.08248 8.96327 7.08248 8.15731" stroke="#3F4A54" stroke-width="1.3" stroke-linecap="round" stroke-linejoin="round"/>
<path d="M22.738 8.15756C22.738 8.73482 20.9367 9.23351 18.3234 9.47026" stroke="#3F4A54" stroke-width="1.3" stroke-linecap="round" stroke-linejoin="round"/>
<path d="M21.2879 1.26739C22.2007 1.50615 22.7377 1.7973 22.7377 2.11263C22.7377 2.91859 19.2338 3.57141 14.9098 3.57141C10.5869 3.57141 7.08199 2.91859 7.08199 2.11263C7.08199 1.79227 7.63809 1.49507 8.58207 1.25429C8.9921 1.14952 9.47466 1.05583 10.0167 0.974222C10.1849 0.950043 10.3562 0.925865 10.5335 0.903701C11.7827 0.74654 13.2899 0.654863 14.9098 0.654863C16.4522 0.654863 17.8898 0.737473 19.1018 0.881537" stroke="#3F4A54" stroke-width="1.3" stroke-linecap="round" stroke-linejoin="round"/>
<path d="M18.5036 6.431C17.4277 6.53477 16.2057 6.5932 14.9101 6.5932" stroke="#3F4A54" stroke-width="1.3" stroke-linecap="round" stroke-linejoin="round"/>
<path d="M22.738 5.13522C22.738 5.51603 21.9542 5.8636 20.6687 6.12251" stroke="#3F4A54" stroke-width="1.3" stroke-linecap="round" stroke-linejoin="round"/>
<path d="M13.1231 12.6001C9.66052 12.45 7.08248 11.8707 7.08248 11.1796" stroke="#3F4A54" stroke-width="1.3" stroke-linecap="round" stroke-linejoin="round"/>
<path d="M22.7381 11.1799C22.7381 11.9848 19.2332 12.6377 14.9092 12.6377" stroke="#3F4A54" stroke-width="1.3" stroke-linecap="round" stroke-linejoin="round"/>
<path d="M13.2883 15.6293C9.74213 15.4902 7.08248 14.9039 7.08248 14.2017" stroke="#3F4A54" stroke-width="1.3" stroke-linecap="round" stroke-linejoin="round"/>
<path d="M22.738 14.2022C22.738 14.9296 19.8809 15.532 16.1433 15.6429C15.9317 15.6489 15.7161 15.6529 15.4985 15.656" stroke="#3F4A54" stroke-width="1.3" stroke-linecap="round" stroke-linejoin="round"/>
<path d="M22.7381 14.2022V14.2022V11.1799V8.15756V5.40824" stroke="#3F4A54" stroke-width="1.3" stroke-linecap="round" stroke-linejoin="round"/>
<path d="M7.08235 2.1129V5.13523V8.15756V11.1799V14.2022" stroke="#3F4A54" stroke-width="1.3" stroke-linecap="round" stroke-linejoin="round"/>
<path fill-rule="evenodd" clip-rule="evenodd" d="M13.3582 14.8785C12.8505 18.3683 9.60954 20.7852 6.11975 20.2774C2.63098 19.7697 0.213115 16.5297 0.720866 13.0399C1.22963 9.55016 4.46956 7.13331 7.95935 7.64005C11.4481 8.14881 13.866 11.3887 13.3582 14.8785Z" fill="white"/>
<path d="M2.21136 18.1372C1.24119 17.0179 0.654863 15.5571 0.654863 13.9593C0.654863 10.4333 3.51298 7.57415 7.04004 7.57415C7.60824 7.57415 8.16031 7.6487 8.6862 7.78873" stroke="#3F4A54" stroke-width="1.3" stroke-linecap="round" stroke-linejoin="round"/>
<path d="M10.5917 8.65243C12.3004 9.79789 13.4257 11.7473 13.4257 13.9596C13.4257 17.4857 10.5666 20.3438 7.04051 20.3438C5.78624 20.3438 4.61761 19.9831 3.63132 19.3595" stroke="#3F4A54" stroke-width="1.3" stroke-linecap="round" stroke-linejoin="round"/>
<path d="M7.04007 10.689C5.44025 10.6869 4.04091 11.8596 3.80416 13.4886C3.77595 13.6851 3.77192 13.8795 3.77898 14.0709" stroke="#3F4A54" stroke-width="1.3" stroke-linecap="round" stroke-linejoin="round"/>
<path d="M9.91686 15.5168C10.0952 15.1873 10.2191 14.8226 10.2755 14.4297C10.3067 14.2172 10.3138 14.0066 10.3037 13.8001" stroke="#3F4A54" stroke-width="1.3" stroke-linecap="round" stroke-linejoin="round"/>
<path d="M4.49586 15.9997C4.99555 16.6233 5.71588 17.0706 6.56918 17.1955C7.28749 17.3003 7.98665 17.1623 8.58205 16.8429" stroke="#3F4A54" stroke-width="1.3" stroke-linecap="round" stroke-linejoin="round"/>
<path d="M14.4059 20.3453H7.0778" stroke="#3F4A54" stroke-width="1.3" stroke-linecap="round" stroke-linejoin="round"/>
</svg>
