<svg width="168" height="149" viewBox="0 0 168 149" fill="none" xmlns="http://www.w3.org/2000/svg">
<path opacity="0.1" d="M148.636 74.0182C148.696 88.718 144.394 103.105 136.276 115.36C128.158 127.615 116.588 137.188 103.03 142.867C89.471 148.546 74.5327 150.076 60.1041 147.265C45.6755 144.453 32.4048 137.426 21.9704 127.072C11.5359 116.717 4.4065 103.501 1.48379 89.0947C-1.43892 74.6883 -0.0236301 59.7386 5.55067 46.1365C11.125 32.5345 20.6079 20.891 32.8 12.6788C44.9921 4.46657 59.3458 0.054473 74.0457 0.000527739C93.7518 -0.0736878 112.681 7.68246 126.669 21.5631C140.657 35.4437 148.559 54.312 148.636 74.0182Z" fill="#FAD06B"/>
<path opacity="0.2" d="M134.501 74.1433C134.546 86.0361 131.064 97.6752 124.494 107.589C117.924 117.502 108.561 125.245 97.5909 129.837C86.6204 134.43 74.5345 135.666 62.8615 133.389C51.1885 131.113 40.4527 125.426 32.0118 117.048C23.5709 108.669 17.8041 97.9764 15.4406 86.3207C13.077 74.665 14.223 62.5702 18.7335 51.5657C23.244 40.5613 30.9164 31.1416 40.7806 24.4978C50.6447 17.854 62.2575 14.2845 74.1504 14.2408C82.0465 14.2108 89.8712 15.7365 97.1776 18.7308C104.484 21.725 111.129 26.1292 116.733 31.6918C122.337 37.2543 126.791 43.8663 129.84 51.1502C132.888 58.4341 134.472 66.2472 134.501 74.1433Z" fill="#FAD06B"/>
<path opacity="0.3" d="M100.801 112.105C121.659 97.4019 126.648 68.5744 111.946 47.7166C97.243 26.8588 68.4155 21.8691 47.5577 36.5718C26.6999 51.2744 21.7101 80.1019 36.4128 100.96C51.1155 121.818 79.9429 126.807 100.801 112.105Z" fill="#FAD06B"/>
<path d="M130.117 78.2209C131.195 78.2209 132.068 77.3473 132.068 76.2697C132.068 75.1921 131.195 74.3186 130.117 74.3186C129.04 74.3186 128.166 75.1921 128.166 76.2697C128.166 77.3473 129.04 78.2209 130.117 78.2209Z" fill="#FAD06B"/>
<path d="M94.3362 132.272C95.303 132.272 96.0868 131.488 96.0868 130.521C96.0868 129.554 95.303 128.771 94.3362 128.771C93.3695 128.771 92.5857 129.554 92.5857 130.521C92.5857 131.488 93.3695 132.272 94.3362 132.272Z" fill="#FAD06B"/>
<path d="M38.8558 46.6682C39.8226 46.6682 40.6063 45.8845 40.6063 44.9177C40.6063 43.9509 39.8226 43.1672 38.8558 43.1672C37.889 43.1672 37.1053 43.9509 37.1053 44.9177C37.1053 45.8845 37.889 46.6682 38.8558 46.6682Z" fill="#FAD06B"/>
<path d="M15.8507 85.8002C16.4944 85.8002 17.0161 85.2784 17.0161 84.6348C17.0161 83.9911 16.4944 83.4694 15.8507 83.4694C15.2071 83.4694 14.6853 83.9911 14.6853 84.6348C14.6853 85.2784 15.2071 85.8002 15.8507 85.8002Z" fill="#FAD06B"/>
<path d="M133.673 79.5536L135.745 82.4239" stroke="#FAD06B" stroke-width="3" stroke-miterlimit="10" stroke-linecap="round" stroke-linejoin="round"/>
<path d="M136.144 79.9555L133.272 82.0244" stroke="#FAD06B" stroke-width="3" stroke-miterlimit="10" stroke-linecap="round" stroke-linejoin="round"/>
<path d="M63.6336 127.148L65.7049 130.019" stroke="#FAD06B" stroke-width="3" stroke-miterlimit="10" stroke-linecap="round" stroke-linejoin="round"/>
<path d="M66.1044 127.549L63.2317 129.618" stroke="#FAD06B" stroke-width="3" stroke-miterlimit="10" stroke-linecap="round" stroke-linejoin="round"/>
<path d="M29.1919 69.2801L31.2632 72.1503" stroke="#FAD06B" stroke-width="3" stroke-miterlimit="10" stroke-linecap="round" stroke-linejoin="round"/>
<path d="M31.6627 69.6801L28.79 71.749" stroke="#FAD06B" stroke-width="3" stroke-miterlimit="10" stroke-linecap="round" stroke-linejoin="round"/>
<path d="M96.3761 60.237C99.6966 59.6835 101.449 61.8511 101.91 63.0041C104.677 63.6959 105.369 69.2301 105.369 71.9972C106.522 81.4515 108.966 101.605 109.52 106.586C110.073 111.567 107.906 113.273 106.753 113.504C89.6889 116.04 54.4544 121.39 50.027 122.497C44.4928 123.88 42.4175 122.497 41.7257 120.422C38.4052 119.868 37.5751 117.424 37.5751 116.271C35.7303 104.28 31.9026 79.1916 31.3491 74.7643C30.7957 70.3369 33.4245 68.7689 34.808 68.5383C53.9472 66.0018 93.0556 60.7904 96.3761 60.237Z" fill="#ACCE5B"/>
<circle cx="47.2613" cy="96.9009" r="3.45888" fill="#FBE885"/>
<path d="M77.7 93.4424L83.2342 92.7507C83.6953 95.0566 83.9259 99.6684 81.1588 99.6684C78.3917 99.6684 77.7 95.5178 77.7 93.4424Z" fill="#F07374"/>
<path d="M78.3913 96.9012C80.0515 95.2409 82.0808 95.7482 83.2337 96.2094C83.0031 97.1318 82.957 98.4231 81.8502 98.9765C80.4666 99.6683 79.0831 98.2848 78.3913 96.9012Z" fill="#F181A8"/>
<path d="M111.596 63.6962C109.382 69.7838 106.523 72.2281 105.37 72.6892C105.37 74.0728 105.647 77.67 106.754 80.9906C115.747 70.6139 112.98 64.3879 111.596 63.6962Z" fill="#ACCE5B"/>
<path d="M90.1512 123.88C91.258 123.88 90.1512 118.807 89.4594 116.271L81.8499 117.654C84.1558 119.73 89.0443 123.88 90.1512 123.88Z" fill="#ACCE5B"/>
<path d="M69.756 126.47C68.6873 126.758 68.4358 121.572 68.4436 118.942L76.151 118.298C74.4646 120.902 70.8247 126.182 69.756 126.47Z" fill="#ACCE5B"/>
<path d="M87.273 64.7634L39.0528 71.6546C36.5248 72.1031 34.8364 74.5195 35.2859 77.0505L37.6389 93.0029" stroke="#3F4A54" stroke-width="1.5" stroke-miterlimit="10" stroke-linecap="round" stroke-linejoin="round"/>
<path d="M108.034 93.8215L104.535 66.9063C104.125 64.3683 101.735 62.6467 99.1968 63.058L91.7274 64.1259" stroke="#3F4A54" stroke-width="1.5" stroke-miterlimit="10" stroke-linecap="round" stroke-linejoin="round"/>
<path d="M39.2634 104.874L41.3258 119.289C41.7692 121.822 44.1796 123.516 46.7126 123.073L106.204 113.679C108.73 113.199 110.388 110.766 109.907 108.24L108.728 99.1777" stroke="#3F4A54" stroke-width="1.5" stroke-miterlimit="10" stroke-linecap="round" stroke-linejoin="round"/>
<path d="M31.9849 79.4398L37.2621 116.34C37.7056 118.873 39.1104 120.567 41.6434 120.124" stroke="#3F4A54" stroke-width="1.5" stroke-miterlimit="10" stroke-linecap="round" stroke-linejoin="round"/>
<path d="M101.98 63.4558C101.57 60.9178 99.1796 59.699 96.6416 60.1103L66.8243 64.2673L52.6478 66.2443L34.9889 68.7059C32.4609 69.1544 30.7725 71.5708 31.222 74.1018" stroke="#3F4A54" stroke-width="1.5" stroke-miterlimit="10" stroke-linecap="round" stroke-linejoin="round"/>
<path d="M89.0312 116.426C89.0312 116.426 91.4033 123.83 90.1685 124.186C88.9347 124.543 82.8228 118.862 82.1591 118.039" stroke="#3F4A54" stroke-width="1.5" stroke-miterlimit="10" stroke-linecap="round" stroke-linejoin="round"/>
<path d="M68.2488 119.496C68.2488 119.496 67.9542 127.265 69.2383 127.275C70.5224 127.288 74.8825 120.173 75.3009 119.202" stroke="#3F4A54" stroke-width="1.5" stroke-miterlimit="10" stroke-linecap="round" stroke-linejoin="round"/>
<path d="M93.7366 63.9896L105.528 73.0307" stroke="#3F4A54" stroke-width="1.5" stroke-miterlimit="10" stroke-linecap="round" stroke-linejoin="round"/>
<path d="M43.8136 71.262L36.3453 82.4651" stroke="#3F4A54" stroke-width="1.5" stroke-miterlimit="10" stroke-linecap="round" stroke-linejoin="round"/>
<path d="M99.3482 74.5161L103.622 102.546" stroke="#3F4A54" stroke-width="1.5" stroke-miterlimit="10" stroke-linecap="round" stroke-linejoin="round" stroke-dasharray="4 4"/>
<path d="M109.066 103.495L101.596 114.109" stroke="#3F4A54" stroke-width="1.5" stroke-miterlimit="10" stroke-linecap="round" stroke-linejoin="round"/>
<path d="M40.8641 115.288L50.6915 122.56" stroke="#3F4A54" stroke-width="1.5" stroke-miterlimit="10" stroke-linecap="round" stroke-linejoin="round"/>
<path d="M33.9872 94.0599L46.4412 91.4917C49.641 90.9115 52.705 93.0333 53.2862 96.233C53.8674 99.4327 51.7446 102.497 48.5449 103.078L35.8656 105.264" stroke="#3F4A54" stroke-width="1.5" stroke-miterlimit="10" stroke-linecap="round" stroke-linejoin="round"/>
<path d="M47.3652 94.1475C45.6285 94.1475 44.2207 95.5553 44.2207 97.292C44.2207 99.0296 45.6285 100.437 47.3652 100.437C49.1018 100.437 50.5096 99.0296 50.5096 97.292C50.5096 96.4614 50.1878 95.7062 49.6609 95.1431" stroke="#3F4A54" stroke-width="1.5" stroke-miterlimit="10" stroke-linecap="round" stroke-linejoin="round"/>
<path d="M105.302 73.1096C106.479 72.2619 107.154 71.3348 108.529 69.1205C110.365 66.1561 111.192 62.0745 112.162 63.4229C114.06 66.7202 111.909 76.3938 106.642 80.3166" stroke="#3F4A54" stroke-width="1.5" stroke-miterlimit="10" stroke-linecap="round" stroke-linejoin="round"/>
<path d="M53.1019 103.286C53.1019 103.286 49.8499 110.615 51.2205 112.808C52.8797 115.472 60.0374 116.754 60.1651 115.408C60.3692 113.25 54.7661 112.077 55.5756 110.112C55.7818 109.611 57.0196 107.314 57.811 106.346" stroke="#3F4A54" stroke-width="1.5" stroke-miterlimit="10" stroke-linecap="round" stroke-linejoin="round"/>
<path d="M83.1322 92.3036C82.372 92.6525 79.1743 93.3001 77.6941 93.0728C77.6941 93.0728 77.9867 100.036 81.4177 99.3929C82.8436 99.1244 83.4017 97.8996 83.5626 96.5561C83.7879 94.6626 83.4429 92.1628 83.1322 92.3036Z" stroke="#3F4A54" stroke-width="1.5" stroke-miterlimit="10" stroke-linecap="round" stroke-linejoin="round"/>
<path d="M78.6609 96.8654C79.6132 96.0941 80.0003 95.0051 83.1216 95.8578" stroke="#3F4A54" stroke-width="1.5" stroke-miterlimit="10" stroke-linecap="round" stroke-linejoin="round"/>
<path d="M66.6181 100.416C66.8222 101.26 68.048 101.682 69.3422 101.362C70.6404 101.044 71.5223 100.098 71.3121 99.2557C71.106 98.413 69.8882 97.9897 68.5921 98.3084C67.2898 98.6282 66.41 99.5694 66.6181 100.416Z" fill="#F07374"/>
<path d="M90.5962 95.5301C90.8023 96.3717 92.0241 96.7961 93.3203 96.4773C94.6185 96.1555 95.5004 95.2133 95.2922 94.3696C95.0841 93.527 93.8643 93.1046 92.5641 93.4254C91.2699 93.7452 90.388 94.6894 90.5962 95.5301Z" fill="#F07374"/>
<path d="M95.0297 90.7423C94.36 87.803 92.6867 85.7738 90.8053 86.2032C88.9239 86.6316 88.1556 89.0188 88.8253 91.9581" stroke="#3F4A54" stroke-width="1.5" stroke-miterlimit="10" stroke-linecap="round" stroke-linejoin="round"/>
<path d="M93.9083 87.8976C93.7062 87.5154 93.3603 87.0348 92.9319 86.724" stroke="white" stroke-width="1.5" stroke-miterlimit="10" stroke-linecap="round" stroke-linejoin="round"/>
<path d="M65.1983 97.2211C64.5286 94.2828 65.1611 91.7307 67.0405 91.3023C68.9219 90.873 70.6485 92.691 71.3182 95.6313" stroke="#3F4A54" stroke-width="1.5" stroke-miterlimit="10" stroke-linecap="round" stroke-linejoin="round"/>
<path d="M64.9759 94.1749C64.994 93.7405 65.0976 93.1573 65.347 92.6927" stroke="white" stroke-width="1.5" stroke-miterlimit="10" stroke-linecap="round" stroke-linejoin="round"/>
<path d="M102.781 42.0933L92.8548 20.8039C82.0036 22.9861 66.1398 31.8214 57.1944 39.9711C48.2489 48.1207 52.3294 57.8845 62.9115 57.8732C71.3772 57.8642 93.0187 47.3495 102.781 42.0933Z" fill="white"/>
<path d="M111.272 62.6288L91.5343 18.1047" stroke="#3F4A54" stroke-width="1.5" stroke-miterlimit="10" stroke-linecap="round" stroke-linejoin="round"/>
<path d="M66.8647 57.3011C80.5087 54.7768 99.3365 44.2084 102.297 42.895L66.8647 57.3011Z" fill="white"/>
<path d="M66.8647 57.3011C80.5087 54.7768 99.3365 44.2084 102.297 42.895" stroke="#3F4A54" stroke-width="1.5" stroke-miterlimit="10" stroke-linecap="round" stroke-linejoin="round"/>
<path d="M85.5979 22.7197C73.7327 27.6321 50.292 39.0502 52.6478 51.7794C53.5348 56.5777 57.524 58.1141 62.8929 57.8046" fill="white"/>
<path d="M85.5979 22.7197C73.7327 27.6321 50.292 39.0502 52.6478 51.7794C53.5348 56.5777 57.524 58.1141 62.8929 57.8046" stroke="#3F4A54" stroke-width="1.5" stroke-miterlimit="10" stroke-linecap="round" stroke-linejoin="round"/>
<path d="M92.2248 20.1667C92.2248 20.1667 90.8757 20.6288 88.6735 21.486L92.2248 20.1667Z" fill="white"/>
<path d="M92.2248 20.1667C92.2248 20.1667 90.8757 20.6288 88.6735 21.486" stroke="#3F4A54" stroke-width="1.5" stroke-miterlimit="10" stroke-linecap="round" stroke-linejoin="round"/>
<path d="M90.0668 28.5769C90.0668 28.5769 93.9373 39.6269 92.9374 44.2283L90.0668 28.5769Z" fill="white"/>
<path d="M90.0668 28.5769C90.0668 28.5769 93.9373 39.6269 92.9374 44.2283" stroke="#3F4A54" stroke-width="1.5" stroke-miterlimit="10" stroke-linecap="round" stroke-linejoin="round"/>
<path d="M70.2882 30.0793C70.2882 30.0793 73.6909 46.9991 72.8489 51.019L70.2882 30.0793Z" fill="white"/>
<path d="M70.2882 30.0793C70.2882 30.0793 73.6909 46.9991 72.8489 51.019" stroke="#3F4A54" stroke-width="1.5" stroke-miterlimit="10" stroke-linecap="round" stroke-linejoin="round"/>
<path d="M85.6252 31.1197C85.6252 31.1197 71.5155 38.9073 69.4522 39.5982L85.6252 31.1197Z" fill="white"/>
<path d="M85.6252 31.1197C85.6252 31.1197 71.5155 38.9073 69.4522 39.5982" stroke="#3F4A54" stroke-width="1.5" stroke-miterlimit="10" stroke-linecap="round" stroke-linejoin="round"/>
<path d="M87.5351 36.5118C87.5351 36.5118 67.5025 46.3173 65.1247 46.7955L87.5351 36.5118Z" fill="white"/>
<path d="M87.5351 36.5118C87.5351 36.5118 67.5025 46.3173 65.1247 46.7955" stroke="#3F4A54" stroke-width="1.5" stroke-miterlimit="10" stroke-linecap="round" stroke-linejoin="round"/>
<path d="M96.8972 37.9303C96.8972 37.9303 88.4411 42.3818 87.6475 42.5414L96.8972 37.9303Z" fill="white"/>
<path d="M96.8972 37.9303C96.8972 37.9303 88.4411 42.3818 87.6475 42.5414" stroke="#3F4A54" stroke-width="1.5" stroke-miterlimit="10" stroke-linecap="round" stroke-linejoin="round"/>
<path d="M102.097 18.9582L101.967 15.5178L103.82 14.7191L105.744 15.5024L105.508 20.0987L109.11 16.5805L111.308 16.1825L111.399 14.938L112.001 14.7761L114.108 16.6999L112.444 17.9353L112.342 19.7361L110.463 22.5507L102.167 20.5256L102.097 18.9582Z" fill="white"/>
<path d="M100.768 17.868C100.768 17.868 101.439 19.5348 102.971 18.8592C103.107 18.7995 103.249 18.7661 103.381 18.7652C103.626 18.7625 103.964 18.8357 104.172 19.2029C104.191 19.2373 104.208 19.2762 104.22 19.3142C104.309 19.5792 104.767 20.7278 105.866 20.0748C105.998 19.9952 106.135 19.9437 106.269 19.9301C106.518 19.902 106.85 19.9654 107.001 20.4357C107.294 21.8095 108.481 21.2831 108.737 21.1511C108.772 21.1321 108.809 21.1158 108.848 21.105C109.253 20.9856 109.546 21.1683 109.719 21.341C109.816 21.4351 109.894 21.5572 109.951 21.6956C110.574 23.2485 112.219 22.5213 112.219 22.5213L109.011 29.0496C109.011 29.0496 108.389 30.5808 107.171 30.0508L99.1346 26.783C97.891 26.3127 98.5124 24.7833 98.5124 24.7833L100.019 20.319" fill="#9DDC9D"/>
<path d="M105.906 29.4729L106.901 27.0282L107.249 26.1717C108.115 24.0399 110.385 22.297 112.036 22.9672L112.264 22.4083L108.189 29.7749C108.022 30.068 107.722 30.2109 107.481 30.1123L105.906 29.4729Z" fill="#89CE89"/>
<path d="M105.551 19.1568C105.539 19.1568 105.529 19.1568 105.516 19.1559C105.267 19.1369 105.082 18.9189 105.099 18.6702L105.336 15.5797C105.331 15.4811 104.55 15.1583 103.833 15.18C103.588 15.189 103.158 15.2704 102.799 15.426C102.444 15.5824 102.366 15.7217 102.366 15.738L102.558 17.3642C102.588 17.612 102.412 17.8363 102.162 17.8662C101.915 17.9041 101.689 17.7187 101.66 17.47L101.464 15.8076C101.448 15.4359 101.607 14.9602 102.435 14.5975C102.847 14.4175 103.382 14.2909 103.798 14.2755C104.55 14.2448 106.2 14.5469 106.239 15.5978L106 18.7398C105.984 18.9759 105.785 19.1568 105.551 19.1568Z" fill="#3F4A54"/>
<path d="M102.331 17.0886C102.089 17.0886 101.888 16.8969 101.879 16.6536C101.87 16.404 102.066 16.1941 102.315 16.1842L103.753 16.1317C104.025 16.1082 104.213 16.318 104.222 16.5668C104.231 16.8164 104.036 17.0262 103.787 17.0362L102.349 17.0886C102.342 17.0886 102.337 17.0886 102.331 17.0886Z" fill="#3F4A54"/>
<path d="M104.444 18.1496C104.202 18.1496 104.001 17.9579 103.992 17.7137C103.983 17.465 104.179 17.2542 104.428 17.2452L105.558 17.2045C105.804 17.1828 106.018 17.3908 106.027 17.6404C106.036 17.8891 105.842 18.0999 105.591 18.1089L104.46 18.1496C104.455 18.1496 104.45 18.1496 104.444 18.1496Z" fill="#3F4A54"/>
<path d="M103.817 15.1801C103.641 15.1801 103.478 15.0761 103.405 14.9142L103.042 14.1083C102.94 13.8804 103.04 13.6127 103.268 13.5096C103.444 13.4327 103.644 13.4734 103.773 13.6027L103.934 13.1912C104.027 12.9588 104.292 12.8439 104.521 12.9353C104.754 13.0275 104.869 13.2898 104.777 13.5213L104.239 14.8934C104.172 15.0634 104.011 15.1765 103.83 15.1801C103.825 15.1801 103.821 15.1801 103.817 15.1801Z" fill="#3F4A54"/>
<path d="M111.14 21.9197C111.045 21.9197 110.95 21.8898 110.868 21.8274C110.668 21.6773 110.629 21.3942 110.779 21.1943L111.56 20.1632C112.055 19.5907 112.179 18.8192 111.905 18.1264C111.843 17.9691 111.873 17.7909 111.982 17.6634L112.316 17.2799L111.341 16.4342L111.009 16.8168C110.898 16.9452 110.722 16.9968 110.562 16.9606C109.833 16.787 109.089 17.0203 108.616 17.5684L106.926 19.3881C106.756 19.5726 106.468 19.5835 106.288 19.4116C106.104 19.2416 106.094 18.9558 106.264 18.7731L107.943 16.9651C108.568 16.2398 109.526 15.8861 110.495 16.029L110.953 15.5008C111.118 15.3118 111.404 15.2919 111.591 15.4547L113.249 16.8919C113.342 16.9706 113.396 17.0818 113.405 17.2021C113.414 17.3215 113.375 17.44 113.296 17.5295L112.838 18.0586C113.108 18.9938 112.899 19.9968 112.262 20.7312L111.5 21.7388C111.413 21.8582 111.279 21.9197 111.14 21.9197Z" fill="#3F4A54"/>
<path d="M111.496 21.1442C111.281 21.1442 111.088 20.9886 111.051 20.768C110.947 20.1575 110.719 19.7342 110.377 19.5108C109.942 19.2277 109.439 19.3435 109.433 19.3435C109.4 19.3525 109.366 19.357 109.331 19.3579C109.257 19.3597 109.181 19.3652 109.107 19.3706C108.892 19.3887 108.642 19.405 108.384 19.3435C107.884 19.225 107.535 18.8614 107.28 18.5964C107.107 18.4164 107.112 18.1288 107.292 17.957C107.474 17.7824 107.761 17.7896 107.932 17.9696C108.162 18.2093 108.37 18.411 108.592 18.4644C108.716 18.4924 108.873 18.4815 109.039 18.4698C109.117 18.4644 109.193 18.458 109.269 18.4553C109.479 18.4164 110.203 18.3196 110.87 18.7538C111.432 19.1201 111.793 19.7468 111.943 20.6169C111.984 20.862 111.819 21.0963 111.572 21.1388C111.547 21.1424 111.521 21.1442 111.496 21.1442Z" fill="#3F4A54"/>
<path d="M113.401 17.8859C113.157 17.8859 112.925 17.7982 112.742 17.6399L110.926 16.0662C110.722 15.8916 110.601 15.6456 110.581 15.377C110.562 15.1075 110.648 14.8479 110.826 14.6453L110.894 14.5666C111.235 14.1723 111.905 14.1198 112.309 14.4716L114.125 16.0445C114.544 16.4099 114.59 17.0457 114.227 17.4635L114.164 17.5377C113.972 17.7602 113.694 17.8859 113.401 17.8859ZM111.718 15.1545C111.716 15.1563 111.572 15.1681 111.57 15.1699L111.505 15.244L111.519 15.3824L113.402 16.9824C113.417 16.9824 113.454 16.9787 113.482 16.9471L113.543 16.8738C113.581 16.8313 113.575 16.7644 113.533 16.7282L111.718 15.1545Z" fill="#3F4A54"/>
<path d="M109.897 18.0567C109.779 18.0567 109.662 18.0115 109.579 17.922C109.498 17.8397 109.445 17.7221 109.445 17.6045C109.445 17.4869 109.499 17.3693 109.579 17.2879C109.733 17.1161 110.05 17.1161 110.222 17.2879C110.304 17.3693 110.35 17.4869 110.35 17.6045C110.35 17.7221 110.304 17.8397 110.222 17.922C110.133 18.0115 110.014 18.0567 109.897 18.0567Z" fill="#3F4A54"/>
<path d="M107.67 30.6138C107.446 30.6138 107.216 30.564 106.988 30.4654L98.9612 27.2022C98.5388 27.043 98.2214 26.75 98.0495 26.3593C97.714 25.5896 98.0531 24.7114 98.092 24.6128L99.588 20.1747C99.6694 19.9387 99.9217 19.8139 100.162 19.8916C100.399 19.9712 100.526 20.2281 100.445 20.465L98.9404 24.9294C98.8626 25.1238 98.7233 25.6439 98.8807 26.0011C98.9548 26.1694 99.086 26.2833 99.2922 26.3611L107.34 29.6334C107.553 29.7265 107.727 29.7365 107.898 29.665C108.263 29.5167 108.527 29.0364 108.591 28.88L111.408 23.1431C111.147 23.1422 110.871 23.1132 110.598 23.0011C110.112 22.8048 109.753 22.4223 109.529 21.8651C109.497 21.7837 109.453 21.715 109.401 21.6643C109.228 21.4934 109.083 21.5079 108.973 21.5395C108.675 21.6906 107.986 21.9818 107.359 21.6851C106.949 21.4907 106.679 21.1018 106.557 20.5311C106.503 20.3755 106.429 20.3683 106.318 20.3809C106.251 20.3882 106.179 20.4153 106.097 20.4641C105.527 20.8024 105.076 20.7509 104.798 20.6477C104.166 20.4117 103.881 19.7379 103.788 19.4593C103.721 19.33 103.618 19.2269 103.384 19.2187C103.312 19.2196 103.232 19.2377 103.151 19.2748C102.602 19.5172 102.078 19.5407 101.592 19.3426C100.741 18.9962 100.363 18.0773 100.347 18.0384C100.253 17.8069 100.365 17.5437 100.597 17.4505C100.823 17.3583 101.092 17.4677 101.183 17.6993C101.194 17.7219 101.448 18.3107 101.938 18.5069C102.185 18.6082 102.466 18.5883 102.784 18.4481C102.988 18.3595 103.162 18.308 103.394 18.3161C103.903 18.3161 104.319 18.5531 104.563 18.9827C104.597 19.046 104.623 19.1084 104.645 19.1681C104.733 19.4322 104.91 19.7252 105.115 19.8012C105.251 19.8509 105.424 19.8129 105.634 19.689C105.827 19.5733 106.025 19.5036 106.22 19.4828C106.787 19.4123 107.243 19.7234 107.429 20.2986C107.501 20.6242 107.603 20.8015 107.747 20.8693C107.943 20.9607 108.281 20.8775 108.526 20.7509C108.587 20.7183 108.657 20.6903 108.724 20.6713C109.2 20.5302 109.667 20.655 110.036 21.0222C110.172 21.156 110.287 21.3324 110.366 21.5278C110.497 21.8516 110.683 22.0596 110.931 22.1627C111.424 22.3671 112.029 22.1111 112.034 22.1084C112.21 22.0333 112.412 22.075 112.543 22.2115C112.674 22.3481 112.706 22.5516 112.623 22.7216L109.415 29.2499C109.388 29.3186 109.018 30.186 108.238 30.5034C108.057 30.5767 107.864 30.6138 107.67 30.6138Z" fill="#3F4A54"/>
<path d="M109.474 31.4401C109.417 31.4401 109.359 31.4293 109.304 31.4067L100.701 27.911C100.47 27.8169 100.358 27.5529 100.452 27.3222C100.546 27.0916 100.81 26.9776 101.042 27.0744L109.645 30.5701C109.877 30.6641 109.988 30.9282 109.892 31.1589C109.822 31.3334 109.653 31.4401 109.474 31.4401Z" fill="#3F4A54"/>
<path d="M110.938 32.0403C110.821 32.0403 110.703 31.986 110.621 31.9055C110.54 31.825 110.486 31.7056 110.486 31.5881C110.486 31.4614 110.541 31.3439 110.621 31.2634C110.794 31.0997 111.092 31.0997 111.264 31.2634C111.346 31.3448 111.39 31.4623 111.39 31.5881C111.39 31.7056 111.346 31.8241 111.264 31.9055C111.183 31.9869 111.065 32.0403 110.938 32.0403Z" fill="#3F4A54"/>
<path d="M106.046 29.8785C105.981 29.8785 105.915 29.864 105.851 29.8342C105.625 29.7265 105.53 29.4561 105.638 29.2309L108.038 24.2049C108.146 23.9797 108.415 23.8848 108.642 23.9924C108.867 24.1 108.963 24.3704 108.854 24.5956L106.454 29.6216C106.377 29.7844 106.216 29.8785 106.046 29.8785Z" fill="#3F4A54"/>
<path d="M108.795 20.074C108.677 20.074 108.56 20.0288 108.479 19.9465C108.398 19.856 108.343 19.7393 108.343 19.6218C108.343 19.5042 108.398 19.3866 108.479 19.3043C108.65 19.1334 108.94 19.1334 109.111 19.3043C109.202 19.3957 109.247 19.5042 109.247 19.6218C109.247 19.7393 109.201 19.8569 109.119 19.9465C109.03 20.0288 108.913 20.074 108.795 20.074Z" fill="#3F4A54"/>
<path d="M150.621 50.8597L150.834 52.148L149.334 52.3948L148.7 51.1772L148.041 51.0633L147.627 47.3432L148.811 46.4692L148.852 42.4937L150.058 41.3358L151.678 41.0658L151.779 40.2961L152.135 39.945L153.759 39.676L154.227 40.647L156.412 40.324L157.766 41.5253L158.573 44.7598L160.415 45.4995L160.992 48.9938L160.231 49.1203L160.436 50.3599L158.805 50.8317L158.263 49.4581L150.621 50.8597Z" fill="white"/>
<path d="M149.025 46.5937C149.947 46.4429 150.827 47.0713 150.979 47.9933L151.407 50.5894L157.64 49.5608L157.212 46.9642C157.059 46.0438 157.689 45.1638 158.613 45.0108L158.138 43.5669C158.138 43.5669 152.408 43.1841 148.654 45.5166L149.025 46.5937Z" fill="#845EFC"/>
<path d="M153.402 43.8582L154.43 50.0916L157.641 49.56L157.212 46.9651C157.059 46.0425 157.69 45.163 158.612 45.0106L158.137 43.5667C158.138 43.5672 155.956 43.4231 153.402 43.8582Z" fill="#7D4BF6"/>
<path d="M154.38 48.9189L153.399 49.0813C153.184 49.1176 152.985 48.9827 152.951 48.781L152.686 47.1746C152.582 46.5423 153.048 45.9289 153.725 45.8174C154.401 45.7071 155.04 46.1359 155.146 46.7698L155.41 48.3757" fill="white"/>
<path d="M154.103 48.9654L155.085 48.803C155.298 48.7679 155.445 48.5758 155.412 48.3758L155.147 46.7699C155.042 46.1366 154.402 45.7078 153.727 45.8186C153.051 45.9289 152.583 46.5424 152.688 47.1752L152.952 48.7817" fill="white"/>
<path d="M158.715 45.1341C158.547 45.1614 158.379 45.0595 158.33 44.8911L157.544 42.2355C157.48 41.866 157.333 41.5649 157.11 41.3192C156.982 41.1807 156.99 40.9618 157.131 40.8334C157.27 40.705 157.487 40.7148 157.617 40.8555C157.932 41.1989 158.139 41.622 158.216 42.0819L158.991 44.6949C159.046 44.8782 158.942 45.068 158.759 45.1235C158.744 45.1272 158.731 45.1315 158.715 45.1341Z" fill="#3F4A54"/>
<path d="M148.86 46.7619C148.845 46.7634 148.832 46.7648 148.817 46.7658C148.626 46.7731 148.466 46.6259 148.459 46.4352L148.349 43.6687C148.136 42.4021 149.027 41.1602 150.335 40.9435L155.448 40.0999C155.816 40.04 156.182 40.0648 156.54 40.1716C156.721 40.2291 156.824 40.4207 156.769 40.6019C156.713 40.7837 156.522 40.8867 156.339 40.8315C156.083 40.7542 155.824 40.7366 155.56 40.7792L150.448 41.6223C149.513 41.7778 148.879 42.6629 149.032 43.5983L149.145 46.4081C149.154 46.5832 149.029 46.734 148.86 46.7619Z" fill="#3F4A54"/>
<path d="M154.059 40.5901C153.907 40.613 153.752 40.5342 153.688 40.3851L153.559 40.0868C153.559 40.0863 153.559 40.0846 153.559 40.0841C153.53 40.0765 153.485 40.0716 153.419 40.0833L152.796 40.185C152.608 40.2162 152.429 40.089 152.398 39.9012C152.368 39.7144 152.495 39.5357 152.684 39.5051L153.307 39.4029C153.736 39.3314 154.118 39.5238 154.204 39.8449L154.321 40.1145C154.396 40.2873 154.316 40.4909 154.141 40.5662C154.114 40.5764 154.087 40.5849 154.059 40.5901Z" fill="#3F4A54"/>
<path d="M151.811 40.9606C151.783 40.9641 151.754 40.9649 151.725 40.9645C151.537 40.9484 151.395 40.7824 151.411 40.5922L151.435 40.2682C151.45 40.0786 151.621 39.9382 151.806 39.9528C151.995 39.9678 152.138 40.1349 152.123 40.3234L152.097 40.648C152.084 40.8097 151.963 40.9359 151.811 40.9606Z" fill="#3F4A54"/>
<path d="M151.437 50.7726C151.249 50.8037 151.07 50.6765 151.04 50.4875L150.611 47.8926C150.49 47.1567 149.792 46.656 149.055 46.7768C148.317 46.8988 147.819 47.5972 147.94 48.3347L148.368 50.9291C148.398 51.1181 148.272 51.2957 148.085 51.3268C147.897 51.3579 147.719 51.2296 147.688 51.0418L147.26 48.4474C147.076 47.3352 147.831 46.2806 148.944 46.0963C150.055 45.9127 151.109 46.6695 151.294 47.7804L151.721 50.3765C151.751 50.565 151.625 50.7414 151.437 50.7726Z" fill="#3F4A54"/>
<path d="M161.023 49.1908C160.836 49.2219 160.658 49.0936 160.628 48.9068L160.198 46.3113C160.077 45.5738 159.378 45.0736 158.642 45.195C157.905 45.3164 157.405 46.0154 157.526 46.7524L157.954 49.3468C157.984 49.5358 157.858 49.7133 157.67 49.7444C157.483 49.7756 157.306 49.6478 157.274 49.4617L156.845 46.8645C156.662 45.7534 157.418 44.6971 158.53 44.5145C159.643 44.3303 160.696 45.086 160.879 46.1981L161.308 48.7953C161.338 48.9826 161.211 49.158 161.023 49.1908Z" fill="#3F4A54"/>
<path d="M154.434 49.2488L153.453 49.4095C153.058 49.4751 152.686 49.2178 152.62 48.8361L152.357 47.2291C152.222 46.4101 152.811 45.6303 153.67 45.4878C154.53 45.3454 155.339 45.8972 155.476 46.715L155.74 48.3187C155.769 48.5021 155.647 48.6734 155.465 48.7044C155.283 48.7354 155.112 48.6114 155.081 48.4291L154.816 46.8227C154.741 46.3677 154.276 46.0645 153.779 46.1478C153.283 46.2289 152.941 46.6643 153.016 47.1209L153.282 48.7256C153.283 48.74 153.309 48.756 153.343 48.7501L154.325 48.5883C154.506 48.5584 154.678 48.6819 154.708 48.8631C154.74 49.0459 154.615 49.2178 154.434 49.2488Z" fill="#3F4A54"/>
<path d="M161.679 49.2303L156.535 50.0792C156.348 50.1103 156.169 49.9837 156.138 49.7959C156.107 49.608 156.235 49.4299 156.423 49.3987L161.567 48.5504C161.756 48.5181 161.932 48.647 161.964 48.8337C161.994 49.0227 161.868 49.1992 161.679 49.2303Z" fill="#3F4A54"/>
<path d="M155.326 50.2793L147.478 51.5756C147.29 51.6068 147.112 51.4801 147.079 51.2934C147.049 51.1044 147.178 50.9268 147.363 50.8958L155.212 49.6C155.4 49.5689 155.577 49.6972 155.61 49.8839C155.64 50.0734 155.513 50.2499 155.326 50.2793Z" fill="#3F4A54"/>
<path d="M158.421 44.1294C158.4 44.1327 158.379 44.1338 158.356 44.1339C155.127 44.0648 152.755 44.4929 151.336 44.865C151.156 44.9132 150.963 44.8025 150.914 44.6202C150.867 44.4356 150.975 44.2462 151.16 44.1974C152.622 43.8157 155.06 43.3726 158.371 43.4434C158.56 43.4472 158.711 43.6052 158.707 43.7956C158.705 43.9649 158.581 44.1034 158.421 44.1294Z" fill="#3F4A54"/>
<path d="M149.013 45.6811C148.872 45.7054 148.722 45.6381 148.652 45.5031C148.563 45.3363 148.626 45.127 148.793 45.0396C148.809 45.0298 149.175 44.8369 149.892 44.5847C150.073 44.5254 150.268 44.6165 150.331 44.7957C150.394 44.9749 150.299 45.1722 150.118 45.236C149.46 45.4672 149.121 45.6454 149.118 45.6471C149.082 45.6659 149.048 45.6762 149.013 45.6811Z" fill="#3F4A54"/>
<path d="M150.057 48.1638C150.131 48.6233 149.822 49.0583 149.363 49.1357C148.903 49.2107 148.469 48.8989 148.393 48.439C148.317 47.9818 148.628 47.5478 149.088 47.471C149.546 47.3955 149.98 47.7056 150.057 48.1638Z" fill="white"/>
<path d="M160.668 50.915L149.488 52.7605C149.302 52.791 149.124 52.6644 149.094 52.4771C149.062 52.2898 149.189 52.1123 149.376 52.0806L160.556 50.2339C160.744 50.2028 160.921 50.3317 160.951 50.5196C160.983 50.7051 160.856 50.8838 160.668 50.915Z" fill="#3F4A54"/>
<path d="M161.745 50.7384C161.657 50.7524 161.562 50.7288 161.488 50.6768C161.416 50.6253 161.365 50.5426 161.351 50.4528C161.335 50.3642 161.358 50.2689 161.414 50.1956C161.516 50.0499 161.74 50.0134 161.89 50.1151C161.962 50.1689 162.014 50.2504 162.029 50.3407C162.043 50.43 162.02 50.5252 161.969 50.5972C161.917 50.6699 161.836 50.7226 161.745 50.7384Z" fill="#3F4A54"/>
<path d="M150.046 52.6538L149.819 52.6904C149.152 52.7999 148.564 52.4782 148.477 51.9602L148.334 51.0852C148.302 50.8962 148.431 50.7192 148.617 50.6881C148.805 50.6575 148.983 50.7858 149.014 50.9719L149.157 51.847C149.173 51.9334 149.392 52.0633 149.705 52.0105L149.934 51.9722C150.248 51.9204 150.413 51.7296 150.399 51.6426L150.254 50.7676C150.224 50.5803 150.35 50.4028 150.538 50.3722C150.726 50.3405 150.902 50.4677 150.934 50.6544L151.078 51.5305C151.165 52.0497 150.712 52.5442 150.046 52.6538Z" fill="#3F4A54"/>
<path d="M159.633 51.0708L159.404 51.1074C158.74 51.2169 158.152 50.8952 158.066 50.376L157.923 49.5005C157.891 49.3126 158.018 49.1351 158.205 49.104C158.393 49.0745 158.57 49.2006 158.602 49.389L158.746 50.2628C158.761 50.3509 158.979 50.4793 159.292 50.4275L159.522 50.3897C159.835 50.3374 160.002 50.1454 159.987 50.0596L159.843 49.1835C159.812 48.9956 159.939 48.8186 160.127 48.7875C160.314 48.7564 160.491 48.8841 160.522 49.0714L160.667 49.9464C160.754 50.4667 160.299 50.9607 159.633 51.0708Z" fill="#3F4A54"/>
<path d="M149.404 49.4047C148.798 49.5031 148.223 49.091 148.122 48.4825C148.022 47.8769 148.434 47.2999 149.043 47.1997C149.229 47.1697 149.408 47.2969 149.439 47.4842C149.469 47.671 149.343 47.8485 149.154 47.8791C148.921 47.9182 148.764 48.1383 148.802 48.3716C148.841 48.6037 149.06 48.7621 149.293 48.7231C149.527 48.6846 149.684 48.465 149.646 48.2317C149.64 48.2007 149.634 48.1692 149.62 48.1406C149.548 47.9661 149.63 47.7652 149.804 47.691C149.983 47.6162 150.182 47.7005 150.255 47.8749C150.288 47.9526 150.311 48.0343 150.325 48.1191C150.426 48.7281 150.014 49.3033 149.404 49.4047Z" fill="#3F4A54"/>
<path d="M159.801 46.5251C159.879 46.9833 159.567 47.4162 159.108 47.4935C158.649 47.5691 158.215 47.2584 158.14 46.8001C158.063 46.3402 158.374 45.9068 158.834 45.83C159.292 45.7533 159.726 46.0646 159.801 46.5251Z" fill="white"/>
<path d="M159.151 47.7629C158.544 47.8625 157.968 47.4498 157.868 46.8441C157.767 46.2357 158.18 45.6593 158.787 45.5597C158.975 45.5291 159.153 45.6558 159.183 45.8447C159.215 46.032 159.087 46.2085 158.901 46.2396C158.667 46.2781 158.51 46.4976 158.549 46.7315C158.587 46.9631 158.806 47.122 159.039 47.0836C159.272 47.0445 159.429 46.8244 159.392 46.5922C159.386 46.5618 159.378 46.5303 159.366 46.4983C159.295 46.3221 159.378 46.1223 159.555 46.0508C159.73 45.9811 159.932 46.0631 160.004 46.2393C160.036 46.318 160.059 46.3992 160.072 46.4796C160.172 47.0869 159.759 47.6633 159.151 47.7629Z" fill="#3F4A54"/>
<path d="M166.521 18.208L162.94 21.3733L154.886 17.446L156.476 11.9223L158.484 12.9021L159.957 10.6276L163.937 13.2896L166.521 18.208Z" fill="white"/>
<path d="M159.033 11.7806L159.929 10.4547L164.083 13.262" fill="white"/>
<path d="M158.833 12.1906C158.814 12.1802 158.795 12.1699 158.777 12.1586C158.568 12.0168 158.513 11.7331 158.655 11.5247L159.55 10.1997C159.692 9.9913 159.983 9.93163 160.184 10.0761L164.337 12.8842C164.547 13.0269 164.601 13.3097 164.459 13.5173C164.319 13.7266 164.029 13.7828 163.828 13.641L160.053 11.0879L159.411 12.0367C159.282 12.2261 159.034 12.2883 158.833 12.1906Z" fill="#3F4A54"/>
<path d="M165.694 15.032L165.368 17.796L161.326 17.3169L161.802 13.2763L165.845 13.7537" fill="white"/>
<path d="M161.124 17.728C160.955 17.645 160.849 17.4616 160.871 17.2653L161.349 13.223C161.378 12.9722 161.604 12.7932 161.854 12.8234L165.896 13.3C166.148 13.3294 166.325 13.556 166.299 13.8059C166.268 14.0567 166.042 14.2349 165.792 14.2046L162.201 13.7825L161.832 16.9176L164.969 17.2895L165.241 14.9786C165.269 14.7287 165.496 14.5497 165.746 14.5791C165.998 14.6085 166.177 14.8359 166.146 15.085L165.82 17.8482C165.806 17.9693 165.744 18.08 165.652 18.1544C165.556 18.2287 165.434 18.2625 165.315 18.2495L161.271 17.7695C161.218 17.7643 161.168 17.7496 161.124 17.728Z" fill="#3F4A54"/>
<path d="M159 13.1552L157.259 18.6038L162.99 21.399L167.998 17.5452L168 17.5435L159 13.1552Z" fill="#83FBFC"/>
<path d="M161.749 27.9909L153.942 24.1838C153.715 24.0731 153.621 23.7998 153.732 23.5732C153.844 23.3458 154.114 23.2532 154.342 23.3639L162.149 27.171C162.376 27.2817 162.47 27.5541 162.358 27.7807C162.249 28.0073 161.975 28.1024 161.749 27.9909Z" fill="#3F4A54"/>
<path d="M151.558 23.0174C151.452 22.9647 151.363 22.8747 151.326 22.7554C151.289 22.6429 151.294 22.5201 151.35 22.4077C151.402 22.3005 151.498 22.214 151.61 22.1751C151.836 22.0972 152.113 22.233 152.189 22.4587C152.228 22.5712 152.221 22.7 152.169 22.8064C152.114 22.9214 152.021 22.9993 151.907 23.0382C151.797 23.0771 151.668 23.0693 151.558 23.0174Z" fill="#3F4A54"/>
<path d="M162.065 23.2954L161.43 22.9858C161.204 22.8742 161.109 22.6027 161.219 22.3752C161.331 22.1486 161.602 22.0561 161.831 22.1668L162.465 22.4764C162.692 22.5871 162.786 22.8595 162.675 23.0861C162.565 23.3118 162.291 23.4052 162.065 23.2954Z" fill="#3F4A54"/>
<path d="M160.14 22.3574L155.383 20.0361C154.632 19.6703 154.235 18.8452 154.416 18.0288L156.402 9.14247C156.457 8.89253 156.336 8.64172 156.106 8.52842L154.998 7.98876C154.772 7.87806 154.678 7.60476 154.787 7.37817C154.897 7.15158 155.171 7.05645 155.397 7.16715L156.507 7.70855C157.118 8.00778 157.442 8.67977 157.29 9.34225L155.307 18.2286C155.216 18.629 155.414 19.0381 155.782 19.218L160.539 21.5383C160.767 21.6482 160.859 21.9206 160.75 22.1472C160.638 22.3738 160.367 22.4681 160.14 22.3574Z" fill="#3F4A54"/>
<path d="M154.498 24.4524C153.616 24.0225 153.248 22.9544 153.679 22.0714C154.11 21.1884 155.178 20.82 156.061 21.2515C156.277 21.3562 156.466 21.5015 156.621 21.6822C156.788 21.8725 156.768 22.1596 156.577 22.3248C156.388 22.4909 156.097 22.471 155.935 22.2807C155.859 22.1934 155.767 22.1224 155.66 22.0723C155.229 21.863 154.709 22.0412 154.5 22.471C154.29 22.9017 154.468 23.4232 154.898 23.6325C155.329 23.8426 155.85 23.6627 156.059 23.2329C156.087 23.1724 156.112 23.111 156.126 23.0452C156.187 22.8014 156.432 22.6491 156.677 22.7071C156.924 22.7659 157.072 23.0132 157.015 23.258C156.983 23.3886 156.939 23.5149 156.881 23.6333C156.45 24.5172 155.381 24.8839 154.498 24.4524Z" fill="#3F4A54"/>
<path d="M158.913 26.6074C158.031 26.1784 157.663 25.1095 158.094 24.2273C158.524 23.3434 159.593 22.9759 160.476 23.4048C160.692 23.5112 160.879 23.6565 161.038 23.8373C161.203 24.0275 161.183 24.3155 160.992 24.4798C160.802 24.6468 160.515 24.6269 160.348 24.4366C160.272 24.3475 160.18 24.2775 160.075 24.2273C159.644 24.0172 159.125 24.197 158.914 24.6269C158.705 25.0567 158.882 25.5782 159.313 25.7884C159.744 25.9985 160.265 25.8178 160.474 25.3879C160.504 25.3291 160.527 25.2669 160.541 25.2003C160.6 24.9555 160.847 24.805 161.092 24.8621C161.337 24.9209 161.487 25.1683 161.429 25.4139C161.398 25.5427 161.354 25.669 161.295 25.7892C160.864 26.6705 159.797 27.0389 158.913 26.6074Z" fill="#3F4A54"/>
<path d="M162.789 21.8085L155.277 18.145C155.05 18.0334 154.958 17.7601 155.068 17.5336C155.178 17.307 155.451 17.2144 155.677 17.3243L162.903 20.8494L166.086 17.819C166.268 17.6443 166.555 17.6538 166.731 17.8354C166.905 18.0179 166.896 18.3059 166.714 18.4806L163.304 21.7298C163.165 21.8604 162.959 21.8915 162.789 21.8085Z" fill="#3F4A54"/>
<path d="M167.169 17.6458L156.07 12.2318C155.845 12.1229 155.751 11.8496 155.861 11.6238C155.972 11.3964 156.245 11.3021 156.472 11.4128L167.568 16.8259C167.796 16.9375 167.889 17.209 167.779 17.4374C167.668 17.6631 167.396 17.7574 167.169 17.6458Z" fill="#3F4A54"/>
<path d="M162.674 18.8058L161.734 18.3474C161.506 18.2359 161.413 17.9634 161.523 17.736C161.633 17.5111 161.906 17.416 162.133 17.5276L163.074 17.9851C163.301 18.0958 163.395 18.3682 163.283 18.5948C163.173 18.8214 162.9 18.9165 162.674 18.8058Z" fill="#3F4A54"/>
<path d="M160.059 17.5295L155.846 15.4763C155.62 15.3639 155.525 15.0915 155.637 14.8649C155.747 14.6391 156.02 14.5449 156.247 14.6556L160.459 16.7096C160.684 16.8203 160.779 17.0936 160.669 17.3193C160.559 17.5476 160.286 17.6402 160.059 17.5295Z" fill="#3F4A54"/>
<path fill-rule="evenodd" clip-rule="evenodd" d="M140.133 28.8549C140.904 31.5188 139.086 34.3862 136.717 35.0722C134.35 35.7578 131.279 34.306 130.508 31.6421L129.749 29.0201C128.977 26.3562 130.797 23.4884 133.164 22.8028C135.533 22.1168 138.602 23.569 139.374 26.2329L140.133 28.8549Z" fill="#FA91DD"/>
<path fill-rule="evenodd" clip-rule="evenodd" d="M129.366 29.1308C128.53 26.2418 130.489 23.1628 133.054 22.42C135.058 21.8397 137.481 22.6601 138.855 24.386C138.992 24.5581 138.963 24.8088 138.791 24.9459C138.619 25.083 138.368 25.0545 138.231 24.8824C137.044 23.3906 134.947 22.7014 133.276 23.1855C131.105 23.8139 129.426 26.4704 130.132 28.9092C130.193 29.1205 130.071 29.3415 129.86 29.4027C129.649 29.4639 129.428 29.3422 129.366 29.1308Z" fill="#3F4A54"/>
<path fill-rule="evenodd" clip-rule="evenodd" d="M139.433 26.4386C139.644 26.3774 139.865 26.4992 139.927 26.7105L140.515 28.7438C140.577 28.9551 140.455 29.1761 140.244 29.2373C140.032 29.2985 139.811 29.1768 139.75 28.9654L139.161 26.9322C139.1 26.7208 139.222 26.4998 139.433 26.4386Z" fill="#3F4A54"/>
<path fill-rule="evenodd" clip-rule="evenodd" d="M138.438 27.967C139.152 30.4312 138.169 32.8798 136.244 33.4374C134.32 33.9946 132.18 32.4499 131.467 29.9857C130.753 27.522 131.736 25.0727 133.66 24.5154C135.586 23.9579 137.725 25.5033 138.438 27.967Z" fill="white"/>
<path fill-rule="evenodd" clip-rule="evenodd" d="M133.772 24.8981C132.141 25.3702 131.171 27.5292 131.85 29.8748C132.529 32.2209 134.503 33.5267 136.134 33.0545C137.765 32.5821 138.735 30.4238 138.056 28.0777C137.376 25.7322 135.403 24.4256 133.772 24.8981ZM131.085 30.0964C130.337 27.5147 131.332 24.775 133.55 24.1326C135.769 23.4899 138.074 25.2743 138.821 27.8561C139.569 30.4384 138.575 33.1773 136.355 33.82C134.137 34.4624 131.832 32.6788 131.085 30.0964Z" fill="#3F4A54"/>
<path fill-rule="evenodd" clip-rule="evenodd" d="M130.398 31.2588C130.61 31.1976 130.831 31.3193 130.892 31.5307C131.598 33.9695 134.437 35.3174 136.607 34.6889C138.779 34.0601 140.457 31.404 139.751 28.9652C139.69 28.7538 139.812 28.5328 140.023 28.4716C140.234 28.4104 140.455 28.5321 140.517 28.7435C141.353 31.6324 139.395 34.7112 136.829 35.4544C134.264 36.1972 130.963 34.6414 130.126 31.7524C130.065 31.541 130.187 31.32 130.398 31.2588Z" fill="#3F4A54"/>
<path fill-rule="evenodd" clip-rule="evenodd" d="M136.69 34.9779C136.902 34.9167 137.123 35.0385 137.184 35.2498L137.867 37.6075C137.928 37.8189 137.806 38.0399 137.595 38.1011C137.384 38.1623 137.163 38.0405 137.101 37.8292L136.419 35.4715C136.357 35.2601 136.479 35.0391 136.69 34.9779Z" fill="#3F4A54"/>
<path fill-rule="evenodd" clip-rule="evenodd" d="M130.065 39.8627C130.003 39.6513 130.125 39.4303 130.337 39.3691L132.855 38.6398C133.066 38.5786 133.287 38.7003 133.349 38.9117C133.41 39.1231 133.288 39.3441 133.077 39.4053L130.558 40.1346C130.347 40.1958 130.126 40.074 130.065 39.8627Z" fill="#3F4A54"/>
<path fill-rule="evenodd" clip-rule="evenodd" d="M134.125 38.687C134.064 38.4756 134.186 38.2546 134.397 38.1934L140.286 36.488C140.498 36.4268 140.719 36.5485 140.78 36.7599C140.841 36.9713 140.719 37.1922 140.508 37.2534L134.619 38.9589C134.407 39.0201 134.186 38.8984 134.125 38.687Z" fill="#3F4A54"/>
<path fill-rule="evenodd" clip-rule="evenodd" d="M129.412 34.1231L127.875 34.568L127.544 33.4221C127.52 33.3421 127.538 33.256 127.59 33.191L128.431 32.1658C128.56 32.0076 128.814 32.0599 128.871 32.256L129.412 34.1231Z" fill="#FA91DD"/>
<path fill-rule="evenodd" clip-rule="evenodd" d="M127.384 36.1199C127.322 35.9085 127.444 35.6875 127.656 35.6263L130.163 34.9001C130.375 34.8389 130.596 34.9606 130.657 35.172L131.583 38.3699C131.783 39.0608 131.481 39.8718 130.756 40.0818L129.924 40.3227C129.199 40.5325 128.51 40.0089 128.31 39.3178C128.249 39.1064 128.37 38.8854 128.582 38.8242C128.793 38.763 129.014 38.8847 129.075 39.0961C129.186 39.4778 129.506 39.6142 129.702 39.5573L130.534 39.3163C130.731 39.2593 130.928 38.9735 130.818 38.5916L130.002 35.7764L128.26 36.2809L128.762 38.0139C128.823 38.2252 128.701 38.4462 128.49 38.5074C128.279 38.5686 128.058 38.4469 127.996 38.2355L127.384 36.1199Z" fill="#3F4A54"/>
<mask id="mask0_2_1666" style="mask-type:luminance" maskUnits="userSpaceOnUse" x="124" y="20" width="19" height="21">
<path fill-rule="evenodd" clip-rule="evenodd" d="M128.703 40.6764L142.79 36.5971L138.249 20.9154L124.162 24.9948L128.703 40.6764Z" fill="white"/>
</mask>
<g mask="url(#mask0_2_1666)">
<path fill-rule="evenodd" clip-rule="evenodd" d="M127.22 34.7872C127.159 34.5758 127.281 34.3548 127.492 34.2936L129.588 33.6866C129.8 33.6254 130.021 33.7471 130.082 33.9585L130.451 35.2321C130.512 35.4435 130.39 35.6645 130.179 35.7257L128.083 36.3327C127.871 36.3939 127.65 36.2722 127.589 36.0608L127.22 34.7872ZM128.097 34.9482L128.244 35.4564L129.575 35.071L129.427 34.5629L128.097 34.9482Z" fill="#3F4A54"/>
<path fill-rule="evenodd" clip-rule="evenodd" d="M128.565 32.6305L127.948 33.3836L128.148 34.0741L128.919 33.8509L128.565 32.6305ZM128.123 31.9129C128.456 31.5068 129.108 31.6404 129.254 32.1448L129.795 34.012C129.856 34.2234 129.735 34.4443 129.523 34.5056L127.987 34.9504C127.776 35.0116 127.555 34.8899 127.493 34.6785L127.162 33.5327C127.102 33.3277 127.146 33.1066 127.281 32.9399L127.283 32.9381L128.123 31.9129Z" fill="#3F4A54"/>
<path fill-rule="evenodd" clip-rule="evenodd" d="M133.564 25.8521C133.564 25.8521 132.972 26.2308 132.873 26.7977L133.564 25.8521Z" fill="white"/>
<path fill-rule="evenodd" clip-rule="evenodd" d="M133.9 25.6372C134.018 25.8221 133.965 26.0677 133.781 26.1867C133.78 26.187 133.78 26.1873 133.779 26.1876L133.565 25.852C133.779 26.1876 133.779 26.1877 133.779 26.1876L133.78 26.1872L133.781 26.1867C133.78 26.187 133.78 26.1873 133.779 26.1876C133.777 26.189 133.773 26.1918 133.767 26.1958C133.756 26.2038 133.738 26.2169 133.715 26.2346C133.669 26.2702 133.607 26.323 133.542 26.3895C133.407 26.5293 133.296 26.6959 133.266 26.8665C133.228 27.0832 133.021 27.2281 132.805 27.1901C132.588 27.152 132.443 26.9455 132.481 26.7287C132.55 26.3325 132.785 26.0263 132.97 25.835C133.066 25.736 133.158 25.6586 133.226 25.6056C133.26 25.5789 133.289 25.5579 133.31 25.543C133.321 25.5355 133.33 25.5296 133.336 25.5251L133.345 25.5196L133.348 25.5177L133.349 25.517L133.35 25.5166C133.35 25.5165 133.35 25.5164 133.565 25.852L133.35 25.5166C133.535 25.3979 133.781 25.4519 133.9 25.6372Z" fill="#3F4A54"/>
</g>
</svg>
