<svg width="26" height="20" viewBox="0 0 26 20" fill="none" xmlns="http://www.w3.org/2000/svg">
<path fill-rule="evenodd" clip-rule="evenodd" d="M4.52137 11.5763C5.1944 11.9765 5.84974 12.4518 6.21448 13.1968C7.03998 14.8818 6.29703 16.8945 4.55674 17.6933C4.54411 17.699 4.53232 17.7007 4.51968 17.7064L5.39488 19.4916L7.65489 18.4547L19.9329 12.8227L14.7601 3.35768L0.660052 9.82608L1.53441 11.6113C1.54704 11.6064 1.55547 11.5975 1.5681 11.5926C1.89999 11.4401 2.2445 11.3423 2.58987 11.2967C2.58987 11.2967 3.82222 11.1597 4.52137 11.5763Z" fill="#C367D6"/>
<path fill-rule="evenodd" clip-rule="evenodd" d="M15.2383 10.4911C15.2383 12.6856 13.3986 14.4651 11.131 14.4651C8.8634 14.4651 7.02456 12.6856 7.02456 10.4911C7.02456 8.29589 8.8634 6.51718 11.131 6.51718C13.3986 6.51718 15.2383 8.29589 15.2383 10.4911Z" fill="white"/>
<path fill-rule="evenodd" clip-rule="evenodd" d="M24.8378 8.51416L24.7182 8.27124C24.602 8.32504 24.4798 8.35439 24.3602 8.39515C24.5144 8.44895 24.6769 8.48156 24.8378 8.51416Z" fill="white"/>
<path d="M19.4943 12.8719L19.1439 12.1561" stroke="#3F4A54" stroke-width="1.3" stroke-linecap="round" stroke-linejoin="round"/>
<path d="M18.3443 10.5232L15.5461 4.80962" stroke="#3F4A54" stroke-width="1.3" stroke-linecap="round" stroke-linejoin="round" stroke-dasharray="2.22 2.22"/>
<path d="M15.1462 3.99415L14.795 3.27842" stroke="#3F4A54" stroke-width="1.3" stroke-linecap="round" stroke-linejoin="round"/>
<path d="M4.52147 11.4242C5.23999 11.7437 5.84985 12.2997 6.21458 13.0447C7.04008 14.7297 6.29713 16.7424 4.55684 17.5412C4.54421 17.5469 4.53242 17.5486 4.51978 17.5543L5.39498 19.3395" stroke="#3F4A54" stroke-width="1.3" stroke-linecap="round" stroke-linejoin="round"/>
<path d="M14.7605 3.20563L0.660424 9.67403L1.53478 11.4593C1.54657 11.4544 1.55584 11.4454 1.56847 11.4405C1.89951 11.2881 2.24488 11.1911 2.59024 11.1454" stroke="#3F4A54" stroke-width="1.3" stroke-linecap="round" stroke-linejoin="round"/>
<path d="M22.0782 8.81962C21.0008 8.63702 20.0279 7.96858 19.5242 6.93901C18.6978 5.25405 19.4408 3.24139 21.1819 2.44252L20.3084 0.660548L19.29 1.12683L18.5428 1.47083L17.6912 1.86048L16.3494 2.47675" stroke="#3F4A54" stroke-width="1.3" stroke-linecap="round" stroke-linejoin="round"/>
<path d="M7.65472 18.3032L25.0441 10.3259L24.1698 8.54397" stroke="#3F4A54" stroke-width="1.3" stroke-linecap="round" stroke-linejoin="round"/>
<path d="M12.624 10.0192L13.351 11.2264L11.9476 11.5517L10.9865 12.5943L10.2317 11.4025L8.91095 10.8392L9.84848 9.77789L9.99421 8.3872L10.3842 8.54371L11.3276 8.92277L12.7386 8.62686" stroke="#3F4A54" stroke-width="1.3" stroke-linecap="round" stroke-linejoin="round"/>
</svg>
