<svg width="30" height="30" viewBox="0 0 30 30" fill="none" xmlns="http://www.w3.org/2000/svg">
<rect width="30" height="30" fill="white" fill-opacity="0.01"/>
<path fill-rule="evenodd" clip-rule="evenodd" d="M12.1383 9.47809L12.3783 7.78384L17.6831 8.53609" fill="white"/>
<path d="M12.1383 9.47809L12.3783 7.78384L17.6831 8.53609" stroke="#3F4A54" stroke-linecap="round" stroke-linejoin="round"/>
<path fill-rule="evenodd" clip-rule="evenodd" d="M20.0601 9.4804L21.0419 12.2869L16.9356 13.7231L15.4994 9.61765L19.6056 8.1814" fill="white"/>
<path d="M20.0601 9.4804L21.0419 12.2869L16.9356 13.7231L15.4994 9.61765L19.6056 8.1814" stroke="#3F4A54" stroke-linecap="round" stroke-linejoin="round"/>
<path fill-rule="evenodd" clip-rule="evenodd" d="M12.7513 10.8117L13.6311 16.8612H20.4456L23.4508 10.8132V10.8117H12.7513Z" fill="#83FBFC"/>
<path d="M22.343 23.2862H13.061" stroke="#3F4A54" stroke-linecap="round" stroke-linejoin="round"/>
<path d="M19.6888 18.6304H20.4456" stroke="#3F4A54" stroke-linecap="round" stroke-linejoin="round"/>
<path d="M6.48767 7.2375H7.80542C8.30342 7.2375 8.73617 7.57875 8.85092 8.06325L11.1084 17.529C11.2622 18.1748 11.8397 18.63 12.5034 18.63H18.1584" stroke="#3F4A54" stroke-linecap="round" stroke-linejoin="round"/>
<path d="M15.1017 21.5542C15.1242 21.6562 15.137 21.762 15.137 21.8707C15.137 22.6522 14.5032 23.2867 13.721 23.2867C12.9395 23.2867 12.3057 22.6522 12.3057 21.8707C12.3057 21.0885 12.9395 20.4547 13.721 20.4547C13.9167 20.4547 14.1027 20.4945 14.273 20.5665" stroke="#3F4A54" stroke-linecap="round" stroke-linejoin="round"/>
<path d="M20.3517 21.5542C20.3742 21.6562 20.387 21.762 20.387 21.8707C20.387 22.6522 19.7532 23.2867 18.971 23.2867C18.1895 23.2867 17.5557 22.6522 17.5557 21.8707C17.5557 21.0885 18.1895 20.4547 18.971 20.4547C19.1667 20.4547 19.3527 20.4945 19.523 20.5665" stroke="#3F4A54" stroke-linecap="round" stroke-linejoin="round"/>
<path d="M22.1995 12.1426L20.4453 16.8609H11.5143" stroke="#3F4A54" stroke-linecap="round" stroke-linejoin="round"/>
<path d="M9.50671 10.8117H22.7015" stroke="#3F4A54" stroke-linecap="round" stroke-linejoin="round"/>
<path d="M17.8102 14.0314H18.9277" stroke="#3F4A54" stroke-linecap="round" stroke-linejoin="round"/>
<path d="M10.8112 14.0314H15.8197" stroke="#3F4A54" stroke-linecap="round" stroke-linejoin="round"/>
</svg>
