<svg width="27" height="25" viewBox="0 0 27 25" fill="none" xmlns="http://www.w3.org/2000/svg">
<rect width="26.7975" height="25" fill="white" fill-opacity="0.01"/>
<path fill-rule="evenodd" clip-rule="evenodd" d="M5.12532 11.4978C5.12532 11.4978 6.51075 12.8353 7.80172 11.5903C7.91762 11.4791 8.04759 11.3935 8.18559 11.3403C8.43615 11.2428 8.814 11.1822 9.18179 11.4528C9.21529 11.4785 9.24678 11.5091 9.27692 11.5416C9.47858 11.7603 10.4285 12.6822 11.2861 11.6272C11.3886 11.501 11.5071 11.3991 11.6391 11.3328C11.8823 11.2091 12.2508 11.1391 12.6012 11.5316C13.4774 12.7353 14.477 11.7666 14.684 11.5416C14.7141 11.5091 14.745 11.4785 14.7791 11.4535C15.1469 11.1822 15.5241 11.2428 15.7747 11.3403C15.9133 11.3935 16.0433 11.4791 16.1592 11.5903C17.4495 12.8353 18.8356 11.4978 18.8356 11.4978L18.2662 19.0066C18.2662 19.0066 18.2662 20.7178 16.7916 20.6841L7.1693 20.6835C5.69476 20.7172 5.69476 19.0066 5.69476 19.0066L5.37855 14.141" fill="#9DDC9D"/>
<path fill-rule="evenodd" clip-rule="evenodd" d="M15.2535 20.6218V17.8905V16.9343C15.2535 14.5524 16.8574 11.9968 18.8357 11.9968V11.3718L17.7243 20.0212C17.6767 20.368 17.4275 20.6218 17.1361 20.6218H15.2535Z" fill="#89CE89"/>
<path d="M10.3899 10.4366L9.34209 7.38221C9.05402 6.78346 7.58819 7.03158 6.94639 7.30033C6.30459 7.56908 5.1322 8.42596 5.42027 9.02471L6.31598 10.5428" stroke="#3F4A54" stroke-linecap="round" stroke-linejoin="round"/>
<path d="M6.2185 9.70754L7.67495 9.09754" stroke="#3F4A54" stroke-linecap="round" stroke-linejoin="round"/>
<path d="M8.83431 9.90262L9.97856 9.42324" stroke="#3F4A54" stroke-linecap="round" stroke-linejoin="round"/>
<path d="M6.2361 6.67024L6.9469 7.30024L6.9268 5.77524" stroke="#3F4A54" stroke-linecap="round" stroke-linejoin="round"/>
<path d="M17.2904 10.9067L17.6622 9.61483C17.9945 8.70295 17.7151 7.73608 17.0431 7.08295L17.3862 6.14295L15.0822 5.4117L14.7392 6.35108C13.7799 6.48608 12.9257 7.09233 12.5927 8.0042L11.622 10.3917" stroke="#3F4A54" stroke-linecap="round" stroke-linejoin="round"/>
<path d="M12.3264 9.23152C12.6962 9.38402 13.0921 9.53965 13.4914 9.48215C13.7976 9.4384 14.0669 9.27465 14.3509 9.16027C14.3509 9.16027 16.0023 8.02902 17.3308 10.0253" stroke="#3F4A54" stroke-linecap="round" stroke-linejoin="round"/>
<path fill-rule="evenodd" clip-rule="evenodd" d="M17.4987 6.17201L14.9737 5.37013C14.6542 5.26826 14.4813 4.94076 14.5898 4.64263L14.626 4.54451C14.7352 4.24638 15.0856 4.08513 15.4058 4.18701L17.9308 4.98888C18.2504 5.09076 18.4226 5.41763 18.314 5.71638L18.2779 5.81388C18.1693 6.11263 17.8189 6.27388 17.4987 6.17201Z" stroke="#3F4A54" stroke-linecap="round" stroke-linejoin="round"/>
<path d="M5.12532 11.4978C5.12532 11.4978 6.51075 12.8353 7.80172 11.5903C7.91762 11.4791 8.04759 11.3935 8.18559 11.3403C8.43615 11.2428 8.814 11.1822 9.18179 11.4528C9.21529 11.4785 9.24678 11.5091 9.27692 11.5416C9.47858 11.7603 10.4285 12.6822 11.2861 11.6272C11.3886 11.501 11.5071 11.3991 11.6391 11.3328C11.8823 11.2091 12.2508 11.1391 12.6012 11.5316C13.4774 12.7353 14.477 11.7666 14.684 11.5416C14.7141 11.5091 14.745 11.4785 14.7791 11.4535C15.1469 11.1822 15.5241 11.2428 15.7747 11.3403C15.9133 11.3935 16.0433 11.4791 16.1592 11.5903C17.4495 12.8353 18.8356 11.4978 18.8356 11.4978L18.2662 19.0066C18.2662 19.0066 18.2662 20.7178 16.7916 20.6841L7.1693 20.6835C5.69476 20.7172 5.69476 19.0066 5.69476 19.0066L5.37855 14.141" stroke="#3F4A54" stroke-linecap="round" stroke-linejoin="round"/>
<path d="M19.5526 20.6844H9.25158" stroke="#3F4A54" stroke-linecap="round" stroke-linejoin="round"/>
<path d="M15.748 14.7682L15.3782 20.5232" stroke="#3F4A54" stroke-linecap="round" stroke-linejoin="round"/>
</svg>
