<svg width="26" height="20" viewBox="0 0 26 20" fill="none" xmlns="http://www.w3.org/2000/svg">
<path fill-rule="evenodd" clip-rule="evenodd" d="M4.52131 11.5761C5.19434 11.9764 5.84967 12.4516 6.2144 13.1967C7.03989 14.8816 6.29695 16.8942 4.55669 17.6931C4.54405 17.6988 4.53226 17.7004 4.51962 17.7061L5.39481 19.4914L7.6548 18.4545L19.9327 12.8225L14.7599 3.35764L0.660044 9.82596L1.53439 11.6112C1.54702 11.6063 1.55545 11.5973 1.56808 11.5924C1.89996 11.44 2.24448 11.3422 2.58983 11.2965C2.58983 11.2965 3.82217 11.1596 4.52131 11.5761Z" fill="#C783F2"/>
<path fill-rule="evenodd" clip-rule="evenodd" d="M15.2381 10.491C15.2381 12.6854 13.3984 14.4649 11.1309 14.4649C8.86329 14.4649 7.02447 12.6854 7.02447 10.491C7.02447 8.29578 8.86329 6.5171 11.1309 6.5171C13.3984 6.5171 15.2381 8.29578 15.2381 10.491Z" fill="white"/>
<path fill-rule="evenodd" clip-rule="evenodd" d="M24.8375 8.51406L24.7179 8.27114C24.6017 8.32494 24.4795 8.35429 24.3599 8.39505C24.5141 8.44885 24.6766 8.48145 24.8375 8.51406Z" fill="white"/>
<path d="M19.4941 12.8717L19.1437 12.156" stroke="#3F4A54" stroke-width="1.3" stroke-linecap="round" stroke-linejoin="round"/>
<path d="M18.3441 10.523L15.5459 4.80956" stroke="#3F4A54" stroke-width="1.3" stroke-linecap="round" stroke-linejoin="round" stroke-dasharray="2.22 2.22"/>
<path d="M15.146 3.9941L14.7948 3.27838" stroke="#3F4A54" stroke-width="1.3" stroke-linecap="round" stroke-linejoin="round"/>
<path d="M4.52141 11.4241C5.23992 11.7437 5.84977 12.2996 6.2145 13.0447C7.03999 14.7296 6.29705 16.7423 4.55679 17.5411C4.54415 17.5468 4.53236 17.5485 4.51973 17.5542L5.39491 19.3394" stroke="#3F4A54" stroke-width="1.3" stroke-linecap="round" stroke-linejoin="round"/>
<path d="M14.7603 3.20559L0.660416 9.67391L1.53476 11.4591C1.54655 11.4542 1.55582 11.4453 1.56845 11.4404C1.89949 11.2879 2.24485 11.1909 2.59021 11.1453" stroke="#3F4A54" stroke-width="1.3" stroke-linecap="round" stroke-linejoin="round"/>
<path d="M22.0779 8.81951C21.0005 8.63691 20.0276 7.96848 19.5239 6.93893C18.6976 5.25399 19.4405 3.24135 21.1816 2.44249L20.3081 0.66054L19.2898 1.12681L18.5426 1.47081L17.691 1.86046L16.3492 2.47672" stroke="#3F4A54" stroke-width="1.3" stroke-linecap="round" stroke-linejoin="round"/>
<path d="M7.65462 18.303L25.0438 10.3258L24.1695 8.54386" stroke="#3F4A54" stroke-width="1.3" stroke-linecap="round" stroke-linejoin="round"/>
<path d="M12.6239 10.0191L13.3508 11.2263L11.9475 11.5516L10.9864 12.5942L10.2316 11.4024L8.91084 10.8391L9.84836 9.77777L9.99408 8.3871L10.3841 8.54361L11.3275 8.92266L12.7384 8.62675" stroke="#3F4A54" stroke-width="1.3" stroke-linecap="round" stroke-linejoin="round"/>
</svg>
