<svg width="48" height="48" viewBox="0 0 48 48" fill="none" xmlns="http://www.w3.org/2000/svg">
<rect x="4.96362" y="4.88794" width="36" height="36" fill="white" fill-opacity="0.01"/>
<path fill-rule="evenodd" clip-rule="evenodd" d="M33.1106 23.1537C33.1106 27.2253 29.3756 30.5265 25.7549 30.5265C22.136 30.5265 18.3992 27.2253 18.3992 23.1537V19.146C18.3992 15.0744 22.136 11.7732 25.7549 11.7732C29.3756 11.7732 33.1106 15.0744 33.1106 19.146V23.1537Z" fill="#FE71A0"/>
<path d="M32.5913 16.5522C31.442 13.7604 28.5638 11.7732 25.7549 11.7732C22.136 11.7732 18.3992 15.0744 18.3992 19.146" stroke="#3F4A54" stroke-width="1.3" stroke-linecap="round" stroke-linejoin="round"/>
<path d="M33.1108 20.0454V23.1531" stroke="#3F4A54" stroke-width="1.3" stroke-linecap="round" stroke-linejoin="round"/>
<path fill-rule="evenodd" clip-rule="evenodd" d="M31.0828 21.2089C31.0828 24.9754 28.6978 28.0273 25.7548 28.0273C22.8136 28.0273 20.4277 24.9754 20.4277 21.2089C20.4277 17.4433 22.8136 14.3905 25.7548 14.3905C28.6978 14.3905 31.0828 17.4433 31.0828 21.2089Z" fill="white"/>
<path fill-rule="evenodd" clip-rule="evenodd" d="M31.0828 21.2089C31.0828 24.9754 28.6978 28.0273 25.7548 28.0273C22.8136 28.0273 20.4277 24.9754 20.4277 21.2089C20.4277 17.4433 22.8136 14.3905 25.7548 14.3905C28.6978 14.3905 31.0828 17.4433 31.0828 21.2089Z" stroke="#3F4A54" stroke-width="1.3" stroke-linecap="round" stroke-linejoin="round"/>
<path d="M33.1106 23.1532C33.1106 27.2248 29.3756 30.526 25.7549 30.526C22.136 30.526 18.3992 27.2248 18.3992 23.1532" stroke="#3F4A54" stroke-width="1.3" stroke-linecap="round" stroke-linejoin="round"/>
<path d="M25.7547 30.9685V34.5721" stroke="#3F4A54" stroke-width="1.3" stroke-linecap="round" stroke-linejoin="round"/>
<path d="M18.852 34.565H15.0027" stroke="#3F4A54" stroke-width="1.3" stroke-linecap="round" stroke-linejoin="round"/>
<path d="M30.2082 34.565H21.2064" stroke="#3F4A54" stroke-width="1.3" stroke-linecap="round" stroke-linejoin="round"/>
<path fill-rule="evenodd" clip-rule="evenodd" d="M15.8399 26.2045H13.4918V24.4531C13.4918 24.3307 13.5512 24.2164 13.652 24.1462L15.2558 23.0437C15.5033 22.8736 15.8399 23.0509 15.8399 23.3506V26.2045Z" fill="#FE71A0"/>
<path d="M12.7491 33.0808C12.7491 33.9007 13.326 34.5721 14.0298 34.5721H15.3015C16.0062 34.5721 16.5822 33.9007 16.5822 33.0808V28.1929H12.7491V29.6086V31.4266" stroke="#3F4A54" stroke-width="1.3" stroke-linecap="round" stroke-linejoin="round"/>
<mask id="mask0_3244_11539" style="mask-type:luminance" maskUnits="userSpaceOnUse" x="12" y="11" width="22" height="25">
<path fill-rule="evenodd" clip-rule="evenodd" d="M12.1636 35.1568H33.6952V11.188H12.1636V35.1568Z" fill="white"/>
</mask>
<g mask="url(#mask0_3244_11539)">
<path fill-rule="evenodd" clip-rule="evenodd" d="M13.0629 28.1919H16.2669V26.2452H13.0629V28.1919Z" stroke="#3F4A54" stroke-width="1.3" stroke-linecap="round" stroke-linejoin="round"/>
<path fill-rule="evenodd" clip-rule="evenodd" d="M15.8399 26.2045H13.4918V24.4531C13.4918 24.3307 13.5512 24.2164 13.652 24.1462L15.2558 23.0437C15.5033 22.8736 15.8399 23.0509 15.8399 23.3506V26.2045Z" stroke="#3F4A54" stroke-width="1.3" stroke-linecap="round" stroke-linejoin="round"/>
<path fill-rule="evenodd" clip-rule="evenodd" d="M25.0732 16.2356C25.0732 16.2356 24.0841 16.5281 23.7124 17.2868L25.0732 16.2356Z" fill="white"/>
<path d="M25.0732 16.2356C25.0732 16.2356 24.0841 16.5281 23.7124 17.2868" stroke="#3F4A54" stroke-width="1.3" stroke-linecap="round" stroke-linejoin="round"/>
</g>
<path d="M46.5 24C46.5 11.5736 36.4264 1.50001 24 1.50001C11.5736 1.50001 1.5 11.5736 1.5 24C1.5 36.4264 11.5736 46.5 24 46.5" stroke="#F5ECDF" stroke-width="3" stroke-linecap="round"/>
<path d="M24 46.5C36.4264 46.5 46.5 36.4264 46.5 24C46.5 11.5736 36.4264 1.5 24 1.5" stroke="#1EB290" stroke-width="3" stroke-linecap="round"/>
</svg>
