<svg width="23" height="16" viewBox="0 0 23 16" fill="none" xmlns="http://www.w3.org/2000/svg">
<path fill-rule="evenodd" clip-rule="evenodd" d="M15.1894 11.4322C15.1894 11.072 15.4812 10.7812 15.8403 10.7812H18.0102C18.3694 10.7812 18.6601 11.072 18.6601 11.4322C18.6601 11.7924 18.3694 12.0832 18.0102 12.0832H15.8403C15.4812 12.0832 15.1894 11.7924 15.1894 11.4322ZM21.6988 4.15936H1.30158V2.82161C1.30158 1.98402 1.98294 1.30158 2.82052 1.30158H20.1798C21.0163 1.30158 21.6988 1.98402 21.6988 2.82161V4.15936ZM21.6988 12.5836C21.6988 13.4211 21.0163 14.1036 20.1798 14.1036H2.82052C1.98294 14.1036 1.30158 13.4211 1.30158 12.5836V5.45974H21.6988V12.5836ZM20.1802 0H2.82089C1.26506 0 0 1.26506 0 2.82089V12.5844C0 14.1402 1.26506 15.4053 2.82089 15.4053H20.1802C21.7349 15.4053 23 14.1402 23 12.5844V2.82089C23 1.26506 21.7349 0 20.1802 0Z" fill="white"/>
</svg>
