<svg width="257" height="203" viewBox="0 0 257 203" fill="none" xmlns="http://www.w3.org/2000/svg">
<circle cx="129.878" cy="100.571" r="100.571" fill="url(#paint0_radial_279_5240)"/>
<ellipse cx="136.717" cy="184.651" rx="120.283" ry="18.1028" fill="url(#paint1_linear_279_5240)"/>
<path d="M38.1581 160.514C45.6674 155.016 59.1573 138.629 53.0426 117.067" stroke="#EADECE" stroke-width="2"/>
<path d="M75.168 119.882C70.0201 123.751 60.7722 135.282 64.9641 150.455" stroke="#EADECE" stroke-width="2"/>
<path d="M124.799 53.3573C131.159 55.8325 130.489 58.6376 129.358 59.7307C132.055 61.2875 130.137 66.166 128.841 68.4107C124.781 78.0379 116.155 98.946 114.134 105.56C112.112 112.175 108.236 111.883 106.551 110.91C92.5222 105.803 62.0704 94.8057 52.495 91.6716C40.5257 87.754 40.7635 88.6395 40.1364 84.5364C37.3188 81.1139 37.4783 78.7619 37.9103 78.0136C42.5463 65.2271 52.3538 38.4669 54.4963 33.7181C56.6388 28.9694 60.0119 28.9216 61.4306 29.4913C79.9031 36.4153 118.438 50.8822 124.799 53.3573Z" fill="#ACCE5B"/>
<path d="M90.1362 78.3726L83.9778 76.29C81.8929 82.451 82.997 83.0885 85.2052 84.3634C86.9718 85.3834 89.2286 80.7945 90.1362 78.3726Z" fill="#F07374"/>
<path d="M82.7926 80.2554C87.0619 80.0042 88.0817 81.7246 88.0579 82.6163C87.3837 83.3588 85.7039 84.6524 84.3783 83.887C82.7212 82.9303 82.4986 80.7647 82.7926 80.2554Z" fill="#F181A8"/>
<path d="M137.034 71.3405C134.198 76.2523 127.849 77.6968 125.029 77.805C123.955 79.6655 121.694 84.3634 121.243 88.2706C134.698 81.8993 135.746 78.7828 137.921 76.3177C140.096 73.8526 138.807 70.8756 137.034 71.3405Z" fill="#ACCE5B"/>
<ellipse cx="58.2585" cy="64.3891" rx="3.34851" ry="3.82687" transform="rotate(30 58.2585 64.3891)" fill="#FBE885"/>
<path d="M107.462 50.905L83.4588 41.9637L77.664 39.8051L63.9244 34.69C61.2187 33.7839 58.2823 35.2448 57.3758 37.9557L51.1948 54.7872" stroke="#3F4A54" stroke-width="1.5" stroke-miterlimit="10" stroke-linecap="round" stroke-linejoin="round"/>
<path d="M120.144 91.3606L130.4 64.864C131.348 62.1666 129.93 59.216 127.233 58.2702L113.584 53.1836" stroke="#3F4A54" stroke-width="1.5" stroke-miterlimit="10" stroke-linecap="round" stroke-linejoin="round"/>
<path d="M46.4664 67.2428L40.817 82.4201C39.9033 85.1295 41.357 88.0644 44.067 88.9771L107.162 111.432C109.884 112.307 112.797 110.809 113.669 108.087L118.044 96.7924" stroke="#3F4A54" stroke-width="1.5" stroke-miterlimit="10" stroke-linecap="round" stroke-linejoin="round"/>
<path d="M53.2509 37.5377L38.4139 77.3829C37.5025 80.0883 37.9705 82.4931 40.6799 83.4068" stroke="#3F4A54" stroke-width="1.5" stroke-miterlimit="10" stroke-linecap="round" stroke-linejoin="round"/>
<path d="M129.739 60.1346C130.689 57.4383 129.001 54.977 126.303 54.0295L111.927 48.6197L107.29 46.8711L94.9743 42.2369L86.2868 38.9674L81.496 37.1652L80.0765 36.632L61.522 29.6471C58.8163 28.7409 55.8807 30.205 54.9734 32.9127" stroke="#3F4A54" stroke-width="1.5" stroke-miterlimit="10" stroke-linecap="round" stroke-linejoin="round"/>
<path d="M86.4563 104.503C86.4563 104.503 84.9884 113.964 83.5967 113.626C82.2042 113.29 79.0964 102.647 78.9071 101.482" fill="#ACCE5B"/>
<path d="M86.4563 104.503C86.4563 104.503 84.9884 113.964 83.5967 113.626C82.2042 113.29 79.0964 102.647 78.9071 101.482" stroke="#3F4A54" stroke-width="1.5" stroke-miterlimit="10" stroke-linecap="round" stroke-linejoin="round"/>
<path d="M65.0874 97.0018C65.0874 97.0018 64.1508 98.6242 63.497 99.7565C60.7311 98.6639 58.2816 98.6326 57.628 99.765C57.094 101.344 64.2378 105.137 67.3405 103.863C70.2166 102.682 73.0324 100.013 73.5354 99.75" fill="#ACCE5B"/>
<path d="M65.0874 97.0018C65.0874 97.0018 64.1508 98.6242 63.497 99.7565C60.7311 98.6639 58.2816 98.6326 57.628 99.765C57.094 101.344 64.2378 105.137 67.3405 103.863C70.2166 102.682 73.0324 100.013 73.5354 99.75" stroke="#3F4A54" stroke-width="1.5" stroke-miterlimit="10" stroke-linecap="round" stroke-linejoin="round"/>
<path d="M121.402 56.2752L128.113 71.3719" stroke="#3F4A54" stroke-width="1.5" stroke-miterlimit="10" stroke-linecap="round" stroke-linejoin="round"/>
<path d="M68.7814 36.8352L55.5299 43.8084" stroke="#3F4A54" stroke-width="1.5" stroke-miterlimit="10" stroke-linecap="round" stroke-linejoin="round"/>
<path d="M121.288 69.5412L110.559 99.1882" stroke="#3F4A54" stroke-width="1.5" stroke-miterlimit="10" stroke-linecap="round" stroke-linejoin="round" stroke-dasharray="4 4"/>
<path d="M69.5742 77.7442C69.3247 78.6769 70.2972 79.7398 71.7296 80.1179C73.1705 80.4954 74.534 80.0406 74.7743 79.1052C75.0206 78.1734 74.0573 77.1131 72.6228 76.7339C71.18 76.3552 69.8209 76.8046 69.5742 77.7442Z" fill="#FF8080"/>
<path d="M95.5887 85.7219C95.3424 86.6537 96.3098 87.7163 97.7463 88.0967C99.1842 88.4698 100.547 88.0202 100.791 87.084C101.037 86.1522 100.07 85.0896 98.631 84.7132C97.1944 84.3355 95.833 84.7889 95.5887 85.7219Z" fill="#FF8080"/>
<path d="M102.466 83.4C103.374 80.1755 102.82 77.3028 100.754 76.723C98.6868 76.1384 96.6691 78.0638 95.7585 81.2872" stroke="#3F4A54" stroke-width="1.5" stroke-miterlimit="10" stroke-linecap="round" stroke-linejoin="round"/>
<path d="M102.884 80.0249C102.887 79.5469 102.808 78.8933 102.552 78.3626" stroke="white" stroke-width="1.5" stroke-miterlimit="10" stroke-linecap="round" stroke-linejoin="round"/>
<path d="M69.8872 73.8657C70.7958 70.6412 72.7699 68.4863 74.8343 69.0665C76.8976 69.6488 77.618 72.3405 76.7102 75.5682" stroke="#3F4A54" stroke-width="1.5" stroke-miterlimit="10" stroke-linecap="round" stroke-linejoin="round"/>
<path d="M71.2913 70.7757C71.5363 70.3606 71.9516 69.8463 72.4388 69.524" stroke="white" stroke-width="1.5" stroke-miterlimit="10" stroke-linecap="round" stroke-linejoin="round"/>
<path d="M115.372 103.007L102.433 109.401" stroke="#3F4A54" stroke-width="1.5" stroke-miterlimit="10" stroke-linecap="round" stroke-linejoin="round"/>
<path d="M47.0609 53.8758L60.5892 57.9924C64.0236 59.1243 65.8881 62.8261 64.7532 66.2587C63.6213 69.693 59.9175 71.5564 56.4837 70.4235L42.9372 65.8191" stroke="#3F4A54" stroke-width="1.5" stroke-miterlimit="10" stroke-linecap="round" stroke-linejoin="round"/>
<path d="M55.3382 62.4752C54.4154 64.1738 55.0437 66.2962 56.7403 67.2179C58.4345 68.1437 60.561 67.5177 61.4827 65.8211C62.4044 64.1245 61.7793 62.0013 60.0818 61.0764C58.3842 60.154 56.2608 60.7818 55.3382 62.4752Z" stroke="#3F4A54" stroke-width="1.5" stroke-miterlimit="10" stroke-linecap="round" stroke-linejoin="round"/>
<path d="M90.0151 78.5983C89.0865 78.5327 85.6189 77.4676 84.2953 76.4587C84.2953 76.4587 80.8784 83.4131 84.5713 84.6069C86.1045 85.1063 87.3029 84.204 88.174 82.9769C89.4016 81.2512 90.3921 78.6251 90.0151 78.5983Z" stroke="#3F4A54" stroke-width="1.5" stroke-miterlimit="10" stroke-linecap="round" stroke-linejoin="round"/>
<path d="M83.2243 80.6804C84.567 80.434 85.5246 79.574 88.1158 82.0662" stroke="#3F4A54" stroke-width="1.5" stroke-miterlimit="10" stroke-linecap="round" stroke-linejoin="round"/>
<path d="M42.4929 78.2647L48.2261 90.5906" stroke="#3F4A54" stroke-width="1.5" stroke-miterlimit="10" stroke-linecap="round" stroke-linejoin="round"/>
<path d="M60.7658 79.8122C60.7658 79.8122 54.5945 82.54 51.8141 82.4363C49.0361 82.3309 47.8497 82.818 50.3715 84.5025C56.7091 88.7315 65.23 84.3336 65.23 84.3336" stroke="#3F4A54" stroke-width="1.5" stroke-miterlimit="10" stroke-linecap="round" stroke-linejoin="round"/>
<path d="M125.761 77.8585C125.761 77.8585 130.954 78.4492 136.356 72.4261C138.638 69.8818 140.074 71.0439 138.752 74.531C135.979 81.8333 121.037 88.1245 121.037 88.1245" stroke="#3F4A54" stroke-width="1.5" stroke-miterlimit="10" stroke-linecap="round" stroke-linejoin="round"/>
<path d="M141.095 103.643C148.768 103.74 155.067 97.5991 155.164 89.9261C155.261 82.2531 149.12 75.954 141.447 75.8566C133.774 75.7593 127.475 81.9007 127.377 89.5737C127.28 97.2468 133.422 103.546 141.095 103.643Z" fill="#FF9849"/>
<path d="M142.896 103.155C150.569 103.253 156.868 97.1114 156.965 89.4384C157.063 81.7654 150.921 75.4662 143.248 75.3689C135.575 75.2716 129.276 81.413 129.179 89.086C129.082 96.759 135.223 103.058 142.896 103.155Z" fill="#FFD733" stroke="#FFD733" stroke-miterlimit="10" stroke-linecap="round" stroke-linejoin="round"/>
<path d="M140.795 112.145L151.793 97.3552H202.288L191.789 112.145H140.795Z" fill="url(#paint2_linear_279_5240)"/>
<rect x="119.003" y="111.367" width="21.7953" height="62.2722" fill="url(#paint3_linear_279_5240)"/>
<path d="M140.795 111.367H192.169V173.639H140.795V111.367Z" fill="#E6DBCC"/>
<path d="M141.575 111.367H119.465L106.547 124.6H129.153L141.575 111.367Z" fill="#E7DBCC"/>
<path d="M65.1923 111.838L59.8823 131.655" stroke="#EADECD" stroke-width="2" stroke-linecap="round"/>
<path opacity="0.6" d="M144.214 90.5614C144.214 91.6023 144.624 92.1227 145.445 92.1227C145.472 92.1227 145.492 92.1227 145.505 92.1227C145.882 92.1227 146.218 91.9059 146.514 91.4722C146.81 91.0385 147.032 90.4963 147.18 89.8457C147.503 88.5157 147.665 87.3085 147.665 86.2242H147.483C146.918 86.2242 146.481 86.0869 146.171 85.8122C145.848 85.4942 145.687 85.111 145.687 84.6629C145.687 84.2147 145.815 83.8533 146.07 83.5786C146.38 83.275 146.763 83.1232 147.221 83.1232C148.216 83.1232 148.889 83.6726 149.239 84.7713C150.181 84.5255 151.176 84.1858 152.226 83.7521V84.9882C151.23 85.393 150.302 85.7038 149.441 85.9206C149.454 86.0363 149.461 86.2026 149.461 86.4194C149.407 89.412 148.754 91.5806 147.503 92.9251C146.763 93.7203 145.801 94.1178 144.617 94.1178C143.447 94.1178 142.572 93.5829 141.994 92.5131C141.335 93.5974 140.326 94.1395 138.967 94.1395C138.159 94.1395 137.493 93.8359 136.969 93.2287C136.457 92.6071 136.202 91.877 136.202 91.0385C136.202 90.8939 136.209 90.7204 136.222 90.518C136.505 88.0025 136.74 85.7761 136.928 83.8388C137.413 83.6653 137.837 83.5786 138.2 83.5786C139.155 83.5786 139.633 83.9328 139.633 84.6412C139.633 84.9159 139.532 85.8628 139.33 87.482C139.074 89.5205 138.946 90.6698 138.946 90.93C138.946 91.1758 139.034 91.4216 139.209 91.6673C139.397 91.9131 139.66 92.036 139.996 92.036C140.346 92.036 140.655 91.8697 140.924 91.5372C141.193 91.2047 141.388 90.7999 141.509 90.3228L142.216 83.8388C142.646 83.6653 143.104 83.5786 143.588 83.5786C144.463 83.5786 144.9 83.9328 144.9 84.6412C144.9 84.9014 144.806 85.7472 144.617 87.1784C144.348 89.2024 144.214 90.3301 144.214 90.5614ZM146.837 84.6629C146.837 84.9086 147.032 85.0315 147.423 85.0315C147.463 85.0315 147.503 85.0315 147.544 85.0315C147.449 84.6412 147.308 84.446 147.12 84.446C146.931 84.446 146.837 84.5183 146.837 84.6629Z" fill="white"/>
<path fill-rule="evenodd" clip-rule="evenodd" d="M219.217 88.8695C220.739 88.3754 222.357 89.1247 222.814 90.5336L224.103 94.4998L234.381 91.1614L233.093 87.1952C232.636 85.7863 233.506 84.229 235.026 83.7352L233.913 81.593C233.913 81.593 224.172 82.5709 218.358 87.2759L219.217 88.8695Z" fill="#845EFC"/>
<path fill-rule="evenodd" clip-rule="evenodd" d="M225.995 83.3574L229.088 92.8812L234.382 91.1617L233.094 87.195C232.636 85.7851 233.506 84.2285 235.026 83.7347L233.912 81.5926C233.912 81.5926 230.202 81.9661 225.995 83.3574Z" fill="#8F62ED"/>
<path fill-rule="evenodd" clip-rule="evenodd" d="M228.86 91.3352L227.106 91.9047C226.725 92.0285 226.328 91.8624 226.221 91.5327L225.364 88.8964C225.026 87.855 225.738 86.6797 226.946 86.2872C228.156 85.8943 229.422 86.4273 229.76 87.4686L230.616 90.105" fill="white"/>
<path fill-rule="evenodd" clip-rule="evenodd" d="M228.365 91.4958L230.119 90.9263C230.501 90.8021 230.723 90.4346 230.616 90.105L229.76 87.4686C229.422 86.4273 228.157 85.894 226.947 86.2869C225.739 86.6794 225.026 87.855 225.364 88.8964L226.221 91.5327" fill="white"/>
<path d="M232.131 77.314C232.518 77.7284 232.84 78.2694 233.043 78.8936L234.768 82.9372" stroke="#3F4A54" stroke-width="0.8" stroke-linecap="round" stroke-linejoin="round"/>
<path d="M218.649 88.1723L217.851 83.8038C217.29 82.0766 218.351 80.1697 220.208 79.5665L228.696 76.8098C229.232 76.6358 229.777 76.5883 230.295 76.6502" stroke="#3F4A54" stroke-width="0.8" stroke-linecap="round" stroke-linejoin="round"/>
<path d="M223.852 76.7626L225.029 76.3804C225.511 76.2239 225.955 76.2533 226.018 76.4458L226.288 76.7814" stroke="#3F4A54" stroke-width="0.8" stroke-linecap="round" stroke-linejoin="round"/>
<path d="M222.157 77.9602L222.124 77.4876" stroke="#3F4A54" stroke-width="0.8" stroke-linecap="round" stroke-linejoin="round"/>
<path d="M218.831 96.2125L217.53 92.2065C217.067 90.7827 217.843 89.2439 219.253 88.7859C220.664 88.3277 222.196 89.117 222.658 90.5408L223.959 94.5468" stroke="#3F4A54" stroke-width="0.8" stroke-linecap="round" stroke-linejoin="round"/>
<path d="M234.216 91.2152L232.915 87.2093C232.452 85.7854 233.228 84.2466 234.638 83.7886C236.049 83.3304 237.581 84.1198 238.043 85.5436L239.344 89.5496" stroke="#3F4A54" stroke-width="0.8" stroke-linecap="round" stroke-linejoin="round"/>
<path d="M228.86 91.3352L227.106 91.9047C226.725 92.0285 226.328 91.8624 226.221 91.5327L225.364 88.8964C225.026 87.855 225.738 86.6797 226.946 86.2872C228.156 85.8943 229.422 86.4273 229.76 87.4686L230.616 90.105" stroke="#3F4A54" stroke-width="0.8" stroke-linecap="round" stroke-linejoin="round"/>
<path d="M232.87 92.0575L240.929 89.4401" stroke="#3F4A54" stroke-width="0.8" stroke-linecap="round" stroke-linejoin="round"/>
<path d="M218.216 96.8163L230.671 92.7711" stroke="#3F4A54" stroke-width="0.8" stroke-linecap="round" stroke-linejoin="round"/>
<path d="M222.373 84.6771C224.958 83.6085 228.905 82.3146 234.287 81.4597" stroke="#3F4A54" stroke-width="0.8" stroke-linecap="round" stroke-linejoin="round"/>
<path d="M218.844 86.2796C218.844 86.2796 219.285 85.9412 220.194 85.4498" stroke="#3F4A54" stroke-width="0.8" stroke-linecap="round" stroke-linejoin="round"/>
<path fill-rule="evenodd" clip-rule="evenodd" d="M221.185 90.993C221.382 91.5999 221.049 92.2518 220.443 92.4489C219.836 92.646 219.184 92.3137 218.987 91.7069C218.79 91.1001 219.122 90.4481 219.729 90.251C220.336 90.0539 220.988 90.3862 221.185 90.993Z" fill="white"/>
<path d="M239.445 92.352L221.862 98.0628" stroke="#3F4A54" stroke-width="0.8" stroke-linecap="round" stroke-linejoin="round"/>
<path d="M223.226 94.7848L223.795 96.5383C224.006 97.186 223.452 97.9512 222.564 98.2395L222.129 98.3807C221.242 98.669 220.343 98.3758 220.132 97.7281L219.563 95.9745" stroke="#3F4A54" stroke-width="0.8" stroke-linecap="round" stroke-linejoin="round"/>
<path d="M238.613 89.7875L239.182 91.5411C239.392 92.1888 238.838 92.9539 237.951 93.2422L237.516 93.3834C236.628 93.6717 235.729 93.3786 235.519 92.7308L234.949 90.9773" stroke="#3F4A54" stroke-width="0.8" stroke-linecap="round" stroke-linejoin="round"/>
<path d="M221.077 90.7573C221.121 90.8299 221.157 90.9089 221.185 90.9934C221.382 91.6008 221.05 92.2517 220.443 92.4489C219.835 92.6461 219.184 92.3147 218.987 91.7073C218.79 91.1006 219.122 90.4482 219.729 90.251" stroke="#3F4A54" stroke-width="0.8" stroke-linecap="round" stroke-linejoin="round"/>
<path fill-rule="evenodd" clip-rule="evenodd" d="M237.302 85.7578C237.5 86.3647 237.003 87.0699 236.194 87.3327C235.385 87.5955 234.569 87.3165 234.372 86.7097C234.175 86.1028 234.671 85.3976 235.48 85.1348C236.289 84.872 237.105 85.151 237.302 85.7578Z" fill="white"/>
<path d="M237.186 85.5251C237.235 85.5957 237.275 85.6737 237.303 85.7582C237.5 86.3656 237.004 87.0698 236.194 87.3327C235.385 87.5956 234.569 87.3174 234.372 86.71C234.175 86.1034 234.671 85.3977 235.48 85.1348" stroke="#3F4A54" stroke-width="0.8" stroke-linecap="round" stroke-linejoin="round"/>
<path fill-rule="evenodd" clip-rule="evenodd" d="M20.5158 111.808C20.9705 112.08 21.4132 112.402 21.6595 112.907C22.2172 114.049 21.7153 115.413 20.5397 115.955C20.5312 115.959 20.5232 115.96 20.5147 115.964L21.1059 117.174L22.6326 116.471L30.9267 112.653L27.4323 106.237L17.9074 110.622L18.498 111.832C18.5066 111.829 18.5123 111.823 18.5208 111.819C18.745 111.716 18.9777 111.65 19.211 111.619C19.211 111.619 20.0435 111.526 20.5158 111.808Z" fill="#C367D6"/>
<path fill-rule="evenodd" clip-rule="evenodd" d="M27.8021 110.924C27.8021 112.362 26.519 113.528 24.9376 113.528C23.3561 113.528 22.0736 112.362 22.0736 110.924C22.0736 109.486 23.3561 108.321 24.9376 108.321C26.519 108.321 27.8021 109.486 27.8021 110.924Z" fill="white"/>
<path fill-rule="evenodd" clip-rule="evenodd" d="M33.9385 109.7L33.8646 109.545C33.7927 109.579 33.7172 109.598 33.6433 109.624C33.7386 109.658 33.8391 109.679 33.9385 109.7Z" fill="white"/>
<path d="M30.7746 112.455L30.558 111.998" stroke="#3F4A54" stroke-width="0.7" stroke-linecap="round" stroke-linejoin="round"/>
<path d="M29.8852 110.924L27.8021 107.279" stroke="#3F4A54" stroke-width="0.7" stroke-linecap="round" stroke-linejoin="round" stroke-dasharray="2.22 2.22"/>
<path d="M27.6502 106.726L27.4331 106.269" stroke="#3F4A54" stroke-width="0.7" stroke-linecap="round" stroke-linejoin="round"/>
<path d="M20.5125 111.445C21.065 111.655 21.5339 112.021 21.8144 112.511C22.4491 113.62 21.8778 114.944 20.5397 115.47C20.53 115.473 20.5209 115.475 20.5112 115.478L21.1842 116.653" stroke="#3F4A54" stroke-width="0.7" stroke-linecap="round" stroke-linejoin="round"/>
<path d="M27.2813 106.237L17.9074 110.319L18.4887 111.445C18.4965 111.442 18.5027 111.436 18.5111 111.433C18.7312 111.337 18.9608 111.276 19.1904 111.247" stroke="#3F4A54" stroke-width="0.7" stroke-linecap="round" stroke-linejoin="round"/>
<path d="M32.489 109.883C31.7055 109.755 30.998 109.285 30.6317 108.562C30.0307 107.379 30.571 105.966 31.8372 105.405L31.202 104.154L30.4614 104.482L29.918 104.723L29.2987 104.997L28.3229 105.43" stroke="#3F4A54" stroke-width="0.7" stroke-linecap="round" stroke-linejoin="round"/>
<path d="M22.5944 116.132L34.0514 111.024L33.4753 109.883" stroke="#3F4A54" stroke-width="0.7" stroke-linecap="round" stroke-linejoin="round"/>
<path d="M25.8134 110.574L26.2397 111.471L25.4167 111.712L24.8531 112.487L24.4104 111.602L23.6359 111.183L24.1857 110.395L24.2711 109.362L24.4999 109.478L25.0531 109.76L25.8806 109.54" stroke="#3F4A54" stroke-width="0.7" stroke-linecap="round" stroke-linejoin="round"/>
<rect y="141.209" width="47.2597" height="47.2597" fill="white" fill-opacity="0.01"/>
<path fill-rule="evenodd" clip-rule="evenodd" d="M24.1767 149.041C20.2188 149.041 16.6266 150.62 13.9185 153.187L15.9316 155.541C18.102 153.467 20.9924 152.19 24.1767 152.19C30.9065 152.19 36.3626 157.848 36.3626 164.827C36.3626 171.808 30.9065 177.466 24.1767 177.466V180.614C32.5836 180.614 39.3988 173.547 39.3988 164.827C39.3988 156.109 32.5836 149.041 24.1767 149.041Z" fill="#2A85FD"/>
<path fill-rule="evenodd" clip-rule="evenodd" d="M35.1686 159.401L37.8847 157.998C35.4272 152.704 30.2207 149.041 24.1767 149.041C20.2188 149.041 16.6266 150.62 13.9185 153.187L15.9305 155.541C18.102 153.467 20.9924 152.19 24.1767 152.19C29.0301 152.19 33.209 155.141 35.1686 159.401Z" fill="#2A85FD"/>
<path d="M38.177 158.699C38.9369 160.577 39.355 162.637 39.3584 164.789C39.3835 173.443 32.6195 180.485 24.2342 180.535C18.6426 180.569 13.7163 177.428 11.0685 172.733" stroke="#3F4A54" stroke-linecap="round" stroke-linejoin="round"/>
<path d="M9.59309 169.153C9.21485 167.781 9.01091 166.334 9.01091 164.836C9.00977 156.139 15.6507 149.1 24.1636 149.068C29.0147 149.049 33.278 151.368 36.0453 154.967" stroke="#3F4A54" stroke-linecap="round" stroke-linejoin="round"/>
<path d="M36.3473 163.132C35.1932 153.748 23.733 149.017 16.5953 154.832" stroke="#3F4A54" stroke-linecap="round" stroke-linejoin="round"/>
<path d="M14.1192 157.537C12.9708 159.224 12.2234 161.199 12.0275 163.257" stroke="#3F4A54" stroke-linecap="round" stroke-linejoin="round"/>
<path d="M25.6959 161.628C25.2129 161.419 24.6808 161.309 24.1248 161.328C21.9795 161.397 20.282 163.173 20.3538 165.271C20.3766 165.961 20.5828 166.61 20.9189 167.166C21.0362 167.361 21.1695 167.544 21.3165 167.714C21.4976 167.926 21.7016 168.116 21.9214 168.283C22.5822 168.782 23.3957 169.067 24.2547 169.034C26.4433 168.949 28.0577 167.249 28.0007 165.09C27.9814 164.33 27.7478 163.626 27.3616 163.038" stroke="#3F4A54" stroke-linecap="round" stroke-linejoin="round"/>
<path d="M14.4854 160.096L13.0749 159.394" stroke="#3F4A54" stroke-linecap="round" stroke-linejoin="round"/>
<path d="M20.8397 163.256L15.6171 160.66" stroke="#3F4A54" stroke-linecap="round" stroke-linejoin="round"/>
<path d="M32.6844 160.661L35.2273 159.397" stroke="#3F4A54" stroke-linecap="round" stroke-linejoin="round"/>
<path d="M27.4628 163.258L30.8648 161.566" stroke="#3F4A54" stroke-linecap="round" stroke-linejoin="round"/>
<path d="M24.256 169.149L24.1785 177.405" stroke="#3F4A54" stroke-linecap="round" stroke-linejoin="round"/>
<path d="M36.29 166.884C35.0698 181.071 13.3183 180.82 12.1403 166.7" stroke="#3F4A54" stroke-linecap="round" stroke-linejoin="round"/>
<path fill-rule="evenodd" clip-rule="evenodd" d="M26.0092 165.181C26.0092 166.23 25.1889 167.08 24.1783 167.08C23.1666 167.08 22.3463 166.23 22.3463 165.181C22.3463 164.132 23.1666 163.283 24.1783 163.283C25.1889 163.283 26.0092 164.132 26.0092 165.181Z" fill="#2A85FD"/>
<rect x="165.245" y="158.234" width="34.0505" height="16.0237" fill="white"/>
<rect x="158.234" y="138.205" width="47.2598" height="47.2598" fill="white" fill-opacity="0.01"/>
<path fill-rule="evenodd" clip-rule="evenodd" d="M170.628 148.426L163.728 158.845H200.383L193.861 148.426H170.628Z" fill="#FF9849"/>
<path fill-rule="evenodd" clip-rule="evenodd" d="M200.382 158.845H163.729L170.628 148.427H193.861L200.382 158.845Z" stroke="#3F4A54" stroke-linecap="round" stroke-linejoin="round"/>
<path d="M198.875 163.728V158.846" stroke="#3F4A54" stroke-linecap="round" stroke-linejoin="round"/>
<path d="M198.875 167.669V165.946" stroke="#3F4A54" stroke-linecap="round" stroke-linejoin="round"/>
<path d="M165.747 158.846V169.171" stroke="#3F4A54" stroke-linecap="round" stroke-linejoin="round"/>
<path d="M180.296 158.845V164.524" stroke="#3F4A54" stroke-linecap="round" stroke-linejoin="round"/>
<path d="M180.296 166.919V169.171" stroke="#3F4A54" stroke-linecap="round" stroke-linejoin="round"/>
<path fill-rule="evenodd" clip-rule="evenodd" d="M170.393 165.087V174.427L175.978 174.1V165.087H170.393Z" fill="#FF9849"/>
<path d="M170.391 174.428V165.088H175.978V174.1" stroke="#3F4A54" stroke-linecap="round" stroke-linejoin="round"/>
<path d="M180.296 171.378V174.428H165.746V171.05" stroke="#3F4A54" stroke-linecap="round" stroke-linejoin="round"/>
<path fill-rule="evenodd" clip-rule="evenodd" d="M186.492 169.64H191.561V164.9H186.492V169.64Z" fill="#FF9849"/>
<path fill-rule="evenodd" clip-rule="evenodd" d="M186.492 169.64H191.561V164.9H186.492V169.64Z" stroke="#3F4A54" stroke-linecap="round" stroke-linejoin="round"/>
<mask id="mask0_279_5240" style="mask-type:luminance" maskUnits="userSpaceOnUse" x="191" y="168" width="11" height="7">
<path fill-rule="evenodd" clip-rule="evenodd" d="M191.067 168.628H201.481V174.554H191.067V168.628Z" fill="white"/>
</mask>
<g mask="url(#mask0_279_5240)">
<path fill-rule="evenodd" clip-rule="evenodd" d="M192.267 174.286C190.201 173.301 191.067 170.701 192.866 171.124C193.333 168.637 196.396 167.645 198.703 169.851L198.876 170.449C198.876 170.449 199.937 170.246 200.784 170.817C201.941 171.598 201.533 173.603 200.468 174.188C199.405 174.774 199.794 174.46 198.703 174.54C197.613 174.62 192.267 174.286 192.267 174.286Z" fill="#FF9849"/>
</g>
<path d="M194.885 174.427H183.817" stroke="#3F4A54" stroke-linecap="round" stroke-linejoin="round"/>
<path d="M198.875 174.427H197.192" stroke="#3F4A54" stroke-linecap="round" stroke-linejoin="round"/>
<path d="M192.267 174.428C190.201 173.443 191.067 170.843 192.866 171.266C193.333 168.779 196.396 167.787 198.703 169.991" stroke="#3F4A54" stroke-linecap="round" stroke-linejoin="round"/>
<path d="M198.875 170.11H200.383" stroke="#3F4A54" stroke-linecap="round" stroke-linejoin="round"/>
<rect x="213.316" y="150.223" width="31.046" height="31.046" fill="white" fill-opacity="0.01"/>
<path fill-rule="evenodd" clip-rule="evenodd" d="M219.253 164.5C219.253 164.5 220.858 166.161 222.353 164.615C222.488 164.477 222.638 164.371 222.798 164.305C223.088 164.183 223.526 164.108 223.952 164.444C223.991 164.476 224.027 164.514 224.062 164.554C224.296 164.826 225.397 165.971 226.39 164.661C226.509 164.504 226.646 164.378 226.799 164.295C227.081 164.142 227.508 164.055 227.914 164.542C228.929 166.037 230.087 164.834 230.327 164.554C230.362 164.514 230.397 164.476 230.437 164.445C230.863 164.108 231.3 164.183 231.59 164.305C231.751 164.371 231.901 164.477 232.036 164.615C233.531 166.161 235.136 164.5 235.136 164.5L234.477 173.825C234.477 173.825 234.477 175.95 232.768 175.908L221.621 175.907C219.912 175.949 219.912 173.825 219.912 173.825L219.546 167.782" fill="#5FCA76"/>
<path fill-rule="evenodd" clip-rule="evenodd" d="M230.987 175.832V172.44V171.252C230.987 168.294 232.845 165.121 235.137 165.121V164.345L233.849 175.086C233.794 175.517 233.505 175.832 233.168 175.832H230.987Z" fill="#5FCA76"/>
<path d="M225.351 163.183L224.137 159.39C223.803 158.646 222.105 158.954 221.362 159.288C220.618 159.622 219.26 160.686 219.594 161.429L220.631 163.315" stroke="#3F4A54" stroke-width="0.8" stroke-linecap="round" stroke-linejoin="round"/>
<path d="M220.52 162.278L222.207 161.521" stroke="#3F4A54" stroke-width="0.8" stroke-linecap="round" stroke-linejoin="round"/>
<path d="M223.549 162.52L224.875 161.925" stroke="#3F4A54" stroke-width="0.8" stroke-linecap="round" stroke-linejoin="round"/>
<path d="M220.539 158.506L221.362 159.288L221.339 157.394" stroke="#3F4A54" stroke-width="0.8" stroke-linecap="round" stroke-linejoin="round"/>
<path d="M233.346 163.767L233.776 162.162C234.161 161.03 233.838 159.829 233.059 159.018L233.457 157.851L230.787 156.943L230.39 158.109C229.279 158.277 228.289 159.03 227.903 160.162L226.779 163.127" stroke="#3F4A54" stroke-width="0.8" stroke-linecap="round" stroke-linejoin="round"/>
<path d="M227.596 161.685C228.024 161.875 228.483 162.068 228.945 161.997C229.3 161.942 229.612 161.739 229.941 161.597C229.941 161.597 231.854 160.192 233.394 162.671" stroke="#3F4A54" stroke-width="0.8" stroke-linecap="round" stroke-linejoin="round"/>
<path fill-rule="evenodd" clip-rule="evenodd" d="M233.589 157.887L230.663 156.891C230.293 156.765 230.093 156.358 230.219 155.988L230.261 155.866C230.387 155.496 230.793 155.295 231.164 155.422L234.089 156.418C234.46 156.544 234.659 156.95 234.533 157.321L234.491 157.442C234.366 157.813 233.96 158.013 233.589 157.887Z" stroke="#3F4A54" stroke-width="0.8" stroke-linecap="round" stroke-linejoin="round"/>
<path d="M219.253 164.5C219.253 164.5 220.858 166.161 222.353 164.615C222.488 164.477 222.638 164.371 222.798 164.305C223.088 164.183 223.526 164.108 223.952 164.444C223.991 164.476 224.027 164.514 224.062 164.554C224.296 164.826 225.397 165.971 226.39 164.661C226.509 164.504 226.646 164.378 226.799 164.295C227.081 164.142 227.508 164.055 227.914 164.542C228.929 166.037 230.087 164.834 230.327 164.554C230.362 164.514 230.397 164.476 230.437 164.445C230.863 164.108 231.3 164.183 231.59 164.305C231.751 164.371 231.901 164.477 232.036 164.615C233.531 166.161 235.136 164.5 235.136 164.5L234.477 173.825C234.477 173.825 234.477 175.95 232.768 175.908L221.621 175.907C219.912 175.949 219.912 173.825 219.912 173.825L219.546 167.782" stroke="#3F4A54" stroke-width="0.8" stroke-linecap="round" stroke-linejoin="round"/>
<path d="M235.967 175.909H224.033" stroke="#3F4A54" stroke-width="0.8" stroke-linecap="round" stroke-linejoin="round"/>
<path d="M231.56 168.562L231.131 175.709" stroke="#3F4A54" stroke-width="0.8" stroke-linecap="round" stroke-linejoin="round"/>
<defs>
<radialGradient id="paint0_radial_279_5240" cx="0" cy="0" r="1" gradientUnits="userSpaceOnUse" gradientTransform="translate(129.921 100.571) rotate(90) scale(100.571)">
<stop stop-color="white"/>
<stop offset="1" stop-color="white" stop-opacity="0"/>
</radialGradient>
<linearGradient id="paint1_linear_279_5240" x1="136.742" y1="166.796" x2="136.357" y2="184.899" gradientUnits="userSpaceOnUse">
<stop stop-color="#EBE4DA"/>
<stop offset="1" stop-color="#EBE4DA" stop-opacity="0"/>
</linearGradient>
<linearGradient id="paint2_linear_279_5240" x1="171.541" y1="97.3552" x2="171.541" y2="112.145" gradientUnits="userSpaceOnUse">
<stop stop-color="#E6DBCC"/>
<stop offset="1" stop-color="#D6C6B1"/>
</linearGradient>
<linearGradient id="paint3_linear_279_5240" x1="129.9" y1="111.367" x2="129.9" y2="173.639" gradientUnits="userSpaceOnUse">
<stop stop-color="#D1C1AB"/>
<stop offset="1" stop-color="#E6DBCC"/>
</linearGradient>
</defs>
</svg>
